<svg width="23" height="23" viewBox="0 0 23 23" fill="none" xmlns="http://www.w3.org/2000/svg">
<path d="M7.78561 14.955C7.60662 14.7761 7.5917 14.4951 7.74086 14.2991L7.78561 14.2479L14.8567 7.17687C15.0519 6.9816 15.3685 6.9816 15.5638 7.17687C15.7428 7.35586 15.7577 7.63679 15.6085 7.83277L15.5638 7.88397L8.49271 14.955C8.29745 15.1503 7.98087 15.1503 7.78561 14.955Z" fill="#007A61"/>
<path d="M9.51961 8.04263C9.24347 8.04322 9.01913 7.81985 9.01853 7.5437C9.01799 7.29267 9.20255 7.08444 9.44358 7.04821L9.51746 7.04263L15.2092 7.03037C15.461 7.02983 15.6696 7.21545 15.705 7.4573L15.7103 7.53141L15.6985 13.2236C15.6979 13.4998 15.4736 13.7232 15.1975 13.7226C14.9464 13.7221 14.739 13.5366 14.7038 13.2954L14.6985 13.2215L14.7089 8.03143L9.51961 8.04263Z" fill="#007A61"/>
</svg>
