<svg width="32" height="32" viewBox="0 0 32 32" fill="none" xmlns="http://www.w3.org/2000/svg">
<circle cx="16" cy="16" r="16" fill="#007A61"/>
<mask id="mask0_661_24847" style="mask-type:luminance" maskUnits="userSpaceOnUse" x="10" y="17" width="12" height="7">
<path fill-rule="evenodd" clip-rule="evenodd" d="M10 17.8721H21.8799V23.4026H10V17.8721Z" fill="white"/>
</mask>
<g mask="url(#mask0_661_24847)">
<path fill-rule="evenodd" clip-rule="evenodd" d="M15.9408 18.9971C12.745 18.9971 11.125 19.5461 11.125 20.6298C11.125 21.7233 12.745 22.2776 15.9408 22.2776C19.1357 22.2776 20.755 21.7286 20.755 20.6448C20.755 19.5513 19.1357 18.9971 15.9408 18.9971ZM15.9408 23.4026C14.4715 23.4026 10 23.4026 10 20.6298C10 18.1578 13.3907 17.8721 15.9408 17.8721C17.41 17.8721 21.88 17.8721 21.88 20.6448C21.88 23.1168 18.49 23.4026 15.9408 23.4026Z" fill="white"/>
</g>
<mask id="mask1_661_24847" style="mask-type:luminance" maskUnits="userSpaceOnUse" x="11" y="8" width="9" height="9">
<path fill-rule="evenodd" clip-rule="evenodd" d="M11.957 8.5H19.9221V16.464H11.957V8.5Z" fill="white"/>
</mask>
<g mask="url(#mask1_661_24847)">
<path fill-rule="evenodd" clip-rule="evenodd" d="M15.9401 9.57088C14.3343 9.57088 13.0278 10.8766 13.0278 12.4824C13.0226 14.0829 14.3193 15.3879 15.9183 15.3939L15.9401 15.9294V15.3939C17.5451 15.3939 18.8508 14.0874 18.8508 12.4824C18.8508 10.8766 17.5451 9.57088 15.9401 9.57088ZM15.9403 16.4643H15.9163C13.7248 16.4575 11.9496 14.6702 11.9571 12.4803C11.9571 10.2865 13.7436 8.5 15.9403 8.5C18.1363 8.5 19.9221 10.2865 19.9221 12.4825C19.9221 14.6785 18.1363 16.4643 15.9403 16.4643Z" fill="white"/>
</g>
</svg>
