<svg width="32" height="32" viewBox="0 0 32 32" fill="none" xmlns="http://www.w3.org/2000/svg">
<path d="M11.6665 4.66406V2.66406C11.6665 2.1174 11.2132 1.66406 10.6665 1.66406C10.1198 1.66406 9.6665 2.1174 9.6665 2.66406V4.74406C9.99984 4.70406 10.3065 4.66406 10.6665 4.66406H11.6665Z" fill="#24007A"/>
<path d="M22.3335 4.74406V2.66406C22.3335 2.1174 21.8802 1.66406 21.3335 1.66406C20.7868 1.66406 20.3335 2.1174 20.3335 2.66406V4.66406H21.3335C21.6935 4.66406 22.0002 4.70406 22.3335 4.74406Z" fill="#24007A"/>
<path d="M22.3333 4.74406V6.66406C22.3333 7.21073 21.88 7.66406 21.3333 7.66406C20.7867 7.66406 20.3333 7.21073 20.3333 6.66406V4.66406H11.6667V6.66406C11.6667 7.21073 11.2133 7.66406 10.6667 7.66406C10.12 7.66406 9.66667 7.21073 9.66667 6.66406V4.74406C5.73333 5.10406 4 7.6374 4 11.3307V22.6641C4 26.6641 6 29.3307 10.6667 29.3307H21.3333C26 29.3307 28 26.6641 28 22.6641V11.3307C28 7.6374 26.2667 5.10406 22.3333 4.74406ZM16 22.3307H10.6667C10.12 22.3307 9.66667 21.8774 9.66667 21.3307C9.66667 20.7841 10.12 20.3307 10.6667 20.3307H16C16.5467 20.3307 17 20.7841 17 21.3307C17 21.8774 16.5467 22.3307 16 22.3307ZM21.3333 15.6641H10.6667C10.12 15.6641 9.66667 15.2107 9.66667 14.6641C9.66667 14.1174 10.12 13.6641 10.6667 13.6641H21.3333C21.88 13.6641 22.3333 14.1174 22.3333 14.6641C22.3333 15.2107 21.88 15.6641 21.3333 15.6641Z" fill="#24007A"/>
</svg>
