<svg width="596" height="262" viewBox="0 0 596 262" fill="none" xmlns="http://www.w3.org/2000/svg">
<g clip-path="url(#clip0_3528_45324)">
<rect width="596" height="262" rx="11.5" fill="#24007A"/>
<g opacity="0.8">
<ellipse cx="821.037" cy="-67.966" rx="399.091" ry="291.12" fill="white" fill-opacity="0.1"/>
<ellipse cx="416.671" cy="-241.101" rx="399.091" ry="291.12" fill="white" fill-opacity="0.1"/>
</g>
<path d="M572.383 191.135L544.402 193.799L533.041 197.057C528.183 198.448 523.738 201.031 520.1 204.579L483.483 240.188L476.795 184.855L458.5 186.47L461.551 257.689C462.901 261.974 465.561 265.713 469.146 268.365C472.731 271.017 477.055 272.446 481.494 272.444C486.996 272.373 492.264 270.176 496.22 266.302L522.307 241.458L519.705 274.224L517.294 279.745C534.444 296.694 560.885 302.353 581.428 296.542C581.428 296.542 582.272 293.561 586.305 267.475C589.574 246.344 591.236 200.383 591.236 200.383L572.383 191.135Z" fill="#65C7FA"/>
<path d="M618.493 272.568C618.493 272.568 610.17 226.248 607.146 216.297C603.713 205.062 589.559 199.734 589.559 199.734L585.091 241.306L597.733 290.442C597.733 290.442 612.431 281.581 618.493 272.568Z" fill="#65C7FA"/>
<path d="M519.87 274.726C519.693 274.726 520.333 262.926 521.232 248.392C522.131 233.858 523.085 222.168 523.248 222.168C523.412 222.168 522.785 233.969 521.886 248.489C520.987 263.008 520.033 274.726 519.87 274.726Z" fill="#263238"/>
<path d="M565.762 244.961C565.762 244.961 565.762 245.168 565.585 245.527C565.408 245.886 565.19 246.452 564.945 247.059C564.7 247.666 564.305 248.549 563.814 249.46C563.302 250.51 562.738 251.532 562.125 252.524L561.062 254.264C560.695 254.871 560.245 255.451 559.823 256.085C558.978 257.355 557.929 258.611 556.853 259.95C554.439 262.779 551.782 265.384 548.911 267.734C545.998 270.038 542.889 272.075 539.621 273.821C538.095 274.566 536.651 275.326 535.235 275.864C534.54 276.154 533.872 276.457 533.205 276.692L531.298 277.341C530.085 277.782 528.941 278.031 527.96 278.307C527.119 278.547 526.263 278.736 525.399 278.873L523.778 279.163C523.588 279.184 523.396 279.184 523.206 279.163C523.378 279.075 523.561 279.015 523.751 278.983L525.358 278.583C526.209 278.407 527.05 278.185 527.879 277.92C528.846 277.617 529.963 277.341 531.161 276.871L533.041 276.195C533.695 275.947 534.404 275.629 535.044 275.339C536.406 274.787 537.85 273.959 539.362 273.269C542.583 271.512 545.65 269.48 548.53 267.196C551.378 264.875 554.022 262.308 556.431 259.522C557.507 258.211 558.556 256.983 559.414 255.727C559.85 255.119 560.3 254.54 560.681 253.946L561.771 252.248C562.493 251.172 563.01 250.137 563.514 249.24C564.019 248.342 564.427 247.556 564.727 246.907L565.462 245.416C565.547 245.255 565.647 245.102 565.762 244.961Z" fill="#263238"/>
<g opacity="0.2">
<path opacity="0.2" d="M526.613 278.547C525.621 278.155 524.808 277.405 524.33 276.442C523.852 275.478 523.743 274.37 524.025 273.33C524.355 272.305 524.898 271.363 525.617 270.568C526.336 269.773 527.214 269.143 528.193 268.72C530.161 267.903 532.206 267.293 534.296 266.898C543.292 264.658 551.518 259.982 558.094 253.372C558.694 252.765 559.552 252.088 560.301 252.502C561.309 253.054 560.642 254.573 559.933 255.497C551.472 266.823 539.512 274.952 525.959 278.588" fill="black"/>
</g>
<path d="M591.223 265.144C591.03 264.765 590.888 264.361 590.801 263.943C590.555 263.157 590.242 262.011 589.861 260.59C589.111 257.829 588.131 253.827 587.136 249.451C586.142 245.076 585.379 241.087 584.861 238.203C584.602 236.822 584.412 235.58 584.289 234.766C584.202 234.349 584.161 233.923 584.167 233.496C584.335 233.889 584.454 234.302 584.521 234.724C584.725 235.663 584.984 236.795 585.284 238.12C585.937 241.129 586.782 245.021 587.722 249.313C588.662 253.606 589.575 257.484 590.242 260.493C590.542 261.873 590.787 262.95 590.991 263.888C591.124 264.294 591.202 264.717 591.223 265.144Z" fill="#263238"/>
<path d="M461.741 191.799C461.369 190.928 461.183 189.987 461.196 189.039C461.002 188.101 461.002 187.133 461.196 186.195C461.562 187.068 461.743 188.008 461.728 188.956C461.927 189.892 461.932 190.861 461.741 191.799Z" fill="#263238"/>
<path d="M467.082 191.968C466.753 191.012 466.614 189.999 466.674 188.987C466.528 187.989 466.579 186.971 466.823 185.992C467.174 186.939 467.332 187.949 467.287 188.96C467.426 189.966 467.357 190.991 467.082 191.968Z" fill="#263238"/>
<path d="M472.408 191.621C472.061 190.576 471.895 189.479 471.917 188.377C471.765 187.261 471.806 186.126 472.04 185.023C472.392 186.09 472.558 187.211 472.53 188.336C472.676 189.43 472.635 190.541 472.408 191.621Z" fill="#263238"/>
<path d="M482.691 249.797C482.564 248.161 482.633 246.516 482.896 244.897C482.961 243.26 483.226 241.637 483.686 240.066C483.822 241.701 483.758 243.347 483.495 244.966C483.429 246.604 483.159 248.227 482.691 249.797Z" fill="#263238"/>
<path d="M600.923 206.637C600.923 206.747 599.452 206.637 597.177 207.147C594.196 207.764 591.426 209.158 589.14 211.192C586.854 213.225 585.131 215.827 584.14 218.741C583.364 220.963 583.255 222.454 583.132 222.44C583.082 222.092 583.082 221.739 583.132 221.391C583.234 220.454 583.426 219.53 583.704 218.631C584.626 215.597 586.366 212.883 588.726 210.796C591.087 208.709 593.976 207.331 597.068 206.816C597.994 206.655 598.934 206.585 599.874 206.609C600.223 206.555 600.578 206.564 600.923 206.637Z" fill="#263238"/>
<path d="M609.571 230.734C608.454 231.333 607.287 231.832 606.084 232.225C603.891 233.067 600.84 234.157 597.434 235.234C594.028 236.31 590.909 237.18 588.634 237.746C587.425 238.12 586.185 238.384 584.929 238.533C586.096 238.04 587.298 237.639 588.525 237.332L597.257 234.654L605.948 231.894C607.126 231.417 608.337 231.03 609.571 230.734Z" fill="#FAFAFA"/>
<path d="M586.018 249.311C585.801 249.342 585.581 249.342 585.364 249.311L583.511 249.035L576.7 247.917C570.979 246.965 563.078 245.681 554.278 244.37C545.478 243.059 537.509 241.927 531.801 241.168L524.99 240.243L523.137 239.981C522.92 239.958 522.705 239.911 522.497 239.843C522.714 239.813 522.934 239.813 523.151 239.843L525.017 239.995C526.638 240.147 528.981 240.395 531.828 240.726C537.604 241.375 545.573 242.396 554.346 243.694C563.119 244.991 571.047 246.358 576.768 247.42C579.629 247.945 581.931 248.4 583.58 248.732L585.419 249.118C585.624 249.163 585.825 249.228 586.018 249.311Z" fill="#FAFAFA"/>
<path d="M583.403 214.093C583.403 214.258 570.829 212.492 555.395 210.159C539.961 207.826 527.469 205.798 527.497 205.632C527.524 205.466 540.043 207.219 555.49 209.552C570.938 211.884 583.416 213.927 583.403 214.093Z" fill="#FAFAFA"/>
<path d="M517.728 244.968C517.052 243.739 516.456 242.467 515.944 241.159C514.84 238.619 513.437 235.417 511.857 231.87C510.277 228.323 508.833 225.135 507.77 222.609C507.137 221.356 506.59 220.06 506.136 218.73C506.376 219.025 506.577 219.35 506.735 219.697C507.089 220.332 507.566 221.27 508.097 222.457C509.269 224.776 510.822 227.978 512.429 231.635C514.037 235.293 515.399 238.536 516.339 241.021C516.816 242.222 517.183 243.215 517.415 243.905C517.571 244.242 517.677 244.6 517.728 244.968Z" fill="#FAFAFA"/>
<path d="M492.774 269.646C492.61 269.646 491.016 262.593 489.205 253.815C487.393 245.037 486.071 237.887 486.235 237.859C486.398 237.832 487.992 244.968 489.831 253.69C491.67 262.413 492.937 269.604 492.774 269.646Z" fill="#FAFAFA"/>
<path d="M482.461 231.164C478.879 232.258 475.241 233.152 471.563 233.842C467.939 234.734 464.269 235.425 460.57 235.912C464.152 234.821 467.79 233.928 471.468 233.234C475.094 232.35 478.763 231.659 482.461 231.164Z" fill="#FAFAFA"/>
<path d="M478.824 199.036C477.901 199.354 476.946 199.567 475.977 199.67C474.192 199.974 471.726 200.333 469.002 200.65C466.277 200.968 463.785 201.175 461.986 201.285C461.013 201.389 460.031 201.389 459.058 201.285C460.002 201.029 460.97 200.867 461.946 200.802L468.934 200.002L475.908 199.201C476.873 199.052 477.849 198.997 478.824 199.036Z" fill="#FAFAFA"/>
<path d="M488.251 143.277C488.578 143.94 497.282 189.252 497.282 189.252L476.767 190.218L468.825 151.255L488.251 143.277Z" fill="#455A64"/>
<path d="M497.283 189.251L499.626 188.243L490.758 143.58L487.965 143.387L497.283 189.251Z" fill="#263238"/>
<path d="M479.997 153.185C480.031 153.331 480.033 153.484 480.005 153.632C479.976 153.78 479.918 153.92 479.832 154.044C479.747 154.167 479.637 154.271 479.509 154.349C479.382 154.426 479.24 154.476 479.092 154.494C478.944 154.513 478.795 154.5 478.652 154.456C478.51 154.412 478.378 154.338 478.266 154.239C478.153 154.141 478.063 154.019 478 153.882C477.937 153.746 477.902 153.598 477.9 153.447C477.866 153.3 477.864 153.148 477.892 153C477.921 152.852 477.979 152.711 478.065 152.588C478.15 152.464 478.26 152.36 478.388 152.283C478.515 152.205 478.657 152.155 478.805 152.137C478.953 152.119 479.102 152.132 479.245 152.176C479.387 152.22 479.519 152.293 479.631 152.392C479.744 152.491 479.834 152.612 479.897 152.749C479.96 152.885 479.995 153.034 479.997 153.185Z" fill="#263238"/>
<path d="M475.774 184.987L475.461 179.052L484.22 175.395L480.815 167.114C480.419 166.208 479.843 165.395 479.122 164.725C478.401 164.056 477.552 163.545 476.626 163.225C475.701 162.905 474.721 162.782 473.747 162.865C472.772 162.947 471.825 163.233 470.966 163.705L467.451 165.637C466.213 166.318 465.13 167.255 464.271 168.386C463.412 169.518 462.797 170.819 462.465 172.207C461.518 176.994 460.84 181.833 460.436 186.699" fill="#EB996E"/>
<path d="M577.314 132.301C580.651 134.371 581.4 138.884 581.7 142.846C582 146.807 582.504 151.279 585.637 153.653C588.211 155.613 592.366 155.958 593.415 159.049C593.66 159.779 593.675 160.568 593.459 161.307C593.243 162.046 592.806 162.698 592.208 163.175C591.61 163.652 590.882 163.929 590.122 163.969C589.362 164.009 588.609 163.809 587.966 163.397C588.646 164.56 588.945 165.912 588.82 167.258C588.696 168.605 588.153 169.876 587.272 170.891C585.378 172.782 581.618 172.465 580.46 170.008C580.638 170.419 580.731 170.862 580.733 171.31C580.734 171.759 580.645 172.203 580.47 172.615C580.295 173.027 580.039 173.398 579.716 173.705C579.394 174.012 579.013 174.249 578.596 174.401C578.18 174.553 577.737 174.616 577.296 174.587C576.854 174.558 576.423 174.437 576.029 174.233C575.635 174.028 575.288 173.743 575.007 173.396C574.726 173.049 574.519 172.648 574.398 172.216" fill="#263238"/>
<path d="M560.028 207.705C561.939 207.828 563.856 207.562 565.664 206.923C567.473 206.285 569.137 205.286 570.559 203.985C571.98 202.685 573.131 201.11 573.943 199.352C574.754 197.595 575.211 195.69 575.285 193.751L577.015 147.693C577.192 144.913 576.816 142.126 575.911 139.495C575.006 136.864 573.59 134.444 571.746 132.378C569.902 130.311 567.668 128.64 565.175 127.464C562.683 126.287 559.983 125.629 557.235 125.527H556.159C550.952 125.64 545.978 127.737 542.229 131.4C538.479 135.063 536.231 140.024 535.93 145.292C535.344 155.45 534.813 166.685 535.004 172.123C535.372 183.386 546.528 184.89 546.528 184.89L546.61 193.268C546.63 196.948 548.025 200.483 550.515 203.162C553.005 205.841 556.404 207.464 560.028 207.705Z" fill="#EB996E"/>
<path d="M546.514 184.724C551.646 184.708 556.658 183.147 560.912 180.238C560.912 180.238 557.657 188.382 546.541 187.65L546.514 184.724Z" fill="#AA6550"/>
<path d="M539.975 152.412C539.976 152.624 540.02 152.834 540.103 153.03C540.185 153.225 540.306 153.402 540.457 153.55C540.608 153.697 540.786 153.813 540.982 153.89C541.177 153.968 541.386 154.004 541.596 153.999C541.998 154.006 542.387 153.852 542.678 153.571C542.969 153.289 543.138 152.902 543.149 152.494C543.135 152.082 542.967 151.689 542.679 151.397C542.39 151.105 542.003 150.935 541.596 150.921C541.392 150.908 541.188 150.937 540.995 151.005C540.802 151.073 540.625 151.18 540.474 151.319C540.323 151.458 540.201 151.626 540.115 151.814C540.029 152.002 539.981 152.205 539.975 152.412Z" fill="#263238"/>
<path d="M538.435 150.756C538.639 150.963 539.797 150.038 541.527 149.996C543.257 149.955 544.511 150.811 544.688 150.59C544.865 150.369 544.565 150.121 544.006 149.734C543.259 149.226 542.372 148.97 541.473 149.003C540.587 149.018 539.728 149.317 539.021 149.858C538.503 150.286 538.34 150.659 538.435 150.756Z" fill="#263238"/>
<path d="M556.962 152.407C556.966 152.827 557.132 153.229 557.425 153.526C557.718 153.822 558.115 153.991 558.529 153.994C558.733 154.006 558.937 153.975 559.129 153.905C559.32 153.835 559.497 153.727 559.646 153.586C559.796 153.446 559.917 153.277 560.001 153.088C560.085 152.9 560.131 152.697 560.136 152.49C560.133 152.069 559.967 151.666 559.675 151.367C559.382 151.068 558.985 150.896 558.57 150.889C558.365 150.878 558.16 150.909 557.967 150.98C557.774 151.05 557.598 151.16 557.448 151.302C557.297 151.444 557.177 151.614 557.094 151.804C557.01 151.994 556.966 152.199 556.962 152.407Z" fill="#263238"/>
<path d="M555.219 150.714C555.424 150.907 556.581 149.982 558.311 149.955C560.042 149.927 561.295 150.755 561.472 150.548C561.649 150.341 561.363 150.065 560.804 149.679C560.054 149.177 559.169 148.921 558.271 148.947C557.377 148.956 556.511 149.261 555.805 149.817C555.301 150.231 555.137 150.617 555.219 150.714Z" fill="#263238"/>
<path d="M549.306 163.685C548.421 163.415 547.506 163.262 546.582 163.23C546.146 163.23 545.724 163.119 545.642 162.816C545.583 162.338 545.678 161.853 545.914 161.435L547.045 158.109C548.186 155.229 549.097 152.262 549.77 149.234C548.413 152.015 547.274 154.899 546.364 157.861C545.955 159.061 545.56 160.193 545.192 161.284C544.933 161.824 544.866 162.438 545.002 163.023C545.074 163.173 545.176 163.307 545.303 163.414C545.43 163.521 545.578 163.599 545.737 163.644C545.982 163.706 546.234 163.738 546.487 163.74C547.425 163.841 548.372 163.823 549.306 163.685Z" fill="#263238"/>
<path d="M554.36 164.762C554.088 164.762 554.115 166.639 552.562 168.006C551.009 169.372 549.02 169.206 549.02 169.469C549.02 169.731 549.47 169.827 550.301 169.827C551.386 169.823 552.434 169.426 553.257 168.709C553.651 168.363 553.975 167.94 554.209 167.467C554.443 166.993 554.582 166.477 554.619 165.949C554.701 165.217 554.483 164.748 554.36 164.762Z" fill="#263238"/>
<path d="M554.645 143.933C554.823 144.403 556.525 144.141 558.541 144.334C560.558 144.527 562.179 145.051 562.437 144.624C562.546 144.43 562.26 143.989 561.593 143.547C560.715 142.996 559.721 142.665 558.691 142.581C557.664 142.482 556.628 142.628 555.667 143.009C554.932 143.326 554.564 143.713 554.645 143.933Z" fill="#263238"/>
<path d="M538.954 145.73C539.268 146.117 540.439 145.73 541.842 145.634C543.245 145.537 544.471 145.841 544.73 145.427C544.989 145.012 544.648 144.833 544.117 144.474C543.406 144.043 542.585 143.837 541.757 143.881C540.93 143.925 540.134 144.218 539.472 144.723C538.982 145.137 538.873 145.592 538.954 145.73Z" fill="#263238"/>
<path d="M564.753 135.613C566.56 136.985 567.771 139.013 568.131 141.272V141.492C568.635 144.708 568.622 147.966 569.153 151.154C569.522 154.404 570.962 157.433 573.24 159.753C574.234 160.636 575.964 161.229 576.713 160.153C576.973 159.701 577.1 159.184 577.081 158.662C577.503 150.892 579.451 143.963 579.261 135.861C579.239 134.773 578.963 133.706 578.457 132.746C577.95 131.787 577.227 130.962 576.346 130.34C574.643 129.153 572.559 127.939 570.72 128.877C568.88 129.816 566.537 133.391 565.121 134.923" fill="#263238"/>
<path d="M573.376 152.884C573.566 152.787 580.963 150.427 580.895 158.128C580.827 165.83 573.185 164.16 573.185 163.939C573.185 163.718 573.376 152.884 573.376 152.884Z" fill="#EB996E"/>
<path d="M575.529 161.035C575.529 161.035 575.665 161.132 575.883 161.242C576.04 161.309 576.209 161.344 576.38 161.344C576.551 161.344 576.72 161.309 576.877 161.242C577.357 160.928 577.747 160.493 578.009 159.98C578.272 159.467 578.398 158.894 578.376 158.316C578.398 157.653 578.277 156.994 578.022 156.384C577.953 156.142 577.826 155.921 577.652 155.74C577.479 155.559 577.264 155.425 577.027 155.349C576.877 155.304 576.716 155.316 576.573 155.382C576.431 155.448 576.316 155.563 576.251 155.707C576.142 155.914 576.251 156.066 576.155 156.08C576.06 156.094 575.992 155.956 576.046 155.638C576.101 155.449 576.21 155.281 576.36 155.155C576.571 154.996 576.835 154.927 577.095 154.962C577.406 155.03 577.694 155.178 577.932 155.39C578.17 155.603 578.351 155.874 578.458 156.177C578.78 156.846 578.934 157.586 578.907 158.33C578.941 159.008 578.78 159.682 578.444 160.27C578.108 160.857 577.611 161.334 577.014 161.642C576.808 161.696 576.593 161.703 576.384 161.665C576.175 161.627 575.976 161.544 575.801 161.421C575.542 161.228 575.501 161.049 575.529 161.035Z" fill="#AA6550"/>
<path d="M571.717 130.187C573.296 126.874 568.716 122.284 565.404 121.097C562.092 119.909 557.788 122.006 554.536 123.413C552.479 124.322 550.434 125.539 548.258 125.495C546.802 125.352 545.371 124.942 544.014 124.278C542.647 123.624 541.187 123.314 539.721 123.369C538.999 123.421 538.302 123.709 537.703 124.204C537.103 124.7 536.623 125.384 536.313 126.184C536.184 126.597 536.128 127.039 536.149 127.48C536.171 127.921 536.268 128.351 536.435 128.743C536.603 129.134 536.837 129.477 537.121 129.749C537.405 130.021 537.733 130.215 538.083 130.319C537.616 130.023 537.097 129.869 536.571 129.87C536.045 129.872 535.527 130.029 535.061 130.327C534.595 130.626 534.194 131.058 533.893 131.587C533.591 132.116 533.398 132.726 533.33 133.366C533.262 134.005 533.32 134.656 533.5 135.262C533.68 135.868 533.976 136.412 534.364 136.848C534.751 137.284 535.219 137.599 535.727 137.767C536.235 137.935 536.768 137.95 537.282 137.812C536.313 136.961 534.891 138.457 535.022 139.908C535.17 140.626 535.468 141.284 535.888 141.817C536.307 142.349 536.833 142.738 537.413 142.943C540.319 144.15 543.486 144.004 546.309 142.533C549.167 141.272 551.809 139.351 554.679 137.987C557.549 136.624 562.248 134.219 565.141 135.392C567.27 136.243 568.728 139.322 569.924 138.603C570.469 138.213 570.934 137.674 571.283 137.029C571.631 136.383 571.853 135.647 571.933 134.879C572.063 133.326 571.991 131.757 571.717 130.231" fill="#263238"/>
<g filter="url(#filter0_d_3528_45324)">
<ellipse cx="505.475" cy="132.209" rx="10.1213" ry="11.4625" fill="white"/>
</g>
<path d="M504.8 125.14C505.188 124.808 505.76 124.808 506.147 125.14L510.219 128.634C510.418 128.804 510.544 129.044 510.573 129.304L511.236 135.295C511.285 135.732 511.051 136.152 510.654 136.341L505.919 138.602C505.637 138.736 505.31 138.736 505.028 138.602L500.293 136.341C499.896 136.152 499.663 135.732 499.711 135.295L500.374 129.304C500.403 129.044 500.53 128.804 500.728 128.634L504.8 125.14Z" fill="#ED7D31"/>
<path d="M505.964 129.507L506.458 130.628C506.526 130.784 506.706 130.933 506.858 130.962L507.755 131.131C508.328 131.239 508.463 131.71 508.05 132.175L507.352 132.965C507.234 133.098 507.17 133.356 507.206 133.541L507.406 134.519C507.563 135.292 507.201 135.592 506.596 135.187L505.756 134.624C505.604 134.522 505.353 134.522 505.199 134.624L504.358 135.187C503.757 135.592 503.391 135.289 503.549 134.519L503.748 133.541C503.785 133.356 503.72 133.098 503.602 132.965L502.905 132.175C502.494 131.71 502.626 131.239 503.2 131.131L504.097 130.962C504.246 130.933 504.426 130.784 504.493 130.628L504.988 129.507C505.258 128.899 505.696 128.899 505.964 129.507Z" fill="white"/>
</g>
<defs>
<filter id="filter0_d_3528_45324" x="491.109" y="117.916" width="28.7329" height="31.416" filterUnits="userSpaceOnUse" color-interpolation-filters="sRGB">
<feFlood flood-opacity="0" result="BackgroundImageFix"/>
<feColorMatrix in="SourceAlpha" type="matrix" values="0 0 0 0 0 0 0 0 0 0 0 0 0 0 0 0 0 0 127 0" result="hardAlpha"/>
<feOffset dy="1.41504"/>
<feGaussianBlur stdDeviation="2.12256"/>
<feComposite in2="hardAlpha" operator="out"/>
<feColorMatrix type="matrix" values="0 0 0 0 0.888021 0 0 0 0 0.888021 0 0 0 0 0.888021 0 0 0 0.6 0"/>
<feBlend mode="normal" in2="BackgroundImageFix" result="effect1_dropShadow_3528_45324"/>
<feBlend mode="normal" in="SourceGraphic" in2="effect1_dropShadow_3528_45324" result="shape"/>
</filter>
<clipPath id="clip0_3528_45324">
<rect width="596" height="262" rx="11.5" fill="white"/>
</clipPath>
</defs>
</svg>
