<svg width="20" height="20" viewBox="0 0 20 20" fill="none" xmlns="http://www.w3.org/2000/svg">
<mask id="mask0_893_13016" style="mask-type:luminance" maskUnits="userSpaceOnUse" x="11" y="1" width="9" height="8">
<path fill-rule="evenodd" clip-rule="evenodd" d="M11.9617 1.66797H19.0775V8.77865H11.9617V1.66797Z" fill="white"/>
</mask>
<g mask="url(#mask0_893_13016)">
<path fill-rule="evenodd" clip-rule="evenodd" d="M18.4523 8.77865C18.1381 8.77865 17.8681 8.54281 17.8323 8.22365C17.5164 5.41031 15.3314 3.22698 12.5173 2.91448C12.1748 2.87615 11.9273 2.56781 11.9656 2.22448C12.0031 1.88198 12.3089 1.62948 12.6556 1.67281C16.0539 2.05031 18.6931 4.68615 19.0739 8.08365C19.1123 8.42698 18.8656 8.73615 18.5231 8.77448C18.4998 8.77698 18.4756 8.77865 18.4523 8.77865Z" fill="#007A61"/>
</g>
<path fill-rule="evenodd" clip-rule="evenodd" d="M15.5022 8.78793C15.2089 8.78793 14.948 8.58127 14.8897 8.28293C14.6497 7.0496 13.6989 6.09877 12.4672 5.8596C12.128 5.79377 11.9072 5.46627 11.973 5.1271C12.0389 4.78793 12.3722 4.56627 12.7055 4.63293C14.4397 4.9696 15.7789 6.30793 16.1164 8.04293C16.1822 8.38293 15.9614 8.71043 15.623 8.77627C15.5822 8.78377 15.5422 8.78793 15.5022 8.78793Z" fill="#007A61"/>
<path fill-rule="evenodd" clip-rule="evenodd" d="M2.74056 3.40784L2.80101 3.34467C4.4072 1.73834 5.45316 1.31256 6.56918 1.95432C6.89021 2.13893 7.19117 2.39733 7.60041 2.81298L8.85572 4.11466C9.54908 4.87124 9.7067 5.59695 9.48093 6.44685L9.44982 6.55936L9.4153 6.67123L9.24749 7.16359C8.88831 8.26774 9.03827 8.8907 10.3162 10.1683C11.6451 11.4969 12.2654 11.6056 13.4547 11.19L13.6667 11.1163L13.923 11.033L14.0352 11.0019C14.9386 10.7609 15.7016 10.9532 16.511 11.762L17.5224 12.739L17.8201 13.0318C18.1502 13.3684 18.3684 13.6351 18.5295 13.917C19.1673 15.0327 18.7411 16.0781 17.0886 17.7244L16.9314 17.8837C16.6846 18.1215 16.4541 18.2918 16.1155 18.4526C15.547 18.7225 14.8755 18.8243 14.0951 18.7158C12.1722 18.4483 9.73343 16.9311 6.64319 13.8417C6.39164 13.5902 6.15071 13.3436 5.92017 13.1017L5.47286 12.6243C1.28131 8.07034 0.911533 5.27287 2.62927 3.51839L2.74056 3.40784ZM6.58864 3.56874C6.31714 3.30108 6.11993 3.13792 5.94606 3.03793C5.56145 2.81677 5.14621 2.91026 4.3777 3.5717L4.13623 3.78742C4.09411 3.8263 4.05103 3.86666 4.00694 3.90854L3.73005 4.17823L3.7051 4.2094L3.51738 4.39799C3.06376 4.86134 2.84888 5.42683 3.03405 6.39936C3.33789 7.99521 4.72864 10.1601 7.52696 12.9577C10.4427 15.8727 12.6643 17.2547 14.2673 17.4777C15.2018 17.6076 15.6785 17.3813 16.1646 16.8833L16.5353 16.5092C16.7091 16.3273 16.8577 16.1624 16.9831 16.0118L17.1542 15.7962C17.5914 15.2139 17.6313 14.8645 17.4443 14.5374C17.3732 14.4129 17.2697 14.2764 17.119 14.1097L16.9147 13.8938L16.7937 13.7728L15.5177 12.5406C15.0913 12.1474 14.7999 12.0916 14.3574 12.2097L14.2297 12.2464L13.7011 12.4258C12.1677 12.9211 11.0615 12.6809 9.43241 11.0523C7.7452 9.36551 7.54733 8.23911 8.11264 6.61728L8.14891 6.51306L8.24919 6.21091L8.29849 6.01833C8.38591 5.59919 8.2861 5.30695 7.83554 4.85631C7.81698 4.83776 7.79625 4.81685 7.77369 4.79397L6.58864 3.56874Z" fill="#007A61"/>
</svg>
