<svg width="342" height="207" viewBox="0 0 342 207" fill="none" xmlns="http://www.w3.org/2000/svg">
<g clip-path="url(#clip0_4830_15677)">
<rect y="0.782227" width="342" height="205.426" rx="8.85936" fill="#032F25"/>
<path d="M222.214 198.889H132.708V206.534H222.214V198.889Z" fill="#455A64"/>
<path d="M265.642 239.542L265.635 239.841L265.053 286.059L236.814 285.491L242.614 144.585H266.465L265.642 239.542Z" fill="#455A64"/>
<path d="M260.262 265.111C260.319 260.885 260.387 256.661 260.468 252.44C260.634 244.002 260.79 235.557 260.936 227.105C261.249 210.305 261.521 193.505 261.753 176.705C261.895 167.222 261.888 157.738 262.136 148.269H262.172C262.328 156.709 262.235 165.163 262.221 173.61C262.207 182.058 262.172 190.505 262.086 198.952C261.923 215.755 261.689 232.564 261.291 249.352C261.178 254.094 261.064 258.829 260.901 263.549C260.738 268.27 260.631 273.033 260.298 277.746C260.298 277.761 260.292 277.776 260.281 277.786C260.27 277.797 260.256 277.803 260.241 277.803C260.226 277.803 260.211 277.797 260.201 277.786C260.19 277.776 260.184 277.761 260.184 277.746C260.106 273.594 260.212 269.334 260.262 265.111Z" fill="#263238"/>
<path d="M266.466 144.876L265.841 216.82L246.718 144.592H266.459L266.466 144.876Z" fill="#263238"/>
<path d="M245.057 144.564C245.163 145.053 246.824 152.791 248.556 159.435C249.813 164.29 251.105 168.557 251.85 168.997C252.595 169.437 256.783 171.311 258.153 171.879C258.153 171.879 267.382 217.856 272.23 232.11C276.716 245.271 295.286 280.437 295.286 280.437L322.218 266.822C322.218 266.822 301.185 231.138 298.97 224.735C295.542 214.797 282.693 166.335 282.693 166.335C282.693 166.335 282.793 151.158 277.682 144.535L245.057 144.564Z" fill="#455A64"/>
<path d="M275.793 162.147C275.083 161.962 274.267 161.898 273.514 161.785C272.904 161.685 272.301 161.579 271.697 161.444C270.543 161.237 269.45 160.777 268.496 160.095C267.54 159.217 266.826 158.107 266.423 156.872C266.125 156.163 265.813 155.453 265.5 154.778C265.351 154.438 265.195 154.068 265.039 153.77C264.827 153.377 264.637 152.972 264.471 152.556C264.471 152.5 264.357 152.556 264.379 152.556C264.483 152.842 264.568 153.133 264.634 153.43C264.741 153.763 264.833 154.104 264.939 154.445C265.124 155.048 265.309 155.651 265.507 156.248C265.804 157.354 266.236 158.42 266.792 159.421C267.907 161.195 269.894 161.905 271.882 162.161C272.45 162.232 273.025 162.274 273.6 162.303C274.322 162.37 275.049 162.37 275.772 162.303C275.785 162.295 275.796 162.285 275.805 162.272C275.813 162.259 275.819 162.245 275.821 162.23C275.823 162.215 275.822 162.2 275.817 162.185C275.812 162.171 275.804 162.157 275.793 162.147Z" fill="#263238"/>
<path d="M249.679 167.939C252.601 169.003 255.425 170.318 258.119 171.872C258.137 171.885 258.15 171.904 258.156 171.926C258.162 171.948 258.16 171.971 258.151 171.991C258.142 172.012 258.126 172.029 258.106 172.04C258.086 172.05 258.063 172.053 258.041 172.049C255.201 170.821 252.298 169.657 249.522 168.28C249.477 168.259 249.442 168.221 249.425 168.175C249.408 168.128 249.409 168.076 249.43 168.031C249.451 167.986 249.489 167.951 249.535 167.934C249.582 167.916 249.633 167.918 249.679 167.939Z" fill="#263238"/>
<path d="M248.82 148.461C248.82 148.361 249.005 148.34 248.998 148.461C248.998 151.84 249.196 154.807 249.48 157.966C249.608 159.428 250.786 167.527 253.328 166.931C253.754 166.832 253.974 166.413 254.038 165.774C254.025 164.935 253.911 164.101 253.697 163.29C253.42 161.6 253.193 159.896 253.044 158.186C252.749 154.999 252.785 151.789 253.15 148.61C253.155 148.592 253.166 148.577 253.181 148.566C253.196 148.555 253.213 148.549 253.232 148.549C253.25 148.549 253.268 148.555 253.283 148.566C253.297 148.577 253.308 148.592 253.313 148.61C253.237 153.031 253.496 157.452 254.087 161.834C254.407 163.964 255.464 167.109 253.264 167.428C251.063 167.747 249.565 162.459 249.296 160.997C248.594 156.856 248.434 152.642 248.82 148.461Z" fill="#263238"/>
<path d="M253.263 167.116C253.487 167.662 253.677 168.222 253.831 168.791C254 169.245 254.08 169.727 254.065 170.211C254.058 170.228 254.046 170.242 254.031 170.252C254.016 170.263 253.998 170.268 253.98 170.268C253.962 170.268 253.944 170.263 253.929 170.252C253.914 170.242 253.902 170.228 253.895 170.211C253.63 169.797 253.431 169.345 253.306 168.87C253.107 168.351 252.908 167.833 252.724 167.308C252.711 167.272 252.705 167.235 252.707 167.197C252.709 167.16 252.719 167.123 252.735 167.089C252.751 167.055 252.774 167.025 252.802 166.999C252.829 166.974 252.862 166.955 252.897 166.942C252.933 166.93 252.97 166.924 253.008 166.926C253.046 166.928 253.082 166.937 253.116 166.954C253.15 166.97 253.181 166.992 253.206 167.02C253.231 167.048 253.25 167.081 253.263 167.116Z" fill="#263238"/>
<path d="M314.957 262.385C311.123 255.166 307.148 248.011 303.201 240.87C301.249 237.32 299.205 233.863 297.338 230.293C295.58 226.756 294.154 223.063 293.079 219.262C290.713 211.553 288.465 203.808 286.335 196.028C284.206 188.248 282.216 180.44 280.365 172.603C279.897 170.644 279.379 168.684 279.002 166.697C278.665 164.697 278.665 162.655 279.002 160.656C279.286 158.791 279.301 156.896 279.045 155.027C278.745 153.162 278.303 151.323 277.725 149.525C277.427 148.574 277.107 147.637 276.781 146.686C276.745 146.587 276.582 146.629 276.617 146.736C277.774 150.541 278.967 154.381 278.711 158.406C278.598 160.337 278.08 162.239 278.115 164.184C278.245 166.106 278.573 168.009 279.095 169.863C280.926 177.756 282.892 185.617 284.994 193.444C287.095 201.272 289.317 209.066 291.659 216.827C292.699 220.639 293.982 224.38 295.499 228.028C297.125 231.634 299.177 235.042 301.114 238.485C305.118 245.583 309.15 252.682 313.274 259.78C313.8 260.675 314.327 261.564 314.857 262.449C314.9 262.492 314.985 262.442 314.957 262.385Z" fill="#263238"/>
<path d="M138.422 118.058C136.243 118.768 125.177 105.835 126.937 104.266C127.327 103.925 129.279 101.277 129.698 100.717C131.196 98.7005 132.083 95.7475 133.063 91.247C133.894 87.4422 134.689 81.6853 136.754 82.0615C139.771 82.5868 139.636 89.9835 139.303 94.2213C141.397 93.2488 143.299 92.61 144.541 92.6384C148.666 92.7448 155.899 108.191 152.527 110.725C149.333 113.167 140.658 117.32 138.422 118.058Z" fill="#AD6359"/>
<path d="M259.808 108.432C257.558 113.401 243.851 130.807 235.474 131.24C226.956 131.673 209.281 118.2 207.08 117.384C201.068 115.147 212.979 97.2023 216.074 99.3674C221.249 102.973 234.63 115.694 237.086 114.679C242.246 112.549 246.314 109.383 253.81 104.982C259.013 101.916 262.264 102.988 259.808 108.432Z" fill="#AD6359"/>
<path d="M213.418 119.249C215.654 118.738 220.432 103.994 218.849 102.248C218.551 101.915 216.719 100.119 216.045 99.3661C213.837 96.7602 212.074 93.8077 210.827 90.6278C209.5 86.9649 207.952 81.3997 205.951 82.0102C203.04 82.933 204.148 90.2445 205.042 94.3971C202.834 93.6873 200.868 93.3324 199.64 93.524C195.566 94.1771 193.031 110.234 196.673 112.307C200.18 114.309 211.175 119.753 213.418 119.249Z" fill="#AD6359"/>
<path d="M157.823 118.305C159.477 118.305 160.663 118.227 160.769 118.22L160.542 114.955C160.471 114.955 152.975 115.444 149.12 113.89C146.054 112.64 142.668 104.016 141.17 96.399C140.219 91.572 140.737 90.0529 141.134 89.5702C141.22 89.4708 141.447 89.1939 142.313 89.1939H145.301C146.167 91.7991 147.552 94.4185 149.638 94.4185H155.665V91.1602H149.88C149.383 90.6633 148.567 88.8319 148.091 87.1283L147.757 85.9357H142.313C141.615 85.8943 140.918 86.015 140.275 86.2884C139.632 86.5618 139.061 86.9805 138.607 87.5116C137.188 89.2223 136.996 92.1611 137.961 97.0449C138.739 100.976 139.896 104.823 141.418 108.53C143.385 113.159 145.564 115.991 147.892 116.935C150.76 118.085 154.998 118.305 157.823 118.305Z" fill="#FFC727"/>
<path opacity="0.2" d="M150.88 91.1465H155.671V94.4189H151.618L150.88 91.1465Z" fill="black"/>
<path opacity="0.2" d="M160.769 118.221C160.641 118.221 159.477 118.306 157.823 118.306C157.546 118.306 157.262 118.306 156.964 118.306L156.254 115.027C158.632 115.098 160.513 114.977 160.57 114.97L160.769 118.221Z" fill="black"/>
<path d="M189.184 118.306C187.53 118.306 186.345 118.228 186.238 118.221L186.458 114.955C186.536 114.955 194.033 115.445 197.88 113.891C200.954 112.641 204.333 104.017 205.837 96.3998C206.782 91.5727 206.263 90.0536 205.837 89.5709C205.752 89.4716 205.525 89.1947 204.659 89.1947H201.671C200.805 91.7999 199.413 94.4193 197.333 94.4193H191.3V91.161H197.085C197.92 89.9354 198.528 88.5697 198.881 87.129L199.214 85.9365H204.659C205.356 85.8956 206.054 86.0166 206.697 86.29C207.339 86.5633 207.91 86.9817 208.365 87.5124C209.784 89.2231 209.969 92.1619 209.01 97.0457C208.231 100.977 207.071 104.824 205.546 108.531C203.587 113.159 201.408 115.992 199.08 116.936C196.24 118.086 192.002 118.306 189.184 118.306Z" fill="#FFC727"/>
<path opacity="0.2" d="M196.126 91.1465H191.334V94.4189H195.387L196.126 91.1465Z" fill="black"/>
<path opacity="0.2" d="M186.238 118.221C186.366 118.221 187.53 118.306 189.184 118.306C189.461 118.306 189.745 118.306 190.043 118.306L190.753 115.027C188.375 115.098 186.494 114.977 186.437 114.97L186.238 118.221Z" fill="black"/>
<path d="M156.438 150.939V152.77H190.561V150.939H187.637L185.464 147.815L175.534 143.861V124.482H171.473V143.861L161.542 147.815L159.363 150.939H156.438Z" fill="#FFC727"/>
<path d="M170.351 127.064H176.654V125.027H170.351V127.064Z" fill="#FFC727"/>
<path opacity="0.2" d="M170.353 126.327L176.656 126.051V125.028H170.353V126.327Z" fill="black"/>
<path d="M152.62 83.75C152.62 83.75 154.217 110.15 158.377 117.447C162.537 124.744 171.417 125.362 173.49 125.362C175.563 125.362 184.436 124.737 188.596 117.447C192.755 110.157 194.353 83.75 194.353 83.75H152.62Z" fill="#FFC727"/>
<path opacity="0.3" d="M170.366 125.064C166.816 124.46 161.4 122.657 158.426 117.447C154.266 110.15 152.669 83.75 152.669 83.75H156.594C157.134 89.294 158.192 110.469 161.201 116.631C163.799 122.018 169.911 124.907 170.366 125.064Z" fill="white"/>
<path opacity="0.2" d="M187.636 150.938H159.362L160.143 149.817L186.166 148.83L187.636 150.938Z" fill="black"/>
<path opacity="0.1" d="M173.504 92.084L175.747 96.6342L180.759 97.3582L177.131 100.893L177.99 105.891L173.504 103.534L169.018 105.891L169.877 100.893L166.242 97.3582L171.261 96.6342L173.504 92.084Z" fill="black"/>
<path d="M206.568 95.804C207.505 97.7348 204.694 97.7348 204.694 97.7348C204.694 97.7348 208.74 98.7074 208.953 101.071C209.166 103.435 205.745 103.201 205.496 103.201C205.709 103.258 209.401 104.244 209.358 106.636C209.315 109.029 205.922 108.425 205.702 108.376C205.887 108.489 208.322 110.037 207.832 111.847C207.058 114.956 200.733 111.18 198.249 111.918C198.249 111.918 198.419 112.692 198.419 112.819C198.419 112.819 193.131 111.485 192.123 109.526C191.278 107.879 193.287 106.97 193.287 106.97C193.287 106.97 191.2 106.069 191.157 104.187C191.157 103.215 192.683 102.342 192.683 102.342C192.225 102.109 191.838 101.757 191.564 101.322C191.291 100.887 191.14 100.385 191.129 99.8715C191.193 98.5299 192.726 97.8626 192.726 97.8626C192.726 97.8626 191.505 96.3719 192.016 95.0232C193.081 92.3187 204.538 91.6798 206.568 95.804Z" fill="#AD6359"/>
<path d="M192.648 102.341C192.605 102.341 192.591 102.277 192.648 102.263C196.924 100.988 201.515 101.288 205.588 103.108C205.73 103.179 205.787 103.378 205.588 103.314C202.792 102.206 196.332 101.809 192.648 102.341Z" fill="#263238"/>
<path d="M205.908 108.631C201.904 106.892 197.752 106.615 193.443 106.935C193.386 106.935 193.386 106.864 193.443 106.843C195.509 106.133 198.277 106.189 200.428 106.438C202.427 106.627 204.341 107.336 205.979 108.496C206.029 108.539 205.993 108.674 205.908 108.631Z" fill="#263238"/>
<path d="M204.738 97.6914C204.88 97.7411 204.646 97.8973 204.795 97.9541C205.398 98.1883 208.926 99.892 208.721 101.269C208.55 102.376 206.946 102.923 206.25 102.888L204.49 102.802L206.115 103.512C206.834 103.817 207.5 104.234 208.089 104.747C208.375 104.971 208.61 105.252 208.78 105.572C208.95 105.893 209.051 106.245 209.075 106.607C209.091 106.943 208.992 107.274 208.795 107.546C208.597 107.818 208.313 108.015 207.989 108.105C207.258 108.293 206.492 108.293 205.76 108.105L203.73 107.629L205.491 108.737C205.978 109.043 206.424 109.411 206.818 109.83C207.208 110.218 207.477 110.711 207.592 111.25C207.631 111.492 207.603 111.741 207.509 111.968C207.415 112.195 207.259 112.391 207.06 112.534C206.566 112.791 206.009 112.901 205.455 112.854C204.26 112.764 203.073 112.581 201.906 112.307C201.31 112.187 200.706 112.066 200.103 111.974C199.5 111.842 198.875 111.842 198.271 111.974C198.877 111.905 199.49 111.958 200.075 112.13C200.664 112.265 201.246 112.428 201.835 112.591C203.013 112.955 204.223 113.207 205.448 113.344C206.114 113.428 206.79 113.317 207.393 113.024C207.703 112.829 207.948 112.548 208.099 112.215C208.251 111.882 208.301 111.512 208.245 111.15C208.126 110.481 207.809 109.863 207.336 109.376C206.903 108.902 206.412 108.485 205.874 108.133L205.597 108.765C206.455 109.013 207.364 109.03 208.231 108.815C208.708 108.686 209.123 108.392 209.402 107.984C209.67 107.578 209.809 107.101 209.8 106.614C209.77 106.157 209.644 105.712 209.429 105.307C209.215 104.902 208.918 104.547 208.557 104.265C207.902 103.705 207.159 103.259 206.357 102.944L206.222 103.548C207.109 103.548 208.969 103.15 209.452 101.468C209.721 99.1395 205.519 97.8689 204.738 97.6914Z" fill="#263238"/>
<path d="M204.672 97.7337C205.107 97.6509 205.526 97.5 205.914 97.2865C206.071 97.205 206.204 97.0832 206.299 96.9335C206.394 96.7839 206.447 96.6117 206.454 96.4347C206.405 96.0454 206.251 95.6769 206.006 95.3699C205.751 95.0221 205.467 94.6601 205.155 94.3193C205.607 94.4757 206.019 94.7303 206.361 95.0647C206.564 95.2353 206.731 95.444 206.853 95.6791C206.974 95.9142 207.049 96.1709 207.071 96.4347C207.061 96.7259 206.964 97.0074 206.794 97.244C206.619 97.4536 206.391 97.6128 206.134 97.7054C205.663 97.8752 205.149 97.8852 204.672 97.7337Z" fill="#263238"/>
<path d="M139.053 95.1648C138.223 97.2517 141.183 97.0388 141.183 97.0388C141.183 97.0388 137.037 98.3662 137.009 100.851C136.981 103.335 140.558 102.86 140.785 102.831C140.565 102.909 136.789 104.251 137.023 106.728C137.257 109.206 140.75 108.325 140.977 108.262C140.792 108.396 138.372 110.2 138.982 112.052C140.026 115.247 146.344 110.803 148.998 111.385C148.998 111.385 148.885 112.208 148.899 112.343C148.899 112.343 154.322 110.533 155.224 108.411C155.976 106.622 153.804 105.834 153.804 105.834C153.804 105.834 155.934 104.727 155.792 102.753C155.728 101.745 154.046 100.943 154.046 100.943C154.507 100.667 154.884 100.27 155.135 99.7938C155.385 99.318 155.499 98.7822 155.465 98.2455C155.302 96.8258 153.641 96.265 153.641 96.265C153.641 96.265 154.805 94.6111 154.166 93.241C152.881 90.4513 140.828 90.6998 139.053 95.1648Z" fill="#AD6359"/>
<path d="M153.386 96.1307C153.428 96.1307 153.443 96.081 153.386 96.0739C149.25 95.1286 144.925 95.4628 140.985 97.0322C140.857 97.089 140.892 97.309 141.041 97.2806C145.078 96.2981 149.237 95.9107 153.386 96.1307Z" fill="#263238"/>
<path d="M154.089 100.922C154.131 100.922 154.138 100.844 154.089 100.837C149.512 99.8312 144.726 100.501 140.601 102.725C140.459 102.803 140.41 103.023 140.601 102.938C143.476 101.568 150.199 100.659 154.089 100.922Z" fill="#263238"/>
<path d="M140.715 108.525C144.761 106.395 149.084 105.777 153.613 105.784C153.67 105.784 153.67 105.699 153.613 105.685C151.398 105.082 148.509 105.38 146.28 105.799C144.194 106.147 142.235 107.038 140.601 108.383C140.552 108.439 140.63 108.574 140.715 108.525Z" fill="#263238"/>
<path d="M141.091 96.9961C140.942 97.06 141.198 97.209 141.091 97.28C140.474 97.564 136.918 99.6226 137.244 101.049C137.507 102.192 139.225 102.632 139.949 102.547L141.78 102.32L140.14 103.165C139.412 103.532 138.747 104.011 138.167 104.584C137.885 104.84 137.662 105.153 137.51 105.502C137.358 105.85 137.282 106.227 137.287 106.608C137.293 106.961 137.421 107.301 137.648 107.571C137.876 107.841 138.189 108.024 138.536 108.091C139.314 108.222 140.113 108.154 140.857 107.892L142.944 107.246L141.198 108.538C140.71 108.896 140.269 109.313 139.885 109.781C139.505 110.212 139.258 110.745 139.175 111.314C139.154 111.571 139.204 111.83 139.319 112.061C139.434 112.293 139.61 112.488 139.828 112.627C140.368 112.854 140.96 112.925 141.539 112.833C142.787 112.644 144.018 112.359 145.223 111.981C145.84 111.811 146.458 111.633 147.083 111.491C147.703 111.315 148.354 111.271 148.992 111.364C148.358 111.34 147.726 111.444 147.132 111.669C146.522 111.853 145.926 112.066 145.322 112.286C144.119 112.758 142.873 113.114 141.603 113.351C140.916 113.496 140.202 113.434 139.551 113.174C139.211 112.994 138.932 112.718 138.746 112.382C138.561 112.045 138.478 111.662 138.508 111.278C138.58 110.57 138.865 109.899 139.324 109.355C139.733 108.822 140.211 108.344 140.744 107.935L141.077 108.574C140.2 108.901 139.252 108.989 138.33 108.829C137.821 108.733 137.364 108.458 137.038 108.056C136.723 107.647 136.542 107.151 136.52 106.636C136.515 106.154 136.611 105.677 136.803 105.235C136.995 104.794 137.278 104.398 137.634 104.073C138.277 103.442 139.018 102.919 139.828 102.526L140.02 103.143C139.09 103.229 137.116 102.945 136.47 101.22C135.995 98.8985 140.282 97.2445 141.091 96.9961Z" fill="#263238"/>
<path d="M141.155 97.039C140.696 96.9843 140.248 96.8573 139.828 96.6628C139.657 96.5902 139.509 96.4738 139.398 96.3254C139.287 96.1771 139.217 96.002 139.196 95.818C139.212 95.4061 139.345 95.0073 139.579 94.6681C139.821 94.2847 140.09 93.8943 140.389 93.5039C139.933 93.7092 139.524 94.0064 139.189 94.377C138.993 94.571 138.837 94.8021 138.731 95.0568C138.625 95.3115 138.571 95.5847 138.571 95.8606C138.602 96.165 138.726 96.4525 138.926 96.6841C139.119 96.8914 139.364 97.0433 139.636 97.1242C140.138 97.2608 140.671 97.2309 141.155 97.039Z" fill="#263238"/>
<path d="M247.585 127.697L237.803 113.962C242.819 110.482 248.034 107.296 253.42 104.421C260.476 100.872 265.196 102.547 258.19 113.209C251.184 123.871 247.585 127.697 247.585 127.697Z" fill="#FFC727"/>
<path d="M249.366 124.595C246.342 120.812 243.527 116.867 240.933 112.776C240.898 112.734 240.983 112.684 241.011 112.734C241.643 113.727 246.491 119.981 249.452 124.546C249.487 124.595 249.402 124.638 249.366 124.595Z" fill="#263238"/>
<path d="M258.196 113.209C251.197 123.857 247.548 127.697 247.548 127.697L241.962 119.888L261.391 104.03C262.101 105.542 261.291 108.495 258.196 113.209Z" fill="#263238"/>
<path d="M282.522 154.061C282.423 154.168 241.55 153.138 241.187 152.691C240.676 152.074 248.286 112.393 255.385 103.612C257.159 101.411 262.859 101.127 265.486 103.257C278.519 113.827 282.892 153.678 282.522 154.061Z" fill="#FFC727"/>
<path opacity="0.1" d="M273.544 115.239L250.232 114.529L250.552 113.635L273.132 114.345C273.295 114.621 273.409 114.927 273.544 115.239ZM274.296 117.035L249.636 116.275C249.544 116.574 249.444 116.872 249.345 117.177L274.658 117.958L274.296 117.035ZM275.326 119.754L248.798 118.937C248.699 119.236 248.607 119.534 248.521 119.839L275.652 120.677C275.546 120.364 275.425 120.059 275.326 119.754ZM276.255 122.472L247.996 121.606L247.741 122.501L276.547 123.388C276.454 123.104 276.355 122.778 276.255 122.472ZM277.1 125.184L247.244 124.268C247.158 124.567 247.08 124.865 246.995 125.163L277.37 126.1C277.278 125.795 277.192 125.489 277.1 125.184ZM277.874 127.896L246.527 126.93L246.292 127.832L278.115 128.783C278.037 128.506 277.952 128.201 277.874 127.896ZM278.584 130.607L245.845 129.592C245.774 129.89 245.696 130.196 245.625 130.494L278.811 131.523C278.733 131.218 278.655 130.913 278.577 130.607H278.584ZM279.23 133.312L245.157 132.261C245.079 132.56 245.008 132.865 244.944 133.163L279.407 134.228C279.365 133.922 279.301 133.617 279.223 133.312H279.23ZM279.833 136.017L244.56 134.923L244.347 135.832L280.025 136.932L279.833 136.017ZM280.394 138.721L243.964 137.6C243.9 137.905 243.836 138.203 243.765 138.501L280.571 139.637C280.493 139.332 280.437 139.026 280.394 138.721ZM280.905 141.426L243.389 140.269C243.318 140.574 243.254 140.872 243.19 141.17L281.061 142.341C280.99 142.036 280.941 141.731 280.884 141.419L280.905 141.426ZM281.366 144.13L242.828 142.938C242.764 143.243 242.708 143.548 242.644 143.839L281.516 145.039L281.366 144.13ZM281.785 146.835L242.275 145.607C242.218 145.914 242.161 146.212 242.104 146.501L281.892 147.729C281.849 147.438 281.814 147.133 281.764 146.828L281.785 146.835ZM282.154 149.532L241.799 148.283C241.749 148.602 241.693 148.9 241.65 149.184L282.268 150.434C282.211 150.143 282.176 149.837 282.133 149.525L282.154 149.532ZM282.46 152.223L241.352 150.952C241.309 151.3 241.267 151.605 241.238 151.853L282.524 153.124C282.524 152.869 282.474 152.563 282.438 152.208L282.46 152.223Z" fill="black"/>
<path d="M260.092 100.95C256.848 101.077 255.336 101.993 254.328 104.847C253.32 107.7 254.619 110.746 256.969 111.179C259.318 111.612 263.145 109.759 265.544 106.089C267.943 102.419 264.067 100.794 260.092 100.95Z" fill="#455A64"/>
<path d="M257.416 108.865C259.148 109.206 263.258 106.494 265.082 103.96C265.211 102.428 265.261 100.89 265.231 99.3531C265.274 97.8766 265.359 96.2368 265.544 94.7461L255.897 95.8535C256.199 97.788 256.264 99.7524 256.088 101.703C256.059 101.907 256.014 102.109 255.954 102.306C255.952 102.339 255.952 102.372 255.954 102.405C255.591 103.548 254.704 108.333 257.416 108.865Z" fill="#AD6359"/>
<path d="M255.952 102.305C255.95 102.338 255.95 102.371 255.952 102.405C256.266 102.487 256.587 102.544 256.911 102.575C262.249 103.114 264.357 96.7895 264.875 94.8232L255.924 95.8525C256.227 97.787 256.294 99.7512 256.123 101.702C256.082 101.907 256.025 102.109 255.952 102.305Z" fill="#263238"/>
<path d="M267.284 82.1108C268.299 85.4613 266.503 95.1225 264.118 97.2662C260.661 100.383 255.017 100.666 252.37 96.5138C249.807 92.4889 252.37 79.9387 255.031 77.9866C258.95 75.1187 265.786 77.1631 267.284 82.1108Z" fill="#AD6359"/>
<path d="M258.388 87.4775C258.388 87.4775 258.438 87.5201 258.431 87.5485C258.282 88.1945 258.225 88.9682 258.771 89.2877C258.061 89.0818 258.147 88.0667 258.388 87.4775Z" fill="#263238"/>
<path d="M259.098 86.9014C260.162 87.0291 259.807 89.1374 258.856 89.0309C257.905 88.9245 258.21 86.8091 259.098 86.9014Z" fill="#263238"/>
<path d="M254.54 86.7529C254.54 86.7529 254.483 86.7529 254.483 86.8026C254.405 87.4628 254.199 88.2223 253.574 88.3288V88.3643C254.312 88.3714 254.568 87.3847 254.54 86.7529Z" fill="#263238"/>
<path d="M254.065 85.9792C253.022 85.7379 252.645 87.8391 253.582 88.0591C254.519 88.2792 254.931 86.1922 254.065 85.9792Z" fill="#263238"/>
<path d="M260.085 86.0713C259.82 85.9482 259.561 85.8107 259.311 85.6596C259.019 85.5532 258.769 85.3537 258.601 85.0917C258.565 84.9982 258.56 84.8952 258.589 84.7989C258.617 84.7026 258.676 84.6183 258.757 84.5593C258.934 84.4673 259.131 84.424 259.33 84.434C259.528 84.444 259.72 84.5069 259.886 84.6161C260.259 84.7838 260.555 85.0852 260.717 85.4608C260.751 85.5483 260.759 85.644 260.739 85.7359C260.719 85.8277 260.672 85.9116 260.605 85.977C260.537 86.0423 260.452 86.0861 260.359 86.1029C260.267 86.1197 260.171 86.1087 260.085 86.0713Z" fill="#263238"/>
<path d="M253.455 85.0422C253.753 85.0422 254.03 84.9855 254.328 84.9571C254.639 84.9653 254.945 84.8732 255.201 84.6944C255.27 84.6226 255.313 84.5299 255.323 84.4309C255.333 84.3319 255.31 84.2323 255.258 84.1478C255.129 83.9948 254.962 83.8791 254.773 83.8129C254.585 83.7467 254.382 83.7324 254.186 83.7716C253.777 83.7837 253.389 83.9513 253.1 84.2401C253.035 84.3082 252.992 84.3938 252.977 84.4862C252.961 84.5785 252.972 84.6735 253.01 84.7592C253.048 84.8449 253.111 84.9174 253.19 84.9678C253.269 85.0182 253.361 85.0441 253.455 85.0422Z" fill="#263238"/>
<path d="M258.068 93.6386C257.883 93.7734 257.698 93.958 257.457 93.9438C257.204 93.9019 256.962 93.8076 256.747 93.667C256.747 93.667 256.705 93.667 256.712 93.667C256.786 93.811 256.897 93.932 257.035 94.0171C257.172 94.1022 257.331 94.148 257.493 94.1497C257.631 94.135 257.762 94.0801 257.869 93.9917C257.976 93.9034 258.055 93.7855 258.096 93.6528C258.139 93.6457 258.089 93.6244 258.068 93.6386Z" fill="#263238"/>
<path d="M257.679 91.5802C257.473 91.8136 257.221 92.0017 256.939 92.1325C256.656 92.2632 256.35 92.3338 256.039 92.3398C255.766 92.3504 255.494 92.3217 255.23 92.2546L255.081 92.212L254.946 92.1694C254.911 92.1585 254.882 92.1366 254.861 92.1071C254.841 92.0776 254.83 92.0421 254.832 92.0062C254.829 91.985 254.829 91.9635 254.832 91.9423V91.8713C254.896 91.3673 255.059 90.6077 255.059 90.6077C254.868 90.6716 253.86 90.9485 253.916 90.6858C254.323 88.4244 254.958 86.2101 255.812 84.0771C255.816 84.0645 255.824 84.0537 255.835 84.046C255.846 84.0383 255.859 84.0342 255.872 84.0342C255.885 84.0342 255.898 84.0383 255.909 84.046C255.92 84.0537 255.928 84.0645 255.932 84.0771C255.563 86.2066 254.839 88.1871 254.442 90.2812C254.798 90.1736 255.169 90.1209 255.542 90.125C255.606 90.125 255.194 91.5448 255.18 91.8145C255.587 91.9198 256.011 91.9421 256.427 91.8799C256.843 91.8177 257.242 91.6723 257.601 91.4525C257.679 91.4809 257.728 91.5306 257.679 91.5802Z" fill="#263238"/>
<path d="M255.548 92.0484C255.77 92.4485 256.09 92.7856 256.478 93.028C256.693 93.1505 256.941 93.2049 257.188 93.1842C257.727 93.1274 257.819 92.6518 257.784 92.2259C257.763 91.9993 257.717 91.7756 257.649 91.5586C257.018 91.9395 256.282 92.111 255.548 92.0484Z" fill="#263238"/>
<path d="M256.5 93.029C256.715 93.1515 256.963 93.2059 257.21 93.1851C257.749 93.1284 257.842 92.6527 257.806 92.2268C257.53 92.1952 257.251 92.257 257.015 92.4024C256.778 92.5479 256.597 92.7685 256.5 93.029Z" fill="#FF9BBC"/>
<path d="M266.857 89.4642C266.857 89.4642 269.696 83.6718 269.064 80.5271C268.795 79.1074 266.75 78.3266 266.75 78.3266C266.845 77.7276 266.771 77.1142 266.536 76.5551C266.302 75.9959 265.916 75.513 265.423 75.1606C263.577 73.7409 259.51 74.4507 259.51 74.4507C259.51 74.4507 256.493 70.8589 252.873 72.7329C249.252 74.6069 252.099 78.646 252.099 78.646C252.099 78.646 250.899 80.733 254.413 81.9468C257.927 83.1607 264.415 81.0453 264.415 81.0453C264.319 83.384 264.573 85.7238 265.167 87.9877C265.284 88.3667 265.503 88.7056 265.802 88.9665C266.1 89.2273 266.466 89.3997 266.857 89.4642Z" fill="#263238"/>
<path d="M258.863 74.5793C259.673 74.1663 260.56 73.9247 261.468 73.8695C262.278 73.784 263.096 73.8344 263.889 74.0185C264.596 74.1518 265.254 74.4743 265.793 74.9518C266.332 75.4293 266.731 76.0439 266.948 76.7302C267.038 77.0894 267.055 77.463 266.997 77.8288C266.94 78.1945 266.81 78.5451 266.615 78.8597C266.558 78.8597 266.615 78.8597 266.615 78.8597C267.381 77.7027 266.771 76.07 265.784 75.2537C264.598 74.3951 263.138 74.0034 261.681 74.1534C260.747 74.2267 259.824 74.4126 258.934 74.7071C258.842 74.6716 258.813 74.6006 258.863 74.5793Z" fill="#263238"/>
<path d="M253.618 82.2164C255.175 82.6836 256.813 82.8142 258.424 82.5997C260.1 82.3952 261.75 82.0096 263.343 81.4497C264.273 81.1303 265.189 80.7825 266.104 80.4062C266.104 80.4062 266.147 80.4417 266.104 80.4559C264.526 81.3135 262.86 81.9989 261.135 82.5003C259.537 82.9617 257.863 83.104 256.209 82.9191C255.305 82.8034 254.419 82.5794 253.568 82.2519C253.568 82.2519 253.597 82.2093 253.618 82.2164Z" fill="#263238"/>
<path d="M265.196 89.9832C265.196 89.9832 267.454 86.9095 268.852 87.7187C270.251 88.528 268.511 93.0214 266.829 93.6034C266.619 93.6928 266.394 93.7388 266.166 93.7387C265.938 93.7386 265.713 93.6924 265.503 93.6028C265.294 93.5133 265.104 93.3823 264.947 93.2177C264.789 93.0531 264.666 92.8584 264.586 92.6451L265.196 89.9832Z" fill="#AD6359"/>
<path d="M268.326 89.0312C268.326 89.0312 268.361 89.0667 268.326 89.0738C267.784 89.3275 267.301 89.6925 266.91 90.1451C266.519 90.5976 266.227 91.1275 266.054 91.7003C266.125 91.5831 266.221 91.4828 266.334 91.4065C266.448 91.3303 266.577 91.2799 266.713 91.2589C266.848 91.2379 266.986 91.2469 267.118 91.2851C267.249 91.3233 267.371 91.39 267.474 91.4803C267.474 91.4803 267.474 91.5441 267.474 91.537C267.27 91.4676 267.051 91.4631 266.844 91.5242C266.638 91.5852 266.457 91.7088 266.324 91.8778C266.101 92.1609 265.91 92.468 265.756 92.7935C265.699 92.8929 265.507 92.8361 265.55 92.7154C265.486 91.1608 266.721 89.1093 268.326 89.0312Z" fill="#263238"/>
<path d="M267.41 117.346C265.678 121.527 255.549 143.497 249.139 146.777C239.591 151.646 224.514 153.201 218.977 153.3C216.563 153.343 214.292 135.1 216.847 134.674C222.292 133.758 239.463 132.509 241.202 131.685C242.942 130.862 253.419 118.603 259.219 112.455C266.984 104.207 271.62 107.195 267.41 117.346Z" fill="#AD6359"/>
<path d="M218.948 153.346C211.019 153.999 198.81 147.667 197.355 146.375C196.112 145.267 195.481 144.678 195.481 144.678C193.209 142.733 193.173 140.951 193.173 140.951C193.173 140.951 189.88 139.475 190.448 137.338C191.072 134.939 195.573 137.487 198.902 137.338C206.54 137.083 217.316 134.584 219.488 134.293L218.948 153.346Z" fill="#AD6359"/>
<path d="M207.094 142.725C204.862 142.829 202.625 142.777 200.4 142.569C197.979 142.197 195.59 141.644 193.252 140.915C193.239 140.915 193.225 140.918 193.214 140.926C193.203 140.933 193.194 140.944 193.19 140.956C193.185 140.969 193.184 140.983 193.188 140.996C193.191 141.009 193.199 141.02 193.209 141.029C197.58 142.919 202.384 143.574 207.101 142.924C207.215 142.903 207.208 142.725 207.094 142.725Z" fill="#263238"/>
<path d="M207.917 147.311C205.731 147.218 201.884 147.034 195.502 144.613C199.294 146.705 203.592 147.703 207.917 147.495C208.038 147.524 208.067 147.318 207.917 147.311Z" fill="#263238"/>
<path d="M208.087 136.485C209.067 136.052 208.847 135.534 207.008 135.066C205.17 134.597 197.475 134.242 197.823 131.566C198.171 128.89 209.01 129.536 212.02 130.572C215.03 131.609 219.672 134.405 219.672 134.405C217.529 134.696 212.247 135.839 208.087 136.485Z" fill="#AD6359"/>
<path d="M260.518 134.462L247.797 123.359C251.89 118.813 256.244 114.509 260.837 110.468C266.892 105.379 271.868 105.925 267.51 117.922C263.151 129.919 260.518 134.462 260.518 134.462Z" fill="#FFC727"/>
<path d="M261.561 131.055C257.749 128.071 254.102 124.881 250.636 121.501C250.594 121.458 250.636 121.401 250.7 121.437C251.545 122.26 257.699 127.229 261.632 130.985C261.675 131.027 261.611 131.091 261.561 131.055Z" fill="#263238"/>
<path d="M259.418 133.497C259.81 133.789 260.178 134.112 260.518 134.462C261.597 132.148 262.549 129.805 263.5 127.434C263.983 126.235 264.458 125.028 264.92 123.828C265.381 122.629 265.835 121.351 266.431 120.18C266.431 120.18 266.502 120.18 266.495 120.18C266.221 121.288 265.88 122.378 265.473 123.445L265.558 123.31C265.878 122.835 266.19 122.359 266.474 121.89C266.51 121.827 266.602 121.89 266.566 121.933C266.318 122.458 266.062 122.991 265.771 123.488C265.636 123.734 265.484 123.971 265.317 124.197L265.161 124.382C264.785 125.468 264.387 126.512 263.961 127.612C263.486 128.812 262.967 129.997 262.428 131.161C261.884 132.38 261.268 133.565 260.582 134.71C260.13 134.381 259.72 133.998 259.361 133.568C259.376 133.532 259.383 133.482 259.418 133.497Z" fill="#263238"/>
<path d="M247.741 123.389C249.111 121.785 250.531 120.102 252 118.604C252.519 118.086 253.058 117.582 253.59 117.078C254.052 116.411 254.598 115.8 255.11 115.176C255.119 115.165 255.132 115.159 255.146 115.159C255.16 115.158 255.174 115.163 255.184 115.172C255.194 115.182 255.201 115.195 255.201 115.209C255.202 115.223 255.197 115.236 255.188 115.247L254.364 116.34C255.107 115.658 255.862 114.989 256.629 114.331C256.629 114.331 256.692 114.331 256.671 114.367C255.18 115.836 253.718 117.341 252.263 118.846C250.808 120.351 249.303 121.82 247.89 123.368C247.89 123.368 248.692 124.077 248.657 124.077C248.336 123.87 248.03 123.64 247.741 123.389Z" fill="#263238"/>
<path d="M81.0303 147.118C81.0303 147.118 88.7038 211.715 88.8387 212.609C88.8387 212.723 86.6594 272.138 86.6594 272.138H115.352C115.352 272.138 116.133 221.248 115.068 211.034C113.712 198.001 105.13 147.147 105.13 147.147L81.0303 147.118Z" fill="#263238"/>
<path d="M92.6579 207.314C92.2603 203.666 91.735 200.024 91.2381 196.382C90.2917 189.047 89.3192 181.712 88.3206 174.377C87.1991 166.065 86.0065 157.759 84.8281 149.461C84.8281 149.355 84.6507 149.362 84.6649 149.461C85.5546 156.872 86.4537 164.283 87.3623 171.694C88.2709 179.034 89.2434 186.366 90.2017 193.699C91.1601 201.032 92.4094 208.265 92.3739 215.612C92.3739 219.311 92.1964 223.009 92.09 226.7C91.9835 230.392 91.8841 234.097 91.7847 237.795C91.5647 246.172 91.2452 254.555 91.3304 262.931C91.3304 263.038 91.4866 263.031 91.4937 262.931C92.0048 255.471 92.1609 247.982 92.4094 240.507C92.6578 233.032 92.9134 225.714 93.0767 218.317C93.1785 214.644 93.0386 210.969 92.6579 207.314Z" fill="#37474F"/>
<path d="M105.188 147.118C105.188 147.118 100.723 160.889 95.6685 167.839C95.6685 167.839 94.3481 218.757 92.2896 224.627C88.8823 234.324 66.7915 267.723 66.7915 267.723L42.4932 250.913C42.4932 250.913 63.4836 219.9 64.811 216.379C65.6913 214.043 68.2609 173.681 67.8918 172.673C63.4339 160.456 70.1492 147.118 70.1492 147.118H105.188Z" fill="#263238"/>
<path d="M70.9858 171.197C70.6238 169.607 70.2191 168.024 69.9849 166.413C69.7425 164.785 69.6735 163.136 69.779 161.494C70.0357 158.166 70.6375 154.873 71.575 151.669C71.795 150.867 72.0222 150.065 72.2848 149.27C72.3274 149.121 72.1074 149.071 72.0577 149.213C70.9897 152.341 70.1569 155.544 69.5661 158.796C69.0839 161.942 69.1681 165.149 69.8145 168.266C70.4747 171.481 71.4117 174.619 71.291 177.941C71.22 179.659 69.1615 211.652 69.1615 213.313C69.2354 214.943 69.0166 216.573 68.5155 218.126C67.8993 219.593 67.1409 220.996 66.2511 222.314C65.3779 223.734 64.4977 225.154 63.6033 226.573C60.1037 232.174 56.5047 237.725 52.7709 243.17L51.3512 245.235C51.3015 245.306 51.4151 245.37 51.4648 245.306C55.3903 239.89 59.1809 234.403 62.8224 228.781C64.5971 226.027 66.3717 223.265 68.0186 220.412C68.7955 219.084 69.3066 217.619 69.5235 216.096C69.7222 214.555 71.8944 177.508 71.7666 175.84C71.6154 174.276 71.3545 172.725 70.9858 171.197Z" fill="#37474F"/>
<path d="M82.0519 151.79C81.4414 154.275 81.5337 157.377 79.7662 159.414C78.8508 160.366 77.6491 160.991 76.3447 161.196C74.8766 161.478 73.3768 161.559 71.8868 161.437C71.8229 161.437 71.8229 161.53 71.8868 161.551C74.5487 162.396 78.24 162.261 80.256 160.06C81.1257 159.022 81.6624 157.745 81.7964 156.397C82.0256 154.877 82.149 153.342 82.1655 151.805C82.1674 151.789 82.1632 151.774 82.1539 151.762C82.1446 151.75 82.1309 151.743 82.1158 151.741C82.1007 151.739 82.0856 151.743 82.0736 151.752C82.0616 151.762 82.0538 151.775 82.0519 151.79Z" fill="#37474F"/>
<path d="M95.8321 167.932C95.8234 167.886 95.7992 167.846 95.7636 167.816C95.7279 167.787 95.6832 167.771 95.6369 167.771C95.5907 167.771 95.5459 167.787 95.5103 167.816C95.4747 167.846 95.4504 167.886 95.4417 167.932C95.3352 169.053 95.3565 170.189 95.321 171.318L95.2359 174.526C95.1791 176.727 95.1365 178.928 95.0797 181.128C94.9803 185.522 94.8525 189.916 94.668 194.31C94.4834 198.704 94.2846 203.098 94.0646 207.492C93.951 209.686 93.8232 211.879 93.6955 214.073C93.6199 216.188 93.4018 218.297 93.0424 220.383C92.1809 224.687 90.5686 228.805 88.2793 232.55C88.2225 232.642 88.3573 232.706 88.4212 232.628C90.7747 229.485 92.4652 225.896 93.3902 222.08C94.384 217.97 94.4834 213.718 94.7248 209.515C95.2217 200.649 95.5482 191.769 95.7753 182.889C95.8321 180.397 95.8889 177.92 95.896 175.407C95.896 174.186 95.896 172.972 95.896 171.751C95.896 170.53 95.9457 169.203 95.8321 167.932Z" fill="#37474F"/>
<path d="M100.331 165.781C97.415 166.791 94.5892 168.044 91.884 169.529C91.8708 169.533 91.8585 169.539 91.8479 169.548C91.8374 169.556 91.829 169.567 91.8232 169.58C91.8174 169.592 91.8144 169.606 91.8145 169.619C91.8145 169.633 91.8176 169.646 91.8235 169.659C91.8294 169.671 91.8379 169.682 91.8485 169.69C91.8591 169.699 91.8715 169.705 91.8848 169.708C91.898 169.712 91.9118 169.712 91.9252 169.709C91.9386 169.707 91.9512 169.701 91.9621 169.693C94.8015 168.529 97.7119 167.414 100.48 166.101C100.504 166.093 100.526 166.08 100.544 166.063C100.563 166.046 100.578 166.026 100.588 166.003C100.597 165.98 100.602 165.955 100.602 165.93C100.602 165.905 100.596 165.88 100.585 165.857C100.575 165.835 100.56 165.814 100.541 165.798C100.522 165.782 100.499 165.769 100.475 165.762C100.451 165.755 100.426 165.753 100.401 165.756C100.376 165.76 100.353 165.768 100.331 165.781Z" fill="#37474F"/>
<path d="M101.184 147.24C101.184 147.141 101.006 147.119 101.006 147.24C101.005 150.265 100.847 153.289 100.531 156.298C100.396 157.717 99.2173 165.419 96.676 164.851C96.2501 164.759 96.0372 164.362 95.9662 163.751C95.9779 162.95 96.0925 162.153 96.3069 161.38C96.5909 159.769 96.818 158.143 96.96 156.511C97.2535 153.473 97.2201 150.413 96.8606 147.382C96.8606 147.359 96.8516 147.338 96.8357 147.322C96.8197 147.306 96.798 147.297 96.7754 147.297C96.7528 147.297 96.7312 147.306 96.7152 147.322C96.6992 147.338 96.6902 147.359 96.6902 147.382C96.7697 151.598 96.511 155.814 95.9165 159.989C95.6042 161.998 94.5394 165.022 96.747 165.327C98.9547 165.632 100.438 160.578 100.715 159.194C101.411 155.249 101.568 151.227 101.184 147.24Z" fill="#37474F"/>
<path d="M96.746 164.987C96.5229 165.508 96.3309 166.041 96.1711 166.584C96.0107 167.003 95.9312 167.449 95.9368 167.897C95.9368 167.983 96.0646 167.997 96.1143 167.94C96.3744 167.544 96.5731 167.111 96.7034 166.655C96.8951 166.158 97.101 165.669 97.2784 165.172C97.3991 164.866 96.888 164.696 96.746 164.987Z" fill="#37474F"/>
<path d="M108.608 126.555C108.218 126.555 106.394 126.555 103.725 126.555C102.36 123.763 101.896 120.615 102.397 117.547C102.504 116.837 100.729 120.848 101.24 126.555C96.0795 126.555 89.0661 126.52 82.9329 126.449C82.8761 124.05 82.72 121.835 82.72 121.835C82.4852 123.399 82.1098 124.938 81.5984 126.435C80.7608 126.435 79.9373 126.435 79.1494 126.435C79.2736 123.036 79.212 119.633 78.9648 116.241C78.4244 119.776 77.3119 123.2 75.6711 126.378C71.7811 126.286 69.2185 126.158 69.3889 125.98C75.451 119.386 71.2416 115.389 73.073 109.483C75.2665 102.385 81.4351 101.448 81.3925 96.0955C81.3925 91.7369 81.0376 83.8291 86.5745 82.2817C88.1014 80.8651 90.0118 79.9299 92.0672 79.5929C94.1225 79.2558 96.2316 79.5318 98.1309 80.3863C106.727 83.9356 102.937 97.2667 103.462 100.014C104.172 103.939 106.025 105.359 107.288 109.845C108.552 114.332 106.458 117.313 106.145 120.358C105.833 123.404 109.574 126.57 108.608 126.555Z" fill="#263238"/>
<path d="M69.2256 124.958C70.0612 123.805 70.7303 122.541 71.2132 121.202C71.6026 119.871 71.6344 118.461 71.3055 117.114C71.0295 115.684 70.8281 114.241 70.7021 112.791C70.583 111.281 70.7689 109.762 71.2487 108.326C71.7605 106.889 72.596 105.59 73.6906 104.528C74.7517 103.518 75.8937 102.597 77.105 101.774C78.2807 100.993 79.3457 100.057 80.2709 98.991C81.1699 97.8869 81.7449 96.555 81.932 95.1436C81.9525 96.6234 81.5217 98.0744 80.6969 99.3033C79.8384 100.5 78.8046 101.56 77.6303 102.448C76.5129 103.315 75.4508 104.252 74.4501 105.252C73.5018 106.234 72.7756 107.408 72.3206 108.695C71.8981 110 71.7224 111.372 71.8024 112.741C71.845 114.161 72.0721 115.545 72.2212 117C72.3069 117.737 72.3354 118.48 72.3064 119.222C72.2538 119.98 72.0663 120.723 71.7527 121.415C71.1284 122.737 70.2725 123.937 69.2256 124.958Z" fill="#263238"/>
<path d="M102.93 85.4824C103.492 87.1744 103.845 88.929 103.98 90.707C104.151 92.4745 104.243 94.2562 104.314 96.0167L104.427 98.6573C104.458 99.5108 104.569 100.359 104.761 101.192C105.233 102.834 105.998 104.378 107.018 105.749C107.522 106.504 107.975 107.291 108.374 108.106C108.773 108.944 109.075 109.825 109.276 110.732C109.446 111.632 109.551 112.543 109.588 113.458C109.626 114.379 109.55 115.302 109.361 116.205C109.184 117.107 108.907 117.958 108.651 118.789C108.414 119.622 108.258 120.475 108.183 121.337C108.132 122.2 108.288 123.063 108.639 123.854C108.989 124.644 109.524 125.339 110.199 125.88C109.425 125.393 108.784 124.721 108.336 123.924C107.887 123.127 107.644 122.23 107.629 121.316C107.635 120.409 107.735 119.505 107.927 118.618C108.105 117.731 108.353 116.886 108.467 116.049C108.686 114.355 108.594 112.635 108.197 110.973C107.996 110.153 107.711 109.356 107.345 108.595C106.96 107.825 106.521 107.082 106.032 106.373C105.519 105.625 105.045 104.85 104.612 104.052C104.181 103.226 103.856 102.348 103.647 101.44C103.468 100.537 103.375 99.62 103.37 98.6999C103.37 97.8055 103.37 96.9182 103.37 96.038C103.37 94.2633 103.412 92.4887 103.37 90.7425C103.408 88.9785 103.26 87.2155 102.93 85.4824Z" fill="#263238"/>
<path d="M94.6885 113.379C101.666 122.43 111.924 130.572 116.439 130.572C121.67 130.572 131.239 123.885 140.091 117.404C142.029 115.984 129.223 101.908 127.974 103.044C123.715 106.941 115.445 114.096 114.557 114.366C113.549 114.671 105.244 110.724 100.069 107.558C91.913 102.582 89.755 106.969 94.6885 113.379Z" fill="#AD6359"/>
<path d="M111.76 130.267L113.889 113.89C113.889 113.89 106.216 109.737 97.9529 106.082C89.6902 102.426 88.8597 106.621 95.7098 115.686C100.186 121.429 105.615 126.36 111.76 130.267Z" fill="#FFC727"/>
<path d="M100.459 108.106C100.459 108.32 100.396 108.528 100.278 108.706C100.159 108.883 99.9904 109.022 99.7933 109.103C99.5961 109.185 99.3792 109.206 99.1699 109.165C98.9606 109.123 98.7683 109.02 98.6174 108.869C98.4665 108.718 98.3638 108.526 98.3221 108.317C98.2805 108.108 98.3019 107.891 98.3835 107.693C98.4652 107.496 98.6035 107.328 98.7809 107.209C98.9584 107.091 99.167 107.027 99.3804 107.027C99.6665 107.027 99.941 107.141 100.143 107.343C100.346 107.546 100.459 107.82 100.459 108.106ZM91.4371 108.106C91.3972 108.099 91.3563 108.099 91.3164 108.106C91.5146 108.771 91.7712 109.417 92.0831 110.037C92.2653 109.902 92.4002 109.712 92.4685 109.496C92.5368 109.279 92.535 109.047 92.4635 108.831C92.3919 108.616 92.2542 108.428 92.0699 108.295C91.8856 108.163 91.6641 108.092 91.4371 108.092V108.106ZM96.4629 113.033C96.2495 113.033 96.0409 113.096 95.8634 113.215C95.686 113.333 95.5477 113.502 95.466 113.699C95.3843 113.896 95.363 114.113 95.4046 114.322C95.4462 114.532 95.549 114.724 95.6999 114.875C95.8508 115.026 96.0431 115.128 96.2524 115.17C96.4617 115.212 96.6786 115.19 96.8758 115.109C97.0729 115.027 97.2414 114.889 97.36 114.711C97.4786 114.534 97.5418 114.325 97.5418 114.112C97.5418 113.97 97.5139 113.83 97.4597 113.699C97.4055 113.568 97.326 113.449 97.2258 113.349C97.1256 113.249 97.0067 113.169 96.8758 113.115C96.7449 113.061 96.6046 113.033 96.4629 113.033ZM110.66 116.447C110.445 116.446 110.234 116.508 110.054 116.627C109.874 116.746 109.734 116.916 109.651 117.114C109.568 117.313 109.546 117.532 109.587 117.743C109.629 117.955 109.733 118.149 109.885 118.301C110.037 118.453 110.231 118.557 110.443 118.599C110.654 118.64 110.873 118.618 111.072 118.535C111.271 118.452 111.44 118.312 111.559 118.132C111.678 117.952 111.74 117.742 111.739 117.526C111.739 117.383 111.711 117.242 111.656 117.11C111.6 116.978 111.52 116.858 111.418 116.758C111.316 116.658 111.196 116.579 111.063 116.525C110.931 116.472 110.789 116.445 110.646 116.447H110.66ZM102.596 117.988C102.383 117.988 102.174 118.051 101.997 118.169C101.819 118.288 101.681 118.456 101.599 118.654C101.518 118.851 101.496 119.068 101.538 119.277C101.579 119.486 101.682 119.679 101.833 119.829C101.984 119.98 102.176 120.083 102.386 120.125C102.595 120.166 102.812 120.145 103.009 120.063C103.206 119.982 103.375 119.843 103.493 119.666C103.612 119.489 103.675 119.28 103.675 119.066C103.675 118.924 103.647 118.782 103.592 118.65C103.536 118.518 103.456 118.399 103.354 118.298C103.252 118.198 103.132 118.119 102.999 118.066C102.867 118.012 102.725 117.986 102.582 117.988H102.596ZM104.726 111.947C104.51 111.945 104.3 112.008 104.12 112.126C103.941 112.245 103.8 112.414 103.717 112.612C103.634 112.81 103.611 113.029 103.652 113.24C103.694 113.451 103.796 113.646 103.948 113.798C104.1 113.951 104.293 114.055 104.504 114.097C104.715 114.14 104.934 114.119 105.132 114.037C105.331 113.955 105.501 113.816 105.621 113.637C105.741 113.458 105.805 113.248 105.805 113.033C105.806 112.888 105.777 112.745 105.722 112.611C105.666 112.477 105.584 112.356 105.481 112.255C105.378 112.154 105.255 112.074 105.12 112.021C104.986 111.968 104.842 111.943 104.697 111.947H104.726ZM108.559 123.198C108.344 123.198 108.133 123.262 107.955 123.381C107.776 123.501 107.637 123.671 107.555 123.87C107.473 124.069 107.452 124.288 107.494 124.498C107.537 124.709 107.641 124.903 107.793 125.054C107.946 125.206 108.14 125.309 108.351 125.35C108.562 125.391 108.781 125.369 108.979 125.285C109.178 125.202 109.347 125.062 109.465 124.882C109.584 124.703 109.646 124.492 109.645 124.277C109.645 124.132 109.616 123.989 109.559 123.856C109.503 123.722 109.42 123.602 109.316 123.501C109.212 123.4 109.089 123.322 108.954 123.27C108.819 123.217 108.675 123.193 108.53 123.198H108.559Z" fill="white"/>
<path d="M108.53 126.058C108.971 121.689 109.648 117.348 110.56 113.053C110.56 113.004 110.653 113.053 110.639 113.053C110.418 114.097 109.595 121.245 108.623 126.058C108.608 126.143 108.53 126.115 108.53 126.058Z" fill="#263238"/>
<path d="M113.073 120.081L111.76 130.267C105.611 126.367 100.177 121.44 95.6956 115.701C93.1899 112.386 91.7134 109.724 91.252 107.893L113.073 120.081Z" fill="#263238"/>
<path d="M106.166 134.065L106.997 151.428L67.8906 150.718C67.8906 150.718 76.5438 117.014 85.5164 107.942C90.0097 103.406 95.071 103.938 98.1873 107.339C98.9752 108.197 107.564 120.031 108.416 125C109.155 129.38 106.166 134.065 106.166 134.065Z" fill="#FFC727"/>
<path d="M84.268 110.05C84.2661 110.337 84.1511 110.612 83.9478 110.816C83.7445 111.019 83.4694 111.134 83.1819 111.136C83.1206 111.143 83.0586 111.143 82.9973 111.136C83.3735 110.575 83.7498 110.05 84.1331 109.56C84.218 109.71 84.2643 109.878 84.268 110.05ZM83.3877 121.287C83.1739 121.287 82.9647 121.35 82.7866 121.468C82.6085 121.587 82.4693 121.755 82.3865 121.952C82.3037 122.15 82.281 122.367 82.3212 122.577C82.3614 122.787 82.4628 122.981 82.6126 123.133C82.7623 123.286 82.9539 123.391 83.1631 123.435C83.3724 123.48 83.59 123.461 83.7888 123.382C83.9876 123.303 84.1587 123.167 84.2805 122.992C84.4024 122.816 84.4696 122.608 84.4738 122.394C84.4776 122.25 84.4523 122.106 84.3993 121.971C84.3464 121.836 84.2669 121.714 84.1655 121.61C84.0642 121.507 83.9431 121.425 83.8095 121.369C83.6759 121.314 83.5325 121.286 83.3877 121.287ZM87.1855 132.758C86.9135 132.78 86.6598 132.904 86.4748 133.104C86.2898 133.305 86.1871 133.568 86.1871 133.841C86.1871 134.113 86.2898 134.376 86.4748 134.577C86.6598 134.777 86.9135 134.901 87.1855 134.923C87.335 134.935 87.4854 134.916 87.6272 134.867C87.7691 134.818 87.8992 134.741 88.0095 134.639C88.1198 134.537 88.2078 134.414 88.268 134.276C88.3282 134.139 88.3593 133.991 88.3593 133.841C88.3593 133.691 88.3282 133.542 88.268 133.405C88.2078 133.267 88.1198 133.144 88.0095 133.042C87.8992 132.941 87.7691 132.863 87.6272 132.814C87.4854 132.765 87.335 132.746 87.1855 132.758ZM93.1057 137.202C92.8906 137.2 92.6799 137.263 92.5004 137.381C92.3208 137.5 92.1805 137.669 92.0972 137.867C92.0139 138.066 91.9914 138.284 92.0325 138.495C92.0736 138.706 92.1765 138.901 92.3281 139.053C92.4797 139.206 92.6732 139.31 92.8841 139.353C93.0949 139.395 93.3137 139.374 93.5125 139.292C93.7114 139.21 93.8815 139.071 94.0011 138.892C94.1208 138.713 94.1846 138.503 94.1847 138.288C94.1856 138.146 94.1584 138.004 94.1046 137.873C94.0508 137.741 93.9714 137.621 93.8712 137.52C93.7709 137.419 93.6516 137.339 93.5202 137.285C93.3889 137.23 93.248 137.202 93.1057 137.202ZM105.457 140.375C105.244 140.375 105.035 140.438 104.858 140.557C104.68 140.675 104.542 140.844 104.46 141.041C104.379 141.238 104.357 141.455 104.399 141.664C104.441 141.874 104.543 142.066 104.694 142.217C104.845 142.368 105.037 142.47 105.247 142.512C105.456 142.554 105.673 142.532 105.87 142.451C106.067 142.369 106.236 142.231 106.354 142.053C106.473 141.876 106.536 141.667 106.536 141.454C106.534 141.168 106.42 140.895 106.218 140.693C106.016 140.491 105.743 140.377 105.457 140.375ZM89.0666 142.611C88.8535 142.612 88.6456 142.677 88.4691 142.796C88.2926 142.916 88.1554 143.085 88.0748 143.282C87.9942 143.479 87.9739 143.696 88.0163 143.905C88.0587 144.113 88.1621 144.305 88.3132 144.455C88.4644 144.605 88.6567 144.708 88.8658 144.749C89.0749 144.79 89.2915 144.768 89.4882 144.686C89.685 144.604 89.8531 144.466 89.9713 144.289C90.0896 144.111 90.1527 143.903 90.1527 143.69C90.1527 143.548 90.1245 143.407 90.0699 143.275C90.0152 143.144 89.9351 143.025 89.8341 142.924C89.7332 142.824 89.6134 142.745 89.4817 142.691C89.35 142.637 89.2089 142.61 89.0666 142.611ZM84.1473 148.595C83.9322 148.594 83.7215 148.656 83.542 148.775C83.3624 148.893 83.2221 149.062 83.1388 149.26C83.0555 149.459 83.033 149.677 83.0741 149.889C83.1152 150.1 83.2181 150.294 83.3697 150.446C83.5213 150.599 83.7148 150.703 83.9257 150.746C84.1366 150.788 84.3553 150.767 84.5542 150.685C84.753 150.603 84.9231 150.464 85.0427 150.285C85.1624 150.106 85.2263 149.896 85.2263 149.681C85.2272 149.539 85.2 149.398 85.1462 149.266C85.0924 149.134 85.0131 149.014 84.9128 148.913C84.8125 148.813 84.6932 148.732 84.5618 148.678C84.4305 148.623 84.2896 148.595 84.1473 148.595ZM71.881 141.454C71.6659 141.454 71.4556 141.518 71.2769 141.637C71.0981 141.757 70.9589 141.927 70.8769 142.126C70.7949 142.325 70.7738 142.544 70.8163 142.754C70.8588 142.965 70.9629 143.159 71.1155 143.31C71.2681 143.462 71.4623 143.565 71.6735 143.606C71.8846 143.647 72.1032 143.625 72.3015 143.541C72.4999 143.458 72.669 143.318 72.7875 143.138C72.906 142.959 72.9685 142.748 72.9671 142.533C72.9671 142.39 72.9389 142.25 72.8843 142.118C72.8296 141.987 72.7495 141.868 72.6485 141.767C72.5476 141.667 72.4278 141.588 72.2961 141.534C72.1643 141.48 72.0233 141.453 71.881 141.454ZM87.7676 115.189C87.5522 115.188 87.3412 115.25 87.1615 115.369C86.9818 115.488 86.8415 115.658 86.7584 115.856C86.6754 116.055 86.6532 116.274 86.6949 116.485C86.7366 116.697 86.8402 116.891 86.9925 117.043C87.1448 117.195 87.339 117.299 87.5503 117.341C87.7617 117.382 87.9806 117.36 88.1794 117.277C88.3781 117.194 88.5477 117.054 88.6665 116.874C88.7853 116.694 88.8479 116.484 88.8465 116.268C88.8484 116.125 88.8219 115.983 88.7685 115.851C88.7151 115.718 88.636 115.598 88.5356 115.496C88.4352 115.394 88.3156 115.314 88.1838 115.258C88.0519 115.203 87.9105 115.175 87.7676 115.175V115.189ZM98.4154 107.636C98.3349 107.784 98.2934 107.95 98.2947 108.119C98.2947 108.261 98.3226 108.401 98.3769 108.532C98.4311 108.663 98.5105 108.782 98.6107 108.882C98.7109 108.982 98.8299 109.062 98.9608 109.116C99.0917 109.17 99.232 109.198 99.3737 109.198H99.5654C99.0756 108.474 98.6709 107.942 98.4225 107.622L98.4154 107.636ZM93.5884 119.079C93.3733 119.079 93.163 119.143 92.9843 119.263C92.8055 119.382 92.6663 119.552 92.5843 119.751C92.5023 119.95 92.4812 120.169 92.5237 120.38C92.5662 120.591 92.6703 120.784 92.823 120.936C92.9756 121.087 93.1697 121.19 93.3809 121.231C93.592 121.272 93.8106 121.25 94.0089 121.167C94.2073 121.083 94.3764 120.943 94.4949 120.763C94.6134 120.584 94.6759 120.373 94.6745 120.158C94.6763 120.015 94.6498 119.873 94.5964 119.741C94.5431 119.608 94.4639 119.488 94.3635 119.386C94.2631 119.284 94.1435 119.204 94.0117 119.148C93.8799 119.093 93.7384 119.065 93.5955 119.065L93.5884 119.079ZM89.9255 125.468C89.7104 125.466 89.4997 125.529 89.3202 125.647C89.1407 125.766 89.0004 125.935 88.9171 126.133C88.8338 126.332 88.8112 126.55 88.8524 126.761C88.8935 126.973 88.9963 127.167 89.1479 127.319C89.2995 127.472 89.493 127.576 89.7039 127.619C89.9148 127.661 90.1335 127.64 90.3324 127.558C90.5313 127.476 90.7013 127.337 90.821 127.158C90.9406 126.979 91.0045 126.769 91.0045 126.554C91.0045 126.268 90.892 125.994 90.6914 125.791C90.4908 125.588 90.2182 125.472 89.9326 125.468H89.9255ZM76.2679 134.66C76.0531 134.66 75.8431 134.724 75.6645 134.844C75.4859 134.963 75.3467 135.132 75.2645 135.331C75.1823 135.529 75.1608 135.748 75.2027 135.958C75.2446 136.169 75.348 136.363 75.4999 136.515C75.6518 136.666 75.8453 136.77 76.056 136.812C76.2667 136.854 76.4851 136.832 76.6835 136.75C76.882 136.668 77.0516 136.529 77.1709 136.35C77.2903 136.171 77.354 135.961 77.354 135.747C77.354 135.46 77.2405 135.185 77.0384 134.981C76.8362 134.778 76.5618 134.662 76.275 134.66H76.2679ZM78.3975 144.478C78.1515 144.527 77.9302 144.66 77.7712 144.854C77.6123 145.049 77.5254 145.292 77.5254 145.543C77.5254 145.793 77.6123 146.037 77.7712 146.231C77.9302 146.425 78.1515 146.558 78.3975 146.607C78.5551 146.639 78.7178 146.635 78.8738 146.597C79.0298 146.558 79.1753 146.485 79.2996 146.383C79.424 146.281 79.5242 146.153 79.593 146.007C79.6619 145.862 79.6976 145.703 79.6976 145.543C79.6976 145.382 79.6619 145.223 79.593 145.078C79.5242 144.932 79.424 144.804 79.2996 144.702C79.1753 144.6 79.0298 144.527 78.8738 144.489C78.7178 144.45 78.5551 144.446 78.3975 144.478ZM73.0877 148.311C72.8723 148.31 72.6614 148.372 72.4817 148.491C72.302 148.61 72.1617 148.779 72.0786 148.978C71.9955 149.177 71.9734 149.396 72.0151 149.607C72.0568 149.819 72.1604 150.013 72.3127 150.165C72.465 150.317 72.6592 150.421 72.8705 150.463C73.0819 150.504 73.3008 150.482 73.4995 150.399C73.6983 150.316 73.8678 150.176 73.9866 149.996C74.1054 149.816 74.1681 149.605 74.1667 149.39C74.1668 149.109 74.057 148.838 73.8608 148.637C73.6645 148.435 73.3973 148.318 73.1161 148.311H73.0877ZM96.0232 130.266C95.8081 130.265 95.5974 130.328 95.4179 130.446C95.2383 130.565 95.098 130.734 95.0147 130.932C94.9314 131.13 94.9089 131.349 94.95 131.56C94.9911 131.771 95.094 131.965 95.2456 132.118C95.3972 132.271 95.5907 132.375 95.8016 132.417C96.0124 132.46 96.2312 132.439 96.43 132.357C96.6289 132.275 96.799 132.135 96.9186 131.957C97.0383 131.778 97.1022 131.568 97.1022 131.353C97.1025 131.073 96.9949 130.804 96.8018 130.602C96.6088 130.399 96.3451 130.279 96.0658 130.266H96.0232ZM101.624 134.66C101.409 134.66 101.199 134.724 101.021 134.844C100.842 134.963 100.703 135.132 100.621 135.331C100.538 135.529 100.517 135.748 100.559 135.958C100.601 136.169 100.704 136.363 100.856 136.515C101.008 136.666 101.201 136.77 101.412 136.812C101.623 136.854 101.841 136.832 102.04 136.75C102.238 136.668 102.408 136.529 102.527 136.35C102.646 136.171 102.71 135.961 102.71 135.747C102.71 135.466 102.602 135.196 102.407 134.993C102.213 134.791 101.947 134.671 101.667 134.66H101.624ZM102.93 146.934C102.715 146.934 102.505 146.998 102.327 147.117C102.148 147.236 102.009 147.406 101.927 147.604C101.844 147.803 101.823 148.021 101.865 148.232C101.907 148.443 102.01 148.636 102.162 148.788C102.314 148.94 102.508 149.043 102.718 149.085C102.929 149.127 103.147 149.106 103.346 149.023C103.544 148.941 103.714 148.802 103.833 148.623C103.952 148.445 104.016 148.235 104.016 148.02C104.017 147.877 103.99 147.735 103.935 147.603C103.881 147.471 103.801 147.351 103.7 147.25C103.599 147.149 103.479 147.069 103.347 147.015C103.215 146.96 103.073 146.933 102.93 146.934ZM98.3373 141.901C98.1206 141.893 97.9063 141.949 97.722 142.063C97.5377 142.178 97.3919 142.345 97.3033 142.543C97.2148 142.741 97.1875 142.961 97.2251 143.174C97.2626 143.388 97.3633 143.585 97.514 143.741C97.6648 143.897 97.8588 144.004 98.0711 144.049C98.2833 144.094 98.504 144.074 98.7049 143.992C98.9057 143.91 99.0774 143.77 99.1979 143.59C99.3183 143.409 99.3821 143.197 99.3808 142.98C99.3789 142.694 99.2647 142.421 99.0627 142.219C98.8608 142.017 98.5874 141.903 98.3018 141.901H98.3373ZM94.2201 147.878C94.007 147.879 93.7991 147.944 93.6226 148.063C93.4461 148.183 93.309 148.352 93.2284 148.549C93.1478 148.746 93.1274 148.963 93.1699 149.172C93.2123 149.381 93.3156 149.572 93.4668 149.722C93.618 149.873 93.8102 149.975 94.0194 150.016C94.2285 150.057 94.445 150.035 94.6418 149.953C94.8385 149.871 95.0066 149.733 95.1249 149.556C95.2431 149.378 95.3062 149.17 95.3062 148.957C95.3063 148.812 95.2771 148.668 95.2202 148.534C95.1634 148.4 95.08 148.279 94.9753 148.179C94.8706 148.078 94.7465 147.999 94.6107 147.948C94.4748 147.896 94.3299 147.872 94.1847 147.878H94.2201ZM79.9236 116.566C79.732 116.95 79.5403 117.333 79.3558 117.73C79.5331 117.643 79.6823 117.507 79.7864 117.339C79.8906 117.171 79.9455 116.977 79.9449 116.779C79.9333 116.706 79.9143 116.635 79.8882 116.566H79.9236ZM91.473 108.105C91.2576 108.103 91.0466 108.166 90.867 108.285C90.6873 108.404 90.547 108.573 90.4639 108.772C90.3808 108.971 90.3587 109.19 90.4004 109.401C90.4421 109.612 90.5456 109.806 90.698 109.959C90.8503 110.111 91.0444 110.215 91.2558 110.256C91.4671 110.298 91.6861 110.276 91.8848 110.193C92.0836 110.11 92.2531 109.969 92.3719 109.79C92.4907 109.61 92.5534 109.399 92.552 109.184C92.5521 109.039 92.523 108.896 92.4666 108.762C92.4102 108.629 92.3275 108.509 92.2235 108.408C92.1195 108.307 91.9964 108.229 91.8613 108.176C91.7263 108.124 91.5822 108.1 91.4375 108.105H91.473ZM96.4988 113.031C96.2854 113.031 96.0768 113.094 95.8993 113.213C95.7219 113.332 95.5836 113.5 95.5019 113.697C95.4203 113.894 95.3989 114.111 95.4405 114.321C95.4822 114.53 95.5849 114.722 95.7358 114.873C95.8867 115.024 96.079 115.127 96.2883 115.168C96.4976 115.21 96.7145 115.189 96.9117 115.107C97.1089 115.025 97.2774 114.887 97.3959 114.71C97.5145 114.532 97.5778 114.324 97.5778 114.11C97.5779 113.965 97.5488 113.822 97.4924 113.689C97.4359 113.556 97.3533 113.435 97.2493 113.334C97.1453 113.234 97.0221 113.155 96.8871 113.103C96.7521 113.051 96.6079 113.026 96.4633 113.031H96.4988ZM81.6344 128.783C81.4193 128.781 81.2086 128.844 81.0291 128.962C80.8495 129.081 80.7092 129.25 80.6259 129.448C80.5427 129.647 80.5201 129.865 80.5612 130.076C80.6023 130.288 80.7052 130.482 80.8568 130.634C81.0084 130.787 81.2019 130.891 81.4128 130.934C81.6237 130.976 81.8424 130.955 82.0413 130.873C82.2401 130.791 82.4102 130.652 82.5298 130.473C82.6495 130.294 82.7134 130.084 82.7134 129.869C82.7143 129.727 82.6871 129.586 82.6333 129.454C82.5795 129.322 82.5002 129.202 82.3999 129.101C82.2996 129 82.1803 128.92 82.049 128.866C81.9176 128.811 81.7767 128.783 81.6344 128.783ZM82.1313 138.529C81.9179 138.529 81.7093 138.592 81.5318 138.711C81.3544 138.83 81.2161 138.998 81.1344 139.195C81.0528 139.392 81.0314 139.609 81.073 139.819C81.1147 140.028 81.2174 140.22 81.3683 140.371C81.5192 140.522 81.7115 140.625 81.9208 140.666C82.1301 140.708 82.347 140.687 82.5442 140.605C82.7414 140.523 82.9099 140.385 83.0284 140.208C83.147 140.03 83.2103 139.822 83.2103 139.608C83.2075 139.466 83.1766 139.326 83.1194 139.195C83.0621 139.065 82.9797 138.947 82.8768 138.849C82.7738 138.751 82.6524 138.674 82.5196 138.622C82.3868 138.571 82.2452 138.547 82.1029 138.55L82.1313 138.529ZM102.611 117.943C102.397 117.943 102.189 118.007 102.011 118.125C101.834 118.244 101.695 118.412 101.614 118.609C101.532 118.807 101.511 119.024 101.552 119.233C101.594 119.442 101.697 119.634 101.848 119.785C101.999 119.936 102.191 120.039 102.4 120.081C102.609 120.122 102.826 120.101 103.024 120.019C103.221 119.938 103.389 119.799 103.508 119.622C103.626 119.444 103.69 119.236 103.69 119.022C103.679 118.739 103.556 118.471 103.349 118.277C103.141 118.083 102.866 117.978 102.582 117.986L102.611 117.943ZM99.4092 124.332C99.1938 124.331 98.9828 124.393 98.8031 124.512C98.6235 124.631 98.4832 124.801 98.4001 124.999C98.317 125.198 98.2949 125.417 98.3366 125.628C98.3782 125.84 98.4818 126.034 98.6341 126.186C98.7865 126.338 98.9806 126.442 99.192 126.484C99.4033 126.525 99.6223 126.503 99.821 126.42C100.02 126.337 100.189 126.197 100.308 126.017C100.427 125.837 100.49 125.626 100.488 125.411C100.473 125.13 100.349 124.866 100.143 124.675C99.9356 124.484 99.6623 124.381 99.3808 124.389L99.4092 124.332ZM106.039 129.038C105.824 129.037 105.613 129.1 105.433 129.219C105.254 129.337 105.113 129.507 105.03 129.706C104.947 129.904 104.925 130.123 104.967 130.335C105.008 130.546 105.112 130.74 105.264 130.892C105.417 131.045 105.611 131.148 105.822 131.19C106.033 131.232 106.252 131.21 106.451 131.127C106.65 131.043 106.819 130.903 106.938 130.723C107.057 130.544 107.12 130.333 107.118 130.117C107.104 129.836 106.979 129.572 106.773 129.381C106.566 129.19 106.292 129.087 106.011 129.095L106.039 129.038ZM108.446 124.943C108.34 124.386 108.186 123.84 107.984 123.31C107.829 123.405 107.701 123.539 107.613 123.698C107.525 123.857 107.479 124.036 107.48 124.219C107.478 124.494 107.582 124.761 107.771 124.962C107.96 125.163 108.22 125.283 108.495 125.297C108.453 125.234 108.439 125.12 108.417 124.999L108.446 124.943ZM76.7577 123.573C76.5589 124.062 76.3602 124.552 76.1685 125.042C76.3756 124.967 76.5547 124.83 76.6816 124.649C76.8085 124.469 76.8772 124.254 76.8784 124.034C76.8587 123.89 76.8078 123.752 76.7293 123.629L76.7577 123.573Z" fill="white"/>
<path d="M82.586 108.78C67.5228 118.235 51.1109 141.724 56.2077 145.629C60.8573 149.178 78.1139 152.216 85.3118 152.337C87.4414 152.337 87.2639 133.973 84.9995 133.93C82.2594 133.88 75.317 134.2 75.0615 134.115C74.5078 133.923 84.9995 118.193 88.6552 112.052C93.7023 103.491 88.2435 105.224 82.586 108.78Z" fill="#AD6359"/>
<path d="M107.643 136.002C107.796 136.539 107.783 137.11 107.604 137.639C107.425 138.167 107.09 138.629 106.642 138.963C107.38 139.563 107.883 140.405 108.062 141.341C108.289 142.995 105.797 144.081 105.797 144.081C106.421 144.869 106.794 145.825 106.869 146.828C106.926 148.432 104.562 149.887 104.562 149.887C104.737 150.927 104.533 151.995 103.987 152.897C102.432 155.247 98.1235 155.133 95.3906 155.083C92.6576 155.034 84.9344 152.343 83.4082 151.981L83.5573 134.412C83.5573 134.412 95.8875 131.133 99.096 131.644C101.779 132.07 106.961 133.972 107.643 136.002Z" fill="#AD6359"/>
<path d="M106.529 138.679C103.761 137.529 100.808 137.259 97.8759 136.826C97.865 136.83 97.8557 136.837 97.849 136.847C97.8424 136.857 97.8389 136.868 97.8389 136.879C97.8389 136.891 97.8424 136.902 97.849 136.912C97.8557 136.921 97.865 136.929 97.8759 136.933C100.793 137.33 103.604 138.303 106.501 138.814C106.517 138.813 106.532 138.807 106.544 138.797C106.556 138.787 106.564 138.773 106.568 138.757C106.571 138.742 106.569 138.726 106.562 138.712C106.555 138.697 106.543 138.686 106.529 138.679Z" fill="#263238"/>
<path d="M105.719 143.853C105.065 143.651 104.387 143.536 103.703 143.513C102.993 143.442 102.283 143.385 101.573 143.342C100.154 143.25 98.6773 143.186 97.2292 143.172C97.1653 143.172 97.1511 143.264 97.2292 143.271C98.6489 143.361 100.088 143.484 101.545 143.64L103.675 143.889C104.346 144.019 105.029 144.071 105.712 144.045C105.733 144.04 105.752 144.028 105.766 144.011C105.78 143.995 105.788 143.974 105.789 143.952C105.79 143.93 105.783 143.909 105.771 143.891C105.758 143.873 105.74 143.86 105.719 143.853Z" fill="#263238"/>
<path d="M104.484 149.881C103.889 149.713 103.27 149.644 102.653 149.675L100.679 149.583C99.3588 149.505 98.0385 149.434 96.7252 149.32C96.6614 149.32 96.6472 149.413 96.7252 149.42C98.0598 149.547 99.3943 149.689 100.729 149.803L102.702 149.966C103.296 150.069 103.904 150.069 104.498 149.966C104.509 149.964 104.52 149.958 104.526 149.949C104.533 149.939 104.536 149.928 104.534 149.917C104.532 149.905 104.525 149.895 104.516 149.889C104.507 149.882 104.495 149.879 104.484 149.881Z" fill="#263238"/>
<path d="M75.5082 134.093C74.4201 134.086 73.333 134.165 72.2571 134.327C71.1781 134.441 70.1275 134.626 69.0414 134.831C66.9493 135.278 64.8978 135.898 62.9083 136.684C62.8444 136.684 62.9083 136.812 62.9083 136.791C65.0378 136.216 67.1674 135.768 69.297 135.307C70.3405 135.087 71.384 134.888 72.4274 134.689C73.4709 134.491 74.4931 134.406 75.494 134.164C75.5721 134.157 75.5437 134.1 75.5082 134.093Z" fill="#263238"/>
<path d="M64.0371 123.885L79.8243 126.994C83.24 122.166 86.3688 117.141 89.1944 111.945C93.4535 103.981 90.032 103.626 80.4774 109.759C74.4156 113.745 68.8904 118.493 64.0371 123.885Z" fill="#FFC727"/>
<path d="M84.2678 110.05C84.2995 110.208 84.2958 110.37 84.257 110.526C84.2182 110.682 84.1452 110.828 84.0433 110.952C83.9414 111.076 83.8132 111.177 83.6679 111.245C83.5226 111.314 83.3638 111.35 83.2031 111.35C83.0423 111.35 82.8835 111.314 82.7382 111.245C82.5929 111.177 82.4647 111.076 82.3628 110.952C82.261 110.828 82.188 110.682 82.1491 110.526C82.1103 110.37 82.1066 110.208 82.1383 110.05C82.1877 109.804 82.3208 109.583 82.5149 109.424C82.709 109.265 82.9522 109.178 83.2031 109.178C83.454 109.178 83.6971 109.265 83.8912 109.424C84.0853 109.583 84.2184 109.804 84.2678 110.05ZM71.8383 117.915C71.6229 117.914 71.4119 117.976 71.2322 118.095C71.0525 118.214 70.9122 118.384 70.8291 118.582C70.7461 118.781 70.724 119 70.7656 119.211C70.8073 119.423 70.9109 119.617 71.0632 119.769C71.2155 119.921 71.4097 120.025 71.621 120.067C71.8324 120.108 72.0513 120.086 72.2501 120.003C72.4488 119.92 72.6184 119.78 72.7372 119.6C72.856 119.42 72.9187 119.209 72.9173 118.994C72.9173 118.708 72.8036 118.433 72.6012 118.231C72.3989 118.029 72.1244 117.915 71.8383 117.915ZM83.3876 121.287C83.186 121.287 82.9885 121.344 82.8176 121.451C82.6466 121.558 82.5089 121.71 82.4203 121.891C82.3316 122.072 82.2954 122.275 82.3158 122.475C82.3362 122.676 82.4124 122.867 82.5358 123.026C82.8836 122.501 83.2457 121.933 83.6503 121.322C83.5645 121.3 83.4763 121.288 83.3876 121.287ZM86.6814 116.254C86.674 116.294 86.674 116.335 86.6814 116.375C86.9014 116.013 87.1144 115.665 87.3344 115.26C87.1396 115.343 86.9737 115.481 86.8574 115.658C86.7412 115.835 86.68 116.042 86.6814 116.254ZM78.7949 115.693C78.5801 115.693 78.3701 115.757 78.1915 115.876C78.0129 115.996 77.8737 116.165 77.7915 116.364C77.7093 116.562 77.6877 116.781 77.7296 116.991C77.7716 117.202 77.875 117.395 78.0269 117.547C78.1788 117.699 78.3723 117.803 78.583 117.845C78.7937 117.886 79.012 117.865 79.2105 117.783C79.4089 117.701 79.5786 117.561 79.6979 117.383C79.8172 117.204 79.8809 116.994 79.8809 116.779C79.8809 116.491 79.7665 116.215 79.5628 116.011C79.3592 115.808 79.0829 115.693 78.7949 115.693ZM90.3229 109.184C90.3121 109.271 90.3121 109.359 90.3229 109.446C90.4862 109.042 90.614 108.673 90.7133 108.332C90.592 108.437 90.4962 108.568 90.4335 108.716C90.3707 108.864 90.3426 109.024 90.3513 109.184H90.3229ZM75.7283 123.012C75.5149 123.012 75.3063 123.075 75.1288 123.194C74.9514 123.312 74.8131 123.481 74.7314 123.678C74.6498 123.875 74.6284 124.092 74.67 124.301C74.7117 124.511 74.8144 124.703 74.9653 124.854C75.1162 125.005 75.3085 125.107 75.5178 125.149C75.7271 125.191 75.944 125.169 76.1412 125.088C76.3384 125.006 76.5069 124.868 76.6254 124.69C76.744 124.513 76.8073 124.304 76.8073 124.091C76.8056 123.81 76.6952 123.541 76.4993 123.34C76.3035 123.139 76.0373 123.021 75.7567 123.012H75.7283Z" fill="white"/>
<path d="M80.4558 124.091C76.109 123.494 71.7983 122.658 67.5436 121.586C67.4939 121.586 67.5436 121.493 67.5436 121.5C68.58 121.763 75.6856 122.849 80.4629 124.006C80.5481 124.02 80.5126 124.098 80.4558 124.091Z" fill="#263238"/>
<path d="M86.3688 118.199L85.4176 119.207C85.3466 119.278 85.2827 119.356 85.2117 119.434C85.9216 118.221 86.5605 116.985 87.1851 115.743H87.1425C85.9287 117.624 84.7006 119.505 83.5081 121.422C82.3155 123.339 81.0449 125.092 79.9588 127.016L79.2489 126.895C79.2381 126.899 79.2287 126.906 79.2221 126.916C79.2155 126.925 79.2119 126.937 79.2119 126.948C79.2119 126.96 79.2155 126.971 79.2221 126.981C79.2287 126.99 79.2381 126.997 79.2489 127.001L80.0369 127.271C80.0583 127.278 80.0811 127.278 80.1026 127.272C80.1241 127.265 80.1432 127.253 80.1576 127.236C81.5323 125.487 82.7869 123.646 83.9127 121.727C84.2321 121.209 84.5516 120.684 84.8568 120.151C84.8791 120.122 84.9054 120.096 84.9349 120.073L85.2543 119.718C85.6755 119.268 86.0713 118.794 86.4398 118.299C86.4398 118.299 86.3901 118.135 86.3688 118.199Z" fill="#263238"/>
<path d="M90.8113 107.416C91.0669 108.02 94.8007 111.533 97.6402 110.88C98.563 110.66 97.6402 105.563 97.6402 105.563V105.173L97.8602 99.6858L90.932 96.8464L89.9453 96.4844C89.9453 96.4844 89.9453 97.9893 90.0518 99.8633C90.0518 99.9556 90.0518 100.041 90.0518 100.133C90.0518 100.225 90.0518 100.339 90.0518 100.438C90.0518 100.715 90.0518 101.006 90.0518 101.29C90.0518 101.574 90.0518 101.716 90.0518 101.943C90.0518 102.17 90.0518 102.397 90.0944 102.653C90.2258 104.255 90.4653 105.846 90.8113 107.416Z" fill="#AD6359"/>
<path d="M90.0391 99.8562C90.8416 101.241 91.9362 102.434 93.2467 103.352C94.5573 104.27 96.0522 104.891 97.6275 105.173L97.8475 99.6858L90.9193 96.8464L89.9326 96.4844C89.9326 96.4844 89.9681 97.9822 90.0391 99.8562Z" fill="#263238"/>
<path d="M104.384 90.7639C106.599 100.148 101.225 102.533 99.2022 103.009C97.3637 103.442 91.0531 104.67 87.8446 95.5625C84.636 86.4551 88.3414 82.4586 92.487 81.2519C96.6326 80.0451 102.177 81.3725 104.384 90.7639Z" fill="#AD6359"/>
<path d="M102.61 88.7611C102.388 88.7753 102.165 88.7753 101.943 88.7611C101.7 88.8105 101.448 88.7701 101.233 88.6476C101.174 88.6006 101.132 88.5354 101.114 88.4622C101.096 88.389 101.103 88.3119 101.134 88.2429C101.217 88.1156 101.332 88.0125 101.468 87.944C101.604 87.8754 101.756 87.8439 101.907 87.8525C102.218 87.8281 102.526 87.9191 102.773 88.1081C102.829 88.1521 102.871 88.2113 102.894 88.2786C102.917 88.3459 102.92 88.4184 102.903 88.4874C102.886 88.5564 102.849 88.6189 102.797 88.6674C102.745 88.716 102.68 88.7485 102.61 88.7611Z" fill="#263238"/>
<path d="M96.4554 90.2526C96.6595 90.1695 96.8586 90.0747 97.0517 89.9687C97.2789 89.901 97.4766 89.7584 97.6125 89.5641C97.6438 89.4959 97.6517 89.4193 97.6351 89.3461C97.6184 89.2729 97.578 89.2073 97.5202 89.1595C97.3893 89.0813 97.2397 89.04 97.0872 89.04C96.9347 89.04 96.7851 89.0813 96.6542 89.1595C96.3652 89.2728 96.1296 89.4907 95.994 89.7699C95.9655 89.8353 95.957 89.9077 95.9695 89.9779C95.9819 90.0482 96.0149 90.1132 96.0642 90.1647C96.1135 90.2163 96.1769 90.2522 96.2465 90.2678C96.3161 90.2834 96.3888 90.2782 96.4554 90.2526Z" fill="#263238"/>
<path d="M97.0168 92.63C96.9843 92.6997 96.9385 92.7624 96.8819 92.8145C96.8405 92.8617 96.789 92.8989 96.7313 92.9235C96.6735 92.9481 96.611 92.9594 96.5483 92.9565C96.1579 92.9565 95.9591 92.559 95.9023 92.1686C96.0798 92.3531 96.2857 92.5448 96.5057 92.4951C96.6572 92.4337 96.7861 92.3271 96.8748 92.1899C96.9054 92.3414 96.9531 92.4891 97.0168 92.63Z" fill="#263238"/>
<path d="M96.8451 92.5381C96.8357 92.3583 96.8749 92.1793 96.9587 92.0199C97.0077 91.9321 97.0748 91.8556 97.1556 91.7956C97.2363 91.7357 97.3289 91.6936 97.4272 91.6721C97.5264 91.6519 97.6289 91.6554 97.7264 91.6826C97.8239 91.7097 97.9136 91.7597 97.988 91.8283C98.121 91.9491 98.2232 92.1 98.2861 92.2684C98.3221 92.3679 98.3505 92.4699 98.3713 92.5736C98.4245 92.7881 98.4245 93.0122 98.3713 93.2267C98.3439 93.0691 98.3011 92.9145 98.2435 92.7653C98.195 92.6294 98.1332 92.4986 98.059 92.3749C97.917 92.1193 97.7041 91.9276 97.4911 91.9844C97.2781 92.0412 97.1291 92.2542 97.0936 92.5523C97.0654 92.8569 97.0654 93.1634 97.0936 93.468C96.9384 93.1821 96.8533 92.8634 96.8451 92.5381Z" fill="#263238"/>
<path d="M103.121 91.1612C103.188 91.2008 103.26 91.2319 103.334 91.2535C103.394 91.2691 103.457 91.2721 103.518 91.2624C103.579 91.2526 103.637 91.2302 103.689 91.1967C104.023 90.9838 103.987 90.5508 103.824 90.1816C103.774 90.4372 103.696 90.7069 103.483 90.7779C103.322 90.8052 103.156 90.7829 103.008 90.714C103.066 90.8573 103.104 91.0077 103.121 91.1612Z" fill="#263238"/>
<path d="M103.22 91.0044C103.136 90.8419 103.008 90.7065 102.851 90.6139C102.763 90.5659 102.667 90.5366 102.568 90.528C102.469 90.5195 102.37 90.5318 102.276 90.5643C102.179 90.6004 102.093 90.6583 102.022 90.7334C101.952 90.8085 101.9 90.8988 101.871 90.9973C101.832 91.1702 101.832 91.3496 101.871 91.5226C101.892 91.6263 101.92 91.7283 101.956 91.8278C102.025 92.0379 102.145 92.2279 102.304 92.3815C102.24 92.2365 102.194 92.0838 102.169 91.9272C102.142 91.7842 102.126 91.6395 102.119 91.4942C102.119 91.2031 102.19 90.9263 102.403 90.8695C102.616 90.8127 102.851 90.8695 103.035 91.1392C103.213 91.3897 103.367 91.6558 103.496 91.9343C103.479 91.6068 103.384 91.2882 103.22 91.0044Z" fill="#263238"/>
<path d="M101.467 94.5122C101.467 94.5122 101.822 95.435 101.929 95.8893C101.929 95.9319 101.83 95.9745 101.68 96.0171C101.309 96.1778 100.901 96.2331 100.5 96.1767C100.099 96.1204 99.7215 95.9546 99.4089 95.6976C99.3663 95.6621 99.4089 95.6053 99.4657 95.6195C100.131 95.8811 100.864 95.9185 101.553 95.726C101.553 95.5982 100.893 94.1643 100.963 94.143C101.319 94.0966 101.68 94.0966 102.035 94.143C101.326 92.198 100.367 90.3737 99.7212 88.4642C99.7212 88.3932 99.7922 88.3435 99.8277 88.4074C100.949 90.3257 101.874 92.3519 102.589 94.4554C102.674 94.6683 101.666 94.5477 101.467 94.5122Z" fill="#263238"/>
<path d="M101.601 95.7176C101.464 96.15 101.22 96.5407 100.891 96.8534C100.69 97.0195 100.441 97.1187 100.181 97.1373C99.6345 97.1799 99.4712 96.7256 99.4145 96.2997C99.3866 96.0639 99.3866 95.8256 99.4145 95.5898C100.111 95.8662 100.877 95.911 101.601 95.7176Z" fill="#263238"/>
<path d="M100.863 96.839C100.662 97.0051 100.414 97.1043 100.153 97.1229C99.6068 97.1655 99.4435 96.7112 99.3867 96.2853C99.6591 96.1952 99.9541 96.201 100.223 96.3017C100.491 96.4024 100.717 96.592 100.863 96.839Z" fill="#FF9BBC"/>
<path d="M88.1786 95.1789C90.4643 94.682 89.5983 91.0901 89.5983 91.0901C89.5983 91.0901 92.1254 90.2738 91.3729 86.0572C92.0651 86.7812 92.9157 87.3349 93.8579 87.6749C94.8001 88.0148 95.8083 88.1317 96.8033 88.0164C97.57 87.9526 94.6737 86.5967 94.6737 86.5967C94.6737 86.5967 98.2656 88.6198 103.561 86.3412C103.937 86.185 102.078 79.8815 97.2931 78.8735C92.5087 77.8655 88.5548 80.5417 86.4962 83.8851C86.4962 83.8851 82.8759 86.8736 83.2025 89.9686C83.529 93.0635 87.3125 95.3706 88.1786 95.1789Z" fill="#263238"/>
<path d="M90.3149 95.2223C90.3149 95.2223 87.7949 92.5462 86.5527 93.4832C85.3104 94.4202 87.511 98.5161 89.1791 98.871C89.3903 98.9329 89.6118 98.9512 89.8303 98.925C90.0488 98.8987 90.2597 98.8283 90.4502 98.7182C90.6406 98.608 90.8068 98.4603 90.9385 98.284C91.0702 98.1077 91.1648 97.9065 91.2164 97.6926L90.3149 95.2223Z" fill="#AD6359"/>
<path d="M173.205 67.4368C172.956 65.1431 172.838 62.8371 172.851 60.5299C172.838 58.2228 172.956 55.9168 173.205 53.623C173.462 55.9162 173.58 58.2226 173.56 60.5299C173.58 62.8373 173.462 65.1437 173.205 67.4368Z" fill="#263238"/>
<path d="M159.165 71.504C157.796 69.6452 156.54 67.7062 155.402 65.6974C154.234 63.7099 153.183 61.6548 152.258 59.543C154.96 63.2851 157.275 67.2928 159.165 71.504Z" fill="#263238"/>
<path d="M149.021 82.0521C146.907 81.125 144.85 80.075 142.859 78.9075C140.854 77.7701 138.918 76.5163 137.06 75.1523C139.172 76.0766 141.227 77.1267 143.214 78.297C145.22 79.436 147.159 80.6898 149.021 82.0521Z" fill="#263238"/>
<path d="M197.986 81.0873C199.844 79.7234 201.781 78.4695 203.786 77.3322C205.775 76.1618 207.833 75.1117 209.947 74.1875C208.087 75.5515 206.148 76.8053 204.141 77.9426C202.152 79.1102 200.097 80.1602 197.986 81.0873Z" fill="#263238"/>
<path d="M187.402 70.9435C188.334 68.8344 189.384 66.7796 190.547 64.789C191.689 62.7833 192.945 60.8446 194.309 58.9824C193.382 61.0959 192.332 63.1532 191.165 65.144C190.025 67.1489 188.769 69.0854 187.402 70.9435Z" fill="#263238"/>
<path d="M197.823 163.192L195.303 163.653L194.742 166.308L194.181 163.653L191.661 163.192L194.174 162.574L194.742 160.068L195.317 162.574L197.823 163.192Z" fill="#FFC727"/>
<path d="M169.321 78.5411L166.809 79.0096L166.241 81.6573L165.68 79.0096L163.167 78.5411L165.673 77.9306L166.241 75.4248L166.816 77.9306L169.321 78.5411Z" fill="#FFC727"/>
<path d="M148.075 140.86L145.562 141.321L145.002 143.976L144.441 141.321L141.921 140.853L144.427 140.242L145.002 137.736L145.57 140.242L148.075 140.86Z" fill="#FFC727"/>
<path d="M210.116 122.695L207.603 123.156L207.043 125.811L206.475 123.156L203.962 122.695L206.468 122.077L207.043 119.571L207.611 122.077L210.116 122.695Z" fill="#FFC727"/>
<path d="M230.34 114.02L228.935 114.282L228.622 115.766L228.303 114.282L226.897 114.02L228.303 113.679L228.622 112.273L228.942 113.679L230.34 114.02Z" fill="#FFC727"/>
<path d="M169.442 159.941L168.036 160.196L167.717 161.68L167.405 160.196L165.999 159.941L167.397 159.593L167.717 158.194L168.036 159.593L169.442 159.941Z" fill="#FFC727"/>
<path d="M192.099 80.4081L190.694 80.6707L190.381 82.1543L190.062 80.6707L188.656 80.4081L190.062 80.0674L190.381 78.6689L190.701 80.0674L192.099 80.4081Z" fill="#FFC727"/>
<path d="M219.543 138.005L218.138 138.261L217.818 139.744L217.506 138.261L216.101 138.005L217.499 137.657L217.818 136.259L218.138 137.657L219.543 138.005Z" fill="#FFC727"/>
<path d="M208.101 140.852L206.695 141.115L206.383 142.599L206.064 141.115L204.658 140.852L206.057 140.512L206.383 139.113L206.703 140.512L208.101 140.852Z" fill="#FFC727"/>
<path d="M138.848 152.161L137.443 152.424L137.123 153.907L136.811 152.424L135.405 152.161L136.804 151.82L137.123 150.422L137.443 151.82L138.848 152.161Z" fill="#FFC727"/>
<path d="M146.5 110.598L145.095 110.86L144.775 112.337L144.463 110.86L143.058 110.598L144.456 110.257L144.775 108.852L145.095 110.257L146.5 110.598Z" fill="#FFC727"/>
<path d="M202.308 147.481C202.209 147.495 202.118 147.543 202.052 147.618C201.986 147.693 201.95 147.79 201.95 147.89C201.95 147.989 201.986 148.086 202.052 148.161C202.118 148.236 202.209 148.285 202.308 148.298C202.407 148.285 202.498 148.236 202.564 148.161C202.629 148.086 202.666 147.989 202.666 147.89C202.666 147.79 202.629 147.693 202.564 147.618C202.498 147.543 202.407 147.495 202.308 147.481Z" fill="#FFC727"/>
<path d="M135.866 86.7969C135.767 86.81 135.676 86.8586 135.61 86.9337C135.544 87.0087 135.508 87.1052 135.508 87.205C135.508 87.3049 135.544 87.4013 135.61 87.4764C135.676 87.5515 135.767 87.6001 135.866 87.6132C135.965 87.6001 136.055 87.5515 136.121 87.4764C136.187 87.4013 136.223 87.3049 136.223 87.205C136.223 87.1052 136.187 87.0087 136.121 86.9337C136.055 86.8586 135.965 86.81 135.866 86.7969Z" fill="#FFC727"/>
<path d="M216.101 108.554C216.002 108.567 215.911 108.615 215.845 108.69C215.779 108.766 215.743 108.862 215.743 108.962C215.743 109.062 215.779 109.158 215.845 109.233C215.911 109.308 216.002 109.357 216.101 109.37C216.2 109.357 216.291 109.308 216.357 109.233C216.422 109.158 216.459 109.062 216.459 108.962C216.459 108.862 216.422 108.766 216.357 108.69C216.291 108.615 216.2 108.567 216.101 108.554Z" fill="#FFC727"/>
<path d="M133.388 138.723C133.289 138.736 133.198 138.784 133.132 138.859C133.067 138.935 133.03 139.031 133.03 139.131C133.03 139.231 133.067 139.327 133.132 139.402C133.198 139.477 133.289 139.526 133.388 139.539C133.487 139.526 133.578 139.477 133.644 139.402C133.71 139.327 133.746 139.231 133.746 139.131C133.746 139.031 133.71 138.935 133.644 138.859C133.578 138.784 133.487 138.736 133.388 138.723Z" fill="#FFC727"/>
<path d="M128.767 118.995C128.699 119.006 128.636 119.041 128.591 119.094C128.546 119.146 128.521 119.213 128.521 119.283C128.521 119.352 128.546 119.419 128.591 119.472C128.636 119.524 128.699 119.559 128.767 119.57C128.836 119.559 128.898 119.524 128.943 119.472C128.988 119.419 129.013 119.352 129.013 119.283C129.013 119.213 128.988 119.146 128.943 119.094C128.898 119.041 128.836 119.006 128.767 118.995Z" fill="#FFC727"/>
<path d="M174.787 156.604C174.71 156.604 174.636 156.634 174.581 156.689C174.527 156.743 174.496 156.817 174.496 156.895C174.496 156.972 174.527 157.046 174.581 157.1C174.636 157.155 174.71 157.186 174.787 157.186C174.864 157.186 174.938 157.155 174.993 157.1C175.048 157.046 175.078 156.972 175.078 156.895C175.078 156.817 175.048 156.743 174.993 156.689C174.938 156.634 174.864 156.604 174.787 156.604Z" fill="#FFC727"/>
<path d="M152.42 169.111C152.351 169.122 152.289 169.157 152.244 169.21C152.199 169.262 152.174 169.329 152.174 169.399C152.174 169.468 152.199 169.535 152.244 169.588C152.289 169.641 152.351 169.676 152.42 169.686C152.488 169.676 152.55 169.641 152.595 169.588C152.641 169.535 152.665 169.468 152.665 169.399C152.665 169.329 152.641 169.262 152.595 169.21C152.55 169.157 152.488 169.122 152.42 169.111Z" fill="#FFC727"/>
<path d="M193.627 151.5C193.432 151.519 193.251 151.609 193.119 151.754C192.987 151.899 192.914 152.088 192.914 152.284C192.914 152.48 192.987 152.669 193.119 152.814C193.251 152.96 193.432 153.05 193.627 153.069C193.822 153.05 194.004 152.96 194.136 152.814C194.267 152.669 194.341 152.48 194.341 152.284C194.341 152.088 194.267 151.899 194.136 151.754C194.004 151.609 193.822 151.519 193.627 151.5Z" fill="#FFC727"/>
<path d="M174.51 73.0254C174.315 73.044 174.134 73.1346 174.002 73.2797C173.87 73.4247 173.797 73.6137 173.797 73.8098C173.797 74.0058 173.87 74.1948 174.002 74.3399C174.134 74.4849 174.315 74.5756 174.51 74.5942C174.705 74.5756 174.886 74.4849 175.018 74.3399C175.15 74.1948 175.223 74.0058 175.223 73.8098C175.223 73.6137 175.15 73.4247 175.018 73.2797C174.886 73.1346 174.705 73.044 174.51 73.0254Z" fill="#FFC727"/>
<path d="M156.112 166.457C155.905 166.457 155.706 166.539 155.56 166.686C155.413 166.832 155.331 167.031 155.331 167.238C155.331 167.445 155.413 167.644 155.56 167.79C155.706 167.936 155.905 168.019 156.112 168.019C156.319 168.019 156.518 167.936 156.664 167.79C156.81 167.644 156.893 167.445 156.893 167.238C156.893 167.031 156.81 166.832 156.664 166.686C156.518 166.539 156.319 166.457 156.112 166.457Z" fill="#FFC727"/>
</g>
<defs>
<clipPath id="clip0_4830_15677">
<rect y="0.782227" width="342" height="205.426" rx="8.85936" fill="white"/>
</clipPath>
</defs>
</svg>
