<svg width="32" height="32" viewBox="0 0 32 32" fill="none" xmlns="http://www.w3.org/2000/svg">
<circle cx="16" cy="16" r="16" fill="#007A61"/>
<path d="M20.5 22.1453H19.93C19.33 22.1453 18.76 22.3778 18.34 22.7978L17.0575 24.0653C16.4725 24.6428 15.52 24.6428 14.935 24.0653L13.6525 22.7978C13.2325 22.3778 12.655 22.1453 12.0625 22.1453H11.5C10.255 22.1453 9.25 21.1478 9.25 19.9178V11.7353C9.25 10.5053 10.255 9.50781 11.5 9.50781H20.5C21.745 9.50781 22.75 10.5053 22.75 11.7353V19.9178C22.75 21.1403 21.745 22.1453 20.5 22.1453Z" stroke="white" stroke-width="1.5" stroke-miterlimit="10" stroke-linecap="round" stroke-linejoin="round"/>
<path d="M12.25 14.8701C12.25 14.1726 12.82 13.6025 13.5175 13.6025C14.215 13.6025 14.785 14.1726 14.785 14.8701C14.785 16.2801 12.7825 16.4301 12.34 17.7726C12.25 18.0501 12.4825 18.3276 12.775 18.3276H14.785" stroke="white" stroke-width="1.5" stroke-linecap="round" stroke-linejoin="round"/>
<path d="M19.0303 18.3197V14.0372C19.0303 13.8422 18.9028 13.6696 18.7153 13.6171C18.5278 13.5646 18.3253 13.6396 18.2203 13.8046C17.6803 14.6746 17.0953 15.6647 16.5853 16.5347C16.5028 16.6772 16.5028 16.8647 16.5853 17.0072C16.6678 17.1497 16.8253 17.2396 16.9978 17.2396H19.7503" stroke="white" stroke-width="1.5" stroke-linecap="round" stroke-linejoin="round"/>
</svg>
