<svg width="47" height="46" viewBox="0 0 47 46" fill="none" xmlns="http://www.w3.org/2000/svg">
<rect x="3.5" y="3" width="40" height="40" rx="20" fill="#F2F4F7"/>
<rect x="3.5" y="3" width="40" height="40" rx="20" stroke="#F9FAFB" stroke-width="6"/>
<g clip-path="url(#clip0_876_77875)">
<path d="M26.8335 26.3352L23.5002 23.0019M23.5002 23.0019L20.1669 26.3352M23.5002 23.0019V30.5019M30.4919 28.3269C31.3047 27.8838 31.9467 27.1826 32.3168 26.334C32.6868 25.4855 32.7637 24.5379 32.5354 23.6408C32.307 22.7436 31.7865 21.9481 31.0558 21.3797C30.3251 20.8113 29.4259 20.5025 28.5002 20.5019H27.4502C27.198 19.5262 26.7278 18.6205 26.0752 17.8527C25.4225 17.0849 24.6042 16.4751 23.682 16.069C22.7597 15.663 21.7573 15.4713 20.7503 15.5084C19.7433 15.5455 18.7578 15.8104 17.8679 16.2832C16.9779 16.7561 16.2068 17.4244 15.6124 18.2382C15.018 19.0519 14.6158 19.9898 14.436 20.9814C14.2563 21.9729 14.3036 22.9923 14.5746 23.9629C14.8455 24.9335 15.3329 25.8301 16.0002 26.5852" stroke="#475467" stroke-width="1.66667" stroke-linecap="round" stroke-linejoin="round"/>
</g>
<defs>
<clipPath id="clip0_876_77875">
<rect width="20" height="20" fill="white" transform="translate(13.5 13)"/>
</clipPath>
</defs>
</svg>
