<svg width="32" height="32" viewBox="0 0 32 32" fill="none" xmlns="http://www.w3.org/2000/svg">
<circle cx="16" cy="16" r="16" fill="#007A61"/>
<path d="M21.2965 22.7272C19.8308 24.1929 16.0771 22.8157 12.9125 19.651C9.74779 16.4864 8.37054 12.7327 9.83628 11.2669L10.8014 10.3019C11.4676 9.63562 12.5654 9.65323 13.2534 10.3412L14.7482 11.836C15.4362 12.524 15.4538 13.6218 14.7875 14.288L14.5802 14.4953C14.2205 14.855 14.1853 15.4353 14.5196 15.8404C14.842 16.2311 15.1896 16.6202 15.5664 16.9971C15.9433 17.3739 16.3324 17.7215 16.7231 18.0439C17.1281 18.3781 17.7084 18.343 18.0681 17.9832L18.2754 17.7759C18.9417 17.1097 20.0395 17.1273 20.7275 17.8153L22.2223 19.3101C22.9102 19.9981 22.9279 21.0959 22.2616 21.7621L21.2965 22.7272Z" stroke="white" stroke-width="1.125"/>
<path d="M20.2201 14.3129C20.0371 13.8665 19.7644 13.4483 19.402 13.0858C19.06 12.7439 18.6684 12.4818 18.2503 12.2995" stroke="white" stroke-width="1.125" stroke-linecap="round"/>
<path d="M18.2509 9.74719C19.2518 10.1098 20.191 10.6924 20.9935 11.4949C21.8161 12.3175 22.4076 13.2838 22.7681 14.313" stroke="white" stroke-width="1.125" stroke-linecap="round"/>
</svg>
