<svg width="32" height="32" viewBox="0 0 32 32" fill="none" xmlns="http://www.w3.org/2000/svg">
<circle cx="16" cy="16" r="16" fill="#007A61"/>
<path d="M19.375 22.5625H12.625C12.0625 22.5625 11.65 22.54 11.2975 22.4875C8.8075 22.2175 8.3125 20.725 8.3125 18.25V13.75C8.3125 11.275 8.8075 9.7825 11.32 9.505C11.65 9.46 12.0625 9.4375 12.625 9.4375H19.375C19.9375 9.4375 20.35 9.46 20.7025 9.5125C23.1925 9.7825 23.6875 11.275 23.6875 13.75V18.25C23.6875 20.725 23.1925 22.2175 20.68 22.495C20.35 22.54 19.9375 22.5625 19.375 22.5625ZM12.625 10.5625C12.115 10.5625 11.755 10.585 11.4625 10.6225C9.94 10.795 9.4375 11.2675 9.4375 13.75V18.25C9.4375 20.7325 9.94 21.205 11.44 21.3775C11.755 21.4225 12.115 21.4375 12.625 21.4375H19.375C19.885 21.4375 20.245 21.415 20.5375 21.3775C22.06 21.2125 22.5625 20.7325 22.5625 18.25V13.75C22.5625 11.2675 22.06 10.795 20.56 10.6225C20.245 10.5775 19.885 10.5625 19.375 10.5625H12.625Z" fill="white"/>
<path d="M10.75 18.9027C10.75 19.0366 10.8032 19.165 10.8979 19.2596C10.9925 19.3543 11.1209 19.4075 11.2548 19.4075C11.3887 19.4075 11.5171 19.3543 11.6118 19.2596C11.7064 19.165 11.7596 19.0366 11.7596 18.9027C11.7596 18.501 11.9192 18.1158 12.2032 17.8318C12.4872 17.5478 12.8724 17.3883 13.274 17.3883C13.6757 17.3883 14.0609 17.5478 14.3449 17.8318C14.6289 18.1158 14.7884 18.501 14.7884 18.9027C14.7884 19.0366 14.8416 19.165 14.9363 19.2596C15.031 19.3543 15.1594 19.4075 15.2933 19.4075C15.4271 19.4075 15.5555 19.3543 15.6502 19.2596C15.7449 19.165 15.7981 19.0366 15.7981 18.9027C15.7976 18.496 15.6987 18.0956 15.5099 17.7354C15.321 17.3753 15.0479 17.0662 14.7137 16.8346C15.0488 16.5416 15.2867 16.1533 15.3954 15.7217C15.504 15.29 15.4784 14.8354 15.322 14.4186C15.1655 14.0019 14.8856 13.6428 14.5197 13.3893C14.1538 13.1358 13.7192 13 13.274 13C12.8289 13 12.3943 13.1358 12.0284 13.3893C11.6624 13.6428 11.3825 14.0019 11.2261 14.4186C11.0696 14.8354 11.044 15.29 11.1527 15.7217C11.2614 16.1533 11.4992 16.5416 11.8344 16.8346C11.5002 17.0662 11.227 17.3753 11.0382 17.7354C10.8494 18.0956 10.7505 18.496 10.75 18.9027ZM12.0961 15.2008C12.0961 14.9678 12.1652 14.7401 12.2947 14.5464C12.4241 14.3527 12.608 14.2017 12.8233 14.1125C13.0385 14.0234 13.2753 14.0001 13.5038 14.0455C13.7323 14.091 13.9422 14.2031 14.1069 14.3679C14.2716 14.5326 14.3838 14.7425 14.4293 14.971C14.4747 15.1995 14.4514 15.4363 14.3622 15.6515C14.2731 15.8667 14.1221 16.0507 13.9284 16.1801C13.7347 16.3096 13.507 16.3786 13.274 16.3786C12.9618 16.3783 12.6624 16.254 12.4416 16.0332C12.2207 15.8124 12.0965 15.513 12.0961 15.2008Z" fill="white"/>
<path d="M20.3416 13.6865H17.6493C17.5155 13.6865 17.3871 13.7397 17.2924 13.8344C17.1977 13.929 17.1445 14.0574 17.1445 14.1913C17.1445 14.3252 17.1977 14.4536 17.2924 14.5483C17.3871 14.643 17.5155 14.6961 17.6493 14.6961H20.3416C20.4755 14.6961 20.6039 14.643 20.6986 14.5483C20.7933 14.4536 20.8464 14.3252 20.8464 14.1913C20.8464 14.0574 20.7933 13.929 20.6986 13.8344C20.6039 13.7397 20.4755 13.6865 20.3416 13.6865Z" fill="white"/>
<path d="M20.3416 16.042H17.6493C17.5155 16.042 17.3871 16.0952 17.2924 16.1898C17.1977 16.2845 17.1445 16.4129 17.1445 16.5468C17.1445 16.6807 17.1977 16.8091 17.2924 16.9037C17.3871 16.9984 17.5155 17.0516 17.6493 17.0516H20.3416C20.4755 17.0516 20.6039 16.9984 20.6986 16.9037C20.7933 16.8091 20.8464 16.6807 20.8464 16.5468C20.8464 16.4129 20.7933 16.2845 20.6986 16.1898C20.6039 16.0952 20.4755 16.042 20.3416 16.042Z" fill="white"/>
</svg>
