<svg width="21" height="20" viewBox="0 0 21 20" fill="none" xmlns="http://www.w3.org/2000/svg">
<path d="M10.625 13.75V15.5" stroke="#007A61" stroke-width="1.2" stroke-linecap="round" stroke-linejoin="round"/>
<path d="M6.4585 18.333H14.7918V17.4997C14.7918 16.583 14.0418 15.833 13.1252 15.833H8.12516C7.2085 15.833 6.4585 16.583 6.4585 17.4997V18.333V18.333Z" stroke="#007A61" stroke-width="1.2" stroke-miterlimit="10"/>
<path d="M5.625 18.333H15.625" stroke="#007A61" stroke-width="1.2" stroke-linecap="round" stroke-linejoin="round"/>
<path d="M10.4998 13.3337C7.27484 13.3337 4.6665 10.7253 4.6665 7.50033V5.00033C4.6665 3.15866 6.15817 1.66699 7.99984 1.66699H12.9998C14.8415 1.66699 16.3332 3.15866 16.3332 5.00033V7.50033C16.3332 10.7253 13.7248 13.3337 10.4998 13.3337Z" stroke="#007A61" stroke-width="1.2" stroke-linecap="round" stroke-linejoin="round"/>
<path d="M5.05853 9.70833C4.43353 9.50833 3.88353 9.14167 3.4502 8.70833C2.7002 7.875 2.2002 6.875 2.2002 5.70833C2.2002 4.54167 3.11686 3.625 4.28353 3.625H4.8252C4.65853 4.00833 4.5752 4.43333 4.5752 4.875V7.375C4.5752 8.20833 4.7502 8.99167 5.05853 9.70833Z" stroke="#007A61" stroke-width="1.2" stroke-linecap="round" stroke-linejoin="round"/>
<path d="M15.9419 9.70833C16.5669 9.50833 17.1169 9.14167 17.5502 8.70833C18.3002 7.875 18.8002 6.875 18.8002 5.70833C18.8002 4.54167 17.8836 3.625 16.7169 3.625H16.1752C16.3419 4.00833 16.4252 4.43333 16.4252 4.875V7.375C16.4252 8.20833 16.2502 8.99167 15.9419 9.70833Z" stroke="#007A61" stroke-width="1.2" stroke-linecap="round" stroke-linejoin="round"/>
</svg>
