<svg width="36" height="36" viewBox="0 0 36 36" fill="none" xmlns="http://www.w3.org/2000/svg">
<path d="M10.5 13.0013H12.1667M12.1667 13.0013H25.5M12.1667 13.0013V24.668C12.1667 25.11 12.3423 25.5339 12.6548 25.8465C12.9674 26.159 13.3913 26.3346 13.8333 26.3346H22.1667C22.6087 26.3346 23.0326 26.159 23.3452 25.8465C23.6577 25.5339 23.8333 25.11 23.8333 24.668V13.0013H12.1667ZM14.6667 13.0013V11.3346C14.6667 10.8926 14.8423 10.4687 15.1548 10.1561C15.4674 9.84356 15.8913 9.66797 16.3333 9.66797H19.6667C20.1087 9.66797 20.5326 9.84356 20.8452 10.1561C21.1577 10.4687 21.3333 10.8926 21.3333 11.3346V13.0013M16.3333 17.168V22.168M19.6667 17.168V22.168" stroke="#667085" stroke-width="1.66667" stroke-linecap="round" stroke-linejoin="round"/>
</svg>
