<svg width="28" height="25" viewBox="0 0 28 25" fill="none" xmlns="http://www.w3.org/2000/svg">
<path fill-rule="evenodd" clip-rule="evenodd" d="M20.5231 0.0703125C22.3268 0.0703125 24.0618 0.783178 25.3383 2.0623C26.6161 3.33873 27.3303 5.06037 27.3303 6.86271V17.4884C27.3303 21.2411 24.2771 24.2808 20.5231 24.2808H7.23554C3.48156 24.2808 0.429688 21.2411 0.429688 17.4884V6.86271C0.429688 3.11008 3.46811 0.0703125 7.23554 0.0703125H20.5231ZM22.6645 8.8662L22.7721 8.75859C23.0936 8.36853 23.0936 7.80362 22.7573 7.41356C22.5704 7.21316 22.3135 7.09076 22.0458 7.06386C21.7633 7.04906 21.4943 7.14456 21.2912 7.33286L15.2265 12.175C14.4464 12.8219 13.3287 12.8219 12.5364 12.175L6.4838 7.33286C6.0655 7.02351 5.48713 7.06386 5.13877 7.42701C4.77561 7.79017 4.73526 8.36853 5.04327 8.77204L5.21947 8.9469L11.3394 13.7218C12.0926 14.3136 13.0058 14.6364 13.9622 14.6364C14.9158 14.6364 15.8452 14.3136 16.5971 13.7218L22.6645 8.8662Z" fill="white"/>
</svg>
