<svg width="46" height="45" viewBox="0 0 46 45" fill="none" xmlns="http://www.w3.org/2000/svg">
<path d="M44.5638 22.3172C44.5638 34.2283 34.908 43.8841 22.9969 43.8841C11.0859 43.8841 1.43008 34.2283 1.43008 22.3172C1.43008 10.4062 11.0859 0.750392 22.9969 0.750392C34.908 0.750392 44.5638 10.4062 44.5638 22.3172Z" fill="white" stroke="#007A61" stroke-width="1.39141"/>
<path d="M25.0598 17.8955C24.8759 17.8955 24.7191 17.9607 24.5894 18.0912C24.4596 18.2217 24.3947 18.3793 24.3947 18.5642V20.1462C24.3947 20.1897 24.4082 20.2278 24.4353 20.2604C24.4623 20.293 24.5028 20.3093 24.5569 20.3093H26.99C27.1738 20.3093 27.3306 20.3745 27.4604 20.505C27.5901 20.6355 27.655 20.7932 27.655 20.978V22.6253C27.655 22.8101 27.5901 22.9678 27.4604 23.0982C27.3306 23.2287 27.1738 23.294 26.99 23.294H24.5731C24.5191 23.294 24.4785 23.3103 24.4515 23.3429C24.4245 23.3755 24.4109 23.419 24.4109 23.4734V29.0675C24.4109 29.2524 24.3461 29.41 24.2163 29.5405C24.0865 29.671 23.9297 29.7362 23.7459 29.7362H22.0914C21.9184 29.7362 21.7643 29.671 21.6291 29.5405C21.494 29.41 21.4264 29.2524 21.4264 29.0675V23.4734C21.4264 23.419 21.4129 23.3755 21.3858 23.3429C21.3588 23.3103 21.3182 23.294 21.2642 23.294H19.415C19.2312 23.294 19.0744 23.2287 18.9446 23.0982C18.8149 22.9678 18.75 22.8101 18.75 22.6253V20.978C18.75 20.7932 18.8149 20.6355 18.9446 20.505C19.0744 20.3745 19.2312 20.3093 19.415 20.3093H21.2642C21.3182 20.3093 21.3588 20.293 21.3858 20.2604C21.4129 20.2278 21.4264 20.1897 21.4264 20.1462V17.8792C21.4264 17.0528 21.7156 16.3488 22.2942 15.7671C22.8727 15.1854 23.5729 14.8945 24.3947 14.8945H26.9738C27.1576 14.8945 27.3144 14.9598 27.4442 15.0902C27.5739 15.2207 27.6388 15.3784 27.6388 15.5632V17.2268C27.6388 17.4116 27.5739 17.5693 27.4442 17.6998C27.3144 17.8303 27.1576 17.8955 26.9738 17.8955H25.0598Z" fill="#ED7D31"/>
</svg>
