<svg width="6" height="10" viewBox="0 0 6 10" fill="none" xmlns="http://www.w3.org/2000/svg">
<path d="M4.07532 2.0546C3.96142 2.0546 3.86428 2.09502 3.78388 2.17586C3.70348 2.2567 3.66328 2.35438 3.66328 2.4689V3.44907C3.66328 3.47602 3.67166 3.49959 3.68841 3.5198C3.70516 3.54001 3.73028 3.55012 3.76378 3.55012H5.27122C5.38512 3.55012 5.48226 3.59054 5.56266 3.67138C5.64306 3.75222 5.68326 3.84989 5.68326 3.96442V4.98501C5.68326 5.09953 5.64306 5.19721 5.56266 5.27805C5.48226 5.35889 5.38512 5.3993 5.27122 5.3993H3.77383C3.74033 5.3993 3.71521 5.40941 3.69846 5.42962C3.68171 5.44983 3.67333 5.47677 3.67333 5.51046V8.97642C3.67333 9.09094 3.63313 9.18862 3.55274 9.26946C3.47234 9.3503 3.37519 9.39071 3.2613 9.39071H2.23624C2.12904 9.39071 2.03357 9.3503 1.94982 9.26946C1.86608 9.18862 1.8242 9.09094 1.8242 8.97642V5.51046C1.8242 5.47677 1.81583 5.44983 1.79908 5.42962C1.78233 5.40941 1.75721 5.3993 1.72371 5.3993H0.57805C0.464154 5.3993 0.367008 5.35889 0.286611 5.27805C0.206214 5.19721 0.166016 5.09953 0.166016 4.98501V3.96442C0.166016 3.84989 0.206214 3.75222 0.286611 3.67138C0.367008 3.59054 0.464154 3.55012 0.57805 3.55012H1.72371C1.75721 3.55012 1.78233 3.54001 1.79908 3.5198C1.81583 3.49959 1.8242 3.47602 1.8242 3.44907V2.0445C1.8242 1.53252 2.00342 1.09633 2.36186 0.735921C2.7203 0.375514 3.1541 0.195312 3.66328 0.195312H5.26117C5.37507 0.195312 5.47221 0.235731 5.55261 0.316571C5.63301 0.39741 5.67321 0.495089 5.67321 0.609611V1.6403C5.67321 1.75483 5.63301 1.85251 5.55261 1.93334C5.47221 2.01418 5.37507 2.0546 5.26117 2.0546H4.07532Z" fill="#0C111A"/>
</svg>
