<svg width="18" height="19" viewBox="0 0 18 19" fill="none" xmlns="http://www.w3.org/2000/svg">
<path d="M11.6772 11.0186C11.5183 9.97927 10.8198 9.10347 9.84244 8.71639C10.2803 7.91451 10.3542 6.9722 10.3967 6.51398C10.4586 5.71026 10.1796 4.91853 9.62628 4.33189C9.05258 3.71753 8.24978 3.36926 7.40909 3.37111C6.52683 3.36834 5.6843 3.74249 5.09584 4.40026C4.57017 4.97673 4.31612 5.75089 4.39927 6.52692C4.42514 7.28629 4.6136 8.03091 4.95358 8.71085C3.9697 9.09516 3.26575 9.97466 3.10593 11.0186C3.08283 11.1682 3.12625 11.3207 3.2251 11.4352C3.32395 11.5498 3.46806 11.6144 3.61958 11.6135H4.45287C4.6829 11.6163 4.88614 11.4648 4.9499 11.244C5.0275 10.868 5.2954 10.5594 5.65755 10.431C6.21832 10.2435 6.80032 10.1317 7.39065 10.0984C7.98097 10.1299 8.5639 10.2389 9.12559 10.4236C9.48772 10.552 9.75565 10.8606 9.83324 11.2366C9.89699 11.4574 10.1002 11.6089 10.3303 11.6061H11.1636C11.3132 11.6071 11.4564 11.5424 11.5552 11.4297C11.6532 11.317 11.6984 11.1673 11.6772 11.0186ZM6.46683 5.62897C6.70886 5.36568 7.05162 5.21602 7.40914 5.21879C7.73525 5.21694 8.0475 5.35089 8.27199 5.58832C8.47061 5.79988 8.57038 6.08443 8.54729 6.37357C8.40503 8.23785 7.87474 8.23785 7.40914 8.23785C6.94354 8.23785 6.36336 8.23785 6.24142 6.3902V6.34585C6.20909 6.08532 6.2913 5.8239 6.46683 5.62897Z" fill="#17191C"/>
<path d="M7.81383 14.828H3.25577C2.4779 14.828 1.84786 14.1979 1.84786 13.4201V3.30239C1.84786 2.52451 2.47792 1.89448 3.25577 1.89448H11.5259C11.8992 1.89448 12.2576 2.04322 12.5218 2.30651C12.7851 2.57073 12.9338 2.92917 12.9338 3.30239V8.84547C12.9348 9.00529 13.0096 9.1568 13.1371 9.25381C13.2646 9.35174 13.429 9.385 13.5842 9.34435C13.7422 9.30555 13.9048 9.28615 14.0683 9.28707H14.218C14.3593 9.29816 14.4997 9.24919 14.6041 9.15404C14.7094 9.05796 14.7704 8.92308 14.7723 8.78082V3.30253C14.7723 1.50847 13.32 0.052551 11.5258 0.046875H3.25566C1.45788 0.046875 0 1.50468 0 3.30253V13.4202C0 14.284 0.342735 15.1118 0.953378 15.7224C1.56402 16.3331 2.39177 16.6758 3.25556 16.6758H8.01702C8.19254 16.6776 8.35699 16.589 8.45213 16.4411C8.54821 16.2933 8.56114 16.1076 8.48816 15.9478C8.39855 15.7363 8.33942 15.5127 8.31448 15.2845C8.28584 15.0286 8.07159 14.8326 7.81383 14.828Z" fill="#17191C"/>
<path d="M14.24 18.8813L14.8996 17.2184C15.1361 16.6198 15.611 16.1449 16.2096 15.9084L17.8836 15.2488C17.9538 15.2211 18 15.1527 18 15.077C18 15.0012 17.9538 14.9329 17.8836 14.9052L16.2096 14.2455C15.611 14.009 15.1361 13.5342 14.8996 12.9355L14.24 11.2727C14.2123 11.2024 14.1439 11.1562 14.0682 11.1562C13.9924 11.1562 13.9241 11.2024 13.8964 11.2727L13.2367 12.9355C13.0002 13.5351 12.5263 14.009 11.9267 14.2455L10.2639 14.9052C10.1937 14.9329 10.1475 15.0012 10.1475 15.077C10.1475 15.1527 10.1937 15.2211 10.2639 15.2488L11.9267 15.9084C12.5263 16.1449 13.0002 16.6189 13.2367 17.2184L13.8964 18.8813C13.9241 18.9524 13.9924 18.9996 14.0682 18.9996C14.1439 18.9996 14.2123 18.9524 14.24 18.8813Z" fill="#17191C"/>
</svg>
