<svg width="91" height="92" viewBox="0 0 91 92" fill="none" xmlns="http://www.w3.org/2000/svg">
<g filter="url(#filter0_d_4808_10007)">
<circle cx="45.5" cy="43.9996" r="31.9181" transform="rotate(168.823 45.5 43.9996)" fill="white"/>
<circle cx="45.5" cy="43.9996" r="31.4009" transform="rotate(168.823 45.5 43.9996)" stroke="#007A61" stroke-opacity="0.46" stroke-width="1.03439"/>
<path fill-rule="evenodd" clip-rule="evenodd" d="M40.0871 38.5028L38.8894 42.9715C38.8574 43.0986 38.7429 43.1888 38.6111 43.1888C38.4801 43.1897 38.3647 43.1015 38.3308 42.9744L37.8052 41.0126H32.4965C32.4752 41.0126 32.4558 41.0213 32.4413 41.0358C32.4267 41.0494 32.4189 41.0698 32.4189 41.0902V41.1813C32.4189 41.2017 32.4267 41.2211 32.4413 41.2356C32.4558 41.2502 32.4752 41.2579 32.4965 41.2579H37.394C37.525 41.2579 37.6394 41.3462 37.6733 41.4722L38.6101 44.9673L39.9911 39.8148H39.9901C40.0202 39.7014 40.1152 39.618 40.2306 39.6025C40.347 39.5879 40.4605 39.6442 40.5187 39.746L41.5612 41.5517H46.5295C46.5498 41.5517 46.5692 41.543 46.5838 41.5284C46.5983 41.5139 46.607 41.4945 46.607 41.4741V41.383C46.607 41.3403 46.5721 41.3054 46.5285 41.3054H41.8715V41.3034C41.7687 41.3034 41.6737 41.2482 41.6223 41.1589L40.0871 38.5028ZM54.5979 43.6068C53.5922 42.6012 52.1753 42.1201 50.7652 42.3063C49.3551 42.4916 48.111 43.3227 47.3999 44.5543C46.6891 45.7859 46.5911 47.2785 47.1352 48.5926C47.6792 49.9066 48.8042 50.8929 50.1784 51.2614C51.5516 51.6299 53.0188 51.338 54.1477 50.472C55.2755 49.606 55.9369 48.2648 55.9369 46.8421C55.9388 45.6289 55.4571 44.4641 54.5979 43.6068ZM54.1624 42.5149C52.7242 41.5858 50.9196 41.4306 49.3446 42.1008C47.7697 42.7718 46.6301 44.1809 46.3044 45.8615C45.9785 47.5421 46.509 49.2751 47.7193 50.4854C47.7406 50.5067 47.7619 50.5281 47.7842 50.5484C47.3139 50.9373 46.8125 51.332 46.2801 51.7325C45.7215 52.1524 45.1241 52.5811 44.4889 53.0175C41.4651 50.9431 39.2367 48.9695 37.651 47.1396C35.9549 45.1816 35.0035 43.3953 34.6127 41.8349H37.1738L38.3308 46.1535H38.3289C38.3618 46.2815 38.4763 46.3707 38.6072 46.3717C38.7391 46.3726 38.8545 46.2844 38.8884 46.1574L40.3673 40.6365L41.1315 41.9612H41.1325C41.179 42.064 41.2818 42.1299 41.3953 42.1299H46.5294C46.8901 42.128 47.1821 41.8361 47.183 41.4753V41.3842C47.1821 41.0234 46.8901 40.7305 46.5294 40.7286H42.0373L40.249 37.631C40.1967 37.5214 40.0822 37.4574 39.961 37.4681C39.8407 37.4797 39.7409 37.5641 39.7089 37.6814L38.6091 41.7845L38.3085 40.6644H38.3095C38.2813 40.5296 38.163 40.4336 38.0263 40.4336H34.4041C34.3304 39.2611 34.6902 38.1013 35.4156 37.1771C35.8607 36.6292 36.4193 36.185 37.0536 35.8756C37.7218 35.5488 38.4462 35.352 39.1871 35.2948C41.0423 35.1697 42.8743 35.7622 44.3056 36.9482C44.4122 37.0355 44.5664 37.0346 44.6722 36.9453C46.0696 35.7913 47.8482 35.1997 49.6588 35.287C50.6664 35.3384 51.643 35.6546 52.4895 36.2044C53.3002 36.7359 53.9219 37.5107 54.2652 38.4184C54.6831 39.5337 54.7093 40.9165 54.1624 42.5158L54.1624 42.5149ZM52.2907 44.2546V45.6249C52.2907 45.785 52.4197 45.9139 52.5797 45.9139H53.9491V47.7692L52.5797 47.7701C52.5031 47.7701 52.4294 47.8002 52.3751 47.8545C52.3208 47.9088 52.2907 47.9825 52.2907 48.0591V49.4284H50.4355V48.0591C50.4355 47.9825 50.4045 47.9088 50.3502 47.8545C50.2959 47.8002 50.2232 47.7701 50.1465 47.7701H48.7772V45.9149H50.1465V45.9139C50.3066 45.9139 50.4356 45.785 50.4356 45.6249V44.2556L52.2907 44.2546ZM50.3143 43.6767H52.412H52.411C52.6641 43.6767 52.8687 43.8813 52.8687 44.1344V45.337H54.0713V45.336C54.3234 45.337 54.528 45.5416 54.528 45.7937V47.8914C54.528 48.0126 54.4805 48.129 54.3942 48.2153C54.3855 48.223 54.3768 48.2308 54.368 48.2376C54.2856 48.3094 54.1799 48.3491 54.0703 48.3491H52.8678V49.5517C52.8678 49.6719 52.8193 49.7883 52.7339 49.8736L52.732 49.8756C52.6467 49.9609 52.5313 50.0084 52.41 50.0084H50.3143C50.0612 50.0084 49.8566 49.8038 49.8566 49.5517V48.3491H48.654C48.5328 48.3491 48.4174 48.3006 48.3321 48.2153C48.2457 48.129 48.1973 48.0126 48.1982 47.8914V45.7928C48.1982 45.6716 48.2467 45.5562 48.333 45.4708C48.4184 45.3855 48.5338 45.337 48.655 45.337H49.8575V44.1344H49.8566C49.8575 44.0132 49.9051 43.8978 49.9914 43.8125H49.9923C50.0777 43.7262 50.1931 43.6776 50.3143 43.6767Z" fill="#007A61"/>
<path d="M21.3137 41.9898L21.2312 44.8485L23.0183 44.9001C23.0909 44.9022 23.1483 44.8869 23.1904 44.8542C23.2302 44.819 23.2623 44.7593 23.2865 44.6752L23.4027 44.6785L23.3581 46.2259L23.2418 46.2226C23.2201 46.1347 23.1904 46.0732 23.1526 46.0382C23.1149 46.0032 23.0597 45.9846 22.987 45.9825L18.7844 45.8612C18.7117 45.8591 18.6556 45.8744 18.6158 45.9072C18.5761 45.94 18.5429 45.9996 18.5162 46.0861L18.3999 46.0827L18.4446 44.5354L18.5608 44.5387C18.5801 44.6265 18.6098 44.688 18.65 44.7231C18.6878 44.7581 18.743 44.7766 18.8156 44.7787L20.4139 44.8249L20.4964 41.9662L18.8982 41.9201C18.8255 41.918 18.7694 41.9333 18.7296 41.9661C18.6875 41.9988 18.6543 42.0585 18.6299 42.145L18.5137 42.1417L18.5584 40.5943L18.6746 40.5976C18.6963 40.6855 18.7261 40.747 18.7638 40.782C18.8016 40.817 18.8568 40.8356 18.9294 40.8377L23.1321 40.959C23.2047 40.9611 23.2609 40.9458 23.3006 40.913C23.3403 40.8802 23.3736 40.8206 23.4003 40.7341L23.5165 40.7374L23.4719 42.2848L23.3556 42.2815C23.3363 42.1961 23.3077 42.1359 23.2699 42.1009C23.2298 42.0633 23.1734 42.0435 23.1008 42.0414L21.3137 41.9898Z" fill="#006C55"/>
<path d="M23.6271 34.753L24.5192 35.187L25.6494 32.8637C25.6823 32.7962 25.6919 32.7376 25.6784 32.6879C25.6659 32.636 25.6247 32.5796 25.5547 32.5186L25.5992 32.4271L26.684 32.9548L26.6395 33.0463C26.5537 33.0289 26.4855 33.0307 26.4348 33.0518C26.3863 33.074 26.3456 33.1189 26.3128 33.1864L24.6547 36.5946L24.5632 36.5501C24.5807 36.4643 24.5784 36.3972 24.5562 36.3486C24.535 36.298 24.4907 36.2562 24.4232 36.2233L21.43 34.7672C21.3624 34.7343 21.3038 34.7247 21.2541 34.7382C21.2044 34.7517 21.1485 34.7919 21.0864 34.8587L20.9949 34.8142L22.6037 31.5073C22.6376 31.4375 22.6478 31.3778 22.6342 31.3282C22.6217 31.2763 22.5816 31.2204 22.5138 31.1604L22.5567 31.0722L23.6416 31.6L23.5986 31.6882C23.5074 31.6708 23.4376 31.6732 23.3891 31.6954C23.3416 31.7154 23.3009 31.7603 23.267 31.83L22.186 34.052L22.9899 34.4431L23.6607 33.0641C23.6936 32.9966 23.7032 32.9379 23.6897 32.8883C23.6772 32.8364 23.6376 32.7794 23.5708 32.7173L23.6137 32.629L24.6725 33.1441L24.6295 33.2323C24.5405 33.216 24.4718 33.2189 24.4232 33.2411C24.3736 33.26 24.3318 33.3044 24.2979 33.3741L23.6271 34.753Z" fill="#006C55"/>
<path d="M30.6694 26.6121L29.2708 27.8555L29.4078 28.3269C29.4406 28.4404 29.4772 28.5197 29.5174 28.565C29.5947 28.6519 29.7017 28.6556 29.8385 28.5761L29.9061 28.6522L28.7872 29.6469L28.7196 29.5709C28.7787 29.4988 28.8109 29.4329 28.8161 29.3732C28.8232 29.3118 28.8091 29.2158 28.7739 29.085L27.8855 25.8488C27.8515 25.7267 27.8063 25.634 27.75 25.5706C27.684 25.4964 27.5818 25.4835 27.4434 25.532L27.3758 25.456L28.5572 24.4057L28.6248 24.4817C28.5606 24.6101 28.5655 24.7159 28.6396 24.7992C28.6927 24.859 28.7805 24.9122 28.903 24.9588L31.9933 26.1159C32.1629 26.1791 32.2819 26.2127 32.3503 26.2167C32.4171 26.2189 32.494 26.1942 32.5812 26.1427L32.6463 26.2161L31.4052 27.3194L31.34 27.2461C31.44 27.1216 31.4498 27.014 31.3693 26.9235C31.3194 26.8674 31.2348 26.8178 31.1155 26.7748L30.6694 26.6121ZM30.0704 26.3813L28.7066 25.8482L29.1009 27.2432L30.0704 26.3813Z" fill="#006C55"/>
<path d="M36.7224 23.3927L38.8346 22.5385C38.9064 22.5094 38.954 22.4719 38.9772 22.4259C39.0004 22.3799 39.0076 22.3104 38.9987 22.2173L39.0896 22.1805L39.542 23.2989L39.451 23.3357C39.3959 23.264 39.3428 23.2201 39.2919 23.2041C39.2433 23.1872 39.183 23.1933 39.1112 23.2223L35.8805 24.5289L35.8424 24.4346C35.9128 24.3826 35.956 24.3311 35.972 24.2802C35.9902 24.2284 35.9853 24.1677 35.9571 24.0981L34.7091 21.0123C34.681 20.9427 34.6439 20.8962 34.5979 20.873C34.552 20.8498 34.4836 20.8422 34.3927 20.8502L34.3546 20.7559L35.6886 20.2163L35.7268 20.3107C35.655 20.3658 35.6111 20.4189 35.5951 20.4697C35.5782 20.5184 35.5838 20.5775 35.612 20.6472L36.7224 23.3927Z" fill="#006C55"/>
<path d="M43.947 19.2384L44.1194 22.1949C44.1238 22.2699 44.1441 22.327 44.1803 22.3661C44.2165 22.4028 44.2788 22.4319 44.3674 22.4535L44.3731 22.5514L42.9366 22.6352L42.9307 22.5336C43.014 22.5069 43.0715 22.472 43.1029 22.4289C43.1368 22.3857 43.1516 22.3266 43.1472 22.2516L42.9748 19.295L41.7777 19.3648C41.7003 19.3694 41.6421 19.3909 41.6031 19.4296C41.5664 19.4657 41.5385 19.528 41.5193 19.6165L41.4214 19.6222L41.3512 18.4178L41.4528 18.4119C41.4795 18.4953 41.5132 18.554 41.554 18.588C41.5971 18.6195 41.6573 18.6329 41.7347 18.6284L45.1012 18.4322C45.1786 18.4276 45.2357 18.4073 45.2724 18.3712C45.3115 18.335 45.3407 18.2726 45.3598 18.1841L45.4577 18.1784L45.5279 19.3828L45.43 19.3885C45.4007 19.3029 45.3646 19.2443 45.3215 19.2128C45.2807 19.1788 45.2216 19.1641 45.1442 19.1686L43.947 19.2384Z" fill="#006C55"/>
<path d="M53.4532 22.3556L51.295 21.6482L50.8592 22.9776C50.8358 23.049 50.8338 23.1095 50.8532 23.1592C50.8734 23.2066 50.9208 23.2565 50.9953 23.309L50.9648 23.4023L49.5974 22.954L49.6291 22.8573C49.7164 22.863 49.7826 22.8516 49.8277 22.823C49.875 22.7952 49.9104 22.7456 49.9338 22.6742L50.9707 19.5112C50.9941 19.4399 50.9957 19.3805 50.9755 19.3331C50.9554 19.2857 50.908 19.2358 50.8334 19.1833L50.8651 19.0866L52.2325 19.5348L52.2008 19.6315C52.1104 19.6274 52.0427 19.6396 51.9976 19.6682C51.9533 19.6944 51.9195 19.7432 51.8961 19.8146L51.5248 20.9472L53.683 21.6547L54.0542 20.5221C54.0776 20.4507 54.0793 20.3913 54.0591 20.3439C54.0412 20.2973 53.9939 20.2473 53.917 20.1941L53.9487 20.0974L55.3161 20.5456L55.2844 20.6423C55.194 20.6382 55.1263 20.6504 55.0812 20.679C55.0369 20.7052 55.0031 20.754 54.9797 20.8254L53.9428 23.9884C53.9194 24.0598 53.9174 24.1203 53.9368 24.17C53.957 24.2174 54.0043 24.2673 54.0789 24.3198L54.0484 24.4131L52.6809 23.9648L52.7126 23.8681C52.8 23.8738 52.8662 23.8624 52.9113 23.8338C52.9586 23.806 52.994 23.7564 53.0174 23.6851L53.4532 22.3556Z" fill="#006C55"/>
<path d="M60.4853 24.2181L58.4467 26.8494C58.4007 26.9088 58.3785 26.9651 58.3801 27.0185C58.3832 27.0699 58.411 27.1328 58.4636 27.2073L58.4035 27.2849L57.266 26.4035L57.3283 26.3231C57.4087 26.3578 57.4749 26.3693 57.5269 26.3575C57.5809 26.3472 57.6308 26.3123 57.6768 26.253L59.7154 23.6217C59.7614 23.5623 59.7829 23.5069 59.7798 23.4555C59.7768 23.4041 59.7489 23.3412 59.6963 23.2667L59.7586 23.1862L60.8962 24.0676L60.8338 24.148C60.7501 24.1137 60.6822 24.1025 60.6301 24.1143C60.5796 24.1241 60.5313 24.1588 60.4853 24.2181Z" fill="#006C55"/>
<path d="M64.009 30.7428L63.1734 31.2775L64.566 33.4538C64.6065 33.517 64.6514 33.5558 64.7009 33.5702C64.7517 33.5866 64.8213 33.5809 64.9099 33.553L64.9647 33.6387L63.9485 34.2889L63.8937 34.2032C63.9534 34.1392 63.9874 34.08 63.9958 34.0257C64.0022 33.9728 63.9851 33.9146 63.9446 33.8514L61.9018 30.659L61.9875 30.6041C62.0516 30.6638 62.1101 30.6968 62.163 30.7032C62.2173 30.7116 62.2761 30.6955 62.3393 30.6551L65.143 28.8609C65.2063 28.8205 65.2451 28.7755 65.2595 28.726C65.2738 28.6766 65.2688 28.6079 65.2442 28.5201L65.3299 28.4653L67.312 31.5628C67.3538 31.6281 67.3994 31.668 67.4489 31.6823C67.4997 31.6987 67.5683 31.6936 67.6548 31.667L67.7077 31.7497L66.6915 32.3999L66.6386 32.3173C66.7011 32.2486 66.7355 32.1877 66.7419 32.1348C66.7495 32.0838 66.7325 32.0257 66.6907 31.9604L65.3588 29.8791L64.6059 30.3609L65.4324 31.6526C65.4729 31.7158 65.5179 31.7546 65.5673 31.769C65.6181 31.7854 65.6874 31.7813 65.7752 31.7568L65.8281 31.8394L64.8364 32.474L64.7835 32.3914C64.8439 32.324 64.8773 32.2638 64.8836 32.2108C64.8934 32.1586 64.8773 32.0998 64.8355 32.0345L64.009 30.7428Z" fill="#006C55"/>
<path d="M67.5674 38.9976L66.2952 39.2695C66.2217 39.2852 66.1684 39.314 66.1352 39.3557C66.1044 39.397 66.0851 39.4631 66.0773 39.5539L65.9813 39.5744L65.6806 38.1672L65.7801 38.1459C65.8191 38.2243 65.8623 38.2758 65.9097 38.3003C65.9575 38.3272 66.0182 38.3329 66.0916 38.3172L69.3467 37.6215C69.4202 37.6058 69.4723 37.5773 69.5031 37.536C69.5339 37.4948 69.5533 37.4287 69.5611 37.3378L69.6606 37.3166L70.2181 39.9249C70.2905 40.2637 70.3279 40.5257 70.3303 40.711C70.3351 40.8958 70.3075 41.0677 70.2473 41.2267C70.1214 41.5533 69.8464 41.762 69.4224 41.8526C69.1002 41.9215 68.8289 41.8866 68.6085 41.7479C68.391 41.611 68.1999 41.3546 68.0353 40.9785L67.1445 41.9567C66.9796 42.1356 66.8702 42.273 66.8163 42.3687C66.7654 42.4663 66.7415 42.5692 66.7448 42.6775L66.6489 42.698L66.2919 41.0278L66.3879 41.0073C66.4474 41.1234 66.5139 41.1736 66.5873 41.1579C66.6394 41.1468 66.7107 41.0919 66.8011 40.9933L67.7717 39.9536L67.5674 38.9976ZM68.2888 38.8435L68.5956 40.2791C68.6422 40.4971 68.7003 40.6531 68.7699 40.7472C68.8653 40.8804 69.0077 40.9268 69.1973 40.8863C69.3655 40.8503 69.4716 40.7731 69.5157 40.6547C69.5602 40.5387 69.5544 40.3492 69.4982 40.0862L69.1914 38.6506L68.2888 38.8435Z" fill="#006C55"/>
<path d="M69.1305 53.3704L65.6022 51.7023C65.5124 51.6599 65.4411 51.6435 65.3882 51.6534C65.3375 51.6642 65.2815 51.7061 65.2203 51.779L65.1151 51.7293L65.536 50.839L65.6412 50.8887C65.6227 50.9845 65.6258 51.0543 65.6506 51.0982C65.6744 51.1442 65.7323 51.189 65.8243 51.2325L69.5333 52.986C69.6253 53.0295 69.6966 53.0458 69.7473 53.0349C69.8002 53.0251 69.8562 52.9832 69.9152 52.9093L70.0204 52.959L69.4115 54.2468L69.3064 54.1971C69.32 54.0776 69.2951 54.0029 69.2316 53.9728C69.1878 53.9521 69.0813 53.9648 68.9122 54.0107L64.4751 55.2171L67.7472 56.764C67.8392 56.8075 67.9105 56.8238 67.9612 56.8129C68.0141 56.8031 68.0701 56.7612 68.1291 56.6873L68.2343 56.737L67.8134 57.6273L67.7082 57.5776C67.7279 57.4851 67.7247 57.4152 67.6987 57.3681C67.675 57.3221 67.6171 57.2773 67.5251 57.2338L63.8161 55.4803C63.7241 55.4368 63.6528 55.4205 63.6021 55.4314C63.5514 55.4422 63.4954 55.4841 63.4342 55.557L63.329 55.5073L63.8183 54.4724L63.9234 54.5221C63.9021 54.6353 63.9231 54.7069 63.9866 54.7369C64.0348 54.7597 64.1354 54.751 64.2884 54.7108L69.1305 53.3704Z" fill="#006C55"/>
<path d="M60.5129 59.5218L62.7372 61.8895C62.8068 61.9637 62.8672 62.005 62.9184 62.0134C62.9695 62.0219 63.037 62.0034 63.1206 61.958L63.1878 62.0295L62.4701 62.7038L62.4029 62.6323C62.4534 62.5516 62.476 62.4855 62.4708 62.4339C62.4656 62.3823 62.4281 62.3194 62.3584 62.2453L60.1341 59.8775C60.0661 59.8052 60.0057 59.7639 59.9529 59.7536C59.9017 59.7452 59.8343 59.7636 59.7506 59.809L59.6835 59.7375L60.4012 59.0632L60.4684 59.1348C60.4179 59.2154 60.3952 59.2816 60.4005 59.3332C60.4074 59.3865 60.4448 59.4494 60.5129 59.5218Z" fill="#006C55"/>
<path d="M52.9239 68.0836L53.0602 67.1518L53.1572 67.1649C53.1689 67.2523 53.1806 67.3093 53.1922 67.336C53.2174 67.3937 53.3621 67.4376 53.6264 67.4676C54.0526 67.5114 54.4578 67.4494 54.8419 67.2817C55.3125 67.0761 55.6441 66.77 55.8366 66.3634C56.052 65.9125 56.056 65.4494 55.8485 64.9743C55.6517 64.5237 55.332 64.2245 54.8894 64.0767C54.4513 63.9271 53.9758 63.9642 53.463 64.1882C53.2055 64.3007 52.9767 64.4456 52.7765 64.6229C52.5773 64.8024 52.4263 64.9952 52.3234 65.2014L52.623 65.8874L53.4622 65.5209C53.5554 65.4802 53.6157 65.4367 53.6431 65.3904C53.6682 65.345 53.6723 65.2758 53.6555 65.1827L53.7454 65.1434L54.0915 65.936L54.0016 65.9753C53.9438 65.8974 53.8898 65.8523 53.8394 65.8399C53.7869 65.8285 53.714 65.8432 53.6207 65.8839L52.1488 66.5268L52.1095 66.4368C52.1874 66.3791 52.232 66.3239 52.2434 66.2713C52.2558 66.221 52.2416 66.1492 52.2009 66.0559L52.0322 65.6696C51.9915 65.5764 51.948 65.5161 51.9016 65.4887C51.8563 65.4636 51.786 65.4599 51.6907 65.4778L51.6572 65.4012C52.0182 64.654 52.5817 64.1132 53.3476 63.7786C53.9514 63.5149 54.5173 63.4607 55.0451 63.6162C55.3282 63.7014 55.5824 63.8415 55.8077 64.0365C56.0486 64.2432 56.2307 64.4876 56.3538 64.7695C56.5361 65.1869 56.5739 65.6184 56.4673 66.0642C56.3707 66.4606 56.1654 66.8107 55.8513 67.1144C55.6172 67.3409 55.3402 67.524 55.0206 67.6636C54.7453 67.7838 54.4799 67.8601 54.2243 67.8924C53.9666 67.9257 53.6416 67.9262 53.2495 67.8939C53.1868 67.8895 53.1444 67.8922 53.1221 67.9019C53.0955 67.9135 53.0627 67.9807 53.0238 68.1035L52.9239 68.0836Z" fill="#006C55"/>
<path d="M46.7447 67.4533L46.7138 65.9455L44.1997 65.997C44.098 65.9991 44.0269 66.0163 43.9863 66.0486C43.9434 66.081 43.912 66.1447 43.8921 66.2396L43.7904 66.2417L43.7727 65.377L43.8744 65.3749C43.8981 65.4665 43.9308 65.5276 43.9727 65.5582C44.0145 65.5889 44.0863 65.6032 44.188 65.6011L47.4578 65.5341L47.4598 65.6322C47.3658 65.6584 47.3047 65.6923 47.2765 65.7341C47.2459 65.7783 47.2316 65.8501 47.2337 65.9494L47.3002 69.1974C47.3023 69.2991 47.3195 69.3703 47.3518 69.4108C47.3841 69.4513 47.4466 69.4827 47.5391 69.5051L47.5411 69.6032L44.2968 69.6696C44.195 69.6717 44.1239 69.6889 44.0834 69.7212C44.0428 69.7536 44.0114 69.816 43.9891 69.9085L43.891 69.9106L43.8733 69.0459L43.9714 69.0439C43.9975 69.1378 44.0315 69.2001 44.0733 69.2308C44.1151 69.2614 44.1869 69.2757 44.2886 69.2736L46.7809 69.2226L46.7528 67.8493L45.1652 67.8818C45.0634 67.8839 44.9923 67.9011 44.9518 67.9334C44.9112 67.9657 44.8798 68.0282 44.8575 68.1207L44.7594 68.1227L44.7417 67.258L44.8398 67.256C44.8659 67.35 44.9011 67.4123 44.9454 67.4429C44.9872 67.4735 45.0577 67.4878 45.157 67.4858L46.7447 67.4533Z" fill="#006C55"/>
<path d="M37.7635 66.3018L38.2385 64.9512C38.2715 64.8575 38.2803 64.7848 38.2651 64.7332C38.249 64.6839 38.2016 64.6326 38.1228 64.5792L38.1554 64.4866L39.0844 64.8134L39.0518 64.9059C38.9546 64.8974 38.8855 64.9078 38.8444 64.937C38.8002 64.9677 38.7617 65.0299 38.7287 65.1236L37.6508 68.1882C37.617 68.2842 37.6082 68.3568 37.6242 68.4061C37.6403 68.4554 37.6877 68.5068 37.7665 68.5602L37.7339 68.6527L35.4543 67.8509C35.1961 67.7601 34.9923 67.6679 34.8429 67.5742C34.6912 67.4798 34.5701 67.3678 34.4795 67.2384C34.2803 66.9578 34.2442 66.6369 34.3712 66.2758C34.4749 65.981 34.6494 65.7805 34.8948 65.6742C35.1394 65.5702 35.4472 65.5641 35.818 65.656L35.3925 63.7883C35.3775 63.7214 35.3576 63.6721 35.3329 63.6403C35.305 63.6099 35.2508 63.5742 35.1703 63.533L35.2004 63.4473L36.15 63.7813L36.1174 63.8738C36.0219 63.8608 35.9673 63.8737 35.9536 63.9125C35.944 63.9399 35.951 64.004 35.9746 64.1048L36.3683 65.8111L37.7635 66.3018ZM37.632 66.6754L36.1717 66.1618C35.9363 66.079 35.7575 66.0251 35.6354 66.0001C35.5101 65.9766 35.3983 65.9732 35.2999 65.99C35.084 66.027 34.9323 66.1701 34.8446 66.4192C34.7602 66.6592 34.7813 66.8695 34.9078 67.0501C35.0238 67.2167 35.2681 67.3655 35.6406 67.4966L37.1558 68.0295L37.632 66.6754Z" fill="#006C55"/>
<path d="M32.3201 62.0111L30.3592 64.6013C30.2978 64.6824 30.2672 64.7489 30.2675 64.8007C30.2677 64.8526 30.2973 64.9159 30.356 64.9908L30.2968 65.069L29.5117 64.4746L29.5709 64.3964C29.6589 64.4327 29.7279 64.4439 29.7779 64.4301C29.8278 64.4162 29.8835 64.3688 29.9449 64.2876L31.9058 61.6975C31.9657 61.6183 31.9963 61.5518 31.9975 61.498C31.9973 61.4462 31.9678 61.3828 31.909 61.308L31.9682 61.2297L32.7534 61.8241L32.6942 61.9024C32.6061 61.8661 32.5371 61.8549 32.4872 61.8687C32.4357 61.8845 32.3801 61.932 32.3201 62.0111Z" fill="#006C55"/>
<path d="M25.5454 55.8049L26.7151 57.5886L27.4558 57.4723C27.548 57.4582 27.6113 57.4399 27.6457 57.4173C27.7146 57.3721 27.7287 57.2876 27.688 57.1636L27.77 57.1098L28.32 57.9485L28.2379 58.0023C28.1706 57.9306 28.098 57.8884 28.0202 57.8757C27.939 57.8623 27.8079 57.8701 27.6269 57.8989L24.4384 58.3776C24.2615 58.4038 24.1477 58.4335 24.0971 58.4668C24.0262 58.5132 24.0158 58.5925 24.066 58.7044L23.984 58.7582L23.3364 57.7706L23.4184 57.7168C23.5071 57.8035 23.5839 57.8255 23.6487 57.783C23.6872 57.7578 23.769 57.6462 23.8942 57.4483L25.5398 54.8221C25.648 54.6469 25.7142 54.5137 25.7384 54.4225C25.7626 54.3313 25.7542 54.2412 25.7132 54.1522L25.7953 54.0984L26.3771 54.9857L26.2951 55.0395C26.2124 54.9576 26.1467 54.9326 26.0981 54.9645C26.0738 54.9804 26.0229 55.0486 25.9454 55.1689L25.5454 55.8049ZM25.3079 56.1649L24.1308 58.0014L26.2883 57.66L25.3079 56.1649Z" fill="#006C55"/>
</g>
<defs>
<filter id="filter0_d_4808_10007" x="0.271798" y="0.988218" width="90.4564" height="90.4574" filterUnits="userSpaceOnUse" color-interpolation-filters="sRGB">
<feFlood flood-opacity="0" result="BackgroundImageFix"/>
<feColorMatrix in="SourceAlpha" type="matrix" values="0 0 0 0 0 0 0 0 0 0 0 0 0 0 0 0 0 0 127 0" result="hardAlpha"/>
<feOffset dy="2.2174"/>
<feGaussianBlur stdDeviation="6.65219"/>
<feComposite in2="hardAlpha" operator="out"/>
<feColorMatrix type="matrix" values="0 0 0 0 0 0 0 0 0 0 0 0 0 0 0 0 0 0 0.15 0"/>
<feBlend mode="normal" in2="BackgroundImageFix" result="effect1_dropShadow_4808_10007"/>
<feBlend mode="normal" in="SourceGraphic" in2="effect1_dropShadow_4808_10007" result="shape"/>
</filter>
</defs>
</svg>
