<svg width="35" height="32" viewBox="0 0 35 32" fill="none" xmlns="http://www.w3.org/2000/svg">
<path d="M30.8047 14.5205C30.8047 21.8685 24.848 27.8252 17.5 27.8252C10.152 27.8252 4.19531 21.8685 4.19531 14.5205C4.19531 7.17253 10.152 1.21582 17.5 1.21582C24.848 1.21582 30.8047 7.17253 30.8047 14.5205Z" fill="#FFBB0D"/>
<path fill-rule="evenodd" clip-rule="evenodd" d="M31.7904 14.5207C31.7904 22.413 25.3924 28.8109 17.5002 28.8109C9.60791 28.8109 3.20996 22.413 3.20996 14.5207C3.20996 6.62842 9.60791 0.230469 17.5002 0.230469C25.3924 0.230469 31.7904 6.62842 31.7904 14.5207ZM17.5002 27.8254C24.8482 27.8254 30.8049 21.8687 30.8049 14.5207C30.8049 7.17271 24.8482 1.216 17.5002 1.216C10.1522 1.216 4.19549 7.17271 4.19549 14.5207C4.19549 21.8687 10.1522 27.8254 17.5002 27.8254Z" fill="#E89B05"/>
<path fill-rule="evenodd" clip-rule="evenodd" d="M5.18124 15.0137C4.9091 15.0137 4.68848 14.7931 4.68848 14.5209C4.68848 7.44508 10.4246 1.70898 17.5004 1.70899C17.7725 1.70899 17.9932 1.9296 17.9932 2.20175C17.9932 2.4739 17.7725 2.69452 17.5004 2.69452C10.9689 2.69452 5.67401 7.98937 5.67401 14.5209C5.67401 14.7931 5.45339 15.0137 5.18124 15.0137Z" fill="#E8AA0A"/>
<path fill-rule="evenodd" clip-rule="evenodd" d="M29.8197 14.0283C30.0919 14.0283 30.3125 14.2489 30.3125 14.5211C30.3125 21.5969 24.5764 27.333 17.5006 27.333C17.2284 27.333 17.0078 27.1124 17.0078 26.8402C17.0078 26.5681 17.2284 26.3475 17.5006 26.3475C24.0321 26.3475 29.327 21.0526 29.327 14.5211C29.327 14.2489 29.5476 14.0283 29.8197 14.0283Z" fill="#E8AA0A"/>
<path d="M27.3552 14.5204C27.3552 19.9633 22.9428 24.3757 17.4999 24.3757C12.0569 24.3757 7.64453 19.9633 7.64453 14.5204C7.64453 9.07742 12.0569 4.66504 17.4999 4.66504C22.9428 4.66504 27.3552 9.07742 27.3552 14.5204Z" fill="#FFDD28"/>
<path fill-rule="evenodd" clip-rule="evenodd" d="M28.3409 14.5205C28.3409 20.5078 23.4873 25.3614 17.5 25.3614C11.5128 25.3614 6.65918 20.5078 6.65918 14.5205C6.65918 8.5333 11.5128 3.67969 17.5 3.67969C23.4873 3.67969 28.3409 8.5333 28.3409 14.5205ZM17.5 24.3759C22.943 24.3759 27.3554 19.9635 27.3554 14.5205C27.3554 9.0776 22.943 4.66522 17.5 4.66522C12.0571 4.66522 7.64471 9.0776 7.64471 14.5205C7.64471 19.9635 12.0571 24.3759 17.5 24.3759Z" fill="#E89B05"/>
<path fill-rule="evenodd" clip-rule="evenodd" d="M17.4997 22.8973C22.1263 22.8973 25.8768 19.1468 25.8768 14.5203C25.8768 14.2481 26.0974 14.0275 26.3695 14.0275C26.6417 14.0275 26.8623 14.2481 26.8623 14.5203C26.8623 19.6911 22.6705 23.8828 17.4997 23.8828C17.2276 23.8828 17.007 23.6622 17.007 23.39C17.007 23.1179 17.2276 22.8973 17.4997 22.8973Z" fill="#ECC704"/>
<path fill-rule="evenodd" clip-rule="evenodd" d="M17.5003 6.14374C12.8737 6.14374 9.12323 9.89426 9.12323 14.5208C9.12323 14.7929 8.90261 15.0135 8.63046 15.0135C8.35831 15.0135 8.1377 14.7929 8.1377 14.5208C8.1377 9.34996 12.3295 5.1582 17.5003 5.1582C17.7724 5.1582 17.993 5.37882 17.993 5.65097C17.993 5.92312 17.7724 6.14374 17.5003 6.14374Z" fill="#FFEF9C"/>
<path d="M2.43885 27.6393L1.16959 25.1007C1.03136 24.8243 1.23239 24.499 1.54146 24.499L7.1053 24.499C7.33493 24.499 7.52108 24.6852 7.52108 24.9148L7.52108 30.7356C7.52108 30.9652 7.33493 31.1514 7.1053 31.1514L1.54146 31.1514C1.23239 31.1514 1.03136 30.8261 1.16959 30.5497L2.43885 28.0111C2.49738 27.8941 2.49738 27.7563 2.43885 27.6393Z" fill="#C52229"/>
<path d="M32.5603 27.6393L33.8296 25.1007C33.9678 24.8243 33.7668 24.499 33.4577 24.499L27.8939 24.499C27.6643 24.499 27.4781 24.6852 27.4781 24.9148L27.4781 30.7356C27.4781 30.9652 27.6643 31.1514 27.8939 31.1514L33.4577 31.1514C33.7668 31.1514 33.9678 30.8261 33.8296 30.5497L32.5603 28.0111C32.5018 27.8941 32.5018 27.7563 32.5603 27.6393Z" fill="#C52229"/>
<path fill-rule="evenodd" clip-rule="evenodd" d="M1.60252 27.8247L0.426226 25.4721C0.011558 24.6428 0.614619 23.667 1.54186 23.667L7.1057 23.667C7.79457 23.667 8.35301 24.2254 8.35301 24.9143L8.35301 30.7351C8.35301 31.424 7.79457 31.9824 7.1057 31.9824L1.54186 31.9824C0.614619 31.9824 0.0115578 31.0066 0.426225 30.1773L1.60252 27.8247ZM1.69525 28.0102C1.69533 28.0103 1.69541 28.0105 1.69549 28.0107L2.06737 27.8247L1.69548 28.0106L1.69525 28.0102ZM33.3974 27.8247L34.5737 25.4721C34.9884 24.6428 34.3853 23.667 33.4581 23.667L27.8943 23.667C27.2054 23.667 26.647 24.2254 26.647 24.9143L26.647 30.7351C26.647 31.424 27.2054 31.9824 27.8943 31.9824L33.4581 31.9824C34.3853 31.9824 34.9884 31.0066 34.5737 30.1773L33.3974 27.8247ZM33.83 25.1002L32.5607 27.6388C32.5022 27.7558 32.5022 27.8936 32.5607 28.0106L33.83 30.5492C33.9682 30.8256 33.7672 31.1509 33.4581 31.1509L27.8943 31.1509C27.6646 31.1509 27.4785 30.9647 27.4785 30.7351L27.4785 24.9143C27.4785 24.6847 27.6646 24.4985 27.8943 24.4985L33.4581 24.4985C33.7672 24.4985 33.9682 24.8238 33.83 25.1002ZM1.16998 25.1002L2.43924 27.6388C2.49777 27.7558 2.49777 27.8936 2.43924 28.0106L1.16998 30.5492C1.03176 30.8256 1.23278 31.1509 1.54186 31.1509L7.1057 31.1509C7.33532 31.1509 7.52147 30.9647 7.52147 30.7351L7.52147 24.9143C7.52147 24.6847 7.33532 24.4985 7.1057 24.4985L1.54186 24.4985C1.23278 24.4985 1.03176 24.8238 1.16998 25.1002Z" fill="#9B0F15"/>
<path fill-rule="evenodd" clip-rule="evenodd" d="M1.76422 24.8748C1.84036 24.7539 1.97317 24.6807 2.11597 24.6807H3.883C4.11262 24.6807 4.29877 24.8668 4.29877 25.0964C4.29877 25.3261 4.11262 25.5122 3.883 25.5122H2.77569L3.63442 27.3077C3.73349 27.5149 3.64588 27.7631 3.43873 27.8622C3.23157 27.9613 2.98333 27.8737 2.88426 27.6665L1.74089 25.2758C1.67927 25.147 1.68808 24.9956 1.76422 24.8748Z" fill="#DF3840"/>
<path d="M29.1416 29.0725L29.1416 23.2517C29.1416 23.0221 28.9555 22.8359 28.7258 22.8359L6.27417 22.8359C6.04455 22.8359 5.8584 23.0221 5.8584 23.2517L5.8584 29.0725C5.8584 29.3021 6.04455 29.4883 6.27417 29.4883L28.7258 29.4883C28.9555 29.4883 29.1416 29.3021 29.1416 29.0725Z" fill="#F1333B"/>
<path fill-rule="evenodd" clip-rule="evenodd" d="M29.9727 23.2512L29.9727 29.072C29.9727 29.7609 29.4142 30.3193 28.7253 30.3193L6.27368 30.3193C5.58481 30.3193 5.02637 29.7609 5.02637 29.072L5.02637 23.2512C5.02637 22.5623 5.58481 22.0039 6.27368 22.0039L28.7253 22.0039C29.4142 22.0039 29.9727 22.5623 29.9727 23.2512ZM29.1411 23.2512L29.1411 29.072C29.1411 29.3016 28.955 29.4878 28.7253 29.4878L6.27368 29.4878C6.04406 29.4878 5.85791 29.3016 5.85791 29.072L5.85791 23.2512C5.85791 23.0216 6.04406 22.8354 6.27368 22.8354L28.7253 22.8354C28.955 22.8354 29.1411 23.0216 29.1411 23.2512Z" fill="#9B0F15"/>
<path d="M27.9936 26.3201C27.7582 26.3201 27.5673 26.1339 27.5673 25.9042C27.5673 25.6745 27.7582 25.4883 27.9936 25.4883C28.2291 25.4883 28.4199 25.6745 28.4199 25.9042C28.4199 26.1339 28.2291 26.3201 27.9936 26.3201Z" fill="#DB1B24"/>
<path d="M26.3711 26.1538C26.0782 26.1538 25.8408 25.9222 25.8408 25.6365C25.8408 25.3508 26.0782 25.1191 26.3711 25.1191C26.664 25.1191 26.9014 25.3508 26.9014 25.6365C26.9014 25.9222 26.664 26.1538 26.3711 26.1538Z" fill="#DB1B24"/>
<path d="M27.0942 27.3357C26.9478 27.3357 26.8291 27.2199 26.8291 27.077C26.8291 26.9342 26.9478 26.8184 27.0942 26.8184C27.2407 26.8184 27.3594 26.9342 27.3594 27.077C27.3594 27.2199 27.2407 27.3357 27.0942 27.3357Z" fill="#DB1B24"/>
<path d="M26.6362 24.6003C26.4898 24.6003 26.3711 24.4845 26.3711 24.3417C26.3711 24.1988 26.4898 24.083 26.6362 24.083C26.7827 24.083 26.9014 24.1988 26.9014 24.3417C26.9014 24.4845 26.7827 24.6003 26.6362 24.6003Z" fill="#DB1B24"/>
<path d="M25.2437 27.0779C25.0972 27.0779 24.9785 26.9621 24.9785 26.8192C24.9785 26.6764 25.0972 26.5605 25.2437 26.5605C25.3901 26.5605 25.5088 26.6764 25.5088 26.8192C25.5088 26.9621 25.3901 27.0779 25.2437 27.0779Z" fill="#DB1B24"/>
<path d="M24.978 25.7468C24.8316 25.7468 24.7129 25.631 24.7129 25.4882C24.7129 25.3453 24.8316 25.2295 24.978 25.2295C25.1245 25.2295 25.2432 25.3453 25.2432 25.4882C25.2432 25.631 25.1245 25.7468 24.978 25.7468Z" fill="#DB1B24"/>
<path d="M23.1704 28.7468C23.024 28.7468 22.9053 28.631 22.9053 28.4882C22.9053 28.3453 23.024 28.2295 23.1704 28.2295C23.3168 28.2295 23.4355 28.3453 23.4355 28.4882C23.4355 28.631 23.3168 28.7468 23.1704 28.7468Z" fill="#DB1B24"/>
<path d="M28.4458 27.7595C28.2994 27.7595 28.1807 27.6437 28.1807 27.5009C28.1807 27.358 28.2994 27.2422 28.4458 27.2422C28.5922 27.2422 28.7109 27.358 28.7109 27.5009C28.7109 27.6437 28.5922 27.7595 28.4458 27.7595Z" fill="#DB1B24"/>
<path d="M25.9396 28.3263C25.7013 28.3263 25.5081 28.1378 25.5081 27.9053C25.5081 27.6728 25.7013 27.4844 25.9396 27.4844C26.1779 27.4844 26.3711 27.6728 26.3711 27.9053C26.3711 28.1378 26.1779 28.3263 25.9396 28.3263Z" fill="#DB1B24"/>
<path d="M27.7902 28.7472C27.5519 28.7472 27.3587 28.5587 27.3587 28.3262C27.3587 28.0937 27.5519 27.9053 27.7902 27.9053C28.0285 27.9053 28.2217 28.0937 28.2217 28.3262C28.2217 28.5587 28.0285 28.7472 27.7902 28.7472Z" fill="#DB1B24"/>
<path d="M24.0167 27.9191C23.7784 27.9191 23.5853 27.7306 23.5853 27.4981C23.5853 27.2656 23.7784 27.0771 24.0167 27.0771C24.2551 27.0771 24.4482 27.2656 24.4482 27.4981C24.4482 27.7306 24.2551 27.9191 24.0167 27.9191Z" fill="#DB1B24"/>
<path d="M24.7134 28.8748C24.567 28.8748 24.4482 28.7589 24.4482 28.6161C24.4482 28.4732 24.567 28.3574 24.7134 28.3574C24.8598 28.3574 24.9785 28.4732 24.9785 28.6161C24.9785 28.7589 24.8598 28.8748 24.7134 28.8748Z" fill="#DB1B24"/>
<path fill-rule="evenodd" clip-rule="evenodd" d="M6.11816 23.4333C6.11816 23.2037 6.30431 23.0176 6.53394 23.0176H22.1254C22.355 23.0176 22.5411 23.2037 22.5411 23.4333C22.5411 23.663 22.355 23.8491 22.1254 23.8491H6.94971V26.7595C6.94971 26.9891 6.76356 27.1753 6.53394 27.1753C6.30431 27.1753 6.11816 26.9891 6.11816 26.7595V23.4333Z" fill="#FE666D"/>
<path d="M18.5669 18.0939H17.0545V12.2641L15.249 12.8241V11.5942L18.4047 10.4639H18.5669V18.0939Z" fill="#FFEF9C"/>
<path fill-rule="evenodd" clip-rule="evenodd" d="M19.4596 18.0935C19.4596 18.5868 19.0597 18.9866 18.5665 18.9866H17.0541C16.5608 18.9866 16.1609 18.5868 16.1609 18.0935V13.4758L15.5132 13.6767C15.2421 13.7608 14.9473 13.711 14.7188 13.5427C14.4903 13.3743 14.3555 13.1074 14.3555 12.8236V11.5938C14.3555 11.2167 14.5924 10.8802 14.9474 10.753L18.1031 9.62263C18.1997 9.58801 18.3016 9.57031 18.4042 9.57031H18.5665C19.0597 9.57031 19.4596 9.97018 19.4596 10.4635V18.0935ZM17.0541 12.2637V18.0935H18.5665V10.4635H18.4042L15.2486 11.5938V12.8236L17.0541 12.2637Z" fill="#E89B05"/>
</svg>
