<svg width="35" height="33" viewBox="0 0 35 33" fill="none" xmlns="http://www.w3.org/2000/svg">
<path d="M30.8337 15.0208C30.8337 22.3846 24.8641 28.3542 17.5003 28.3542C10.1365 28.3542 4.16699 22.3846 4.16699 15.0208C4.16699 7.65704 10.1365 1.6875 17.5003 1.6875C24.8641 1.6875 30.8337 7.65704 30.8337 15.0208Z" fill="#DCA16A"/>
<path fill-rule="evenodd" clip-rule="evenodd" d="M31.8207 15.0212C31.8207 22.9304 25.409 29.3422 17.4997 29.3422C9.59043 29.3422 3.17871 22.9304 3.17871 15.0212C3.17871 7.11192 9.59043 0.700195 17.4997 0.700195C25.409 0.700195 31.8207 7.11192 31.8207 15.0212ZM17.4997 28.3545C24.8635 28.3545 30.833 22.385 30.833 15.0212C30.833 7.65739 24.8635 1.68785 17.4997 1.68785C10.1359 1.68785 4.16637 7.65739 4.16637 15.0212C4.16637 22.385 10.1359 28.3545 17.4997 28.3545Z" fill="#C38144"/>
<path fill-rule="evenodd" clip-rule="evenodd" d="M5.15464 15.5146C4.8819 15.5146 4.66081 15.2936 4.66081 15.0208C4.66081 7.92976 10.4093 2.18132 17.5003 2.18132C17.773 2.18132 17.9941 2.40241 17.9941 2.67514C17.9941 2.94788 17.773 3.16897 17.5003 3.16897C10.9547 3.16897 5.64846 8.47522 5.64846 15.0208C5.64846 15.2936 5.42737 15.5146 5.15464 15.5146Z" fill="#F0B57F"/>
<path fill-rule="evenodd" clip-rule="evenodd" d="M29.8454 14.5273C30.1181 14.5273 30.3392 14.7484 30.3392 15.0212C30.3392 22.1122 24.5907 27.8607 17.4997 27.8607C17.227 27.8607 17.0059 27.6396 17.0059 27.3668C17.0059 27.0941 17.227 26.873 17.4997 26.873C24.0453 26.873 29.3515 21.5668 29.3515 15.0212C29.3515 14.7484 29.5726 14.5273 29.8454 14.5273Z" fill="#CF945D"/>
<path d="M27.3761 15.0211C27.3761 20.4757 22.9543 24.8976 17.4996 24.8976C12.0449 24.8976 7.62305 20.4757 7.62305 15.0211C7.62305 9.56641 12.0449 5.14453 17.4996 5.14453C22.9543 5.14453 27.3761 9.56641 27.3761 15.0211Z" fill="#F7BA82"/>
<path fill-rule="evenodd" clip-rule="evenodd" d="M28.3641 15.0204C28.3641 21.0206 23.5001 25.8846 17.4999 25.8846C11.4998 25.8846 6.63574 21.0206 6.63574 15.0204C6.63574 9.02032 11.4998 4.15625 17.4999 4.15625C23.5001 4.15625 28.3641 9.02032 28.3641 15.0204ZM17.4999 24.897C22.9546 24.897 27.3765 20.4751 27.3765 15.0204C27.3765 9.56578 22.9546 5.1439 17.4999 5.1439C12.0453 5.1439 7.6234 9.56578 7.6234 15.0204C7.6234 20.4751 12.0453 24.897 17.4999 24.897Z" fill="#C38144"/>
<path fill-rule="evenodd" clip-rule="evenodd" d="M17.5001 23.4157C22.1366 23.4157 25.8952 19.6571 25.8952 15.0206C25.8952 14.7479 26.1163 14.5268 26.389 14.5268C26.6617 14.5268 26.8828 14.7479 26.8828 15.0206C26.8828 20.2025 22.682 24.4033 17.5001 24.4033C17.2274 24.4033 17.0063 24.1822 17.0063 23.9095C17.0063 23.6368 17.2274 23.4157 17.5001 23.4157Z" fill="#E6A66C"/>
<path fill-rule="evenodd" clip-rule="evenodd" d="M17.4999 6.62535C12.8634 6.62535 9.10484 10.3839 9.10484 15.0204C9.10484 15.2931 8.88375 15.5142 8.61101 15.5142C8.33828 15.5142 8.11719 15.2931 8.11719 15.0204C8.11719 9.83848 12.318 5.6377 17.4999 5.6377C17.7726 5.6377 17.9937 5.85879 17.9937 6.13152C17.9937 6.40426 17.7726 6.62535 17.4999 6.62535Z" fill="#FFD5AE"/>
<path d="M2.4073 28.1675L1.1353 25.6235C0.996784 25.3465 1.19824 25.0205 1.50798 25.0205L7.0838 25.0205C7.31392 25.0205 7.50047 25.2071 7.50047 25.4372L7.50047 31.2705C7.50047 31.5006 7.31392 31.6872 7.0838 31.6872L1.50798 31.6872C1.19824 31.6872 0.996783 31.3612 1.1353 31.0842L2.4073 28.5402C2.46595 28.4229 2.46595 28.2848 2.4073 28.1675Z" fill="#C52229"/>
<path d="M32.5936 28.1675L33.8656 25.6235C34.0042 25.3465 33.8027 25.0205 33.493 25.0205L27.9171 25.0205C27.687 25.0205 27.5005 25.2071 27.5005 25.4372L27.5005 31.2705C27.5005 31.5006 27.687 31.6872 27.9171 31.6872L33.493 31.6872C33.8027 31.6872 34.0042 31.3612 33.8656 31.0842L32.5936 28.5402C32.535 28.4229 32.535 28.2848 32.5936 28.1675Z" fill="#C52229"/>
<path fill-rule="evenodd" clip-rule="evenodd" d="M1.56933 28.3542L0.390501 25.9965C-0.0250592 25.1654 0.5793 24.1875 1.50853 24.1875L7.08435 24.1875C7.77471 24.1875 8.33435 24.7471 8.33435 25.4375L8.33435 31.2708C8.33435 31.9612 7.77471 32.5208 7.08435 32.5208L1.50853 32.5208C0.5793 32.5208 -0.0250595 31.5429 0.390501 30.7118L1.56933 28.3542ZM1.66225 28.54C1.66234 28.5402 1.66242 28.5404 1.6625 28.5405L2.03518 28.3542L1.66249 28.5405L1.66225 28.54ZM33.4327 28.3542L34.6115 25.9965C35.0271 25.1654 34.4227 24.1875 33.4935 24.1875L27.9177 24.1875C27.2273 24.1875 26.6677 24.7471 26.6677 25.4375L26.6677 31.2708C26.6677 31.9612 27.2273 32.5208 27.9177 32.5208L33.4935 32.5208C34.4227 32.5208 35.0271 31.5429 34.6115 30.7118L33.4327 28.3542ZM33.8662 25.6238L32.5942 28.1678C32.5355 28.2851 32.5355 28.4232 32.5942 28.5405L33.8662 31.0845C34.0047 31.3615 33.8032 31.6875 33.4935 31.6875L27.9177 31.6875C27.6876 31.6875 27.501 31.501 27.501 31.2708L27.501 25.4375C27.501 25.2074 27.6876 25.0208 27.9177 25.0208L33.4935 25.0208C33.8032 25.0208 34.0047 25.3468 33.8662 25.6238ZM1.13586 25.6238L2.40785 28.1678C2.4665 28.2851 2.4665 28.4232 2.40785 28.5405L1.13586 31.0845C0.997337 31.3615 1.19879 31.6875 1.50853 31.6875L7.08435 31.6875C7.31447 31.6875 7.50102 31.501 7.50102 31.2708L7.50102 25.4375C7.50102 25.2074 7.31447 25.0208 7.08435 25.0208L1.50853 25.0208C1.19879 25.0208 0.997337 25.3468 1.13586 25.6238Z" fill="#9B0F15"/>
<path fill-rule="evenodd" clip-rule="evenodd" d="M1.73213 25.3976C1.80843 25.2766 1.94153 25.2031 2.08464 25.2031H3.85547C4.08559 25.2031 4.27214 25.3897 4.27214 25.6198C4.27214 25.8499 4.08559 26.0365 3.85547 26.0365H2.74578L3.60636 27.8359C3.70564 28.0434 3.61784 28.2922 3.41024 28.3915C3.20264 28.4908 2.95387 28.403 2.85458 28.1954L1.70875 25.7996C1.647 25.6705 1.65583 25.5187 1.73213 25.3976Z" fill="#DF3840"/>
<path d="M29.168 29.6045L29.168 23.7712C29.168 23.541 28.9814 23.3545 28.7513 23.3545L6.2513 23.3545C6.02118 23.3545 5.83464 23.541 5.83464 23.7712L5.83464 29.6045C5.83464 29.8346 6.02118 30.0212 6.2513 30.0212L28.7513 30.0212C28.9814 30.0212 29.168 29.8346 29.168 29.6045Z" fill="#F1333B"/>
<path fill-rule="evenodd" clip-rule="evenodd" d="M30.001 23.7705L30.001 29.6038C30.001 30.2942 29.4413 30.8538 28.751 30.8538L6.25098 30.8538C5.56062 30.8538 5.00098 30.2942 5.00098 29.6038L5.00098 23.7705C5.00098 23.0802 5.56062 22.5205 6.25098 22.5205L28.751 22.5205C29.4413 22.5205 30.001 23.0802 30.001 23.7705ZM29.1676 23.7705L29.1676 29.6038C29.1676 29.834 28.9811 30.0205 28.751 30.0205L6.25098 30.0205C6.02086 30.0205 5.83431 29.834 5.83431 29.6038L5.83431 23.7705C5.83431 23.5404 6.02086 23.3538 6.25098 23.3538L28.751 23.3538C28.9811 23.3538 29.1676 23.5404 29.1676 23.7705Z" fill="#9B0F15"/>
<path d="M28.0161 26.8453C27.7802 26.8453 27.5889 26.6587 27.5889 26.4285C27.5889 26.1983 27.7802 26.0117 28.0161 26.0117C28.2521 26.0117 28.4434 26.1983 28.4434 26.4285C28.4434 26.6587 28.2521 26.8453 28.0161 26.8453Z" fill="#DB1B24"/>
<path d="M26.3905 26.6785C26.097 26.6785 25.8591 26.4464 25.8591 26.1601C25.8591 25.8737 26.097 25.6416 26.3905 25.6416C26.684 25.6416 26.9219 25.8737 26.9219 26.1601C26.9219 26.4464 26.684 26.6785 26.3905 26.6785Z" fill="#DB1B24"/>
<path d="M27.1152 27.8632C26.9684 27.8632 26.8494 27.7471 26.8494 27.604C26.8494 27.4608 26.9684 27.3447 27.1152 27.3447C27.2619 27.3447 27.3809 27.4608 27.3809 27.604C27.3809 27.7471 27.2619 27.8632 27.1152 27.8632Z" fill="#DB1B24"/>
<path d="M26.6562 25.122C26.5094 25.122 26.3905 25.0059 26.3905 24.8627C26.3905 24.7196 26.5094 24.6035 26.6562 24.6035C26.8029 24.6035 26.9219 24.7196 26.9219 24.8627C26.9219 25.0059 26.8029 25.122 26.6562 25.122Z" fill="#DB1B24"/>
<path d="M25.2607 27.6044C25.1139 27.6044 24.995 27.4883 24.995 27.3452C24.995 27.202 25.1139 27.0859 25.2607 27.0859C25.4074 27.0859 25.5264 27.202 25.5264 27.3452C25.5264 27.4883 25.4074 27.6044 25.2607 27.6044Z" fill="#DB1B24"/>
<path d="M24.995 26.2704C24.8483 26.2704 24.7293 26.1543 24.7293 26.0112C24.7293 25.868 24.8483 25.752 24.995 25.752C25.1418 25.752 25.2607 25.868 25.2607 26.0112C25.2607 26.1543 25.1418 26.2704 24.995 26.2704Z" fill="#DB1B24"/>
<path d="M23.1835 29.2772C23.0368 29.2772 22.9178 29.1612 22.9178 29.018C22.9178 28.8748 23.0368 28.7588 23.1835 28.7588C23.3303 28.7588 23.4492 28.8748 23.4492 29.018C23.4492 29.1612 23.3303 29.2772 23.1835 29.2772Z" fill="#DB1B24"/>
<path d="M28.4696 28.288C28.3229 28.288 28.2039 28.1719 28.2039 28.0288C28.2039 27.8856 28.3229 27.7695 28.4696 27.7695C28.6164 27.7695 28.7354 27.8856 28.7354 28.0288C28.7354 28.1719 28.6164 28.288 28.4696 28.288Z" fill="#DB1B24"/>
<path d="M25.9582 28.8555C25.7194 28.8555 25.5258 28.6666 25.5258 28.4336C25.5258 28.2006 25.7194 28.0117 25.9582 28.0117C26.197 28.0117 26.3906 28.2006 26.3906 28.4336C26.3906 28.6666 26.197 28.8555 25.9582 28.8555Z" fill="#DB1B24"/>
<path d="M27.8127 29.2773C27.5739 29.2773 27.3803 29.0885 27.3803 28.8555C27.3803 28.6225 27.5739 28.4336 27.8127 28.4336C28.0515 28.4336 28.2451 28.6225 28.2451 28.8555C28.2451 29.0885 28.0515 29.2773 27.8127 29.2773Z" fill="#DB1B24"/>
<path d="M24.0305 28.4482C23.7916 28.4482 23.598 28.2594 23.598 28.0264C23.598 27.7934 23.7916 27.6045 24.0305 27.6045C24.2693 27.6045 24.4629 27.7934 24.4629 28.0264C24.4629 28.2594 24.2693 28.4482 24.0305 28.4482Z" fill="#DB1B24"/>
<path d="M24.7294 29.4061C24.5827 29.4061 24.4637 29.2901 24.4637 29.1469C24.4637 29.0038 24.5827 28.8877 24.7294 28.8877C24.8762 28.8877 24.9951 29.0038 24.9951 29.1469C24.9951 29.2901 24.8762 29.4061 24.7294 29.4061Z" fill="#DB1B24"/>
<path fill-rule="evenodd" clip-rule="evenodd" d="M6.09473 23.9528C6.09473 23.7227 6.28127 23.5361 6.51139 23.5361H22.1364C22.3665 23.5361 22.5531 23.7227 22.5531 23.9528C22.5531 24.1829 22.3665 24.3695 22.1364 24.3695H6.92806V27.2861C6.92806 27.5163 6.74151 27.7028 6.51139 27.7028C6.28127 27.7028 6.09473 27.5163 6.09473 27.2861V23.9528Z" fill="#FE666D"/>
<path d="M16.4286 14.1119H17.2362C17.6208 14.1119 17.9058 14.0158 18.0911 13.8235C18.2764 13.6312 18.369 13.376 18.369 13.0578C18.369 12.7501 18.2764 12.5106 18.0911 12.3393C17.9093 12.168 17.6575 12.0823 17.3359 12.0823C17.0457 12.0823 16.8027 12.1627 16.6069 12.3236C16.4111 12.4809 16.3132 12.6872 16.3132 12.9424H14.7975C14.7975 12.5438 14.9042 12.1872 15.1174 11.8725C15.3342 11.5544 15.6349 11.3061 16.0195 11.1278C16.4076 10.9495 16.8341 10.8604 17.2992 10.8604C18.1068 10.8604 18.7396 11.0544 19.1977 11.4425C19.6557 11.8271 19.8847 12.3585 19.8847 13.0368C19.8847 13.3865 19.7781 13.7081 19.5648 14.0018C19.3515 14.2955 19.0718 14.521 18.7257 14.6783C19.1557 14.8322 19.4756 15.0629 19.6854 15.3706C19.8987 15.6783 20.0053 16.0419 20.0053 16.4615C20.0053 17.1398 19.7571 17.6834 19.2606 18.0925C18.7676 18.5016 18.1138 18.7061 17.2992 18.7061C16.537 18.7061 15.9129 18.5051 15.4269 18.103C14.9444 17.7009 14.7031 17.1695 14.7031 16.5087H16.2188C16.2188 16.7954 16.3254 17.0296 16.5387 17.2114C16.7555 17.3933 17.0212 17.4842 17.3359 17.4842C17.696 17.4842 17.9774 17.3898 18.1802 17.201C18.3865 17.0087 18.4897 16.7552 18.4897 16.4405C18.4897 15.6783 18.0701 15.2972 17.231 15.2972H16.4286V14.1119Z" fill="#FFD5AE"/>
<path fill-rule="evenodd" clip-rule="evenodd" d="M15.5759 13.837H14.7971C14.3028 13.837 13.902 13.4363 13.902 12.942C13.902 12.3735 14.0573 11.8402 14.3761 11.3699L14.3773 11.3681C14.6941 10.9031 15.1266 10.5546 15.6426 10.3153L15.6454 10.314C16.1608 10.0772 16.7163 9.96484 17.2987 9.96484C18.244 9.96484 19.1064 10.1927 19.7743 10.7579C20.4624 11.3364 20.7793 12.1341 20.7793 13.0364C20.7793 13.5825 20.6084 14.0869 20.2886 14.5273C20.2679 14.5558 20.2467 14.5838 20.2252 14.6114C20.2956 14.6901 20.3615 14.7739 20.4225 14.863C20.7506 15.3376 20.8999 15.8832 20.8999 16.461C20.8999 17.3895 20.5451 18.1925 19.8306 18.7818C19.1376 19.3564 18.2636 19.6007 17.2987 19.6007C16.3733 19.6007 15.534 19.3532 14.8559 18.7922L14.8534 18.7902C14.155 18.2081 13.8076 17.4188 13.8076 16.5082C13.8076 16.0139 14.2084 15.6132 14.7027 15.6132H15.5906C15.5534 15.5148 15.5331 15.4082 15.5331 15.2968V14.1115C15.5331 14.0158 15.5481 13.9235 15.5759 13.837ZM17.0559 16.1918C17.0931 16.2902 17.1134 16.3968 17.1134 16.5082C17.1134 16.5157 17.1137 16.5214 17.1141 16.5256C17.1148 16.5263 17.1156 16.527 17.1165 16.5278C17.1538 16.5582 17.2094 16.5886 17.3354 16.5886C17.4386 16.5886 17.5001 16.575 17.532 16.5643C17.5585 16.5554 17.5672 16.5479 17.5695 16.5458M17.0559 16.1918H17.2305C17.453 16.1918 17.5436 16.2301 17.5684 16.2433C17.569 16.2447 17.5696 16.2463 17.5703 16.2482C17.5786 16.271 17.5941 16.3293 17.5941 16.4401C17.5941 16.4989 17.5847 16.524 17.5828 16.5288C17.5816 16.5318 17.5807 16.5332 17.5799 16.5344C17.579 16.5357 17.576 16.5397 17.5695 16.5458M19.2602 18.0921C19.7566 17.683 20.0049 17.1393 20.0049 16.461C20.0049 16.0415 19.8982 15.6779 19.685 15.3702C19.6504 15.3195 19.6129 15.271 19.5724 15.2245C19.3669 14.9886 19.0845 14.8064 18.7252 14.6779C19.049 14.5307 19.3146 14.3239 19.5221 14.0575C19.5365 14.0391 19.5505 14.0204 19.5643 14.0014C19.7776 13.7077 19.8842 13.386 19.8842 13.0364C19.8842 12.3581 19.6552 11.8266 19.1972 11.442C18.7392 11.054 18.1064 10.8599 17.2987 10.8599C16.8337 10.8599 16.4071 10.9491 16.019 11.1274C15.6345 11.3057 15.3338 11.5539 15.117 11.8721C15.0784 11.929 15.0433 11.9873 15.0118 12.0469C14.8686 12.3171 14.7971 12.6155 14.7971 12.942H16.3127C16.3127 12.6867 16.4106 12.4805 16.6064 12.3231C16.8022 12.1623 17.0452 12.0819 17.3354 12.0819C17.6571 12.0819 17.9088 12.1675 18.0906 12.3389C18.2759 12.5102 18.3686 12.7497 18.3686 13.0574C18.3686 13.3755 18.2759 13.6308 18.0906 13.823C17.9053 14.0153 17.6204 14.1115 17.2358 14.1115H16.4281V15.2968H17.2305C18.0696 15.2968 18.4892 15.6779 18.4892 16.4401C18.4892 16.7547 18.3861 17.0082 18.1798 17.2005C17.977 17.3893 17.6955 17.4837 17.3354 17.4837C17.0207 17.4837 16.755 17.3928 16.5383 17.211C16.325 17.0292 16.2183 16.7949 16.2183 16.5082H14.7027C14.7027 16.839 14.7631 17.1374 14.884 17.4033C15.0046 17.6687 15.1854 17.9017 15.4264 18.1026C15.9124 18.5046 16.5365 18.7057 17.2987 18.7057C18.1134 18.7057 18.7672 18.5011 19.2602 18.0921ZM17.1649 13.2164C17.1875 13.1463 17.2017 13.0724 17.2062 12.9958C17.2299 12.9861 17.269 12.9769 17.3354 12.9769C17.4068 12.9769 17.4487 12.9852 17.4691 12.991C17.4713 13.005 17.4735 13.0266 17.4735 13.0574C17.4735 13.1298 17.463 13.1675 17.4578 13.182C17.4565 13.1854 17.4554 13.1882 17.4543 13.1904C17.4535 13.1907 17.4526 13.191 17.4518 13.1913C17.4231 13.201 17.3565 13.2164 17.2358 13.2164H17.1649Z" fill="#C28044"/>
</svg>
