<svg width="35" height="33" viewBox="0 0 35 33" fill="none" xmlns="http://www.w3.org/2000/svg">
<path d="M30.8337 15.2689C30.8337 22.6327 24.8641 28.6022 17.5003 28.6022C10.1365 28.6022 4.16699 22.6327 4.16699 15.2689C4.16699 7.90508 10.1365 1.93555 17.5003 1.93555C24.8641 1.93555 30.8337 7.90508 30.8337 15.2689Z" fill="#BCCCD2"/>
<path fill-rule="evenodd" clip-rule="evenodd" d="M31.8207 15.2692C31.8207 23.1785 25.409 29.5902 17.4997 29.5902C9.59043 29.5902 3.17871 23.1785 3.17871 15.2692C3.17871 7.35997 9.59043 0.948242 17.4997 0.948242C25.409 0.948242 31.8207 7.35997 31.8207 15.2692ZM17.4997 28.6026C24.8635 28.6026 30.833 22.633 30.833 15.2692C30.833 7.90543 24.8635 1.9359 17.4997 1.9359C10.1359 1.9359 4.16637 7.90543 4.16637 15.2692C4.16637 22.633 10.1359 28.6026 17.4997 28.6026Z" fill="#81A5B0"/>
<path fill-rule="evenodd" clip-rule="evenodd" d="M5.15464 15.7627C4.8819 15.7627 4.66081 15.5416 4.66081 15.2689C4.66081 8.1778 10.4093 2.42936 17.5003 2.42936C17.773 2.42936 17.9941 2.65046 17.9941 2.92319C17.9941 3.19592 17.773 3.41702 17.5003 3.41702C10.9547 3.41702 5.64846 8.72327 5.64846 15.2689C5.64846 15.5416 5.42737 15.7627 5.15464 15.7627Z" fill="#D0DEE3"/>
<path fill-rule="evenodd" clip-rule="evenodd" d="M29.8454 14.7754C30.1181 14.7754 30.3392 14.9965 30.3392 15.2692C30.3392 22.3603 24.5907 28.1087 17.4997 28.1087C17.227 28.1087 17.0059 27.8876 17.0059 27.6149C17.0059 27.3422 17.227 27.1211 17.4997 27.1211C24.0453 27.1211 29.3515 21.8148 29.3515 15.2692C29.3515 14.9965 29.5726 14.7754 29.8454 14.7754Z" fill="#A2B9C1"/>
<path d="M27.3761 15.2691C27.3761 20.7238 22.9543 25.1457 17.4996 25.1457C12.0449 25.1457 7.62305 20.7238 7.62305 15.2691C7.62305 9.81446 12.0449 5.39258 17.4996 5.39258C22.9543 5.39258 27.3761 9.81446 27.3761 15.2691Z" fill="#C7D4D8"/>
<path fill-rule="evenodd" clip-rule="evenodd" d="M28.3641 15.2685C28.3641 21.2686 23.5001 26.1327 17.4999 26.1327C11.4998 26.1327 6.63574 21.2686 6.63574 15.2685C6.63574 9.26836 11.4998 4.4043 17.4999 4.4043C23.5001 4.4043 28.3641 9.26836 28.3641 15.2685ZM17.4999 25.145C22.9546 25.145 27.3765 20.7232 27.3765 15.2685C27.3765 9.81383 22.9546 5.39195 17.4999 5.39195C12.0453 5.39195 7.6234 9.81383 7.6234 15.2685C7.6234 20.7232 12.0453 25.145 17.4999 25.145Z" fill="#81A5B0"/>
<path fill-rule="evenodd" clip-rule="evenodd" d="M17.5001 23.6637C22.1366 23.6637 25.8952 19.9051 25.8952 15.2687C25.8952 14.9959 26.1163 14.7748 26.389 14.7748C26.6617 14.7748 26.8828 14.9959 26.8828 15.2687C26.8828 20.4506 22.682 24.6514 17.5001 24.6514C17.2274 24.6514 17.0063 24.4303 17.0063 24.1575C17.0063 23.8848 17.2274 23.6637 17.5001 23.6637Z" fill="#B5C3C8"/>
<path fill-rule="evenodd" clip-rule="evenodd" d="M17.4999 6.8734C12.8634 6.8734 9.10484 10.632 9.10484 15.2685C9.10484 15.5412 8.88375 15.7623 8.61101 15.7623C8.33828 15.7623 8.11719 15.5412 8.11719 15.2685C8.11719 10.0865 12.318 5.88574 17.4999 5.88574C17.7726 5.88574 17.9937 6.10684 17.9937 6.37957C17.9937 6.6523 17.7726 6.8734 17.4999 6.8734Z" fill="#D9EAEF"/>
<path d="M2.4073 28.4155L1.1353 25.8716C0.996784 25.5945 1.19824 25.2686 1.50798 25.2686L7.0838 25.2686C7.31392 25.2686 7.50047 25.4551 7.50047 25.6852L7.50047 31.5186C7.50047 31.7487 7.31392 31.9352 7.0838 31.9352L1.50798 31.9352C1.19824 31.9352 0.996783 31.6093 1.1353 31.3322L2.4073 28.7882C2.46595 28.6709 2.46595 28.5329 2.4073 28.4155Z" fill="#C52229"/>
<path d="M32.5936 28.4155L33.8656 25.8716C34.0042 25.5945 33.8027 25.2686 33.493 25.2686L27.9171 25.2686C27.687 25.2686 27.5005 25.4551 27.5005 25.6852L27.5005 31.5186C27.5005 31.7487 27.687 31.9352 27.9171 31.9352L33.493 31.9352C33.8027 31.9352 34.0042 31.6093 33.8656 31.3322L32.5936 28.7882C32.535 28.6709 32.535 28.5329 32.5936 28.4155Z" fill="#C52229"/>
<path fill-rule="evenodd" clip-rule="evenodd" d="M1.56933 28.6022L0.390501 26.2446C-0.0250592 25.4134 0.5793 24.4355 1.50853 24.4355L7.08435 24.4355C7.77471 24.4355 8.33435 24.9952 8.33435 25.6855L8.33435 31.5189C8.33435 32.2092 7.77471 32.7689 7.08435 32.7689L1.50853 32.7689C0.5793 32.7689 -0.0250595 31.791 0.390501 30.9599L1.56933 28.6022ZM1.66225 28.7881C1.66234 28.7882 1.66242 28.7884 1.6625 28.7886L2.03518 28.6022L1.66249 28.7886L1.66225 28.7881ZM33.4327 28.6022L34.6115 26.2446C35.0271 25.4134 34.4227 24.4355 33.4935 24.4355L27.9177 24.4355C27.2273 24.4355 26.6677 24.9952 26.6677 25.6855L26.6677 31.5189C26.6677 32.2092 27.2273 32.7689 27.9177 32.7689L33.4935 32.7689C34.4227 32.7689 35.0271 31.791 34.6115 30.9599L33.4327 28.6022ZM33.8662 25.8719L32.5942 28.4159C32.5355 28.5332 32.5355 28.6712 32.5942 28.7886L33.8662 31.3325C34.0047 31.6096 33.8032 31.9355 33.4935 31.9355L27.9177 31.9355C27.6876 31.9355 27.501 31.749 27.501 31.5189L27.501 25.6855C27.501 25.4554 27.6876 25.2689 27.9177 25.2689L33.4935 25.2689C33.8032 25.2689 34.0047 25.5948 33.8662 25.8719ZM1.13586 25.8719L2.40785 28.4159C2.4665 28.5332 2.4665 28.6712 2.40785 28.7886L1.13586 31.3325C0.997337 31.6096 1.19879 31.9355 1.50853 31.9355L7.08435 31.9355C7.31447 31.9355 7.50102 31.749 7.50102 31.5189L7.50102 25.6855C7.50102 25.4554 7.31447 25.2689 7.08435 25.2689L1.50853 25.2689C1.19879 25.2689 0.997337 25.5948 1.13586 25.8719Z" fill="#9B0F15"/>
<path fill-rule="evenodd" clip-rule="evenodd" d="M1.73213 25.6457C1.80843 25.5246 1.94153 25.4512 2.08464 25.4512H3.85547C4.08559 25.4512 4.27214 25.6377 4.27214 25.8678C4.27214 26.098 4.08559 26.2845 3.85547 26.2845H2.74578L3.60636 28.0839C3.70564 28.2915 3.61784 28.5403 3.41024 28.6396C3.20264 28.7388 2.95387 28.651 2.85458 28.4434L1.70875 26.0476C1.647 25.9185 1.65583 25.7668 1.73213 25.6457Z" fill="#DF3840"/>
<path d="M29.168 29.8525L29.168 24.0192C29.168 23.7891 28.9814 23.6025 28.7513 23.6025L6.2513 23.6025C6.02118 23.6025 5.83464 23.7891 5.83464 24.0192L5.83464 29.8525C5.83464 30.0827 6.02118 30.2692 6.2513 30.2692L28.7513 30.2692C28.9814 30.2692 29.168 30.0827 29.168 29.8525Z" fill="#F1333B"/>
<path fill-rule="evenodd" clip-rule="evenodd" d="M30.001 24.0186L30.001 29.8519C30.001 30.5422 29.4413 31.1019 28.751 31.1019L6.25098 31.1019C5.56062 31.1019 5.00098 30.5422 5.00098 29.8519L5.00098 24.0186C5.00098 23.3282 5.56062 22.7686 6.25098 22.7686L28.751 22.7686C29.4413 22.7686 30.001 23.3282 30.001 24.0186ZM29.1676 24.0186L29.1676 29.8519C29.1676 30.082 28.9811 30.2686 28.751 30.2686L6.25098 30.2686C6.02086 30.2686 5.83431 30.082 5.83431 29.8519L5.83431 24.0186C5.83431 23.7884 6.02086 23.6019 6.25098 23.6019L28.751 23.6019C28.9811 23.6019 29.1676 23.7884 29.1676 24.0186Z" fill="#9B0F15"/>
<path d="M28.0161 27.0934C27.7802 27.0934 27.5889 26.9067 27.5889 26.6766C27.5889 26.4464 27.7802 26.2598 28.0161 26.2598C28.2521 26.2598 28.4434 26.4464 28.4434 26.6766C28.4434 26.9067 28.2521 27.0934 28.0161 27.0934Z" fill="#DB1B24"/>
<path d="M26.3905 26.9265C26.097 26.9265 25.8591 26.6944 25.8591 26.4081C25.8591 26.1218 26.097 25.8896 26.3905 25.8896C26.684 25.8896 26.9219 26.1218 26.9219 26.4081C26.9219 26.6944 26.684 26.9265 26.3905 26.9265Z" fill="#DB1B24"/>
<path d="M27.1152 28.1112C26.9684 28.1112 26.8494 27.9952 26.8494 27.852C26.8494 27.7088 26.9684 27.5928 27.1152 27.5928C27.2619 27.5928 27.3809 27.7088 27.3809 27.852C27.3809 27.9952 27.2619 28.1112 27.1152 28.1112Z" fill="#DB1B24"/>
<path d="M26.6562 25.37C26.5094 25.37 26.3905 25.254 26.3905 25.1108C26.3905 24.9676 26.5094 24.8516 26.6562 24.8516C26.8029 24.8516 26.9219 24.9676 26.9219 25.1108C26.9219 25.254 26.8029 25.37 26.6562 25.37Z" fill="#DB1B24"/>
<path d="M25.2607 27.8524C25.1139 27.8524 24.995 27.7364 24.995 27.5932C24.995 27.45 25.1139 27.334 25.2607 27.334C25.4074 27.334 25.5264 27.45 25.5264 27.5932C25.5264 27.7364 25.4074 27.8524 25.2607 27.8524Z" fill="#DB1B24"/>
<path d="M24.995 26.5184C24.8483 26.5184 24.7293 26.4024 24.7293 26.2592C24.7293 26.1161 24.8483 26 24.995 26C25.1418 26 25.2607 26.1161 25.2607 26.2592C25.2607 26.4024 25.1418 26.5184 24.995 26.5184Z" fill="#DB1B24"/>
<path d="M23.1835 29.5253C23.0368 29.5253 22.9178 29.4092 22.9178 29.2661C22.9178 29.1229 23.0368 29.0068 23.1835 29.0068C23.3303 29.0068 23.4492 29.1229 23.4492 29.2661C23.4492 29.4092 23.3303 29.5253 23.1835 29.5253Z" fill="#DB1B24"/>
<path d="M28.4696 28.536C28.3229 28.536 28.2039 28.42 28.2039 28.2768C28.2039 28.1336 28.3229 28.0176 28.4696 28.0176C28.6164 28.0176 28.7354 28.1336 28.7354 28.2768C28.7354 28.42 28.6164 28.536 28.4696 28.536Z" fill="#DB1B24"/>
<path d="M25.9582 29.1035C25.7194 29.1035 25.5258 28.9146 25.5258 28.6816C25.5258 28.4486 25.7194 28.2598 25.9582 28.2598C26.197 28.2598 26.3906 28.4486 26.3906 28.6816C26.3906 28.9146 26.197 29.1035 25.9582 29.1035Z" fill="#DB1B24"/>
<path d="M27.8127 29.5254C27.5739 29.5254 27.3803 29.3365 27.3803 29.1035C27.3803 28.8705 27.5739 28.6816 27.8127 28.6816C28.0515 28.6816 28.2451 28.8705 28.2451 29.1035C28.2451 29.3365 28.0515 29.5254 27.8127 29.5254Z" fill="#DB1B24"/>
<path d="M24.0305 28.6963C23.7916 28.6963 23.598 28.5074 23.598 28.2744C23.598 28.0414 23.7916 27.8525 24.0305 27.8525C24.2693 27.8525 24.4629 28.0414 24.4629 28.2744C24.4629 28.5074 24.2693 28.6963 24.0305 28.6963Z" fill="#DB1B24"/>
<path d="M24.7294 29.6542C24.5827 29.6542 24.4637 29.5381 24.4637 29.395C24.4637 29.2518 24.5827 29.1357 24.7294 29.1357C24.8762 29.1357 24.9951 29.2518 24.9951 29.395C24.9951 29.5381 24.8762 29.6542 24.7294 29.6542Z" fill="#DB1B24"/>
<path fill-rule="evenodd" clip-rule="evenodd" d="M6.09473 24.2008C6.09473 23.9707 6.28127 23.7842 6.51139 23.7842H22.1364C22.3665 23.7842 22.5531 23.9707 22.5531 24.2008C22.5531 24.431 22.3665 24.6175 22.1364 24.6175H6.92806V27.5342C6.92806 27.7643 6.74151 27.9508 6.51139 27.9508C6.28127 27.9508 6.09473 27.7643 6.09473 27.5342V24.2008Z" fill="#FE666D"/>
<path d="M20.1205 18.8493H14.8865V17.8109L17.3566 15.1781C17.6958 14.8075 17.9458 14.4841 18.1066 14.2079C18.2709 13.9317 18.3531 13.6695 18.3531 13.4212C18.3531 13.0821 18.2674 12.8164 18.0961 12.6241C17.9248 12.4283 17.68 12.3304 17.3619 12.3304C17.0192 12.3304 16.7483 12.4492 16.549 12.687C16.3532 12.9212 16.2553 13.2307 16.2553 13.6153H14.7344C14.7344 13.1503 14.8445 12.7255 15.0648 12.3409C15.2885 11.9563 15.6032 11.6556 16.0088 11.4388C16.4144 11.2185 16.8741 11.1084 17.3881 11.1084C18.1748 11.1084 18.7849 11.2972 19.2184 11.6748C19.6555 12.0524 19.874 12.5856 19.874 13.2744C19.874 13.652 19.7761 14.0366 19.5803 14.4282C19.3845 14.8198 19.0489 15.276 18.5734 15.797L16.8374 17.6273H20.1205V18.8493Z" fill="#D9EAEF"/>
<path fill-rule="evenodd" clip-rule="evenodd" d="M21.0151 18.8488C21.0151 19.3432 20.6144 19.7439 20.12 19.7439H14.886C14.3917 19.7439 13.991 19.3432 13.991 18.8488V17.8104C13.991 17.5829 14.0776 17.3639 14.2333 17.198L16.6995 14.5694C17.0149 14.2244 17.2172 13.9553 17.3327 13.7571L17.3369 13.7498C17.4427 13.5721 17.4576 13.467 17.4576 13.4208C17.4576 13.3251 17.4453 13.2692 17.4365 13.2418C17.435 13.2371 17.4336 13.2332 17.4323 13.23C17.418 13.2275 17.395 13.225 17.3614 13.225C17.2945 13.225 17.2664 13.2363 17.2608 13.2387C17.2573 13.2403 17.2549 13.2417 17.2523 13.2437C17.2496 13.2457 17.2436 13.2507 17.2349 13.2611C17.2055 13.2964 17.1499 13.3852 17.1499 13.6148C17.1499 14.1092 16.7492 14.5099 16.2548 14.5099H14.7339C14.2396 14.5099 13.8389 14.1092 13.8389 13.6148C13.8389 13.0017 13.9859 12.4224 14.2876 11.8956L14.2907 11.8903C14.6003 11.358 15.0382 10.9426 15.5838 10.6504C16.1342 10.3521 16.7428 10.2129 17.3876 10.2129C18.31 10.2129 19.1566 10.4347 19.8045 10.9982C20.4755 11.5787 20.7686 12.3807 20.7686 13.2739C20.7686 13.8111 20.6284 14.332 20.3804 14.828C20.1322 15.3243 19.7356 15.8503 19.234 16.3999C19.2301 16.4042 19.2263 16.4083 19.2223 16.4125L18.9195 16.7318H20.12C20.6144 16.7318 21.0151 17.1325 21.0151 17.6269V18.8488ZM16.837 17.6269L18.5729 15.7965C19.0484 15.2756 19.3841 14.8193 19.5798 14.4277C19.7756 14.0361 19.8735 13.6515 19.8735 13.2739C19.8735 12.5852 19.655 12.052 19.218 11.6744C18.7844 11.2968 18.1743 11.108 17.3876 11.108C16.8737 11.108 16.4139 11.2181 16.0083 11.4384C15.6028 11.6551 15.2881 11.9558 15.0643 12.3404C14.9942 12.4628 14.9353 12.5892 14.8875 12.7198C14.7851 12.9994 14.7339 13.2978 14.7339 13.6148H16.2548C16.2548 13.2302 16.3527 12.9208 16.5485 12.6865C16.7478 12.4488 17.0188 12.3299 17.3614 12.3299C17.6796 12.3299 17.9243 12.4278 18.0957 12.6236C18.267 12.8159 18.3526 13.0816 18.3526 13.4208C18.3526 13.669 18.2705 13.9312 18.1061 14.2075C17.9453 14.4837 17.6953 14.8071 17.3562 15.1777L14.886 17.8104V18.8488H20.12V17.6269H16.837Z" fill="#81A5B0"/>
</svg>
