<svg width="24" height="24" viewBox="0 0 24 24" fill="none" xmlns="http://www.w3.org/2000/svg">
<path d="M16.5 20.75H7.5C6.75 20.75 6.2 20.72 5.73 20.65C2.41 20.29 1.75 18.3 1.75 15V9C1.75 5.7 2.41 3.71 5.76 3.34C6.2 3.28 6.75 3.25 7.5 3.25H16.5C17.25 3.25 17.8 3.28 18.27 3.35C21.59 3.71 22.25 5.7 22.25 9V15C22.25 18.3 21.59 20.29 18.24 20.66C17.8 20.72 17.25 20.75 16.5 20.75ZM7.5 4.75C6.82 4.75 6.34 4.78 5.95 4.83C3.92 5.06 3.25 5.69 3.25 9V15C3.25 18.31 3.92 18.94 5.92 19.17C6.34 19.23 6.82 19.25 7.5 19.25H16.5C17.18 19.25 17.66 19.22 18.05 19.17C20.08 18.95 20.75 18.31 20.75 15V9C20.75 5.69 20.08 5.06 18.08 4.83C17.66 4.77 17.18 4.75 16.5 4.75H7.5Z" fill="#007A61"/>
<path d="M5 15.8702C5 16.0487 5.07091 16.2199 5.19714 16.3462C5.32336 16.4724 5.49456 16.5433 5.67307 16.5433C5.85158 16.5433 6.02278 16.4724 6.14901 16.3462C6.27524 16.2199 6.34615 16.0487 6.34615 15.8702C6.34615 15.3347 6.55889 14.8211 6.93757 14.4424C7.31624 14.0637 7.82984 13.851 8.36537 13.851C8.9009 13.851 9.4145 14.0637 9.79318 14.4424C10.1719 14.8211 10.3846 15.3347 10.3846 15.8702C10.3846 16.0487 10.4555 16.2199 10.5817 16.3462C10.708 16.4724 10.8792 16.5433 11.0577 16.5433C11.2362 16.5433 11.4074 16.4724 11.5336 16.3462C11.6598 16.2199 11.7307 16.0487 11.7307 15.8702C11.7301 15.328 11.5983 14.7941 11.3465 14.3139C11.0947 13.8337 10.7305 13.4216 10.2849 13.1127C10.7318 12.7221 11.0489 12.2045 11.1938 11.6289C11.3387 11.0533 11.3046 10.4472 11.096 9.89153C10.8874 9.33585 10.5142 8.85706 10.0263 8.51907C9.53833 8.18108 8.95892 8 8.36537 8C7.77183 8 7.19241 8.18108 6.70449 8.51907C6.21658 8.85706 5.84339 9.33585 5.63477 9.89153C5.42615 10.4472 5.39202 11.0533 5.53694 11.6289C5.68187 12.2045 5.99895 12.7221 6.44584 13.1127C6.00025 13.4216 5.63602 13.8337 5.38425 14.3139C5.13248 14.7941 5.00064 15.328 5 15.8702ZM6.79486 10.9343C6.79486 10.6237 6.88697 10.3201 7.05954 10.0618C7.23211 9.80355 7.47739 9.60225 7.76436 9.48339C8.05134 9.36452 8.36711 9.33342 8.67176 9.39401C8.97641 9.45461 9.25625 9.60419 9.47589 9.82383C9.69553 10.0435 9.8451 10.3233 9.9057 10.628C9.9663 10.9326 9.9352 11.2484 9.81633 11.5354C9.69746 11.8223 9.49617 12.0676 9.2379 12.2402C8.97963 12.4127 8.67599 12.5049 8.36537 12.5049C7.949 12.5043 7.54983 12.3387 7.25541 12.0443C6.961 11.7499 6.79537 11.3507 6.79486 10.9343Z" fill="#007A61"/>
<path d="M17.7882 8.91406H14.1985C14.02 8.91406 13.8488 8.98498 13.7225 9.1112C13.5963 9.23743 13.5254 9.40863 13.5254 9.58714C13.5254 9.76565 13.5963 9.93685 13.7225 10.0631C13.8488 10.1893 14.02 10.2602 14.1985 10.2602H17.7882C17.9667 10.2602 18.1379 10.1893 18.2641 10.0631C18.3904 9.93685 18.4613 9.76565 18.4613 9.58714C18.4613 9.40863 18.3904 9.23743 18.2641 9.1112C18.1379 8.98498 17.9667 8.91406 17.7882 8.91406Z" fill="#007A61"/>
<path d="M17.7882 12.0547H14.1985C14.02 12.0547 13.8488 12.1256 13.7225 12.2518C13.5963 12.3781 13.5254 12.5493 13.5254 12.7278C13.5254 12.9063 13.5963 13.0775 13.7225 13.2037C13.8488 13.3299 14.02 13.4008 14.1985 13.4008H17.7882C17.9667 13.4008 18.1379 13.3299 18.2641 13.2037C18.3904 13.0775 18.4613 12.9063 18.4613 12.7278C18.4613 12.5493 18.3904 12.3781 18.2641 12.2518C18.1379 12.1256 17.9667 12.0547 17.7882 12.0547Z" fill="#007A61"/>
</svg>
