<svg width="45" height="45" viewBox="0 0 45 45" fill="none" xmlns="http://www.w3.org/2000/svg">
<path d="M44.263 22.3172C44.263 34.2283 34.6072 43.8841 22.6961 43.8841C10.7851 43.8841 1.1293 34.2283 1.1293 22.3172C1.1293 10.4062 10.7851 0.750392 22.6961 0.750392C34.6072 0.750392 44.263 10.4062 44.263 22.3172Z" fill="white" stroke="#007A61" stroke-width="1.39141"/>
<path d="M30.5502 19.7107C30.5614 20.1155 30.5698 20.4753 30.5755 20.7901C30.5811 21.1049 30.5839 21.7683 30.5839 22.7802C30.5839 23.7922 30.5811 24.4555 30.5755 24.7704C30.5698 25.0852 30.5614 25.4394 30.5502 25.8329C30.5277 26.2377 30.4855 26.5806 30.4237 26.8617C30.3618 27.1428 30.2859 27.4014 30.196 27.6375C30.106 27.8849 29.9936 28.1154 29.8587 28.329C29.7237 28.5426 29.5495 28.7506 29.3358 28.953C29.1334 29.1667 28.9254 29.3409 28.7118 29.4759C28.4982 29.6108 28.2677 29.7232 28.0203 29.8132C27.7842 29.9031 27.5256 29.979 27.2445 30.0409C26.9634 30.1027 26.6261 30.1449 26.2326 30.1673C25.8278 30.1786 25.468 30.187 25.1532 30.1926C24.8384 30.1983 24.175 30.2011 23.163 30.2011C22.1511 30.2011 21.4877 30.1983 21.1729 30.1926C20.8581 30.187 20.5039 30.1786 20.1104 30.1673C19.7056 30.1449 19.3627 30.1027 19.0816 30.0409C18.8005 29.979 18.5419 29.9031 18.3058 29.8132C18.0584 29.7232 17.8279 29.6108 17.6143 29.4759C17.4006 29.3409 17.1926 29.1667 16.9902 28.953C16.7766 28.7506 16.6023 28.5426 16.4674 28.329C16.3325 28.1154 16.22 27.8849 16.1301 27.6375C16.0401 27.4014 15.9643 27.1428 15.9024 26.8617C15.8406 26.5806 15.7984 26.2433 15.7759 25.8498C15.7647 25.445 15.7562 25.0852 15.7506 24.7704C15.745 24.4555 15.7422 23.7922 15.7422 22.7802C15.7422 21.7683 15.745 21.1049 15.7506 20.7901C15.7562 20.4753 15.7647 20.1211 15.7759 19.7276C15.7984 19.3228 15.8406 18.9799 15.9024 18.6988C15.9643 18.4177 16.0401 18.1591 16.1301 17.9229C16.22 17.6756 16.3325 17.4451 16.4674 17.2315C16.6023 17.0178 16.7766 16.8098 16.9902 16.6074C17.1926 16.3938 17.4006 16.2195 17.6143 16.0846C17.8279 15.9497 18.0584 15.8372 18.3058 15.7473C18.5419 15.6573 18.8005 15.5814 19.0816 15.5196C19.3627 15.4578 19.7 15.4156 20.0935 15.3931C20.4983 15.3819 20.8581 15.3734 21.1729 15.3678C21.4877 15.3622 22.1511 15.3594 23.163 15.3594C24.175 15.3594 24.8384 15.3622 25.1532 15.3678C25.468 15.3734 25.8222 15.3819 26.2157 15.3931C26.6205 15.4156 26.9634 15.4578 27.2445 15.5196C27.5256 15.5814 27.7842 15.6573 28.0203 15.7473C28.2677 15.8372 28.4982 15.9497 28.7118 16.0846C28.9254 16.2195 29.1334 16.3938 29.3358 16.6074C29.5495 16.8098 29.7237 17.0178 29.8587 17.2315C29.9936 17.4451 30.106 17.6756 30.196 17.9229C30.2859 18.1591 30.3618 18.4177 30.4237 18.6988C30.4855 18.9799 30.5277 19.3172 30.5502 19.7107ZM29.2009 25.7823C29.2234 25.3888 29.2375 25.0374 29.2431 24.7282C29.2487 24.419 29.2515 23.7697 29.2515 22.7802C29.2515 21.7908 29.2487 21.1415 29.2431 20.8323C29.2375 20.523 29.2234 20.1717 29.2009 19.7782C29.1897 19.4184 29.1587 19.1316 29.1081 18.918C29.0576 18.7044 29.0041 18.5301 28.9479 18.3952C28.8805 18.2265 28.8046 18.0747 28.7202 17.9398C28.6359 17.8049 28.5263 17.6756 28.3914 17.5519C28.2677 17.417 28.1384 17.3073 28.0035 17.223C27.8685 17.1387 27.7167 17.0628 27.5481 16.9953C27.4132 16.9391 27.2389 16.8857 27.0253 16.8351C26.8116 16.7845 26.5249 16.7536 26.1651 16.7424C25.7716 16.7199 25.4202 16.7058 25.111 16.7002C24.8018 16.6946 24.1525 16.6918 23.163 16.6918C22.1736 16.6918 21.5243 16.6946 21.2151 16.7002C20.9059 16.7058 20.5545 16.7199 20.161 16.7424C19.8012 16.7536 19.5145 16.7845 19.3008 16.8351C19.0872 16.8857 18.9129 16.9391 18.778 16.9953C18.6093 17.0628 18.4575 17.1387 18.3226 17.223C18.1877 17.3073 18.0584 17.417 17.9347 17.5519C17.7998 17.6756 17.6902 17.8049 17.6058 17.9398C17.5215 18.0747 17.4456 18.2265 17.3781 18.3952C17.3219 18.5301 17.2685 18.7044 17.2179 18.918C17.1673 19.1316 17.1364 19.4184 17.1252 19.7782C17.1027 20.1717 17.0886 20.523 17.083 20.8323C17.0774 21.1415 17.0746 21.7908 17.0746 22.7802C17.0746 23.7697 17.0774 24.419 17.083 24.7282C17.0886 25.0374 17.1027 25.3888 17.1252 25.7823C17.1364 26.1421 17.1673 26.4288 17.2179 26.6424C17.2685 26.8561 17.3219 27.0303 17.3781 27.1653C17.4456 27.3339 17.5215 27.4857 17.6058 27.6206C17.6902 27.7556 17.7998 27.8849 17.9347 28.0086C18.0584 28.1435 18.1877 28.2531 18.3226 28.3374C18.4575 28.4218 18.6093 28.4977 18.778 28.5651C18.9129 28.6213 19.0872 28.6747 19.3008 28.7253C19.5145 28.7759 19.8012 28.8069 20.161 28.8181C20.5545 28.8406 20.9059 28.8546 21.2151 28.8603C21.5243 28.8659 22.1736 28.8687 23.163 28.8687C24.1525 28.8687 24.8018 28.8659 25.111 28.8603C25.4202 28.8546 25.7716 28.8406 26.1651 28.8181C26.5249 28.8069 26.8116 28.7759 27.0253 28.7253C27.2389 28.6747 27.4132 28.6213 27.5481 28.5651C27.7167 28.4977 27.8685 28.4218 28.0035 28.3374C28.1384 28.2531 28.2677 28.1435 28.3914 28.0086C28.5263 27.8849 28.6359 27.7556 28.7202 27.6206C28.8046 27.4857 28.8805 27.3339 28.9479 27.1653C29.0041 27.0303 29.0576 26.8561 29.1081 26.6424C29.1587 26.4288 29.1897 26.1421 29.2009 25.7823ZM23.163 18.9686C23.6915 18.9686 24.1862 19.0698 24.6472 19.2722C25.1082 19.4633 25.513 19.7332 25.8615 20.0817C26.2101 20.4303 26.4799 20.8351 26.6711 21.2961C26.8735 21.7571 26.9747 22.2518 26.9747 22.7802C26.9747 23.3087 26.8735 23.8034 26.6711 24.2644C26.4799 24.7254 26.2101 25.1302 25.8615 25.4787C25.513 25.8273 25.1082 26.0971 24.6472 26.2883C24.1862 26.4907 23.6915 26.5918 23.163 26.5918C22.6346 26.5918 22.1399 26.4907 21.6789 26.2883C21.2179 26.0971 20.8131 25.8273 20.4645 25.4787C20.116 25.1302 19.8461 24.7254 19.655 24.2644C19.4526 23.8034 19.3514 23.3087 19.3514 22.7802C19.3514 22.2518 19.4526 21.7571 19.655 21.2961C19.8461 20.8351 20.116 20.4303 20.4645 20.0817C20.8131 19.7332 21.2179 19.4633 21.6789 19.2722C22.1399 19.0698 22.6346 18.9686 23.163 18.9686ZM23.163 25.2595C23.8489 25.2595 24.4336 25.0177 24.9171 24.5342C25.4005 24.0508 25.6423 23.4661 25.6423 22.7802C25.6423 22.0944 25.4005 21.5097 24.9171 21.0262C24.4336 20.5427 23.8489 20.301 23.163 20.301C22.4772 20.301 21.8925 20.5427 21.409 21.0262C20.9255 21.5097 20.6838 22.0944 20.6838 22.7802C20.6838 23.4661 20.9255 24.0508 21.409 24.5342C21.8925 25.0177 22.4772 25.2595 23.163 25.2595ZM27.9866 18.6144C28.0428 18.8505 28.0063 19.0726 27.877 19.2806C27.7477 19.4886 27.565 19.6207 27.3288 19.677C27.0927 19.7332 26.8707 19.6966 26.6626 19.5673C26.4546 19.438 26.3225 19.2553 26.2663 19.0192C26.2101 18.7831 26.2466 18.561 26.3759 18.353C26.5052 18.145 26.6879 18.0129 26.9241 17.9567C27.1602 17.8892 27.3822 17.9229 27.5902 18.0579C27.7983 18.1928 27.9304 18.3783 27.9866 18.6144Z" fill="#ED7D31"/>
</svg>
