<svg width="10" height="10" viewBox="0 0 10 10" fill="none" xmlns="http://www.w3.org/2000/svg">
<path d="M9.82978 3.17835C9.83674 3.42913 9.84197 3.65205 9.84545 3.8471C9.84894 4.04216 9.85068 4.45316 9.85068 5.08012C9.85068 5.70709 9.84894 6.11809 9.84545 6.31314C9.84197 6.5082 9.83674 6.72763 9.82978 6.97145C9.81585 7.22223 9.78972 7.4347 9.75141 7.60886C9.71309 7.78301 9.66607 7.94324 9.61034 8.08953C9.55461 8.24278 9.48495 8.38559 9.40135 8.51795C9.31776 8.65031 9.20978 8.77918 9.07743 8.90457C8.95203 9.03693 8.82316 9.14491 8.6908 9.2285C8.55844 9.3121 8.41564 9.38176 8.26238 9.43749C8.11609 9.49322 7.95587 9.54024 7.78171 9.57856C7.60755 9.61687 7.39857 9.64299 7.15475 9.65693C6.90397 9.66389 6.68105 9.66912 6.486 9.6726C6.29094 9.67608 5.87994 9.67782 5.25297 9.67782C4.62601 9.67782 4.21501 9.67608 4.01995 9.6726C3.8249 9.66912 3.60547 9.66389 3.36165 9.65693C3.11086 9.64299 2.8984 9.61687 2.72424 9.57856C2.55008 9.54024 2.38986 9.49322 2.24357 9.43749C2.09031 9.38176 1.94751 9.3121 1.81515 9.2285C1.68279 9.14491 1.55392 9.03693 1.42852 8.90457C1.29616 8.77918 1.18819 8.65031 1.1046 8.51795C1.021 8.38559 0.951338 8.24278 0.895608 8.08953C0.839878 7.94324 0.792857 7.78301 0.754543 7.60886C0.716229 7.4347 0.690104 7.22572 0.676171 6.9819C0.669205 6.73111 0.66398 6.5082 0.660497 6.31314C0.657014 6.11809 0.655273 5.70709 0.655273 5.08012C0.655273 4.45316 0.657014 4.04216 0.660497 3.8471C0.66398 3.65205 0.669205 3.43261 0.676171 3.1888C0.690104 2.93801 0.716229 2.72554 0.754543 2.55139C0.792857 2.37723 0.839878 2.21701 0.895608 2.07072C0.951338 1.91746 1.021 1.77466 1.1046 1.6423C1.18819 1.50994 1.29616 1.38106 1.42852 1.25567C1.55392 1.12331 1.68279 1.01534 1.81515 0.931743C1.94751 0.848148 2.09031 0.778486 2.24357 0.722756C2.38986 0.667026 2.55008 0.620005 2.72424 0.58169C2.8984 0.543376 3.10738 0.517253 3.3512 0.50332C3.60198 0.496354 3.8249 0.49113 4.01995 0.487647C4.21501 0.484163 4.62601 0.482422 5.25297 0.482422C5.87994 0.482422 6.29094 0.484163 6.486 0.487647C6.68105 0.49113 6.90048 0.496354 7.1443 0.50332C7.39509 0.517253 7.60755 0.543376 7.78171 0.58169C7.95587 0.620005 8.11609 0.667026 8.26238 0.722756C8.41564 0.778486 8.55844 0.848148 8.6908 0.931743C8.82316 1.01534 8.95203 1.12331 9.07743 1.25567C9.20978 1.38106 9.31776 1.50994 9.40135 1.6423C9.48495 1.77466 9.55461 1.91746 9.61034 2.07072C9.66607 2.21701 9.71309 2.37723 9.75141 2.55139C9.78972 2.72554 9.81585 2.93453 9.82978 3.17835ZM8.99383 6.9401C9.00776 6.69628 9.01647 6.47859 9.01995 6.28702C9.02344 6.09545 9.02518 5.69315 9.02518 5.08012C9.02518 4.46709 9.02344 4.0648 9.01995 3.87323C9.01647 3.68165 9.00776 3.46396 8.99383 3.22014C8.98686 2.99722 8.96771 2.81959 8.93636 2.68723C8.90501 2.55487 8.87192 2.44689 8.83709 2.3633C8.79529 2.25881 8.74827 2.16476 8.69603 2.08117C8.64378 1.99757 8.57586 1.91746 8.49226 1.84083C8.41563 1.75724 8.33552 1.68932 8.25193 1.63707C8.16833 1.58483 8.07429 1.5378 7.9698 1.49601C7.8862 1.46117 7.77823 1.42809 7.64587 1.39674C7.51351 1.36539 7.33587 1.34623 7.11295 1.33927C6.86914 1.32533 6.65144 1.31663 6.45987 1.31314C6.2683 1.30966 5.866 1.30792 5.25297 1.30792C4.63994 1.30792 4.23765 1.30966 4.04608 1.31314C3.85451 1.31663 3.63681 1.32533 3.393 1.33927C3.17008 1.34623 2.99244 1.36539 2.86008 1.39674C2.72772 1.42809 2.61975 1.46117 2.53615 1.49601C2.43166 1.5378 2.33762 1.58483 2.25402 1.63707C2.17043 1.68932 2.09031 1.75724 2.01369 1.84083C1.93009 1.91746 1.86217 1.99757 1.80992 2.08117C1.75768 2.16476 1.71065 2.25881 1.66886 2.3633C1.63403 2.44689 1.60094 2.55487 1.56959 2.68723C1.53824 2.81959 1.51909 2.99722 1.51212 3.22014C1.49819 3.46396 1.48948 3.68165 1.48599 3.87323C1.48251 4.0648 1.48077 4.46709 1.48077 5.08012C1.48077 5.69315 1.48251 6.09545 1.48599 6.28702C1.48948 6.47859 1.49819 6.69628 1.51212 6.9401C1.51909 7.16302 1.53824 7.34066 1.56959 7.47302C1.60094 7.60538 1.63403 7.71335 1.66886 7.79695C1.71065 7.90144 1.75768 7.99548 1.80992 8.07908C1.86217 8.16267 1.93009 8.24278 2.01369 8.31941C2.09031 8.40301 2.17043 8.47093 2.25402 8.52317C2.33762 8.57542 2.43166 8.62244 2.53615 8.66424C2.61975 8.69907 2.72772 8.73216 2.86008 8.76351C2.99244 8.79486 3.17008 8.81401 3.393 8.82098C3.63681 8.83491 3.85451 8.84362 4.04608 8.8471C4.23765 8.85059 4.63994 8.85233 5.25297 8.85233C5.866 8.85233 6.2683 8.85059 6.45987 8.8471C6.65144 8.84362 6.86914 8.83491 7.11295 8.82098C7.33587 8.81401 7.51351 8.79486 7.64587 8.76351C7.77823 8.73216 7.8862 8.69907 7.9698 8.66424C8.07429 8.62244 8.16833 8.57542 8.25193 8.52317C8.33552 8.47093 8.41563 8.40301 8.49226 8.31941C8.57586 8.24278 8.64378 8.16267 8.69603 8.07908C8.74827 7.99548 8.79529 7.90144 8.83709 7.79695C8.87192 7.71335 8.90501 7.60538 8.93636 7.47302C8.96771 7.34066 8.98686 7.16302 8.99383 6.9401ZM5.25297 2.71858C5.58039 2.71858 5.8869 2.78127 6.17252 2.90666C6.45813 3.02509 6.70891 3.19228 6.92486 3.40823C7.14082 3.62419 7.30801 3.87497 7.42643 4.16058C7.55183 4.4462 7.61452 4.75271 7.61452 5.08012C7.61452 5.40754 7.55183 5.71405 7.42643 5.99966C7.30801 6.28528 7.14082 6.53606 6.92486 6.75201C6.70891 6.96797 6.45813 7.13516 6.17252 7.25358C5.8869 7.37897 5.58039 7.44167 5.25297 7.44167C4.92556 7.44167 4.61905 7.37897 4.33343 7.25358C4.04782 7.13516 3.79704 6.96797 3.58108 6.75201C3.36513 6.53606 3.19794 6.28528 3.07951 5.99966C2.95412 5.71405 2.89143 5.40754 2.89143 5.08012C2.89143 4.75271 2.95412 4.4462 3.07951 4.16058C3.19794 3.87497 3.36513 3.62419 3.58108 3.40823C3.79704 3.19228 4.04782 3.02509 4.33343 2.90666C4.61905 2.78127 4.92556 2.71858 5.25297 2.71858ZM5.25297 6.61617C5.67792 6.61617 6.04016 6.4664 6.3397 6.16685C6.63925 5.8673 6.78903 5.50506 6.78903 5.08012C6.78903 4.65518 6.63925 4.29294 6.3397 3.99339C6.04016 3.69384 5.67792 3.54407 5.25297 3.54407C4.82803 3.54407 4.46579 3.69384 4.16624 3.99339C3.8667 4.29294 3.71692 4.65518 3.71692 5.08012C3.71692 5.50506 3.8667 5.8673 4.16624 6.16685C4.46579 6.4664 4.82803 6.61617 5.25297 6.61617ZM8.24148 2.49914C8.27631 2.64543 8.25367 2.78301 8.17356 2.91189C8.09345 3.04076 7.98025 3.12262 7.83396 3.15745C7.68767 3.19228 7.55008 3.16964 7.42121 3.08953C7.29233 3.00942 7.21048 2.89622 7.17565 2.74992C7.14082 2.60363 7.16346 2.46605 7.24357 2.33718C7.32368 2.2083 7.43688 2.12645 7.58317 2.09162C7.72946 2.04982 7.86704 2.07072 7.99592 2.15431C8.1248 2.23791 8.20665 2.35285 8.24148 2.49914Z" fill="#0C111A"/>
</svg>
