<svg width="32" height="32" viewBox="0 0 32 32" fill="none" xmlns="http://www.w3.org/2000/svg">
<circle cx="16" cy="16" r="16" fill="#007A61"/>
<path fill-rule="evenodd" clip-rule="evenodd" d="M20.4155 16.1099C20.1395 16.1099 19.8987 15.9067 19.859 15.6254C19.8162 15.3172 20.03 15.0329 20.3382 14.9902C21.1182 14.8807 21.707 14.2042 21.7085 13.4152C21.7085 12.6329 21.1475 11.9714 20.3742 11.8447C20.0682 11.7944 19.8605 11.5049 19.9107 11.1982C19.9617 10.8914 20.249 10.6859 20.5572 10.7347C21.8757 10.9514 22.8335 12.0794 22.8335 13.4167C22.8305 14.7629 21.8247 15.9179 20.4935 16.1047C20.4672 16.1084 20.441 16.1099 20.4155 16.1099Z" fill="white"/>
<mask id="mask0_663_25422" style="mask-type:luminance" maskUnits="userSpaceOnUse" x="21" y="17" width="4" height="4">
<path fill-rule="evenodd" clip-rule="evenodd" d="M21.2344 17.501H24.0799V20.8982H21.2344V17.501Z" fill="white"/>
</mask>
<g mask="url(#mask0_663_25422)">
<path fill-rule="evenodd" clip-rule="evenodd" d="M22.6468 20.8982C22.4203 20.8982 22.2066 20.7602 22.1211 20.5359C22.0101 20.2457 22.1563 19.9202 22.4466 19.8099C22.9551 19.6164 22.9551 19.4027 22.9551 19.2999C22.9551 18.9714 22.5373 18.7419 21.7138 18.6189C21.4071 18.5724 21.1948 18.2867 21.2406 17.9784C21.2863 17.6709 21.5713 17.4662 21.8811 17.5059C23.6983 17.7782 24.0801 18.6317 24.0801 19.2999C24.0801 19.7079 23.9196 20.4527 22.8471 20.8614C22.7811 20.8862 22.7136 20.8982 22.6468 20.8982Z" fill="white"/>
</g>
<path fill-rule="evenodd" clip-rule="evenodd" d="M15.9146 18.9355C14.1326 18.9355 12.0078 19.1545 12.0078 20.197C12.0078 21.2478 14.1326 21.4683 15.9146 21.4683C17.6966 21.4683 19.8206 21.25 19.8206 20.2098C19.8206 19.1568 17.6966 18.9355 15.9146 18.9355ZM15.9146 22.5933C14.6703 22.5933 10.8828 22.5933 10.8828 20.197C10.8828 17.8105 14.6703 17.8105 15.9146 17.8105C17.1588 17.8105 20.9456 17.8105 20.9456 20.2098C20.9456 22.5933 17.2908 22.5933 15.9146 22.5933Z" fill="white"/>
<path fill-rule="evenodd" clip-rule="evenodd" d="M15.9143 11.125C14.6453 11.125 13.6133 12.1578 13.6133 13.4268C13.6111 14.0418 13.8466 14.617 14.2778 15.0513C14.7091 15.4855 15.2836 15.7263 15.8956 15.7285L15.9143 16.291V15.7285C17.1833 15.7285 18.2161 14.6965 18.2161 13.4268C18.2161 12.1578 17.1833 11.125 15.9143 11.125ZM15.9143 16.8535H15.8941C14.9791 16.8505 14.1218 16.492 13.4798 15.844C12.8363 15.1967 12.4846 14.3372 12.4883 13.4245C12.4883 11.5375 14.0251 10 15.9143 10C17.8043 10 19.3411 11.5375 19.3411 13.4267C19.3411 15.316 17.8043 16.8535 15.9143 16.8535Z" fill="white"/>
<path fill-rule="evenodd" clip-rule="evenodd" d="M11.4133 16.1101C11.3878 16.1101 11.3616 16.1086 11.3353 16.1048C10.0041 15.9181 8.99909 14.7631 8.99609 13.4183C8.99609 12.0796 9.95384 10.9516 11.2723 10.7348C11.5881 10.6853 11.8678 10.8931 11.9188 11.1983C11.9691 11.5051 11.7613 11.7946 11.4553 11.8448C10.6821 11.9716 10.1211 12.6331 10.1211 13.4168C10.1226 14.2043 10.7113 14.8816 11.4906 14.9903C11.7988 15.0331 12.0126 15.3173 11.9698 15.6256C11.9301 15.9068 11.6893 16.1101 11.4133 16.1101Z" fill="white"/>
<path fill-rule="evenodd" clip-rule="evenodd" d="M9.184 20.898C9.11725 20.898 9.04975 20.886 8.98375 20.8612C7.9105 20.4517 7.75 19.707 7.75 19.2997C7.75 18.6322 8.13175 17.778 9.94975 17.5057C10.2595 17.4667 10.543 17.6707 10.5895 17.9782C10.6353 18.2865 10.423 18.5722 10.1163 18.6187C9.29275 18.7417 8.875 18.9712 8.875 19.2997C8.875 19.4025 8.875 19.6155 9.38425 19.8097C9.6745 19.92 9.82075 20.2455 9.70975 20.5357C9.62425 20.76 9.4105 20.898 9.184 20.898Z" fill="white"/>
</svg>
