<svg width="176" height="127" viewBox="0 0 176 127" fill="none" xmlns="http://www.w3.org/2000/svg">
<path d="M135.181 80.9124C157.524 80.9124 175.637 62.7995 175.637 40.4562C175.637 18.1129 157.524 0 135.181 0C112.837 0 94.7246 18.1129 94.7246 40.4562C94.7246 62.7995 112.837 80.9124 135.181 80.9124Z" fill="#455A64"/>
<path d="M27.6401 126.448C42.9053 126.448 55.2803 114.073 55.2803 98.8081C55.2803 83.5429 42.9053 71.168 27.6401 71.168C12.3749 71.168 0 83.5429 0 98.8081C0 114.073 12.3749 126.448 27.6401 126.448Z" fill="#EBEBEB"/>
<path d="M110.509 32.9106V61.8952H102.303V32.9106C102.303 21.8755 93.9215 12.9008 83.6198 12.9008C73.318 12.9008 64.937 21.8755 64.937 32.9106V61.8952H56.7305V32.9106C56.7305 17.1088 68.7957 4.25781 83.6198 4.25781C98.4438 4.25781 110.509 17.1088 110.509 32.9106Z" fill="#C7C7C7"/>
<path d="M121.018 45.4141H46.2168V113.266H121.018V45.4141Z" fill="#FFC727"/>
<path d="M86.7811 81.8186L89.924 96.6776H76.619L79.7619 81.8186C78.5296 81.0586 77.5788 79.9172 77.054 78.5677C76.5291 77.2183 76.4589 75.7345 76.8539 74.3415C77.2489 72.9485 78.0876 71.7224 79.2427 70.8494C80.3977 69.9763 81.8061 69.5039 83.254 69.5039C84.702 69.5039 86.1103 69.9763 87.2654 70.8494C88.4205 71.7224 89.2592 72.9485 89.6542 74.3415C90.0492 75.7345 89.979 77.2183 89.4541 78.5677C88.9293 79.9172 87.9785 81.0586 86.7462 81.8186H86.7811Z" fill="#263238"/>
</svg>
