<svg width="32" height="32" viewBox="0 0 32 32" fill="none" xmlns="http://www.w3.org/2000/svg">
<circle cx="16" cy="16" r="16" fill="#007A61"/>
<path d="M19.3801 17.7538C19.2389 16.83 18.6181 16.0515 17.7493 15.7074C18.1385 14.9946 18.2042 14.157 18.242 13.7497C18.297 13.0353 18.049 12.3316 17.5571 11.8101C17.0472 11.264 16.3336 10.9544 15.5863 10.9561C14.8021 10.9536 14.0531 11.2862 13.5301 11.8709C13.0628 12.3833 12.837 13.0714 12.9109 13.7612C12.9339 14.4362 13.1014 15.0981 13.4036 15.7025C12.5291 16.0441 11.9033 16.8259 11.7613 17.7538C11.7407 17.8868 11.7793 18.0223 11.8672 18.1242C11.9551 18.226 12.0832 18.2835 12.2178 18.2826H12.9585C13.163 18.2851 13.3437 18.1504 13.4003 17.9542C13.4693 17.62 13.7075 17.3457 14.0294 17.2315C14.5278 17.0648 15.0452 16.9655 15.5699 16.9359C16.0946 16.9638 16.6128 17.0607 17.1121 17.225C17.434 17.3391 17.6721 17.6134 17.7411 17.9476C17.7978 18.1439 17.9784 18.2785 18.1829 18.2761H18.9236C19.0566 18.2769 19.1839 18.2194 19.2718 18.1192C19.3588 18.0191 19.399 17.886 19.3801 17.7538ZM14.7487 12.9631C14.9639 12.729 15.2685 12.596 15.5863 12.5984C15.8762 12.5968 16.1538 12.7159 16.3533 12.9269C16.5299 13.115 16.6185 13.3679 16.598 13.6249C16.4716 15.2821 16.0002 15.2821 15.5863 15.2821C15.1725 15.2821 14.6568 15.2821 14.5484 13.6397V13.6003C14.5196 13.3687 14.5927 13.1363 14.7487 12.9631Z" fill="white"/>
<path d="M15.9456 21.1388H11.894C11.2026 21.1388 10.6425 20.5787 10.6425 19.8873V10.8938C10.6425 10.2023 11.2026 9.64231 11.894 9.64231H19.2453C19.577 9.64231 19.8957 9.77453 20.1305 10.0086C20.3645 10.2434 20.4967 10.562 20.4967 10.8938V15.821C20.4976 15.963 20.5641 16.0977 20.6774 16.1839C20.7907 16.271 20.9369 16.3006 21.0749 16.2644C21.2153 16.2299 21.3598 16.2127 21.5052 16.2135H21.6382C21.7638 16.2234 21.8886 16.1798 21.9814 16.0953C22.0751 16.0099 22.1293 15.89 22.1309 15.7635V10.8939C22.1309 9.29919 20.84 8.00505 19.2452 8H11.8939C10.2959 8 9 9.29583 9 10.8939V19.8874C9 20.6552 9.30465 21.391 9.84745 21.9338C10.3902 22.4766 11.126 22.7813 11.8938 22.7813H16.1262C16.2823 22.7829 16.4284 22.7041 16.513 22.5727C16.5984 22.4413 16.6099 22.2762 16.545 22.1342C16.4654 21.9461 16.4128 21.7474 16.3906 21.5446C16.3652 21.3171 16.1748 21.1429 15.9456 21.1388Z" fill="white"/>
<path d="M21.6574 24.7417L22.2437 23.2636C22.4539 22.7315 22.876 22.3094 23.4081 22.0992L24.8961 21.5128C24.9585 21.4882 24.9996 21.4274 24.9996 21.3601C24.9996 21.2928 24.9585 21.232 24.8961 21.2074L23.4081 20.621C22.876 20.4108 22.4539 19.9887 22.2437 19.4566L21.6574 17.9785C21.6327 17.9161 21.572 17.875 21.5046 17.875C21.4373 17.875 21.3765 17.9161 21.3519 17.9785L20.7656 19.4566C20.5553 19.9895 20.1341 20.4108 19.6011 20.621L18.123 21.2074C18.0606 21.232 18.0195 21.2928 18.0195 21.3601C18.0195 21.4274 18.0606 21.4882 18.123 21.5128L19.6011 22.0992C20.1341 22.3094 20.5553 22.7307 20.7656 23.2636L21.3519 24.7417C21.3765 24.805 21.4373 24.8468 21.5046 24.8468C21.572 24.8468 21.6327 24.805 21.6574 24.7417Z" fill="white"/>
</svg>
