<svg width="38" height="37" viewBox="0 0 38 37" fill="none" xmlns="http://www.w3.org/2000/svg">
<path opacity="0.1" fill-rule="evenodd" clip-rule="evenodd" d="M18.9922 36C28.6572 36 36.4922 28.165 36.4922 18.5C36.4922 8.83502 28.6572 1 18.9922 1C9.3272 1 1.49219 8.83502 1.49219 18.5C1.49219 28.165 9.3272 36 18.9922 36Z" stroke="white" stroke-width="1.5"/>
<path d="M14.9757 14.9671C15.7951 14.9671 16.4593 14.3029 16.4593 13.4835C16.4593 12.6642 15.7951 12 14.9757 12C14.1564 12 13.4922 12.6642 13.4922 13.4835C13.4922 14.3029 14.1564 14.9671 14.9757 14.9671Z" fill="white"/>
<path d="M16.212 15.957H13.7394C13.603 15.957 13.4922 16.0678 13.4922 16.2043V23.622C13.4922 23.7585 13.603 23.8693 13.7394 23.8693H16.212C16.3485 23.8693 16.4593 23.7585 16.4593 23.622V16.2043C16.4593 16.0678 16.3485 15.957 16.212 15.957Z" fill="white"/>
<path d="M23.5802 15.5484C22.5234 15.1864 21.2016 15.5043 20.4089 16.0745C20.3817 15.9682 20.2848 15.8891 20.1695 15.8891H17.697C17.5605 15.8891 17.4497 15.9998 17.4497 16.1363V23.5541C17.4497 23.6906 17.5605 23.8013 17.697 23.8013H20.1695C20.306 23.8013 20.4168 23.6906 20.4168 23.5541V18.2232C20.8164 17.879 21.3312 17.7692 21.7525 17.9482C22.161 18.1208 22.3949 18.5422 22.3949 19.1034V23.5541C22.3949 23.6906 22.5056 23.8013 22.6421 23.8013H25.1147C25.2512 23.8013 25.362 23.6906 25.362 23.5541V18.6055C25.3338 16.5735 24.3779 15.8213 23.5802 15.5484Z" fill="white"/>
</svg>
