<svg width="45" height="45" viewBox="0 0 45 45"  fill="none" xmlns="http://www.w3.org/2000/svg">
<path d="M18.9922 36C28.6572 36 36.4922 28.165 36.4922 18.5C36.4922 8.83502 28.6572 1 18.9922 1C9.3272 1 1.49219 8.83502 1.49219 18.5C1.49219 28.165 9.3272 36 18.9922 36Z" fill="white"/>
<path opacity="0.1" fill-rule="evenodd" clip-rule="evenodd" d="M18.9922 36C28.6572 36 36.4922 28.165 36.4922 18.5C36.4922 8.83502 28.6572 1 18.9922 1C9.3272 1 1.49219 8.83502 1.49219 18.5C1.49219 28.165 9.3272 36 18.9922 36Z" stroke="#FF6B00" stroke-width="1.39141"/>
<path d="M14.9757 14.9671C15.7951 14.9671 16.4593 14.3029 16.4593 13.4835C16.4593 12.6642 15.7951 12 14.9757 12C14.1564 12 13.4922 12.6642 13.4922 13.4835C13.4922 14.3029 14.1564 14.9671 14.9757 14.9671Z" fill="#FF6B00"/>
<path d="M16.212 15.958H13.7394C13.603 15.958 13.4922 16.0688 13.4922 16.2053V23.623C13.4922 23.7595 13.603 23.8703 13.7394 23.8703H16.212C16.3485 23.8703 16.4593 23.7595 16.4593 23.623V16.2053C16.4593 16.0688 16.3485 15.958 16.212 15.958Z" fill="#FF6B00"/>
<path d="M23.5797 15.5464C22.523 15.1844 21.2011 15.5024 20.4084 16.0726C20.3812 15.9662 20.2843 15.8871 20.1691 15.8871H17.6965C17.56 15.8871 17.4492 15.9979 17.4492 16.1344V23.5521C17.4492 23.6886 17.56 23.7994 17.6965 23.7994H20.1691C20.3055 23.7994 20.4163 23.6886 20.4163 23.5521V18.2212C20.8159 17.8771 21.3307 17.7673 21.752 17.9463C22.1605 18.1189 22.3944 18.5402 22.3944 19.1015V23.5521C22.3944 23.6886 22.5052 23.7994 22.6416 23.7994H25.1142C25.2507 23.7994 25.3615 23.6886 25.3615 23.5521V18.6035C25.3333 16.5715 24.3774 15.8194 23.5797 15.5464Z" fill="#FF6B00"/>
</svg>
