<svg width="20" height="20" viewBox="0 0 20 20" fill="none" xmlns="http://www.w3.org/2000/svg">
<path fill-rule="evenodd" clip-rule="evenodd" d="M10.2086 7.08594C9.40441 7.08594 8.75024 7.7401 8.75024 8.5451C8.75024 9.34927 9.40441 10.0026 10.2086 10.0026C11.0127 10.0026 11.6669 9.34927 11.6669 8.5451C11.6669 7.7401 11.0127 7.08594 10.2086 7.08594ZM10.2086 11.2526C8.71524 11.2526 7.50024 10.0384 7.50024 8.5451C7.50024 7.05094 8.71524 5.83594 10.2086 5.83594C11.7019 5.83594 12.9169 7.05094 12.9169 8.5451C12.9169 10.0384 11.7019 11.2526 10.2086 11.2526Z" fill="#007A61"/>
<mask id="mask0_893_13006" style="mask-type:luminance" maskUnits="userSpaceOnUse" x="3" y="1" width="15" height="17">
<path fill-rule="evenodd" clip-rule="evenodd" d="M3.33325 1.66797H17.0828V17.918H3.33325V1.66797Z" fill="white"/>
</mask>
<g mask="url(#mask0_893_13006)">
<path fill-rule="evenodd" clip-rule="evenodd" d="M10.2078 2.91797C7.1061 2.91797 4.58276 5.46547 4.58276 8.59547C4.58276 12.578 9.26943 16.458 10.2078 16.6646C11.1461 16.4571 15.8328 12.5771 15.8328 8.59547C15.8328 5.46547 13.3094 2.91797 10.2078 2.91797ZM10.2078 17.918C8.71276 17.918 3.33276 13.2913 3.33276 8.59547C3.33276 4.77547 6.41693 1.66797 10.2078 1.66797C13.9986 1.66797 17.0828 4.77547 17.0828 8.59547C17.0828 13.2913 11.7028 17.918 10.2078 17.918Z" fill="#007A61"/>
</g>
</svg>
