<svg width="34" height="33" viewBox="0 0 34 33" fill="none" xmlns="http://www.w3.org/2000/svg">
<path fill-rule="evenodd" clip-rule="evenodd" d="M5.44531 14.5587C5.44531 8.37177 10.6154 3.37109 16.8692 3.37109C23.1407 3.37109 28.3108 8.37177 28.3108 14.5587C28.3108 17.6764 27.177 20.5708 25.3107 23.0241C23.2519 25.7302 20.7143 28.088 17.858 29.9387C17.2042 30.3664 16.6143 30.3987 15.8968 29.9387C13.0242 28.088 10.4866 25.7302 8.4454 23.0241C6.5778 20.5708 5.44531 17.6764 5.44531 14.5587ZM13.1057 14.9078C13.1057 16.9804 14.797 18.6105 16.8707 18.6105C18.9458 18.6105 20.6534 16.9804 20.6534 14.9078C20.6534 12.8513 18.9458 11.1418 16.8707 11.1418C14.797 11.1418 13.1057 12.8513 13.1057 14.9078Z" fill="white"/>
</svg>
