<svg width="38" height="38" viewBox="0 0 38 38" fill="none" xmlns="http://www.w3.org/2000/svg">
<path opacity="0.4" d="M18.6558 34.4991C27.2397 34.4991 34.1983 27.5405 34.1983 18.9566C34.1983 10.3727 27.2397 3.41406 18.6558 3.41406C10.0719 3.41406 3.11328 10.3727 3.11328 18.9566C3.11328 27.5405 10.0719 34.4991 18.6558 34.4991Z" fill="black"/>
<path d="M24.4813 16.9826V15.848C24.4813 14.4025 24.4813 10.0195 18.6529 10.0195C12.8245 10.0195 12.8245 14.4025 12.8245 15.848V16.9826C10.9283 17.4022 10.291 18.6301 10.291 21.2879V22.8421C10.291 26.2615 11.3479 27.3184 14.7673 27.3184H22.5385C25.9579 27.3184 27.0148 26.2615 27.0148 22.8421V21.2879C27.0148 18.6301 26.3775 17.4022 24.4813 16.9826ZM18.6529 23.7747C17.7048 23.7747 16.9433 23.0131 16.9433 22.065C16.9433 21.1169 17.7048 20.3553 18.6529 20.3553C19.601 20.3553 20.3625 21.1169 20.3625 22.065C20.3625 23.0131 19.601 23.7747 18.6529 23.7747ZM22.15 16.8116H15.1558V15.848C15.1558 13.5788 15.7154 12.3509 18.6529 12.3509C21.5904 12.3509 22.15 13.5788 22.15 15.848V16.8116Z" fill="white"/>
</svg>
