<svg width="20" height="20" viewBox="0 0 20 20" fill="none" xmlns="http://www.w3.org/2000/svg">
<path fill-rule="evenodd" clip-rule="evenodd" d="M9.81407 11.2212C9.25657 11.2212 8.70073 11.0371 8.23573 10.6687L4.49823 7.6554C4.22907 7.43873 4.1874 7.04456 4.40323 6.77623C4.62073 6.50873 5.01407 6.46623 5.2824 6.68206L9.01657 9.69206C9.48573 10.0637 10.1466 10.0637 10.6191 9.68873L14.3157 6.68373C14.5841 6.46456 14.9774 6.50623 15.1957 6.77456C15.4132 7.04206 15.3724 7.4354 15.1049 7.65373L11.4016 10.6637C10.9332 11.0354 10.3732 11.2212 9.81407 11.2212Z" fill="#007A61"/>
<mask id="mask0_893_13019" style="mask-type:luminance" maskUnits="userSpaceOnUse" x="0" y="1" width="19" height="17">
<path fill-rule="evenodd" clip-rule="evenodd" d="M0.833374 1.66797H18.75V17.918H0.833374V1.66797Z" fill="white"/>
</mask>
<g mask="url(#mask0_893_13019)">
<path fill-rule="evenodd" clip-rule="evenodd" d="M5.69909 16.668H13.8824C13.8841 16.6663 13.8908 16.668 13.8958 16.668C14.8466 16.668 15.6899 16.328 16.3366 15.6821C17.0874 14.9346 17.4999 13.8605 17.4999 12.658V6.93464C17.4999 4.60714 15.9783 2.91797 13.8824 2.91797H5.70075C3.60492 2.91797 2.08325 4.60714 2.08325 6.93464V12.658C2.08325 13.8605 2.49659 14.9346 3.24659 15.6821C3.89325 16.328 4.73742 16.668 5.68742 16.668H5.69909ZM5.68492 17.918C4.39909 17.918 3.25075 17.4513 2.36409 16.568C1.37659 15.583 0.833252 14.1946 0.833252 12.658V6.93464C0.833252 3.93214 2.92575 1.66797 5.70075 1.66797H13.8824C16.6574 1.66797 18.7499 3.93214 18.7499 6.93464V12.658C18.7499 14.1946 18.2066 15.583 17.2191 16.568C16.3333 17.4505 15.1841 17.918 13.8958 17.918H13.8824H5.70075H5.68492Z" fill="#007A61"/>
</g>
</svg>
