<svg width="71" height="68" viewBox="0 0 71 68" fill="none" xmlns="http://www.w3.org/2000/svg">
<g clip-path="url(#clip0_969_37793)">
<path d="M44.8931 15.2948H26.1219C25.6941 15.2953 25.284 15.4654 24.9816 15.7679C24.6791 16.0704 24.5089 16.4805 24.5084 16.9082V58.6274L24.2933 58.6931L19.6884 60.1033C19.4702 60.1698 19.2345 60.147 19.033 60.0399C18.8315 59.9329 18.6808 59.7502 18.6139 59.5321L4.91646 14.7903C4.8498 14.572 4.87252 14.3363 4.97962 14.1348C5.08672 13.9333 5.26945 13.7825 5.48763 13.7157L12.5837 11.5429L33.1556 5.246L40.2517 3.07318C40.3597 3.03994 40.4732 3.02833 40.5856 3.039C40.6981 3.04967 40.8074 3.08242 40.9072 3.13537C41.007 3.18833 41.0954 3.26044 41.1673 3.34759C41.2392 3.43474 41.2932 3.53522 41.3263 3.64327L44.8275 15.0796L44.8931 15.2948Z" fill="#F2F2F2"/>
<path d="M48.9905 15.077L44.7707 1.29355C44.7005 1.06389 44.5857 0.850317 44.4329 0.665033C44.2801 0.479749 44.0924 0.326386 43.8803 0.213707C43.6682 0.101028 43.436 0.0312399 43.197 0.00833396C42.9579 -0.0145719 42.7167 0.00985297 42.4871 0.0802105L32.5104 3.13399L11.9396 9.43194L1.96293 12.4868C1.49946 12.6291 1.1114 12.9495 0.883911 13.3776C0.656425 13.8058 0.608104 14.3067 0.749556 14.7704L15.1719 61.8765C15.2868 62.2508 15.5187 62.5785 15.8335 62.8114C16.1483 63.0443 16.5294 63.1701 16.921 63.1705C17.1022 63.1706 17.2824 63.1434 17.4555 63.0899L24.2945 60.9966L24.5097 60.9299V60.7051L24.2945 60.7707L17.3921 62.8844C16.983 63.0091 16.5411 62.9665 16.1635 62.7658C15.7858 62.5652 15.5031 62.2229 15.3774 61.8141L0.956125 14.707C0.893855 14.5044 0.872152 14.2915 0.892258 14.0806C0.912365 13.8696 0.973885 13.6647 1.0733 13.4776C1.17271 13.2904 1.30807 13.1247 1.47161 12.99C1.63515 12.8552 1.82367 12.754 2.02637 12.6923L12.0031 9.63739L32.5739 3.34052L42.5506 0.285662C42.7043 0.238742 42.8641 0.214819 43.0249 0.214669C43.3699 0.215443 43.7055 0.326661 43.9827 0.532032C44.2599 0.737403 44.4641 1.02614 44.5653 1.35594L48.7657 15.077L48.8324 15.2921H49.0561L48.9905 15.077Z" fill="#3F3D56"/>
<path d="M13.864 13.7476C13.6566 13.7475 13.4548 13.6809 13.2881 13.5576C13.1214 13.4344 12.9986 13.261 12.9377 13.0628L11.5522 8.53732C11.515 8.41575 11.5021 8.28805 11.5142 8.16149C11.5263 8.03494 11.5633 7.91201 11.6229 7.79974C11.6825 7.68746 11.7637 7.58804 11.8618 7.50714C11.9599 7.42624 12.0729 7.36546 12.1945 7.32826L31.1194 1.53438C31.3649 1.45946 31.6301 1.48501 31.8568 1.60542C32.0835 1.72583 32.2532 1.93126 32.3286 2.17662L33.714 6.70214C33.7889 6.94764 33.7633 7.21282 33.6429 7.4395C33.5225 7.66617 33.3171 7.83583 33.0718 7.91125L14.1468 13.7051C14.0552 13.7333 13.9598 13.7476 13.864 13.7476Z" fill="#007A61"/>
<path d="M21.122 4.83386C22.3101 4.83386 23.2733 3.87069 23.2733 2.68256C23.2733 1.49442 22.3101 0.53125 21.122 0.53125C19.9339 0.53125 18.9707 1.49442 18.9707 2.68256C18.9707 3.87069 19.9339 4.83386 21.122 4.83386Z" fill="#007A61"/>
<path d="M21.122 4.04486C21.8744 4.04486 22.4843 3.43495 22.4843 2.68259C22.4843 1.93022 21.8744 1.32031 21.122 1.32031C20.3697 1.32031 19.7598 1.93022 19.7598 2.68259C19.7598 3.43495 20.3697 4.04486 21.122 4.04486Z" fill="white"/>
<path d="M65.4901 62.623H29.1331C28.8907 62.6228 28.6583 62.5263 28.4868 62.3549C28.3154 62.1835 28.219 61.9511 28.2188 61.7087V18.1448C28.219 17.9024 28.3154 17.67 28.4868 17.4986C28.6582 17.3272 28.8906 17.2307 29.1331 17.2305H65.4901C65.7325 17.2307 65.9649 17.3272 66.1363 17.4986C66.3077 17.67 66.4042 17.9024 66.4044 18.1448V61.7087C66.4042 61.9511 66.3077 62.1835 66.1363 62.3549C65.9649 62.5263 65.7325 62.6228 65.4901 62.623Z" fill="#E6E6E6"/>
<path d="M48.7641 15.0781H26.1216C25.6368 15.0788 25.1721 15.2717 24.8293 15.6145C24.4865 15.9573 24.2937 16.422 24.293 16.9067V60.7719L24.5081 60.7063V16.9067C24.5086 16.479 24.6788 16.0689 24.9813 15.7664C25.2837 15.4639 25.6938 15.2938 26.1216 15.2933H48.8308L48.7641 15.0781ZM68.5023 15.0781H26.1216C25.6368 15.0788 25.1721 15.2717 24.8293 15.6145C24.4865 15.9573 24.2937 16.422 24.293 16.9067V66.1717C24.2937 66.6564 24.4865 67.1212 24.8293 67.4639C25.1721 67.8067 25.6368 67.9996 26.1216 68.0003H68.5023C68.9871 67.9996 69.4518 67.8067 69.7946 67.4639C70.1374 67.1212 70.3303 66.6564 70.3309 66.1717V16.9067C70.3303 16.422 70.1374 15.9573 69.7946 15.6145C69.4518 15.2717 68.9871 15.0788 68.5023 15.0781ZM70.1158 66.1717C70.1153 66.5994 69.9451 67.0095 69.6427 67.312C69.3402 67.6145 68.9301 67.7846 68.5023 67.7851H26.1216C25.6938 67.7846 25.2837 67.6145 24.9813 67.312C24.6788 67.0095 24.5086 66.5994 24.5081 66.1717V16.9067C24.5086 16.479 24.6788 16.0689 24.9813 15.7664C25.2837 15.4639 25.6938 15.2938 26.1216 15.2933H68.5023C68.9301 15.2938 69.3402 15.4639 69.6427 15.7664C69.9451 16.0689 70.1153 16.479 70.1158 16.9067V66.1717Z" fill="#3F3D56"/>
<path d="M57.2074 19.8097H37.4154C37.1587 19.8094 36.9126 19.7073 36.7311 19.5258C36.5496 19.3443 36.4476 19.0983 36.4473 18.8416V14.1087C36.4476 13.852 36.5496 13.606 36.7311 13.4245C36.9126 13.243 37.1587 13.1409 37.4154 13.1406H57.2074C57.464 13.1409 57.7101 13.243 57.8916 13.4245C58.0731 13.606 58.1752 13.852 58.1755 14.1087V18.8416C58.1752 19.0983 58.0731 19.3443 57.8916 19.5258C57.7101 19.7073 57.464 19.8094 57.2074 19.8097Z" fill="#007A61"/>
<path d="M47.3115 13.4628C48.4996 13.4628 49.4628 12.4996 49.4628 11.3115C49.4628 10.1233 48.4996 9.16016 47.3115 9.16016C46.1233 9.16016 45.1602 10.1233 45.1602 11.3115C45.1602 12.4996 46.1233 13.4628 47.3115 13.4628Z" fill="#007A61"/>
<path d="M47.3123 12.6246C48.036 12.6246 48.6226 12.0379 48.6226 11.3143C48.6226 10.5906 48.036 10.0039 47.3123 10.0039C46.5886 10.0039 46.002 10.5906 46.002 11.3143C46.002 12.0379 46.5886 12.6246 47.3123 12.6246Z" fill="white"/>
</g>
<defs>
<clipPath id="clip0_969_37793">
<rect width="69.6632" height="68" fill="white" transform="translate(0.667969)"/>
</clipPath>
</defs>
</svg>
