<svg width="32" height="32" viewBox="0 0 32 32" fill="none" xmlns="http://www.w3.org/2000/svg">
<path d="M10.3333 4.66797V2.66797C10.3333 2.1213 9.87992 1.66797 9.33325 1.66797C8.78659 1.66797 8.33325 2.1213 8.33325 2.66797V4.74797C8.66659 4.70797 8.97325 4.66797 9.33325 4.66797H10.3333Z" fill="#007A61"/>
<path d="M21 4.74797V2.66797C21 2.1213 20.5467 1.66797 20 1.66797C19.4533 1.66797 19 2.1213 19 2.66797V4.66797H20C20.36 4.66797 20.6667 4.70797 21 4.74797Z" fill="#007A61"/>
<path d="M28.3867 19.9613C27.3601 19.148 26.0667 18.668 24.6667 18.668C23.2667 18.668 21.9467 19.1613 20.9201 19.988C19.5334 21.0813 18.6667 22.788 18.6667 24.668C18.6667 25.788 18.9867 26.868 19.5334 27.748C19.9601 28.4413 20.5067 29.0546 21.1601 29.5213C22.1467 30.2413 23.3467 30.668 24.6667 30.668C26.1867 30.668 27.5601 30.108 28.6134 29.1746C29.0801 28.788 29.4801 28.308 29.8001 27.7613C30.3467 26.868 30.6667 25.788 30.6667 24.668C30.6667 22.7613 29.7734 21.0546 28.3867 19.9613ZM24.6667 27.5213C24.6667 25.948 23.3867 24.668 21.8134 24.668C23.3867 24.668 24.6667 23.388 24.6667 21.8146C24.6667 23.388 25.9467 24.668 27.5201 24.668C25.9467 24.668 24.6667 25.948 24.6667 27.5213Z" fill="#007A61"/>
<path d="M21.0001 4.74797V6.66797C21.0001 7.21464 20.5467 7.66797 20.0001 7.66797C19.4534 7.66797 19.0001 7.21464 19.0001 6.66797V4.66797H10.3334V6.66797C10.3334 7.21464 9.88008 7.66797 9.33342 7.66797C8.78675 7.66797 8.33342 7.21464 8.33342 6.66797V4.74797C4.40008 5.10797 2.66675 7.6413 2.66675 11.3346V22.668C2.66675 26.668 4.66675 29.3346 9.33342 29.3346H14.8401C15.8534 29.3346 16.5334 28.2013 16.2801 27.2146C16.0934 26.4946 16.0001 25.748 16.0001 25.0013C16.0001 22.228 17.2401 19.668 19.3867 17.9746C20.9467 16.708 22.9467 16.0013 25.0001 16.0013H25.0534C25.8934 16.0013 26.6667 15.388 26.6667 14.548V11.3346C26.6667 7.6413 24.9334 5.10797 21.0001 4.74797ZM12.0001 22.3346H9.33342C8.78675 22.3346 8.33342 21.8813 8.33342 21.3346C8.33342 20.788 8.78675 20.3346 9.33342 20.3346H12.0001C12.5467 20.3346 13.0001 20.788 13.0001 21.3346C13.0001 21.8813 12.5467 22.3346 12.0001 22.3346ZM16.0001 15.668H9.33342C8.78675 15.668 8.33342 15.2146 8.33342 14.668C8.33342 14.1213 8.78675 13.668 9.33342 13.668H16.0001C16.5467 13.668 17.0001 14.1213 17.0001 14.668C17.0001 15.2146 16.5467 15.668 16.0001 15.668Z" fill="#007A61"/>
</svg>
