<svg width="40" height="40" viewBox="0 0 40 40" fill="none" xmlns="http://www.w3.org/2000/svg">
<rect width="40" height="40" rx="6" fill="white"/>
<path d="M21.4417 27.5013C21.2952 27.7539 21.0849 27.9635 20.8319 28.1092C20.5788 28.255 20.292 28.3317 20 28.3317C19.708 28.3317 19.4212 28.255 19.1681 28.1092C18.9151 27.9635 18.7048 27.7539 18.5583 27.5013M25 16.668C25 15.3419 24.4732 14.0701 23.5355 13.1324C22.5979 12.1948 21.3261 11.668 20 11.668C18.6739 11.668 17.4021 12.1948 16.4645 13.1324C15.5268 14.0701 15 15.3419 15 16.668C15 22.5013 12.5 24.168 12.5 24.168H27.5C27.5 24.168 25 22.5013 25 16.668Z" stroke="#667085" stroke-width="1.66667" stroke-linecap="round" stroke-linejoin="round"/>
</svg>
