<svg width="32" height="32" viewBox="0 0 32 32" fill="none" xmlns="http://www.w3.org/2000/svg">
<circle cx="16" cy="16" r="16" fill="#007A61"/>
<path fill-rule="evenodd" clip-rule="evenodd" d="M19.6923 14.6498C19.3818 14.6498 19.1298 14.3978 19.1298 14.0873V12.4771C19.1298 10.9051 17.8511 9.62633 16.2791 9.62633H16.2671C15.5073 9.62633 14.7956 9.91883 14.2578 10.4521C13.7163 10.9876 13.4171 11.7023 13.4141 12.4643V14.0873C13.4141 14.3978 13.1621 14.6498 12.8516 14.6498C12.5411 14.6498 12.2891 14.3978 12.2891 14.0873V12.4771C12.2936 11.3971 12.7113 10.4003 13.4651 9.65333C14.2196 8.90558 15.2156 8.47283 16.2813 8.50133C18.4713 8.50133 20.2548 10.2848 20.2548 12.4771V14.0873C20.2548 14.3978 20.0028 14.6498 19.6923 14.6498Z" fill="white"/>
<path fill-rule="evenodd" clip-rule="evenodd" d="M13.4065 14.5967C12.148 14.5967 11.125 15.6197 11.125 16.8782V20.0949C11.125 21.3534 12.148 22.3764 13.4065 22.3764H19.1372C20.395 22.3764 21.4188 21.3534 21.4188 20.0949V16.8782C21.4188 15.6197 20.395 14.5967 19.1372 14.5967H13.4065ZM19.1372 23.5014H13.4065C11.5277 23.5014 10 21.9737 10 20.0949V16.8782C10 14.9994 11.5277 13.4717 13.4065 13.4717H19.1372C21.016 13.4717 22.5438 14.9994 22.5438 16.8782V20.0949C22.5438 21.9737 21.016 23.5014 19.1372 23.5014Z" fill="white"/>
<path fill-rule="evenodd" clip-rule="evenodd" d="M16.2715 19.8816C15.961 19.8816 15.709 19.6296 15.709 19.3191V17.6533C15.709 17.3428 15.961 17.0908 16.2715 17.0908C16.582 17.0908 16.834 17.3428 16.834 17.6533V19.3191C16.834 19.6296 16.582 19.8816 16.2715 19.8816Z" fill="white"/>
</svg>
