<svg width="37" height="36" viewBox="0 0 37 36" fill="none" xmlns="http://www.w3.org/2000/svg">
<rect x="2.57031" y="2" width="32" height="32" rx="16" fill="#F7FFFD"/>
<rect x="2.57031" y="2" width="32" height="32" rx="16" stroke="#EDF9F6" stroke-width="4"/>
<path d="M19.2373 11.332H14.5706C14.217 11.332 13.8779 11.4725 13.6278 11.7226C13.3778 11.9726 13.2373 12.3117 13.2373 12.6654V23.332C13.2373 23.6857 13.3778 24.0248 13.6278 24.2748C13.8779 24.5249 14.217 24.6654 14.5706 24.6654H22.5706C22.9243 24.6654 23.2634 24.5249 23.5134 24.2748C23.7635 24.0248 23.904 23.6857 23.904 23.332V15.9987M19.2373 11.332L23.904 15.9987M19.2373 11.332V15.9987H23.904" stroke="#007A61" stroke-width="1.33333" stroke-linecap="round" stroke-linejoin="round"/>
</svg>
