<svg width="596" height="262" viewBox="0 0 596 262" fill="none" xmlns="http://www.w3.org/2000/svg">
<g clip-path="url(#clip0_3528_45207)">
<rect width="596" height="262" rx="11.5" fill="#7A0019"/>
<g opacity="0.8">
<ellipse cx="821.037" cy="-43.6671" rx="399.091" ry="255.563" fill="white" fill-opacity="0.1"/>
<ellipse cx="416.671" cy="-195.655" rx="399.091" ry="255.563" fill="white" fill-opacity="0.1"/>
</g>
<path d="M514.207 223.139L512.478 234.903L491.738 219.605L480.397 222.015C480.397 222.015 492.095 243.219 501.337 251.671C510.579 260.123 515.621 261.284 519.049 261.42C523.834 261.593 526.034 256.552 526.034 256.552L528.119 227.267L514.207 223.139Z" fill="#B78876"/>
<path d="M512.566 234.582C513.265 235.47 513.75 236.47 513.995 237.523C514.407 238.537 514.572 239.614 514.48 240.686C514.091 239.686 513.771 238.667 513.523 237.634C513.132 236.635 512.813 235.615 512.566 234.582Z" fill="#995037"/>
<path d="M489.739 189.789H474.127C473.538 189.814 472.962 189.953 472.444 190.195C471.925 190.437 471.475 190.777 471.129 191.19C470.782 191.603 470.546 192.077 470.44 192.579C470.333 193.081 470.358 193.597 470.513 194.089L486.225 220.545C486.522 221.047 486.975 221.469 487.532 221.764C488.089 222.058 488.729 222.213 489.382 222.213H508.422C508.867 222.168 509.291 222.029 509.659 221.808C510.027 221.588 510.326 221.292 510.531 220.948C510.736 220.604 510.839 220.221 510.833 219.834C510.826 219.447 510.71 219.067 510.493 218.728L495.338 192.779C494.822 191.878 494.024 191.119 493.034 190.59C492.044 190.062 490.902 189.784 489.739 189.789Z" fill="#455A64"/>
<path d="M488.681 191.384H473.069C472.616 191.373 472.167 191.465 471.768 191.649C471.368 191.834 471.03 192.105 470.788 192.437C470.546 192.768 470.408 193.148 470.387 193.54C470.366 193.932 470.464 194.321 470.669 194.67L486.067 220.545C486.367 221.049 486.822 221.471 487.381 221.765C487.941 222.06 488.583 222.215 489.238 222.213H508.05C508.317 222.22 508.581 222.167 508.816 222.06C509.052 221.952 509.252 221.794 509.396 221.6C509.54 221.405 509.623 221.182 509.637 220.952C509.652 220.722 509.597 220.492 509.479 220.286L494.338 194.337C493.809 193.436 492.998 192.682 491.998 192.16C490.998 191.638 489.849 191.369 488.681 191.384Z" fill="#263238"/>
<path d="M487.367 202.246L477.811 205.496L475.825 212.131L480.396 222.017L497.194 224.093L492.266 219.743L492.909 215.962C492.909 215.962 497.594 214.726 497.708 214.071C497.823 213.416 497.123 211.365 496.409 211.266C494.489 211.626 492.606 212.122 490.781 212.749C490.781 212.749 496.594 208.77 496.494 208.128C496.394 207.485 495.709 205.854 494.552 205.657C493.395 205.459 484.01 209.363 484.01 209.363L482.482 212.366L481.153 207.559C481.153 207.559 489.424 205.496 487.367 202.246Z" fill="#B78876"/>
<path d="M488.551 217.744C488.551 217.744 488.322 217.46 488.236 216.928C488.133 216.227 488.231 215.514 488.522 214.853C488.8 214.186 489.261 213.588 489.865 213.11C490.336 212.764 490.693 212.628 490.722 212.678C490.01 213.373 489.423 214.156 488.979 215.001C488.675 215.891 488.531 216.816 488.551 217.744Z" fill="#995037"/>
<path d="M484.04 216.309C484.217 215.599 484.346 214.881 484.425 214.159C484.48 213.347 484.657 212.545 484.954 211.774C485.143 211.315 485.439 210.894 485.825 210.538C486.247 210.157 486.758 209.858 487.325 209.661C489.596 208.957 491.61 208.425 493.138 207.956C493.933 207.691 494.756 207.496 495.595 207.375C494.847 207.725 494.063 208.014 493.253 208.24C491.824 208.722 489.739 209.364 487.539 210.056C487.009 210.215 486.522 210.468 486.111 210.798C485.761 211.121 485.494 211.504 485.325 211.922C485.039 212.659 484.853 213.422 484.768 214.196C484.742 214.943 484.491 215.671 484.04 216.309Z" fill="#995037"/>
<path d="M481.871 214.829C481.728 214.829 481.756 214.075 481.871 213.21C481.985 212.345 482.285 211.628 482.413 211.653C482.541 212.739 482.334 213.834 481.814 214.829H481.871Z" fill="#995037"/>
<path d="M483.596 198.095C482.499 198.095 481.61 197.326 481.61 196.378C481.61 195.429 482.499 194.66 483.596 194.66C484.692 194.66 485.581 195.429 485.581 196.378C485.581 197.326 484.692 198.095 483.596 198.095Z" fill="#FAFAFA"/>
<path d="M555.959 119.769C550.741 119.978 545.816 121.918 542.207 125.185C538.598 128.452 536.582 132.796 536.576 137.315C536.576 144.581 536.69 152.489 537.233 157.184C538.476 168.095 547.96 169.961 547.96 169.961C547.96 169.961 547.66 176.733 547.232 183.17C546.832 189.349 552.646 194.687 560.216 195.218C567.715 195.737 574.143 191.289 574.657 185.234L577.185 138.143C577.317 135.701 576.859 133.261 575.839 130.981C574.82 128.701 573.261 126.63 571.263 124.901C569.265 123.171 566.872 121.822 564.237 120.938C561.602 120.054 558.783 119.656 555.959 119.769Z" fill="#B78876"/>
<path d="M541.06 141.561C541.031 141.919 541.165 142.271 541.431 142.546C541.697 142.82 542.076 142.994 542.488 143.032C542.691 143.056 542.897 143.045 543.095 143C543.293 142.954 543.478 142.875 543.641 142.767C543.803 142.659 543.939 142.524 544.04 142.37C544.141 142.216 544.206 142.046 544.231 141.87C544.259 141.511 544.126 141.157 543.86 140.881C543.594 140.605 543.215 140.428 542.802 140.387C542.598 140.363 542.391 140.375 542.192 140.421C541.993 140.467 541.807 140.547 541.645 140.657C541.483 140.766 541.347 140.902 541.247 141.058C541.146 141.213 541.082 141.384 541.06 141.561Z" fill="#263238"/>
<path d="M539.491 139.933C539.677 140.118 540.92 139.401 542.677 139.5C544.434 139.599 545.605 140.402 545.805 140.229C546.005 140.056 545.719 139.821 545.205 139.438C544.486 138.957 543.614 138.677 542.705 138.635C541.81 138.59 540.921 138.789 540.163 139.204C539.606 139.525 539.406 139.846 539.491 139.933Z" fill="#263238"/>
<path d="M559.015 142.936C558.983 143.295 559.114 143.651 559.381 143.928C559.647 144.205 560.029 144.381 560.443 144.419C560.646 144.443 560.852 144.432 561.05 144.386C561.248 144.341 561.434 144.262 561.596 144.154C561.758 144.046 561.894 143.911 561.995 143.757C562.096 143.603 562.161 143.433 562.186 143.257C562.214 142.898 562.081 142.544 561.815 142.268C561.549 141.992 561.17 141.815 560.757 141.774C560.554 141.75 560.348 141.761 560.15 141.806C559.952 141.852 559.767 141.931 559.605 142.039C559.442 142.147 559.307 142.282 559.205 142.436C559.104 142.59 559.039 142.76 559.015 142.936Z" fill="#263238"/>
<path d="M557.444 141.394C557.63 141.591 558.873 140.875 560.63 140.961C562.387 141.048 563.558 141.863 563.758 141.69C563.958 141.517 563.686 141.282 563.158 140.912C562.444 140.421 561.569 140.136 560.658 140.096C559.763 140.051 558.874 140.25 558.116 140.665C557.559 140.998 557.359 141.307 557.444 141.394Z" fill="#263238"/>
<path d="M550.433 152.141C549.542 151.849 548.61 151.662 547.662 151.585C547.219 151.585 546.819 151.424 546.762 151.153C546.753 150.758 546.882 150.37 547.133 150.04C547.604 149.138 548.104 148.199 548.561 147.211C549.932 144.821 551.083 142.342 552.004 139.797C550.405 142.089 549.024 144.49 547.876 146.976L546.447 149.83C546.133 150.274 546.012 150.799 546.105 151.313C546.158 151.451 546.248 151.577 546.367 151.68C546.486 151.783 546.631 151.86 546.79 151.906C547.031 151.975 547.28 152.021 547.533 152.042C548.492 152.17 549.465 152.203 550.433 152.141Z" fill="#263238"/>
<path d="M547.901 169.972C553.844 170.194 559.751 169.074 565.042 166.723C565.042 166.723 560.371 174.495 547.801 173.086L547.901 169.972Z" fill="#995037"/>
<path d="M563.147 137.252C562.932 137.511 561.718 137.054 560.118 136.757C558.519 136.461 557.262 136.387 557.133 136.078C557.005 135.769 558.561 135.312 560.404 135.67C562.247 136.028 563.361 137.005 563.147 137.252Z" fill="#263238"/>
<path d="M546.058 134.559C545.973 134.867 544.559 134.818 542.859 134.843C541.159 134.867 539.759 134.929 539.659 134.633C539.559 134.336 540.959 133.743 542.844 133.731C544.73 133.718 546.144 134.287 546.058 134.559Z" fill="#263238"/>
<path d="M588.128 149.448C587.842 151.906 587.814 155.935 587.814 155.935C587.814 155.935 587.949 160.984 584.945 162.382C579.825 164.762 570.088 161.594 570.088 161.594C568.931 155.613 573.459 154.65 574.173 151.128C574.518 148.771 574.056 146.378 572.844 144.245C566.202 146.297 563.817 142.367 559.989 139.809C556.161 137.252 555.304 134.113 553.747 130.147C552.19 126.18 550.031 124.53 545.203 124.134C542.268 125.539 540.328 126.983 539.12 129.689C537.649 133.409 536.478 147.878 536.478 147.878C535.806 140.959 529.236 137.993 531.064 127.836C531.821 123.425 536.049 117.407 542.577 116.517C544.462 116.27 548.047 116.072 548.047 116.072C551.861 113.033 553.832 113.131 557.575 111.698C565.602 108.609 575.273 114.12 580.586 120.224C584.7 124.883 586.685 131.172 587.814 137.091C588.519 141.182 588.625 145.334 588.128 149.448Z" fill="#FAE9AE"/>
<path d="M552.503 155.702C552.808 155.417 553.193 155.204 553.621 155.085C554.049 154.966 554.505 154.945 554.945 155.022C555.259 155.068 555.559 155.168 555.827 155.316C556.095 155.465 556.324 155.659 556.502 155.887C556.688 156.101 556.788 156.361 556.788 156.629C556.788 156.896 556.688 157.156 556.502 157.37C556.252 157.577 555.936 157.714 555.595 157.764C555.255 157.815 554.904 157.777 554.588 157.654C553.934 157.4 553.343 157.039 552.846 156.592C552.692 156.484 552.565 156.349 552.474 156.196C552.422 156.129 552.393 156.049 552.393 155.968C552.393 155.886 552.422 155.807 552.474 155.739" fill="#995037"/>
<path d="M556.287 153.809C556.059 153.809 555.944 155.131 554.53 155.996C553.116 156.861 551.488 156.601 551.459 156.787C551.431 156.972 551.802 157.071 552.502 157.133C553.41 157.198 554.316 156.984 555.059 156.527C555.794 156.098 556.307 155.437 556.487 154.686C556.544 154.155 556.373 153.809 556.287 153.809Z" fill="#263238"/>
<path d="M570.044 145.902C570.044 145.185 572.244 143.863 573.072 143.875C574.986 143.875 578.086 144.691 578.129 149.275C578.2 155.824 570.987 153.896 570.987 153.711C570.43 151.134 570.114 148.522 570.044 145.902Z" fill="#B78876"/>
<path d="M572.813 151.215C572.813 151.215 572.941 151.289 573.17 151.376C573.326 151.433 573.493 151.462 573.663 151.462C573.832 151.462 573.999 151.433 574.155 151.376C574.632 151.098 575.015 150.717 575.266 150.27C575.517 149.823 575.626 149.326 575.584 148.831C575.594 148.269 575.463 147.712 575.198 147.199C575.121 146.998 574.991 146.814 574.817 146.664C574.643 146.514 574.431 146.401 574.198 146.334C574.061 146.322 573.924 146.345 573.802 146.4C573.68 146.455 573.579 146.539 573.513 146.643C573.413 146.829 573.513 146.952 573.427 146.965C573.341 146.977 573.27 146.853 573.327 146.582C573.367 146.422 573.467 146.278 573.613 146.174C573.822 146.039 574.082 145.978 574.341 146.001C574.66 146.045 574.959 146.161 575.21 146.336C575.46 146.512 575.653 146.741 575.769 147.002C576.103 147.567 576.27 148.196 576.255 148.831C576.297 149.413 576.139 149.994 575.801 150.5C575.463 151.005 574.96 151.413 574.355 151.673C574.154 151.724 573.942 151.736 573.735 151.708C573.527 151.68 573.33 151.613 573.155 151.512C572.827 151.376 572.784 151.228 572.813 151.215Z" fill="#995037"/>
<path d="M577.225 153.269C577.225 153.269 577.454 153.442 577.711 153.825C578.089 154.387 578.281 155.028 578.268 155.679C578.239 156.173 578.075 156.655 577.79 157.085C577.504 157.514 577.105 157.879 576.625 158.15C576.059 158.496 575.401 158.714 574.712 158.783C574.024 158.852 573.326 158.77 572.683 158.545C572.047 158.293 571.499 157.902 571.093 157.41C570.687 156.918 570.438 156.342 570.369 155.74C570.291 155.208 570.39 154.668 570.655 154.183C570.892 153.776 571.228 153.418 571.64 153.133C572.223 152.72 572.945 152.482 573.697 152.453C573.97 152.436 574.244 152.474 574.497 152.565C574.497 152.565 574.211 152.565 573.711 152.565C573.014 152.644 572.359 152.897 571.826 153.294C571.436 153.578 571.132 153.941 570.94 154.35C570.749 154.759 570.675 155.202 570.726 155.641C570.804 156.172 571.036 156.678 571.4 157.11C571.765 157.542 572.251 157.887 572.811 158.113C573.386 158.321 574.011 158.404 574.631 158.355C575.251 158.305 575.848 158.125 576.368 157.829C576.8 157.591 577.165 157.272 577.434 156.895C577.704 156.519 577.872 156.094 577.925 155.654C577.957 155.044 577.815 154.437 577.511 153.887C577.403 153.685 577.307 153.479 577.225 153.269Z" fill="#E8505B"/>
<path d="M555.231 194.647C552.517 187.431 545.846 180.066 538.519 182.723C530.377 185.676 528.106 189.42 523.635 195.228C519.164 201.035 516.493 207.671 513.736 214.232C512.679 216.802 507.166 228.578 508.78 230.926C510.208 232.94 524.035 248.027 526.663 248.633C533.448 250.202 533.805 228.442 540.733 229.554C543.504 229.999 546.546 230.37 548.989 229.171C552.103 227.639 553.046 224.228 553.703 221.189C555.969 210.529 558.245 199.869 560.53 189.21" fill="white"/>
<path d="M547.802 179.834L537.089 183.825C531.661 187.532 530.133 193.846 530.319 199.802L526.219 249.228L525.862 266.318C525.862 266.318 557.429 281.145 592.696 261.943L586.826 248.462L597.51 216.335C598.281 211.64 598.753 201.927 597.339 197.318C593.71 185.481 583.997 181.934 574.042 179.574C574.042 179.574 564.043 186.803 554.344 185.283C554.287 185.283 548.359 184.801 547.802 179.834Z" fill="white"/>
<g opacity="0.2">
<path opacity="0.2" d="M533.003 233.621L551.572 256.876C553.986 259.915 556.5 263.054 560.142 265.006C562.785 266.419 565.837 267.155 568.944 267.129C572.051 267.103 575.086 266.315 577.697 264.858C582.839 261.88 587.41 253.898 586.267 248.621C586.139 248.004 583.696 249.153 583.696 249.153C583.272 248.825 582.753 248.603 582.195 248.51C581.637 248.416 581.06 248.455 580.525 248.621C579.463 248.975 578.444 249.418 577.483 249.944C571.669 252.613 564.27 251.179 558.799 247.979C553.329 244.779 549.315 240.108 545.13 235.696C543.734 233.952 541.826 232.562 539.602 231.668C537.317 230.939 534.274 231.532 533.303 233.472" fill="black"/>
</g>
<path d="M564.943 228.727L563.315 234.164L530.791 213.64L520.792 201.394C519.458 199.751 517.441 198.618 515.164 198.231C513.973 198.024 512.745 198.027 511.555 198.24C510.365 198.452 509.236 198.869 508.236 199.467L498.966 205.163C498.966 205.163 499.238 209.537 501.494 208.672C503.751 207.807 508.265 205.657 508.265 205.657L509.508 216.024L514.95 219.546L520.463 223.253L557.287 254.713C559.128 256.29 561.374 257.468 563.841 258.15C566.309 258.832 568.928 258.999 571.485 258.637C574.041 258.276 576.463 257.396 578.551 256.069C580.639 254.743 582.334 253.008 583.498 251.006L588.955 237.624L564.943 228.727Z" fill="#B78876"/>
<path d="M562.531 233.398C562.531 233.398 563.159 233.522 563.888 234.127C564.824 234.928 565.487 235.938 565.802 237.044C566.101 238.127 566.216 239.243 566.144 240.355C566.173 240.818 566.11 241.282 565.959 241.727C565.829 241.279 565.776 240.817 565.802 240.355C565.766 239.273 565.604 238.196 565.316 237.142C565.01 236.122 564.439 235.175 563.645 234.375C563.016 233.72 562.488 233.46 562.531 233.398Z" fill="#995037"/>
<path d="M508.205 206.188C508.205 206.188 508.305 205.83 508.691 205.348C509.188 204.694 509.907 204.19 510.748 203.902C511.192 203.772 511.667 203.743 512.128 203.819C512.588 203.894 513.018 204.072 513.376 204.335C513.919 204.779 513.89 205.224 513.847 205.212C513.805 205.2 513.647 204.878 513.162 204.569C512.835 204.383 512.463 204.262 512.075 204.217C511.686 204.173 511.291 204.204 510.919 204.31C510.159 204.575 509.486 205 508.962 205.546C508.52 205.953 508.262 206.225 508.205 206.188Z" fill="#995037"/>
<path d="M514.035 208.958C514.035 208.958 513.721 208.809 513.278 208.599C512.709 208.314 512.065 208.161 511.407 208.154C510.749 208.17 510.106 208.328 509.536 208.612C509.093 208.822 508.85 209.019 508.793 208.982C508.736 208.945 508.907 208.673 509.35 208.365C509.933 207.959 510.659 207.737 511.407 207.734C512.155 207.738 512.881 207.95 513.478 208.34C513.921 208.649 514.078 208.933 514.035 208.958Z" fill="#995037"/>
<path d="M577.643 180.215C584.956 182.872 592.584 185.701 597.64 190.99C602.697 196.278 604.582 203.655 604.211 210.612C603.84 217.569 603.882 224.081 601.554 230.741C600.654 233.361 598.697 239.724 597.098 242.591C595.212 245.853 586.37 249.338 582.085 249.202C575.072 249.053 571.715 237.611 565.387 234.992C562.845 233.929 558.903 229.332 557.76 227.108C556.331 224.291 563.086 222.116 563.583 216.529L578.586 186.949" fill="white"/>
<path d="M564.089 234.286C564.089 234.286 564.089 234.1 563.889 233.754C563.656 233.273 563.503 232.765 563.431 232.247C563.42 231.851 563.504 231.458 563.679 231.092C563.854 230.726 564.115 230.395 564.446 230.122C564.91 229.797 565.452 229.566 566.033 229.446C566.614 229.327 567.219 229.321 567.802 229.43H568.074V229.195C568.475 226.921 569.366 224.733 570.702 222.745C572.284 220.357 574.478 218.315 577.115 216.776C580.056 215.14 583.319 213.984 586.743 213.366C589.521 212.821 592.343 212.462 595.185 212.291C597.613 212.143 599.584 212.155 600.898 212.18C601.607 212.223 602.318 212.223 603.026 212.18C602.337 212.017 601.627 211.93 600.912 211.92C598.984 211.784 597.047 211.751 595.113 211.821C592.231 211.933 589.364 212.251 586.543 212.773C583.053 213.379 579.725 214.544 576.73 216.208C574.002 217.793 571.742 219.909 570.131 222.386C568.772 224.446 567.898 226.718 567.559 229.071L567.874 228.861C567.202 228.751 566.51 228.777 565.851 228.935C565.192 229.094 564.584 229.381 564.074 229.776C563.708 230.099 563.428 230.488 563.255 230.915C563.082 231.342 563.021 231.797 563.074 232.247C563.173 232.789 563.381 233.312 563.689 233.792C563.946 234.138 564.06 234.298 564.089 234.286Z" fill="#263238"/>
<path d="M579.74 239.208C578.268 237.133 576.427 235.273 574.284 233.697C572.307 231.981 570.032 230.542 567.542 229.434C567.413 229.594 570.399 231.497 573.784 234.216C577.169 236.934 579.569 239.319 579.74 239.208Z" fill="#263238"/>
<g opacity="0.3">
<path opacity="0.3" d="M567.886 228.973C570.839 229.896 573.628 231.173 576.171 232.766C578.739 234.371 580.506 236.761 581.113 239.451L578.413 237.313C574.899 234.396 571.137 231.711 567.157 229.282" fill="black"/>
</g>
<path d="M530.09 212.665C530.091 211.85 529.922 211.042 529.59 210.28C528.912 208.418 528.037 206.615 526.976 204.892C524.548 200.839 521.805 197.936 521.605 198.096C522.017 198.816 522.495 199.506 523.034 200.16C523.933 201.395 525.119 203.199 526.333 205.189C527.364 206.891 528.289 208.64 529.104 210.428C529.356 211.197 529.686 211.946 530.09 212.665Z" fill="#263238"/>
<path d="M525.804 262.388C525.945 261.953 526.017 261.504 526.018 261.053C526.118 260.2 526.218 258.965 526.304 257.433C526.489 254.356 526.632 250.117 526.661 245.434C526.689 240.751 526.661 236.501 526.489 233.424C526.489 231.892 526.375 230.656 526.304 229.791C526.317 229.345 526.26 228.9 526.132 228.469C526.028 228.907 525.99 229.356 526.018 229.803C526.018 230.804 526.018 232.015 526.018 233.436C526.018 236.661 526.018 240.85 526.018 245.422C526.018 249.994 525.918 254.183 525.889 257.408C525.889 258.829 525.889 260.052 525.889 261.041C525.795 261.485 525.766 261.937 525.804 262.388Z" fill="#263238"/>
<path d="M530.389 247.289C530.752 246.227 531.034 245.145 531.231 244.051C531.507 242.976 531.698 241.886 531.803 240.789C531.441 241.846 531.164 242.924 530.974 244.014C530.689 245.092 530.494 246.186 530.389 247.289Z" fill="#EBEBEB"/>
<path d="M528.089 242.914C528.997 243.339 529.955 243.679 530.946 243.927C531.895 244.246 532.882 244.474 533.889 244.607C532.961 244.252 532.006 243.95 531.032 243.705C530.071 243.388 529.088 243.124 528.089 242.914Z" fill="#EBEBEB"/>
<path d="M532.348 246.497C532.07 245.65 531.711 244.823 531.276 244.026C530.916 243.173 530.476 242.347 529.962 241.555C530.235 242.428 530.594 243.279 531.034 244.1C531.399 244.927 531.839 245.729 532.348 246.497Z" fill="#EBEBEB"/>
<path d="M528.12 245.893C529.119 245.414 530.074 244.868 530.977 244.262C531.879 243.716 532.729 243.108 533.519 242.445C532.52 242.924 531.564 243.47 530.662 244.076C529.763 244.626 528.914 245.233 528.12 245.893Z" fill="#EBEBEB"/>
<path d="M518.22 232.25C518.591 231.194 518.872 230.116 519.063 229.024C519.339 227.946 519.53 226.851 519.634 225.75C519.28 226.813 519.003 227.894 518.806 228.987C518.538 230.064 518.343 231.153 518.22 232.25Z" fill="#EBEBEB"/>
<path d="M515.922 227.871C516.828 228.3 517.786 228.64 518.779 228.884C519.733 229.206 520.724 229.438 521.735 229.576C520.805 229.226 519.851 228.925 518.879 228.674C517.911 228.359 516.924 228.09 515.922 227.871Z" fill="#EBEBEB"/>
<path d="M520.19 231.474C519.9 230.604 519.537 229.753 519.104 228.928C518.744 228.075 518.304 227.249 517.79 226.457C518.063 227.33 518.422 228.182 518.862 229.002C519.223 229.857 519.667 230.684 520.19 231.474Z" fill="#EBEBEB"/>
<path d="M515.948 230.865C516.949 230.388 517.904 229.842 518.805 229.234C519.738 228.688 520.622 228.081 521.448 227.418C520.447 227.896 519.492 228.441 518.591 229.049C517.658 229.595 516.774 230.202 515.948 230.865Z" fill="#EBEBEB"/>
<path d="M534.948 195.008C535.31 193.947 535.587 192.865 535.776 191.771C536.057 190.691 536.258 189.598 536.376 188.496C536.009 189.557 535.727 190.639 535.533 191.734C535.252 192.812 535.056 193.906 534.948 195.008Z" fill="#EBEBEB"/>
<path d="M532.702 190.633C533.611 191.055 534.568 191.395 535.558 191.646C536.512 191.966 537.504 192.194 538.515 192.326C537.585 191.975 536.631 191.674 535.658 191.424C534.695 191.101 533.707 190.837 532.702 190.633Z" fill="#EBEBEB"/>
<path d="M536.975 194.22C536.692 193.348 536.329 192.496 535.889 191.674C535.535 190.819 535.095 189.992 534.575 189.203C534.849 190.072 535.208 190.919 535.646 191.736C536.007 192.595 536.451 193.426 536.975 194.22Z" fill="#EBEBEB"/>
<path d="M532.736 193.596C533.737 193.118 534.692 192.573 535.593 191.965C536.526 191.419 537.41 190.811 538.235 190.148C537.235 190.626 536.28 191.172 535.379 191.78C534.445 192.326 533.562 192.933 532.736 193.596Z" fill="#EBEBEB"/>
<path d="M548.646 256.886C549.008 255.829 549.285 254.751 549.475 253.661C549.76 252.583 549.956 251.489 550.061 250.387C549.698 251.445 549.416 252.522 549.218 253.612C548.942 254.691 548.751 255.785 548.646 256.886Z" fill="#EBEBEB"/>
<path d="M546.376 252.516C547.282 252.944 548.24 253.284 549.233 253.529C550.19 253.842 551.18 254.074 552.189 254.221C551.26 253.868 550.306 253.567 549.333 253.319C548.368 252.996 547.381 252.728 546.376 252.516Z" fill="#EBEBEB"/>
<path d="M550.659 256.111C550.01 254.411 549.208 252.758 548.259 251.168C548.501 252.018 548.825 252.849 549.23 253.652C549.621 254.506 550.099 255.329 550.659 256.111Z" fill="#EBEBEB"/>
<path d="M546.375 255.502C547.375 255.025 548.33 254.479 549.232 253.871C550.165 253.325 551.048 252.718 551.874 252.055C550.874 252.532 549.918 253.078 549.017 253.686C548.084 254.232 547.201 254.839 546.375 255.502Z" fill="#EBEBEB"/>
<path d="M534.633 265.586C534.996 264.528 535.277 263.45 535.476 262.36C535.752 261.281 535.942 260.187 536.047 259.086C535.686 260.143 535.409 261.221 535.219 262.311C534.943 263.391 534.748 264.484 534.633 265.586Z" fill="#EBEBEB"/>
<path d="M532.332 261.211C533.238 261.64 534.196 261.979 535.189 262.224C536.145 262.539 537.136 262.771 538.146 262.916C537.215 262.566 536.261 262.265 535.289 262.014C534.324 261.691 533.337 261.423 532.332 261.211Z" fill="#EBEBEB"/>
<path d="M536.601 264.81C536.31 263.94 535.948 263.089 535.515 262.264C535.154 261.411 534.715 260.585 534.201 259.793C534.474 260.666 534.832 261.518 535.272 262.338C535.634 263.193 536.078 264.02 536.601 264.81Z" fill="#EBEBEB"/>
<path d="M532.361 264.193C533.363 263.717 534.318 263.172 535.218 262.562C536.129 262.016 536.993 261.413 537.803 260.758C536.803 261.235 535.847 261.781 534.946 262.389C534.035 262.935 533.171 263.538 532.361 264.193Z" fill="#EBEBEB"/>
<path d="M584.425 263.007C584.786 261.95 585.063 260.873 585.253 259.782C585.538 258.704 585.734 257.61 585.839 256.508C585.475 257.57 585.194 258.651 584.996 259.745C584.721 260.82 584.53 261.91 584.425 263.007Z" fill="#EBEBEB"/>
<path d="M582.083 258.633C582.989 259.061 583.947 259.401 584.94 259.646C585.892 259.973 586.884 260.205 587.897 260.338C586.968 259.985 586.014 259.684 585.04 259.436C584.073 259.12 583.086 258.852 582.083 258.633Z" fill="#EBEBEB"/>
<path d="M586.366 262.228C586.092 261.353 585.728 260.501 585.281 259.682C584.927 258.827 584.487 258 583.967 257.211C584.241 258.085 584.604 258.937 585.052 259.756C585.406 260.612 585.845 261.439 586.366 262.228Z" fill="#EBEBEB"/>
<path d="M582.082 261.619C583.083 261.142 584.038 260.596 584.939 259.988C585.872 259.442 586.756 258.835 587.582 258.172C586.581 258.65 585.626 259.195 584.725 259.803C583.792 260.349 582.908 260.956 582.082 261.619Z" fill="#EBEBEB"/>
<path d="M593.341 207.586C593.711 206.53 593.993 205.452 594.184 204.36C594.459 203.281 594.65 202.187 594.755 201.086C594.393 202.143 594.117 203.221 593.926 204.311C593.651 205.391 593.455 206.484 593.341 207.586Z" fill="#EBEBEB"/>
<path d="M591.039 203.211C591.945 203.64 592.903 203.979 593.896 204.224C594.853 204.539 595.843 204.771 596.853 204.916C595.923 204.566 594.969 204.265 593.996 204.014C593.032 203.691 592.044 203.423 591.039 203.211Z" fill="#EBEBEB"/>
<path d="M595.311 206.806C595.021 205.936 594.658 205.085 594.225 204.26C593.865 203.407 593.425 202.581 592.911 201.789C593.185 202.662 593.543 203.514 593.983 204.335C594.344 205.189 594.789 206.016 595.311 206.806Z" fill="#EBEBEB"/>
<path d="M591.069 206.189C592.067 205.708 593.022 205.163 593.926 204.558C594.857 204.014 595.74 203.411 596.568 202.754C595.568 203.232 594.613 203.777 593.712 204.385C592.781 204.929 591.897 205.532 591.069 206.189Z" fill="#EBEBEB"/>
<path d="M568.471 216.147C568.808 215.089 569.061 214.011 569.228 212.922C569.536 211.85 569.756 210.76 569.885 209.66C569.521 210.722 569.24 211.803 569.042 212.898C568.767 213.968 568.576 215.054 568.471 216.147Z" fill="#EBEBEB"/>
<path d="M566.158 211.77C567.063 212.198 568.022 212.538 569.014 212.783C569.972 213.096 570.962 213.328 571.971 213.475C571.042 213.122 570.088 212.821 569.114 212.573C568.147 212.257 567.16 211.989 566.158 211.77Z" fill="#EBEBEB"/>
<path d="M570.427 215.368C570.153 214.494 569.789 213.642 569.342 212.823C568.988 211.967 568.548 211.14 568.028 210.352C568.302 211.226 568.665 212.078 569.113 212.897C569.467 213.753 569.906 214.579 570.427 215.368Z" fill="#EBEBEB"/>
<path d="M566.189 214.764C567.189 214.286 568.144 213.741 569.045 213.133C569.979 212.587 570.862 211.979 571.688 211.316C570.688 211.794 569.732 212.339 568.831 212.947C567.898 213.494 567.015 214.101 566.189 214.764Z" fill="#EBEBEB"/>
<path d="M592.499 226.179C592.862 225.117 593.144 224.036 593.342 222.942C593.618 221.867 593.809 220.777 593.913 219.68C593.552 220.737 593.275 221.815 593.085 222.905C592.808 223.984 592.612 225.078 592.499 226.179Z" fill="#EBEBEB"/>
<path d="M590.199 221.809C591.108 222.231 592.066 222.571 593.056 222.822C594.009 223.143 595.001 223.371 596.013 223.501C595.082 223.151 594.128 222.85 593.156 222.599C592.19 222.284 591.202 222.02 590.199 221.809Z" fill="#EBEBEB"/>
<path d="M594.469 225.396C594.174 224.551 593.811 223.725 593.383 222.924C593.023 222.071 592.583 221.245 592.069 220.453C592.342 221.326 592.701 222.178 593.14 222.999C593.507 223.827 593.952 224.629 594.469 225.396Z" fill="#EBEBEB"/>
<path d="M590.227 224.783C591.225 224.302 592.18 223.757 593.084 223.152C594.017 222.606 594.901 221.999 595.727 221.336C594.726 221.814 593.771 222.359 592.87 222.967C591.937 223.513 591.053 224.12 590.227 224.783Z" fill="#EBEBEB"/>
<path d="M577.511 230.433C577.873 229.376 578.15 228.298 578.34 227.208C578.625 226.13 578.82 225.036 578.925 223.934C578.562 224.995 578.28 226.077 578.083 227.171C577.807 228.246 577.616 229.336 577.511 230.433Z" fill="#EBEBEB"/>
<path d="M575.199 226.059C576.106 226.485 577.064 226.824 578.055 227.072C579.01 227.392 580.001 227.624 581.012 227.764C580.084 227.409 579.13 227.107 578.155 226.862C577.189 226.544 576.202 226.276 575.199 226.059Z" fill="#EBEBEB"/>
<path d="M579.468 229.657C579.195 228.784 578.837 227.933 578.397 227.112C578.035 226.257 577.591 225.431 577.069 224.641C577.351 225.513 577.714 226.364 578.154 227.186C578.508 228.042 578.947 228.869 579.468 229.657Z" fill="#EBEBEB"/>
<path d="M575.224 229.045C576.225 228.567 577.18 228.022 578.081 227.414C578.99 226.865 579.849 226.258 580.652 225.598C579.654 226.079 578.699 226.624 577.796 227.229C576.887 227.777 576.027 228.385 575.224 229.045Z" fill="#EBEBEB"/>
<path d="M587.097 242.668C587.459 241.606 587.736 240.525 587.925 239.43C588.201 238.355 588.397 237.265 588.511 236.168C588.148 237.226 587.867 238.303 587.668 239.393C587.391 240.472 587.201 241.566 587.097 242.668Z" fill="#EBEBEB"/>
<path d="M584.786 238.293C585.695 238.715 586.653 239.055 587.643 239.306C588.597 239.626 589.588 239.854 590.6 239.986C589.67 239.637 588.716 239.34 587.743 239.096C586.778 238.773 585.791 238.505 584.786 238.293Z" fill="#EBEBEB"/>
<path d="M589.056 241.888C588.784 241.013 588.42 240.161 587.97 239.342C587.617 238.487 587.177 237.66 586.656 236.871C586.931 237.746 587.294 238.597 587.742 239.417C588.102 240.27 588.542 241.096 589.056 241.888Z" fill="#EBEBEB"/>
<path d="M584.811 241.272C585.811 240.794 586.766 240.249 587.668 239.641C588.601 239.095 589.484 238.487 590.31 237.824C589.31 238.302 588.354 238.847 587.453 239.455C586.52 240.001 585.637 240.609 584.811 241.272Z" fill="#EBEBEB"/>
<g filter="url(#filter0_d_3528_45207)">
<circle cx="496.25" cy="172.625" r="10.0625" fill="white"/>
</g>
<path d="M495.624 166.387C495.993 166.107 496.503 166.107 496.872 166.387L500.926 169.458C501.148 169.626 501.293 169.877 501.327 170.153L501.96 175.199C502.018 175.659 501.763 176.101 501.336 176.281L496.649 178.256C496.393 178.364 496.103 178.364 495.846 178.256L491.16 176.281C490.733 176.101 490.478 175.659 490.536 175.199L491.168 170.153C491.203 169.877 491.348 169.626 491.57 169.458L495.624 166.387Z" fill="#ED7D31"/>
<path d="M496.735 170.256L497.227 171.24C497.294 171.377 497.473 171.508 497.624 171.533L498.515 171.681C499.086 171.776 499.22 172.19 498.809 172.598L498.116 173.291C497.998 173.409 497.934 173.635 497.97 173.797L498.169 174.655C498.325 175.335 497.965 175.597 497.364 175.242L496.528 174.748C496.377 174.658 496.128 174.658 495.975 174.748L495.139 175.242C494.541 175.597 494.177 175.332 494.334 174.655L494.532 173.797C494.569 173.635 494.504 173.409 494.387 173.291L493.694 172.598C493.286 172.19 493.417 171.776 493.987 171.681L494.879 171.533C495.027 171.508 495.206 171.377 495.273 171.24L495.765 170.256C496.033 169.722 496.469 169.722 496.735 170.256Z" fill="white"/>
</g>
<defs>
<filter id="filter0_d_3528_45207" x="481.942" y="159.732" width="28.6152" height="28.6152" filterUnits="userSpaceOnUse" color-interpolation-filters="sRGB">
<feFlood flood-opacity="0" result="BackgroundImageFix"/>
<feColorMatrix in="SourceAlpha" type="matrix" values="0 0 0 0 0 0 0 0 0 0 0 0 0 0 0 0 0 0 127 0" result="hardAlpha"/>
<feOffset dy="1.41504"/>
<feGaussianBlur stdDeviation="2.12256"/>
<feComposite in2="hardAlpha" operator="out"/>
<feColorMatrix type="matrix" values="0 0 0 0 0.888021 0 0 0 0 0.888021 0 0 0 0 0.888021 0 0 0 0.6 0"/>
<feBlend mode="normal" in2="BackgroundImageFix" result="effect1_dropShadow_3528_45207"/>
<feBlend mode="normal" in="SourceGraphic" in2="effect1_dropShadow_3528_45207" result="shape"/>
</filter>
<clipPath id="clip0_3528_45207">
<rect width="596" height="262" rx="11.5" fill="white"/>
</clipPath>
</defs>
</svg>
