<svg width="32" height="32" viewBox="0 0 32 32" fill="none" xmlns="http://www.w3.org/2000/svg">
<path d="M11.6667 4.66797V2.66797C11.6667 2.1213 11.2134 1.66797 10.6667 1.66797C10.1201 1.66797 9.66675 2.1213 9.66675 2.66797V4.74797C10.0001 4.70797 10.3067 4.66797 10.6667 4.66797H11.6667Z" fill="#7A0019"/>
<path d="M22.3333 4.74797V2.66797C22.3333 2.1213 21.8799 1.66797 21.3333 1.66797C20.7866 1.66797 20.3333 2.1213 20.3333 2.66797V4.66797H21.3333C21.6933 4.66797 21.9999 4.70797 22.3333 4.74797Z" fill="#7A0019"/>
<path d="M22.3333 4.74797V6.66797C22.3333 7.21464 21.88 7.66797 21.3333 7.66797C20.7867 7.66797 20.3333 7.21464 20.3333 6.66797V4.66797H11.6667V6.66797C11.6667 7.21464 11.2133 7.66797 10.6667 7.66797C10.12 7.66797 9.66667 7.21464 9.66667 6.66797V4.74797C5.73333 5.10797 4 7.6413 4 11.3346V22.668C4 26.668 6 29.3346 10.6667 29.3346H21.3333C26 29.3346 28 26.668 28 22.668V11.3346C28 7.6413 26.2667 5.10797 22.3333 4.74797ZM16 22.3346H10.6667C10.12 22.3346 9.66667 21.8813 9.66667 21.3346C9.66667 20.788 10.12 20.3346 10.6667 20.3346H16C16.5467 20.3346 17 20.788 17 21.3346C17 21.8813 16.5467 22.3346 16 22.3346ZM21.3333 15.668H10.6667C10.12 15.668 9.66667 15.2146 9.66667 14.668C9.66667 14.1213 10.12 13.668 10.6667 13.668H21.3333C21.88 13.668 22.3333 14.1213 22.3333 14.668C22.3333 15.2146 21.88 15.668 21.3333 15.668Z" fill="#7A0019"/>
</svg>
