<svg width="21" height="20" viewBox="0 0 21 20" fill="none" xmlns="http://www.w3.org/2000/svg">
<path d="M7.1665 1.66699V4.16699" stroke="#007A61" stroke-width="1.25" stroke-miterlimit="10" stroke-linecap="round" stroke-linejoin="round"/>
<path d="M13.8335 1.66699V4.16699" stroke="#007A61" stroke-width="1.25" stroke-miterlimit="10" stroke-linecap="round" stroke-linejoin="round"/>
<path d="M18 7.08366V11.3587C17.2583 10.767 16.3167 10.417 15.2917 10.417C14.2667 10.417 13.3083 10.7753 12.5583 11.3836C11.55 12.1753 10.9167 13.417 10.9167 14.792C10.9167 15.6087 11.15 16.392 11.55 17.042C11.8583 17.5503 12.2583 17.992 12.7333 18.3337H7.16667C4.25 18.3337 3 16.667 3 14.167V7.08366C3 4.58366 4.25 2.91699 7.16667 2.91699H13.8333C16.75 2.91699 18 4.58366 18 7.08366Z" stroke="#007A61" stroke-width="1.25" stroke-miterlimit="10" stroke-linecap="round" stroke-linejoin="round"/>
<path d="M6.3335 9.16699H11.3335" stroke="#007A61" stroke-width="1.25" stroke-miterlimit="10" stroke-linecap="round" stroke-linejoin="round"/>
<path d="M6.3335 13.333H8.51683" stroke="#007A61" stroke-width="1.25" stroke-miterlimit="10" stroke-linecap="round" stroke-linejoin="round"/>
<path d="M19.6665 14.792C19.6665 15.6087 19.4332 16.392 19.0332 17.042C18.7998 17.442 18.5082 17.792 18.1665 18.0753C17.3998 18.7587 16.3998 19.167 15.2915 19.167C14.3332 19.167 13.4498 18.8587 12.7332 18.3337C12.2582 17.992 11.8582 17.5503 11.5498 17.042C11.1498 16.392 10.9165 15.6087 10.9165 14.792C10.9165 13.417 11.5498 12.1753 12.5582 11.3836C13.3082 10.7753 14.2665 10.417 15.2915 10.417C16.3165 10.417 17.2582 10.767 17.9998 11.3587C19.0165 12.1587 19.6665 13.4003 19.6665 14.792Z" stroke="#007A61" stroke-width="1.25" stroke-miterlimit="10" stroke-linecap="round" stroke-linejoin="round"/>
<path d="M15.2918 16.8747C15.2918 15.7247 16.2252 14.7913 17.3752 14.7913C16.2252 14.7913 15.2918 13.858 15.2918 12.708C15.2918 13.858 14.3585 14.7913 13.2085 14.7913C14.3585 14.7913 15.2918 15.7247 15.2918 16.8747Z" stroke="#007A61" stroke-width="1.25" stroke-linecap="round" stroke-linejoin="round"/>
</svg>
