<svg width="593" height="37" viewBox="0 0 593 37" fill="none" xmlns="http://www.w3.org/2000/svg">
<path d="M0 18.5H111.25H166.875H222.5" stroke="#EEEEEE" stroke-opacity="0.933333"/>
<rect x="225.5" width="142" height="37" rx="18.5" fill="white"/>
<path d="M266.25 24V13.0859H268.984C270.089 13.0859 270.964 13.3594 271.609 13.9062C272.26 14.4531 272.586 15.1927 272.586 16.125C272.586 16.7604 272.427 17.3099 272.109 17.7734C271.792 18.237 271.336 18.5833 270.742 18.8125C271.091 19.0417 271.432 19.3542 271.766 19.75C272.099 20.1458 272.568 20.8359 273.172 21.8203C273.552 22.4401 273.857 22.9062 274.086 23.2188L274.664 24H272.805L272.328 23.2812C272.312 23.2552 272.281 23.2109 272.234 23.1484L271.93 22.7188L271.445 21.9219L270.922 21.0703C270.599 20.6224 270.302 20.2656 270.031 20C269.766 19.7344 269.523 19.5443 269.305 19.4297C269.091 19.3099 268.729 19.25 268.219 19.25H267.812V24H266.25ZM268.281 14.4141H267.812V17.8594H268.406C269.198 17.8594 269.74 17.7917 270.031 17.6562C270.328 17.5208 270.557 17.3177 270.719 17.0469C270.885 16.7708 270.969 16.4583 270.969 16.1094C270.969 15.7656 270.878 15.4557 270.695 15.1797C270.513 14.8984 270.255 14.7005 269.922 14.5859C269.594 14.4714 269.047 14.4141 268.281 14.4141ZM281.805 20.5312H276.75C276.786 21.2188 277.016 21.7656 277.438 22.1719C277.865 22.5781 278.414 22.7812 279.086 22.7812C280.023 22.7812 280.888 22.4896 281.68 21.9062V23.2969C281.242 23.5885 280.807 23.7969 280.375 23.9219C279.948 24.0469 279.445 24.1094 278.867 24.1094C278.076 24.1094 277.435 23.9453 276.945 23.6172C276.456 23.2891 276.062 22.849 275.766 22.2969C275.474 21.7396 275.328 21.0964 275.328 20.3672C275.328 19.2734 275.638 18.3854 276.258 17.7031C276.878 17.0156 277.682 16.6719 278.672 16.6719C279.625 16.6719 280.385 17.0052 280.953 17.6719C281.521 18.3385 281.805 19.2318 281.805 20.3516V20.5312ZM276.781 19.6797H280.398C280.362 19.112 280.193 18.6745 279.891 18.3672C279.589 18.0599 279.182 17.9062 278.672 17.9062C278.161 17.9062 277.742 18.0599 277.414 18.3672C277.091 18.6745 276.88 19.112 276.781 19.6797ZM283 23.4844V21.9531C283.401 22.2344 283.81 22.4635 284.227 22.6406C284.648 22.8125 285.003 22.8984 285.289 22.8984C285.586 22.8984 285.841 22.8255 286.055 22.6797C286.268 22.5339 286.375 22.3594 286.375 22.1562C286.375 21.9479 286.305 21.776 286.164 21.6406C286.029 21.5 285.732 21.2995 285.273 21.0391C284.357 20.5286 283.755 20.0938 283.469 19.7344C283.188 19.3698 283.047 18.974 283.047 18.5469C283.047 17.9948 283.26 17.5443 283.688 17.1953C284.12 16.8464 284.674 16.6719 285.352 16.6719C286.055 16.6719 286.776 16.8698 287.516 17.2656V18.6719C286.672 18.1615 285.982 17.9062 285.445 17.9062C285.169 17.9062 284.945 17.9661 284.773 18.0859C284.607 18.2005 284.523 18.3542 284.523 18.5469C284.523 18.7135 284.599 18.8724 284.75 19.0234C284.906 19.1745 285.177 19.3568 285.562 19.5703L286.07 19.8594C287.268 20.5365 287.867 21.2865 287.867 22.1094C287.867 22.6979 287.635 23.1823 287.172 23.5625C286.714 23.9375 286.122 24.125 285.398 24.125C284.971 24.125 284.591 24.0807 284.258 23.9922C283.924 23.8984 283.505 23.7292 283 23.4844ZM289.414 27.6641V16.8125H291.906C293.182 16.8125 294.174 17.1302 294.883 17.7656C295.596 18.401 295.953 19.2891 295.953 20.4297C295.953 21.5078 295.617 22.3932 294.945 23.0859C294.279 23.7786 293.427 24.125 292.391 24.125C291.932 24.125 291.424 24.0234 290.867 23.8203V27.6641H289.414ZM291.875 18.1406H290.867V22.5625C291.305 22.7865 291.763 22.8984 292.242 22.8984C292.909 22.8984 293.453 22.6667 293.875 22.2031C294.302 21.7396 294.516 21.1432 294.516 20.4141C294.516 19.9453 294.414 19.5312 294.211 19.1719C294.013 18.8125 293.74 18.5521 293.391 18.3906C293.047 18.224 292.542 18.1406 291.875 18.1406ZM300.945 16.7969C302.039 16.7969 302.948 17.151 303.672 17.8594C304.396 18.5625 304.758 19.4479 304.758 20.5156C304.758 21.5521 304.391 22.4141 303.656 23.1016C302.922 23.7839 301.997 24.125 300.883 24.125C299.805 24.125 298.904 23.7786 298.18 23.0859C297.456 22.388 297.094 21.5182 297.094 20.4766C297.094 19.4245 297.458 18.5495 298.188 17.8516C298.922 17.1484 299.841 16.7969 300.945 16.7969ZM300.867 18.0781C300.185 18.0781 299.625 18.3021 299.188 18.75C298.75 19.1979 298.531 19.7682 298.531 20.4609C298.531 21.1484 298.755 21.7109 299.203 22.1484C299.651 22.5807 300.227 22.7969 300.93 22.7969C301.628 22.7969 302.198 22.5781 302.641 22.1406C303.089 21.6979 303.312 21.1328 303.312 20.4453C303.312 19.763 303.081 19.1979 302.617 18.75C302.154 18.3021 301.57 18.0781 300.867 18.0781ZM307.758 16.8125V17.7266C308.393 17.0234 309.115 16.6719 309.922 16.6719C310.37 16.6719 310.786 16.7891 311.172 17.0234C311.557 17.2526 311.849 17.5703 312.047 17.9766C312.25 18.3776 312.352 19.0156 312.352 19.8906V24H310.93V19.9062C310.93 19.1719 310.818 18.6484 310.594 18.3359C310.37 18.0182 309.995 17.8594 309.469 17.8594C308.797 17.8594 308.227 18.1953 307.758 18.8672V24H306.305V16.8125H307.758ZM313.984 23.4844V21.9531C314.385 22.2344 314.794 22.4635 315.211 22.6406C315.633 22.8125 315.987 22.8984 316.273 22.8984C316.57 22.8984 316.826 22.8255 317.039 22.6797C317.253 22.5339 317.359 22.3594 317.359 22.1562C317.359 21.9479 317.289 21.776 317.148 21.6406C317.013 21.5 316.716 21.2995 316.258 21.0391C315.341 20.5286 314.74 20.0938 314.453 19.7344C314.172 19.3698 314.031 18.974 314.031 18.5469C314.031 17.9948 314.245 17.5443 314.672 17.1953C315.104 16.8464 315.659 16.6719 316.336 16.6719C317.039 16.6719 317.76 16.8698 318.5 17.2656V18.6719C317.656 18.1615 316.966 17.9062 316.43 17.9062C316.154 17.9062 315.93 17.9661 315.758 18.0859C315.591 18.2005 315.508 18.3542 315.508 18.5469C315.508 18.7135 315.583 18.8724 315.734 19.0234C315.891 19.1745 316.161 19.3568 316.547 19.5703L317.055 19.8594C318.253 20.5365 318.852 21.2865 318.852 22.1094C318.852 22.6979 318.62 23.1823 318.156 23.5625C317.698 23.9375 317.107 24.125 316.383 24.125C315.956 24.125 315.576 24.0807 315.242 23.9922C314.909 23.8984 314.49 23.7292 313.984 23.4844ZM326.617 20.5312H321.562C321.599 21.2188 321.828 21.7656 322.25 22.1719C322.677 22.5781 323.227 22.7812 323.898 22.7812C324.836 22.7812 325.701 22.4896 326.492 21.9062V23.2969C326.055 23.5885 325.62 23.7969 325.188 23.9219C324.76 24.0469 324.258 24.1094 323.68 24.1094C322.888 24.1094 322.247 23.9453 321.758 23.6172C321.268 23.2891 320.875 22.849 320.578 22.2969C320.286 21.7396 320.141 21.0964 320.141 20.3672C320.141 19.2734 320.451 18.3854 321.07 17.7031C321.69 17.0156 322.495 16.6719 323.484 16.6719C324.438 16.6719 325.198 17.0052 325.766 17.6719C326.333 18.3385 326.617 19.2318 326.617 20.3516V20.5312ZM321.594 19.6797H325.211C325.174 19.112 325.005 18.6745 324.703 18.3672C324.401 18.0599 323.995 17.9062 323.484 17.9062C322.974 17.9062 322.555 18.0599 322.227 18.3672C321.904 18.6745 321.693 19.112 321.594 19.6797Z" fill="#007A61"/>
<path d="M370.5 18.5H481.75H593" stroke="#EEEEEE" stroke-opacity="0.933333"/>
</svg>
