<svg width="105" height="94" viewBox="0 0 105 94" fill="none" xmlns="http://www.w3.org/2000/svg">
<g clip-path="url(#clip0_859_66190)">
<path d="M103.938 35.9475C103.901 35.9475 103.864 35.936 103.833 35.9146L53.0266 0.531306C52.8719 0.42413 52.6882 0.366852 52.5001 0.367173C52.312 0.367494 52.1284 0.425397 51.9742 0.5331L1.5334 35.9142C1.4935 35.9422 1.44413 35.9532 1.39613 35.9448C1.34813 35.9364 1.30544 35.9092 1.27746 35.8693C1.24947 35.8294 1.23848 35.78 1.24691 35.732C1.25533 35.684 1.28248 35.6413 1.32238 35.6134L51.7632 0.232238C51.9792 0.0814764 52.2361 0.000434589 52.4995 1.74297e-06C52.7629 -0.000431103 53.0201 0.0797651 53.2365 0.229816L104.043 35.613C104.075 35.6354 104.1 35.6674 104.112 35.7044C104.125 35.7414 104.125 35.7815 104.114 35.8188C104.102 35.8562 104.078 35.8888 104.047 35.9119C104.015 35.9351 103.977 35.9475 103.938 35.9475Z" fill="#3F3D56"/>
<path d="M4.41602 37.2008L52.5504 1.52734L101.05 39.7391L55.0304 67.0201L30.0458 61.3251L4.41602 37.2008Z" fill="#E6E6E6"/>
<path d="M96.1557 79.0969H87.6241C87.4781 79.0971 87.3335 79.0685 87.1985 79.0128C87.0636 78.957 86.9409 78.8752 86.8376 78.772C86.7343 78.6689 86.6523 78.5463 86.5964 78.4114C86.5405 78.2766 86.5117 78.132 86.5117 77.986C86.5117 77.84 86.5405 77.6954 86.5964 77.5605C86.6523 77.4256 86.7343 77.3031 86.8376 77.1999C86.9409 77.0967 87.0636 77.0149 87.1985 76.9592C87.3335 76.9034 87.4781 76.8748 87.6241 76.875H96.1557C96.3017 76.8748 96.4463 76.9034 96.5813 76.9592C96.7162 77.0149 96.8389 77.0967 96.9422 77.1999C97.0455 77.3031 97.1275 77.4256 97.1834 77.5605C97.2393 77.6954 97.2681 77.84 97.2681 77.986C97.2681 78.132 97.2393 78.2766 97.1834 78.4114C97.1275 78.5463 97.0455 78.6689 96.9422 78.772C96.8389 78.8752 96.7162 78.957 96.5813 79.0128C96.4463 79.0685 96.3017 79.0971 96.1557 79.0969Z" fill="#7A0019"/>
<path d="M96.1556 84.3196H72.3761C72.2301 84.3198 72.0854 84.2912 71.9505 84.2354C71.8155 84.1797 71.6929 84.0979 71.5896 83.9947C71.4863 83.8915 71.4043 83.769 71.3484 83.6341C71.2925 83.4992 71.2637 83.3546 71.2637 83.2086C71.2637 83.0626 71.2925 82.918 71.3484 82.7831C71.4043 82.6483 71.4863 82.5257 71.5896 82.4225C71.6929 82.3194 71.8155 82.2376 71.9505 82.1818C72.0854 82.1261 72.2301 82.0975 72.3761 82.0977H96.1556C96.3016 82.0975 96.4462 82.1261 96.5812 82.1818C96.7161 82.2376 96.8388 82.3194 96.9421 82.4225C97.0454 82.5257 97.1274 82.6483 97.1833 82.7831C97.2392 82.918 97.268 83.0626 97.268 83.2086C97.268 83.3546 97.2392 83.4992 97.1833 83.6341C97.1274 83.769 97.0454 83.8915 96.9421 83.9947C96.8388 84.0979 96.7161 84.1797 96.5812 84.2354C96.4462 84.2912 96.3016 84.3198 96.1556 84.3196Z" fill="#7A0019"/>
<path d="M53.2267 57.0714C53.0459 57.0716 52.8669 57.0365 52.6996 56.9682L23.0137 44.6506V6.09457C23.0141 5.75363 23.1497 5.42677 23.3908 5.18569C23.6318 4.9446 23.9587 4.80899 24.2996 4.80859H81.2499C81.5908 4.80899 81.9177 4.94461 82.1588 5.18569C82.3998 5.42677 82.5354 5.75363 82.5358 6.09457V44.6775L82.48 44.7014L53.7697 56.9622C53.5978 57.0344 53.4132 57.0716 53.2267 57.0714Z" fill="white"/>
<path d="M53.2267 57.1652C53.034 57.1654 52.8431 57.1281 52.6647 57.0552L22.9219 44.714V6.09658C22.9223 5.73128 23.0676 5.38107 23.3259 5.12276C23.5842 4.86446 23.9344 4.71916 24.2997 4.71875H81.2499C81.6152 4.71916 81.9654 4.86446 82.2238 5.12276C82.4821 5.38107 82.6273 5.73128 82.6278 6.09658V44.7402L53.8059 57.0486C53.6225 57.1257 53.4256 57.1654 53.2267 57.1652ZM23.2893 44.4686L52.8048 56.7155C53.0801 56.8272 53.3884 56.8254 53.6623 56.7104L82.2603 44.4976V6.09658C82.26 5.8287 82.1535 5.57188 81.9641 5.38246C81.7746 5.19304 81.5178 5.08649 81.2499 5.08617H24.2997C24.0318 5.08649 23.775 5.19304 23.5856 5.38246C23.3962 5.57188 23.2896 5.8287 23.2893 6.09658L23.2893 44.4686Z" fill="#3F3D56"/>
<path d="M103.572 35.582H103.535L82.4448 44.5875L53.5895 56.909C53.4767 56.9564 53.3557 56.9811 53.2334 56.9818C53.1111 56.9824 52.9898 56.9589 52.8766 56.9127L23.1064 44.5618L1.49834 35.5967L1.46533 35.582H1.42855C1.08761 35.5824 0.760732 35.718 0.519648 35.9591C0.278563 36.2002 0.142956 36.5271 0.142578 36.868V92.716C0.142957 93.0569 0.278563 93.3838 0.519648 93.6249C0.760732 93.866 1.08761 94.0016 1.42855 94.0019H103.572C103.912 94.0016 104.239 93.866 104.48 93.6249C104.722 93.3838 104.857 93.0569 104.858 92.716V36.868C104.857 36.5271 104.722 36.2002 104.48 35.9591C104.239 35.718 103.912 35.5824 103.572 35.582ZM104.49 92.716C104.49 92.9596 104.393 93.1931 104.221 93.3654C104.049 93.5376 103.815 93.6344 103.572 93.6345H1.42855C1.18497 93.6344 0.951386 93.5376 0.779145 93.3654C0.606904 93.1931 0.510096 92.9596 0.509999 92.716V36.868C0.510332 36.6305 0.602472 36.4023 0.767153 36.2311C0.931835 36.0599 1.15631 35.959 1.39366 35.9495L23.1064 44.9586L52.7352 57.2525C53.056 57.383 53.4154 57.381 53.7346 57.247L82.4448 44.9862L103.608 35.9495C103.845 35.9597 104.069 36.0609 104.233 36.232C104.398 36.403 104.49 36.6308 104.49 36.868V92.716Z" fill="#3F3D56"/>
<path d="M49.1779 41.9664C48.3801 41.9679 47.6035 41.7099 46.9653 41.2314L46.9257 41.2017L38.593 34.8219C38.2071 34.5262 37.8832 34.1575 37.6399 33.7366C37.3965 33.3158 37.2384 32.8511 37.1746 32.3691C37.1108 31.8872 37.1426 31.3974 37.268 30.9277C37.3935 30.458 37.6103 30.0177 37.906 29.6318C38.2017 29.2459 38.5705 28.922 38.9913 28.6786C39.4122 28.4352 39.8768 28.2771 40.3588 28.2133C40.8407 28.1495 41.3305 28.1813 41.8002 28.3068C42.2699 28.4323 42.7103 28.649 43.0962 28.9447L48.4934 33.0833L61.248 16.4494C61.5438 16.0636 61.9127 15.7399 62.3337 15.4966C62.7546 15.2534 63.2193 15.0955 63.7013 15.0318C64.1833 14.9682 64.6731 15.0002 65.1427 15.1258C65.6123 15.2515 66.0526 15.4684 66.4384 15.7643L66.3591 15.8719L66.4405 15.7658C67.2187 16.3639 67.7279 17.2463 67.8563 18.2194C67.9847 19.1924 67.722 20.1767 67.1256 20.9562L52.1231 40.5216C51.7762 40.9725 51.33 41.3374 50.8192 41.5879C50.3084 41.8385 49.7468 41.968 49.1779 41.9664Z" fill="#007A61"/>
</g>
<defs>
<clipPath id="clip0_859_66190">
<rect width="104.715" height="94" fill="white" transform="translate(0.142578)"/>
</clipPath>
</defs>
</svg>
