<svg width="40" height="40" viewBox="0 0 40 40" fill="none" xmlns="http://www.w3.org/2000/svg">
<rect width="40" height="40" rx="6" fill="white"/>
<g clip-path="url(#clip0_2975_1490)">
<path d="M19.9997 22.4987C21.3804 22.4987 22.4997 21.3794 22.4997 19.9987C22.4997 18.618 21.3804 17.4987 19.9997 17.4987C18.619 17.4987 17.4997 18.618 17.4997 19.9987C17.4997 21.3794 18.619 22.4987 19.9997 22.4987Z" stroke="#667085" stroke-width="1.66667" stroke-linecap="round" stroke-linejoin="round"/>
<path d="M26.1663 22.4987C26.0554 22.75 26.0223 23.0289 26.0713 23.2992C26.1204 23.5695 26.2492 23.819 26.4413 24.0154L26.4913 24.0654C26.6463 24.2202 26.7692 24.404 26.8531 24.6063C26.937 24.8086 26.9802 25.0255 26.9802 25.2445C26.9802 25.4636 26.937 25.6804 26.8531 25.8828C26.7692 26.0851 26.6463 26.2689 26.4913 26.4237C26.3366 26.5787 26.1527 26.7016 25.9504 26.7855C25.7481 26.8693 25.5312 26.9125 25.3122 26.9125C25.0931 26.9125 24.8763 26.8693 24.6739 26.7855C24.4716 26.7016 24.2878 26.5787 24.133 26.4237L24.083 26.3737C23.8866 26.1816 23.6372 26.0527 23.3668 26.0037C23.0965 25.9547 22.8177 25.9878 22.5663 26.0987C22.3199 26.2043 22.1097 26.3797 21.9616 26.6033C21.8135 26.8269 21.7341 27.0889 21.733 27.357V27.4987C21.733 27.9407 21.5574 28.3646 21.2449 28.6772C20.9323 28.9898 20.5084 29.1654 20.0663 29.1654C19.6243 29.1654 19.2004 28.9898 18.8878 28.6772C18.5753 28.3646 18.3997 27.9407 18.3997 27.4987V27.4237C18.3932 27.1479 18.3039 26.8804 18.1434 26.6559C17.9829 26.4315 17.7586 26.2606 17.4997 26.1654C17.2483 26.0544 16.9695 26.0213 16.6992 26.0704C16.4289 26.1194 16.1794 26.2482 15.983 26.4404L15.933 26.4904C15.7782 26.6453 15.5944 26.7683 15.3921 26.8521C15.1897 26.936 14.9729 26.9792 14.7538 26.9792C14.5348 26.9792 14.3179 26.936 14.1156 26.8521C13.9133 26.7683 13.7295 26.6453 13.5747 26.4904C13.4197 26.3356 13.2968 26.1518 13.2129 25.9494C13.129 25.7471 13.0859 25.5302 13.0859 25.3112C13.0859 25.0922 13.129 24.8753 13.2129 24.673C13.2968 24.4706 13.4197 24.2868 13.5747 24.132L13.6247 24.082C13.8168 23.8856 13.9457 23.6362 13.9947 23.3659C14.0437 23.0955 14.0106 22.8167 13.8997 22.5654C13.794 22.3189 13.6186 22.1087 13.3951 21.9606C13.1715 21.8126 12.9095 21.7331 12.6413 21.732H12.4997C12.0576 21.732 11.6337 21.5564 11.3212 21.2439C11.0086 20.9313 10.833 20.5074 10.833 20.0654C10.833 19.6233 11.0086 19.1994 11.3212 18.8869C11.6337 18.5743 12.0576 18.3987 12.4997 18.3987H12.5747C12.8505 18.3922 13.118 18.303 13.3424 18.1425C13.5668 17.9819 13.7378 17.7576 13.833 17.4987C13.9439 17.2474 13.977 16.9685 13.928 16.6982C13.879 16.4279 13.7501 16.1784 13.558 15.982L13.508 15.932C13.353 15.7772 13.2301 15.5934 13.1462 15.3911C13.0624 15.1888 13.0192 14.9719 13.0192 14.7529C13.0192 14.5338 13.0624 14.317 13.1462 14.1146C13.2301 13.9123 13.353 13.7285 13.508 13.5737C13.6628 13.4187 13.8466 13.2958 14.0489 13.2119C14.2513 13.1281 14.4681 13.0849 14.6872 13.0849C14.9062 13.0849 15.1231 13.1281 15.3254 13.2119C15.5277 13.2958 15.7116 13.4187 15.8663 13.5737L15.9163 13.6237C16.1127 13.8158 16.3622 13.9447 16.6325 13.9937C16.9028 14.0427 17.1817 14.0096 17.433 13.8987H17.4997C17.7461 13.7931 17.9564 13.6177 18.1044 13.3941C18.2525 13.1705 18.3319 12.9085 18.333 12.6404V12.4987C18.333 12.0567 18.5086 11.6327 18.8212 11.3202C19.1337 11.0076 19.5576 10.832 19.9997 10.832C20.4417 10.832 20.8656 11.0076 21.1782 11.3202C21.4907 11.6327 21.6663 12.0567 21.6663 12.4987V12.5737C21.6674 12.8419 21.7469 13.1038 21.8949 13.3274C22.043 13.551 22.2532 13.7264 22.4997 13.832C22.751 13.943 23.0298 13.9761 23.3002 13.927C23.5705 13.878 23.8199 13.7491 24.0163 13.557L24.0663 13.507C24.2211 13.3521 24.4049 13.2291 24.6073 13.1453C24.8096 13.0614 25.0265 13.0182 25.2455 13.0182C25.4645 13.0182 25.6814 13.0614 25.8837 13.1453C26.0861 13.2291 26.2699 13.3521 26.4247 13.507C26.5796 13.6618 26.7026 13.8456 26.7864 14.048C26.8703 14.2503 26.9135 14.4672 26.9135 14.6862C26.9135 14.9052 26.8703 15.1221 26.7864 15.3244C26.7026 15.5268 26.5796 15.7106 26.4247 15.8654L26.3747 15.9154C26.1826 16.1118 26.0537 16.3612 26.0047 16.6315C25.9557 16.9019 25.9887 17.1807 26.0997 17.432V17.4987C26.2053 17.7452 26.3807 17.9554 26.6043 18.1034C26.8279 18.2515 27.0899 18.331 27.358 18.332H27.4997C27.9417 18.332 28.3656 18.5076 28.6782 18.8202C28.9907 19.1327 29.1663 19.5567 29.1663 19.9987C29.1663 20.4407 28.9907 20.8646 28.6782 21.1772C28.3656 21.4898 27.9417 21.6654 27.4997 21.6654H27.4247C27.1565 21.6664 26.8945 21.7459 26.671 21.894C26.4474 22.042 26.272 22.2522 26.1663 22.4987Z" stroke="#667085" stroke-width="1.66667" stroke-linecap="round" stroke-linejoin="round"/>
</g>
<defs>
<clipPath id="clip0_2975_1490">
<rect width="20" height="20" fill="white" transform="translate(10 10)"/>
</clipPath>
</defs>
</svg>
