<svg width="46" height="46" viewBox="0 0 46 46" fill="none" xmlns="http://www.w3.org/2000/svg">
<g filter="url(#filter0_d_899_15371)">
<circle cx="23" cy="21" r="16" fill="white"/>
</g>
<path d="M22.0075 11.084C22.5946 10.6393 23.4058 10.6393 23.9928 11.084L30.4384 15.967C30.7916 16.2345 31.0218 16.6332 31.0769 17.0728L32.0828 25.0964C32.1745 25.8271 31.7689 26.5297 31.0902 26.8157L23.6386 29.9563C23.2304 30.1283 22.77 30.1283 22.3617 29.9563L14.9101 26.8157C14.2315 26.5297 13.8259 25.8271 13.9175 25.0964L14.9234 17.0728C14.9786 16.6332 15.2088 16.2345 15.5619 15.967L22.0075 11.084Z" fill="#ED7D31"/>
<path d="M23.7685 17.2265L24.5507 18.791C24.6574 19.0087 24.9419 19.2176 25.1819 19.2576L26.5996 19.4932C27.5063 19.6443 27.7196 20.3021 27.0663 20.951L25.9641 22.0532C25.7774 22.2398 25.6752 22.5998 25.733 22.8576L26.0485 24.2221C26.2974 25.3021 25.7241 25.7198 24.7685 25.1554L23.4396 24.3687C23.1996 24.2265 22.8041 24.2265 22.5596 24.3687L21.2307 25.1554C20.2796 25.7198 19.7019 25.2976 19.9507 24.2221L20.2663 22.8576C20.3241 22.5998 20.2219 22.2398 20.0352 22.0532L18.933 20.951C18.2841 20.3021 18.493 19.6443 19.3996 19.4932L20.8174 19.2576C21.053 19.2176 21.3374 19.0087 21.4441 18.791L22.2263 17.2265C22.653 16.3776 23.3463 16.3776 23.7685 17.2265Z" fill="white"/>
<defs>
<filter id="filter0_d_899_15371" x="0.25" y="0.5" width="45.5" height="45.5" filterUnits="userSpaceOnUse" color-interpolation-filters="sRGB">
<feFlood flood-opacity="0" result="BackgroundImageFix"/>
<feColorMatrix in="SourceAlpha" type="matrix" values="0 0 0 0 0 0 0 0 0 0 0 0 0 0 0 0 0 0 127 0" result="hardAlpha"/>
<feOffset dy="2.25"/>
<feGaussianBlur stdDeviation="3.375"/>
<feComposite in2="hardAlpha" operator="out"/>
<feColorMatrix type="matrix" values="0 0 0 0 0.888021 0 0 0 0 0.888021 0 0 0 0 0.888021 0 0 0 0.6 0"/>
<feBlend mode="normal" in2="BackgroundImageFix" result="effect1_dropShadow_899_15371"/>
<feBlend mode="normal" in="SourceGraphic" in2="effect1_dropShadow_899_15371" result="shape"/>
</filter>
</defs>
</svg>
