<svg width="57" height="56" viewBox="0 0 57 56" fill="none" xmlns="http://www.w3.org/2000/svg">
<rect x="4.5" y="4" width="48" height="48" rx="24" fill="#D1FADF"/>
<rect x="4.5" y="4" width="48" height="48" rx="24" stroke="#ECFDF3" stroke-width="8"/>
<path d="M38.5 27.0818V28.0018C38.4988 30.1582 37.8005 32.2565 36.5093 33.9836C35.2182 35.7108 33.4033 36.9743 31.3354 37.5857C29.2674 38.1971 27.0573 38.1237 25.0345 37.3764C23.0117 36.6291 21.2847 35.2479 20.111 33.4389C18.9373 31.6299 18.3798 29.4899 18.5217 27.3381C18.6636 25.1864 19.4972 23.1381 20.8983 21.4989C22.2994 19.8596 24.1928 18.7172 26.2962 18.242C28.3996 17.7667 30.6003 17.9842 32.57 18.8618M38.5 20.0018L28.5 30.0118L25.5 27.0118" stroke="#039855" stroke-width="2" stroke-linecap="round" stroke-linejoin="round"/>
</svg>
