<svg width="20" height="20" viewBox="0 0 20 20" fill="none" xmlns="http://www.w3.org/2000/svg">
<path fill-rule="evenodd" clip-rule="evenodd" d="M10.0001 2.91797C6.09425 2.91797 2.91675 6.09547 2.91675 10.0013C2.91675 13.9071 6.09425 17.0846 10.0001 17.0846C13.9059 17.0846 17.0834 13.9071 17.0834 10.0013C17.0834 6.09547 13.9059 2.91797 10.0001 2.91797ZM10.0001 18.3346C5.40508 18.3346 1.66675 14.5963 1.66675 10.0013C1.66675 5.4063 5.40508 1.66797 10.0001 1.66797C14.5951 1.66797 18.3334 5.4063 18.3334 10.0013C18.3334 14.5963 14.5951 18.3346 10.0001 18.3346Z" fill="#007A61"/>
<path fill-rule="evenodd" clip-rule="evenodd" d="M12.8594 13.0782C12.7503 13.0782 12.6403 13.0499 12.5394 12.9907L9.39777 11.1166C9.20944 11.0032 9.09277 10.7991 9.09277 10.5791V6.53906C9.09277 6.19406 9.37277 5.91406 9.71777 5.91406C10.0636 5.91406 10.3428 6.19406 10.3428 6.53906V10.2241L13.1803 11.9157C13.4761 12.0932 13.5736 12.4766 13.3969 12.7732C13.2794 12.9691 13.0719 13.0782 12.8594 13.0782Z" fill="#007A61"/>
</svg>
