<svg width="14" height="14" viewBox="0 0 14 14" fill="none" xmlns="http://www.w3.org/2000/svg">
<path fill-rule="evenodd" clip-rule="evenodd" d="M6.99992 1.33203C3.87525 1.33203 1.33325 3.87403 1.33325 6.9987C1.33325 10.1234 3.87525 12.6654 6.99992 12.6654C10.1246 12.6654 12.6666 10.1234 12.6666 6.9987C12.6666 3.87403 10.1246 1.33203 6.99992 1.33203ZM6.99992 13.6654C3.32392 13.6654 0.333252 10.6747 0.333252 6.9987C0.333252 3.3227 3.32392 0.332031 6.99992 0.332031C10.6759 0.332031 13.6666 3.3227 13.6666 6.9987C13.6666 10.6747 10.6759 13.6654 6.99992 13.6654Z" fill="black"/>
<path fill-rule="evenodd" clip-rule="evenodd" d="M9.2875 9.4618C9.20017 9.4618 9.11217 9.43914 9.0315 9.3918L6.51817 7.89247C6.3675 7.8018 6.27417 7.63847 6.27417 7.46247V4.23047C6.27417 3.95447 6.49817 3.73047 6.77417 3.73047C7.05084 3.73047 7.27417 3.95447 7.27417 4.23047V7.17847L9.54417 8.5318C9.78084 8.6738 9.85884 8.98047 9.7175 9.2178C9.6235 9.37447 9.4575 9.4618 9.2875 9.4618Z" fill="black"/>
</svg>
