<svg width="16" height="16" viewBox="0 0 16 16" fill="none" xmlns="http://www.w3.org/2000/svg">
<path fill-rule="evenodd" clip-rule="evenodd" d="M7.99992 2.33203C4.87525 2.33203 2.33325 4.87403 2.33325 7.9987C2.33325 11.1234 4.87525 13.6654 7.99992 13.6654C11.1246 13.6654 13.6666 11.1234 13.6666 7.9987C13.6666 4.87403 11.1246 2.33203 7.99992 2.33203ZM7.99992 14.6654C4.32392 14.6654 1.33325 11.6747 1.33325 7.9987C1.33325 4.3227 4.32392 1.33203 7.99992 1.33203C11.6759 1.33203 14.6666 4.3227 14.6666 7.9987C14.6666 11.6747 11.6759 14.6654 7.99992 14.6654Z" fill="black"/>
<path fill-rule="evenodd" clip-rule="evenodd" d="M10.2875 10.4618C10.2002 10.4618 10.1122 10.4391 10.0315 10.3918L7.51817 8.89247C7.3675 8.8018 7.27417 8.63847 7.27417 8.46247V5.23047C7.27417 4.95447 7.49817 4.73047 7.77417 4.73047C8.05084 4.73047 8.27417 4.95447 8.27417 5.23047V8.17847L10.5442 9.5318C10.7808 9.6738 10.8588 9.98047 10.7175 10.2178C10.6235 10.3745 10.4575 10.4618 10.2875 10.4618Z" fill="black"/>
</svg>
