<svg width="12" height="10" viewBox="0 0 12 10" fill="none" xmlns="http://www.w3.org/2000/svg">
<path d="M4.04384 9.39071C3.71554 9.39071 3.39116 9.36746 3.07068 9.32096C2.7502 9.27446 2.4395 9.20665 2.13856 9.11753C1.83762 9.0284 1.54646 8.91796 1.26506 8.78621C0.983664 8.65446 0.717904 8.50334 0.467773 8.33284C0.553756 8.34834 0.64169 8.35802 0.731581 8.3619C0.821472 8.36577 0.917223 8.36771 1.01884 8.36771C1.566 8.36771 2.08579 8.28052 2.57824 8.10615C3.07068 7.93177 3.52013 7.68959 3.92659 7.37958C3.4107 7.37183 2.95343 7.21683 2.55479 6.91458C2.15614 6.61233 1.88257 6.23258 1.73405 5.77533C1.8044 5.79083 1.8767 5.80245 1.95096 5.8102C2.02522 5.81795 2.10143 5.82183 2.17959 5.82183C2.28121 5.82183 2.38478 5.81408 2.4903 5.79858C2.59583 5.78308 2.69549 5.7637 2.78928 5.74045C2.25776 5.63195 1.81417 5.36652 1.45852 4.94414C1.10286 4.52176 0.925041 4.0277 0.925041 3.46195C0.925041 3.46195 0.925041 3.46001 0.925041 3.45613C0.925041 3.45226 0.925041 3.44645 0.925041 3.4387C1.08137 3.52395 1.24747 3.59176 1.42334 3.64213C1.59922 3.69251 1.78486 3.72157 1.98027 3.72932C1.65979 3.52007 1.40576 3.24689 1.21816 2.90976C1.03056 2.57263 0.936765 2.20257 0.936765 1.79957C0.936765 1.58257 0.96217 1.37719 1.01298 1.18344C1.06379 0.989689 1.13999 0.807565 1.24161 0.637064C1.53082 0.985817 1.85521 1.30356 2.21477 1.59032C2.56651 1.87707 2.94757 2.12313 3.35794 2.32851C3.76831 2.53388 4.20017 2.69857 4.65353 2.82257C5.11471 2.94657 5.5876 3.01632 6.07223 3.03182C6.0566 2.95432 6.04292 2.87101 6.03119 2.78188C6.01947 2.69276 6.01361 2.6017 6.01361 2.50869C6.01361 2.19094 6.07223 1.89257 6.18948 1.61357C6.31454 1.32681 6.4826 1.07882 6.69364 0.869564C6.90469 0.660313 7.15482 0.493689 7.44403 0.369688C7.72543 0.253437 8.02636 0.195312 8.34684 0.195312C8.68295 0.195312 8.99757 0.261187 9.29069 0.392938C9.58381 0.524689 9.8398 0.702938 10.0587 0.92769C10.3244 0.881189 10.5824 0.809502 10.8325 0.712627C11.0826 0.615751 11.321 0.501439 11.5477 0.369688C11.4539 0.64094 11.3171 0.887001 11.1373 1.10788C10.9576 1.32875 10.7504 1.51282 10.5159 1.66007C10.7504 1.62907 10.981 1.58257 11.2077 1.52057C11.4344 1.45857 11.6493 1.38107 11.8526 1.28807C11.6962 1.52057 11.5204 1.73757 11.3249 1.93907C11.1295 2.14057 10.9185 2.32269 10.6918 2.48544C10.6996 2.53194 10.7035 2.58232 10.7035 2.63657C10.7035 2.69082 10.7035 2.74119 10.7035 2.7877C10.7035 3.55495 10.5589 4.32995 10.2697 5.1127C9.9805 5.89546 9.5545 6.60458 8.99171 7.24008C8.42891 7.87559 7.73325 8.39483 6.90469 8.79784C6.07613 9.19309 5.12253 9.39071 4.04384 9.39071Z" fill="#0C111A"/>
</svg>
