<svg width="45" height="45" viewBox="0 0 45 45" fill="none" xmlns="http://www.w3.org/2000/svg">
<path d="M43.9153 22.3172C43.9153 34.2283 34.2595 43.8841 22.3485 43.8841C10.4374 43.8841 0.781642 34.2283 0.781642 22.3172C0.781642 10.4062 10.4374 0.750392 22.3485 0.750392C34.2595 0.750392 43.9153 10.4062 43.9153 22.3172Z" fill="white" stroke="#007A61" stroke-width="1.39141"/>
<path d="M18.5805 29.7362C18.0506 29.7362 17.527 29.6987 17.0098 29.6237C16.4925 29.5486 15.991 29.4391 15.5053 29.2953C15.0196 29.1514 14.5496 28.9732 14.0954 28.7605C13.6413 28.5479 13.2123 28.304 12.8086 28.0288C12.9474 28.0538 13.0893 28.0694 13.2344 28.0757C13.3795 28.0819 13.534 28.0851 13.698 28.0851C14.5812 28.0851 15.4201 27.9443 16.215 27.6629C17.0098 27.3814 17.7352 26.9906 18.3912 26.4902C17.5586 26.4777 16.8205 26.2275 16.1771 25.7397C15.5337 25.2518 15.0921 24.6389 14.8524 23.9009C14.966 23.9259 15.0827 23.9447 15.2025 23.9572C15.3224 23.9697 15.4454 23.9759 15.5715 23.9759C15.7355 23.9759 15.9027 23.9634 16.073 23.9384C16.2433 23.9134 16.4042 23.8821 16.5556 23.8446C15.6977 23.6695 14.9817 23.241 14.4077 22.5593C13.8337 21.8776 13.5466 21.0801 13.5466 20.167C13.5466 20.167 13.5466 20.1639 13.5466 20.1576C13.5466 20.1514 13.5466 20.142 13.5466 20.1295C13.799 20.2671 14.0671 20.3765 14.3509 20.4578C14.6348 20.5391 14.9344 20.586 15.2498 20.5985C14.7326 20.2608 14.3225 19.8199 14.0197 19.2757C13.717 18.7316 13.5656 18.1343 13.5656 17.4839C13.5656 17.1336 13.6066 16.8021 13.6886 16.4894C13.7706 16.1767 13.8936 15.8827 14.0576 15.6075C14.5244 16.1704 15.048 16.6833 15.6283 17.1461C16.196 17.6089 16.8111 18.0061 17.4734 18.3376C18.1358 18.6691 18.8328 18.9349 19.5645 19.135C20.3089 19.3352 21.0722 19.4477 21.8544 19.4728C21.8291 19.3477 21.8071 19.2132 21.7881 19.0693C21.7692 18.9255 21.7598 18.7785 21.7598 18.6284C21.7598 18.1155 21.8544 17.634 22.0436 17.1836C22.2455 16.7208 22.5167 16.3205 22.8574 15.9828C23.198 15.6451 23.6017 15.3761 24.0685 15.176C24.5227 14.9883 25.0084 14.8945 25.5257 14.8945C26.0682 14.8945 26.576 15.0009 27.0491 15.2135C27.5222 15.4262 27.9354 15.7139 28.2886 16.0766C28.7176 16.0016 29.1339 15.8859 29.5376 15.7295C29.9413 15.5731 30.3261 15.3886 30.692 15.176C30.5406 15.6138 30.3198 16.0109 30.0297 16.3674C29.7395 16.7239 29.4052 17.021 29.0267 17.2587C29.4052 17.2087 29.7773 17.1336 30.1432 17.0335C30.5091 16.9335 30.856 16.8084 31.184 16.6583C30.9317 17.0335 30.6479 17.3838 30.3324 17.709C30.017 18.0342 29.6764 18.3282 29.3105 18.5909C29.3231 18.6659 29.3295 18.7472 29.3295 18.8348C29.3295 18.9224 29.3295 19.0037 29.3295 19.0787C29.3295 20.3171 29.0961 21.568 28.6293 22.8314C28.1625 24.0948 27.4749 25.2393 26.5665 26.265C25.6582 27.2908 24.5353 28.1288 23.198 28.7793C21.8607 29.4173 20.3215 29.7362 18.5805 29.7362Z" fill="#ED7D31"/>
</svg>
