<svg width="482" height="161" viewBox="0 0 482 161" fill="none" xmlns="http://www.w3.org/2000/svg">
<rect x="0.75" y="0.75" width="480.5" height="159.5" rx="4.25" fill="#F4F3FF" fill-opacity="0.16"/>
<rect x="0.75" y="0.75" width="480.5" height="159.5" rx="4.25" stroke="#E0E0E0" stroke-width="0.5"/>
<rect x="220.5" y="30" width="40" height="40" rx="20" fill="#F2F4F7"/>
<rect x="220.5" y="30" width="40" height="40" rx="20" stroke="#F9FAFB" stroke-width="6"/>
<g clip-path="url(#clip0_977_42353)">
<path d="M243.834 53.3352L240.5 50.0019M240.5 50.0019L237.167 53.3352M240.5 50.0019V57.5019M247.492 55.3269C248.305 54.8838 248.947 54.1826 249.317 53.334C249.687 52.4855 249.764 51.5379 249.535 50.6408C249.307 49.7436 248.786 48.9481 248.056 48.3797C247.325 47.8113 246.426 47.5025 245.5 47.5019H244.45C244.198 46.5262 243.728 45.6205 243.075 44.8527C242.422 44.0849 241.604 43.4751 240.682 43.069C239.76 42.663 238.757 42.4713 237.75 42.5084C236.743 42.5455 235.758 42.8104 234.868 43.2832C233.978 43.7561 233.207 44.4244 232.612 45.2382C232.018 46.0519 231.616 46.9898 231.436 47.9814C231.256 48.9729 231.304 49.9923 231.575 50.9629C231.845 51.9335 232.333 52.8301 233 53.5852" stroke="#475467" stroke-width="1.66667" stroke-linecap="round" stroke-linejoin="round"/>
</g>
<path d="M151.953 86.4502H153.662L149.52 90.9756L154.681 96H152.808L147.934 91.2832V96H146.566V86.4502H147.934V90.8184L151.953 86.4502ZM156.002 87.0654C156.207 87.0654 156.382 87.1361 156.528 87.2773C156.674 87.4186 156.747 87.5918 156.747 87.7969C156.747 87.9974 156.674 88.1706 156.528 88.3164C156.382 88.4622 156.207 88.5352 156.002 88.5352C155.811 88.5352 155.642 88.4622 155.496 88.3164C155.35 88.166 155.277 87.9928 155.277 87.7969C155.277 87.6055 155.35 87.4368 155.496 87.291C155.642 87.1406 155.811 87.0654 156.002 87.0654ZM155.387 89.7109H156.631V96H155.387V89.7109ZM159.47 89.7109V90.5107C160.026 89.8955 160.657 89.5879 161.363 89.5879C161.755 89.5879 162.12 89.6904 162.457 89.8955C162.794 90.096 163.049 90.374 163.223 90.7295C163.4 91.0804 163.489 91.6387 163.489 92.4043V96H162.245V92.418C162.245 91.7754 162.147 91.3174 161.951 91.0439C161.755 90.766 161.427 90.627 160.967 90.627C160.379 90.627 159.88 90.9209 159.47 91.5088V96H158.198V89.7109H159.47ZM169.213 86.4502H170.464V96H167.805C166.875 96 166.132 95.7061 165.576 95.1182C165.025 94.5303 164.749 93.7419 164.749 92.7529C164.749 91.8278 165.038 91.0667 165.617 90.4697C166.2 89.8727 166.943 89.5742 167.846 89.5742C168.265 89.5742 168.721 89.6631 169.213 89.8408V86.4502ZM169.213 94.9336V90.9482C168.825 90.7523 168.433 90.6543 168.037 90.6543C167.417 90.6543 166.923 90.8571 166.554 91.2627C166.189 91.6683 166.007 92.2152 166.007 92.9033C166.007 93.5505 166.166 94.0495 166.485 94.4004C166.677 94.61 166.879 94.7513 167.094 94.8242C167.308 94.8971 167.693 94.9336 168.249 94.9336H169.213ZM171.97 86.4502H173.214V96H171.97V86.4502ZM178.52 89.7109H179.922L175.471 99.2061H174.084L176.223 94.6533L173.79 89.7109H175.205L176.9 93.2588L178.52 89.7109ZM188.293 96V95.2002C188.028 95.4873 187.725 95.7106 187.384 95.8701C187.046 96.0296 186.709 96.1094 186.372 96.1094C185.975 96.1094 185.608 96.0114 185.271 95.8154C184.939 95.6149 184.686 95.346 184.512 95.0088C184.344 94.667 184.259 94.1019 184.259 93.3135V89.7109H185.504V93.2998C185.504 93.9606 185.597 94.4232 185.784 94.6875C185.975 94.9473 186.308 95.0771 186.782 95.0771C187.374 95.0771 187.878 94.7878 188.293 94.209V89.7109H189.537V96H188.293ZM190.995 99.2061V89.7109H193.175C194.292 89.7109 195.16 89.9889 195.78 90.5449C196.404 91.1009 196.716 91.8779 196.716 92.876C196.716 93.8193 196.423 94.5941 195.835 95.2002C195.251 95.8063 194.506 96.1094 193.599 96.1094C193.198 96.1094 192.754 96.0205 192.266 95.8428V99.2061H190.995ZM193.148 90.873H192.266V94.7422C192.649 94.9382 193.05 95.0361 193.469 95.0361C194.053 95.0361 194.529 94.8333 194.898 94.4277C195.272 94.0221 195.459 93.5003 195.459 92.8623C195.459 92.4521 195.37 92.0898 195.192 91.7754C195.019 91.4609 194.78 91.2331 194.474 91.0918C194.174 90.946 193.731 90.873 193.148 90.873ZM197.894 86.4502H199.138V96H197.894V86.4502ZM203.741 89.6973C204.698 89.6973 205.493 90.0072 206.127 90.627C206.76 91.2422 207.077 92.0169 207.077 92.9512C207.077 93.8581 206.755 94.6123 206.113 95.2139C205.47 95.8109 204.661 96.1094 203.686 96.1094C202.743 96.1094 201.954 95.8063 201.321 95.2002C200.687 94.5895 200.371 93.8285 200.371 92.917C200.371 91.9964 200.69 91.2308 201.328 90.6201C201.97 90.0049 202.775 89.6973 203.741 89.6973ZM203.672 90.8184C203.075 90.8184 202.586 91.0143 202.203 91.4062C201.82 91.7982 201.629 92.2972 201.629 92.9033C201.629 93.5049 201.824 93.9971 202.216 94.3799C202.608 94.7581 203.112 94.9473 203.727 94.9473C204.338 94.9473 204.837 94.7559 205.224 94.373C205.616 93.9857 205.812 93.4912 205.812 92.8896C205.812 92.2926 205.609 91.7982 205.204 91.4062C204.798 91.0143 204.288 90.8184 203.672 90.8184ZM212.199 92.2197V94.8926C212.199 95.1068 212.272 95.2139 212.418 95.2139C212.568 95.2139 212.803 95.1022 213.122 94.8789V95.6377C212.839 95.82 212.611 95.943 212.438 96.0068C212.269 96.0752 212.092 96.1094 211.905 96.1094C211.372 96.1094 211.057 95.8997 210.961 95.4805C210.433 95.8906 209.87 96.0957 209.273 96.0957C208.836 96.0957 208.471 95.9521 208.179 95.665C207.888 95.3734 207.742 95.0088 207.742 94.5713C207.742 94.1748 207.883 93.8216 208.166 93.5117C208.453 93.1973 208.858 92.9489 209.382 92.7666L210.975 92.2197V91.8848C210.975 91.1283 210.597 90.75 209.84 90.75C209.161 90.75 208.501 91.1009 207.858 91.8027V90.4424C208.341 89.8727 209.036 89.5879 209.943 89.5879C210.622 89.5879 211.167 89.7656 211.577 90.1211C211.713 90.235 211.836 90.3877 211.946 90.5791C212.055 90.766 212.124 90.9551 212.151 91.1465C212.183 91.3333 212.199 91.6911 212.199 92.2197ZM210.975 94.7559V92.8896L210.141 93.2109C209.717 93.3796 209.417 93.5505 209.239 93.7236C209.066 93.8923 208.979 94.1042 208.979 94.3594C208.979 94.6191 209.061 94.8311 209.225 94.9951C209.394 95.1592 209.61 95.2412 209.875 95.2412C210.271 95.2412 210.638 95.0794 210.975 94.7559ZM218.209 86.4502H219.46V96H216.801C215.872 96 215.129 95.7061 214.573 95.1182C214.021 94.5303 213.746 93.7419 213.746 92.7529C213.746 91.8278 214.035 91.0667 214.614 90.4697C215.197 89.8727 215.94 89.5742 216.842 89.5742C217.262 89.5742 217.717 89.6631 218.209 89.8408V86.4502ZM218.209 94.9336V90.9482C217.822 90.7523 217.43 90.6543 217.034 90.6543C216.414 90.6543 215.919 90.8571 215.55 91.2627C215.186 91.6683 215.003 92.2152 215.003 92.9033C215.003 93.5505 215.163 94.0495 215.482 94.4004C215.673 94.61 215.876 94.7513 216.09 94.8242C216.305 94.8971 216.69 94.9336 217.246 94.9336H218.209ZM225.268 87.0654C225.473 87.0654 225.649 87.1361 225.794 87.2773C225.94 87.4186 226.013 87.5918 226.013 87.7969C226.013 87.9974 225.94 88.1706 225.794 88.3164C225.649 88.4622 225.473 88.5352 225.268 88.5352C225.077 88.5352 224.908 88.4622 224.762 88.3164C224.616 88.166 224.543 87.9928 224.543 87.7969C224.543 87.6055 224.616 87.4368 224.762 87.291C224.908 87.1406 225.077 87.0654 225.268 87.0654ZM224.653 89.7109H225.897V96H224.653V89.7109ZM226.61 90.709L228.948 88.4121V89.7109H230.937V90.832H228.948V93.915C228.948 94.6351 229.246 94.9951 229.843 94.9951C230.29 94.9951 230.761 94.8447 231.258 94.5439V95.7061C230.78 95.9749 230.258 96.1094 229.693 96.1094C229.123 96.1094 228.649 95.943 228.271 95.6104C228.152 95.5101 228.054 95.3984 227.977 95.2754C227.899 95.1478 227.833 94.9837 227.779 94.7832C227.729 94.5781 227.704 94.1908 227.704 93.6211V90.832H226.61V90.709ZM239.581 92.2197V94.8926C239.581 95.1068 239.654 95.2139 239.8 95.2139C239.951 95.2139 240.185 95.1022 240.504 94.8789V95.6377C240.222 95.82 239.994 95.943 239.821 96.0068C239.652 96.0752 239.474 96.1094 239.287 96.1094C238.754 96.1094 238.44 95.8997 238.344 95.4805C237.815 95.8906 237.253 96.0957 236.656 96.0957C236.218 96.0957 235.854 95.9521 235.562 95.665C235.27 95.3734 235.124 95.0088 235.124 94.5713C235.124 94.1748 235.266 93.8216 235.548 93.5117C235.835 93.1973 236.241 92.9489 236.765 92.7666L238.358 92.2197V91.8848C238.358 91.1283 237.979 90.75 237.223 90.75C236.544 90.75 235.883 91.1009 235.241 91.8027V90.4424C235.724 89.8727 236.419 89.5879 237.326 89.5879C238.005 89.5879 238.549 89.7656 238.959 90.1211C239.096 90.235 239.219 90.3877 239.328 90.5791C239.438 90.766 239.506 90.9551 239.534 91.1465C239.565 91.3333 239.581 91.6911 239.581 92.2197ZM238.358 94.7559V92.8896L237.524 93.2109C237.1 93.3796 236.799 93.5505 236.621 93.7236C236.448 93.8923 236.362 94.1042 236.362 94.3594C236.362 94.6191 236.444 94.8311 236.608 94.9951C236.776 95.1592 236.993 95.2412 237.257 95.2412C237.654 95.2412 238.02 95.0794 238.358 94.7559ZM241.087 95.5488V94.209C241.438 94.4551 241.796 94.6556 242.16 94.8105C242.53 94.9609 242.839 95.0361 243.09 95.0361C243.35 95.0361 243.573 94.9723 243.76 94.8447C243.947 94.7171 244.04 94.5645 244.04 94.3867C244.04 94.2044 243.979 94.054 243.856 93.9355C243.737 93.8125 243.477 93.637 243.076 93.4092C242.274 92.9626 241.748 92.582 241.497 92.2676C241.251 91.9486 241.128 91.6022 241.128 91.2285C241.128 90.7454 241.315 90.3512 241.689 90.0459C242.067 89.7406 242.552 89.5879 243.145 89.5879C243.76 89.5879 244.391 89.7611 245.038 90.1074V91.3379C244.3 90.8913 243.696 90.668 243.227 90.668C242.985 90.668 242.789 90.7204 242.639 90.8252C242.493 90.9255 242.42 91.0599 242.42 91.2285C242.42 91.3743 242.486 91.5133 242.618 91.6455C242.755 91.7777 242.992 91.9372 243.329 92.124L243.774 92.377C244.822 92.9694 245.346 93.6257 245.346 94.3457C245.346 94.8607 245.143 95.2845 244.738 95.6172C244.337 95.9453 243.819 96.1094 243.186 96.1094C242.812 96.1094 242.479 96.0706 242.188 95.9932C241.896 95.9111 241.529 95.763 241.087 95.5488ZM254.209 92.2197V94.8926C254.209 95.1068 254.282 95.2139 254.428 95.2139C254.578 95.2139 254.813 95.1022 255.132 94.8789V95.6377C254.849 95.82 254.622 95.943 254.448 96.0068C254.28 96.0752 254.102 96.1094 253.915 96.1094C253.382 96.1094 253.068 95.8997 252.972 95.4805C252.443 95.8906 251.88 96.0957 251.283 96.0957C250.846 96.0957 250.481 95.9521 250.19 95.665C249.898 95.3734 249.752 95.0088 249.752 94.5713C249.752 94.1748 249.893 93.8216 250.176 93.5117C250.463 93.1973 250.869 92.9489 251.393 92.7666L252.986 92.2197V91.8848C252.986 91.1283 252.607 90.75 251.851 90.75C251.172 90.75 250.511 91.1009 249.868 91.8027V90.4424C250.351 89.8727 251.046 89.5879 251.953 89.5879C252.632 89.5879 253.177 89.7656 253.587 90.1211C253.724 90.235 253.847 90.3877 253.956 90.5791C254.066 90.766 254.134 90.9551 254.161 91.1465C254.193 91.3333 254.209 91.6911 254.209 92.2197ZM252.986 94.7559V92.8896L252.152 93.2109C251.728 93.3796 251.427 93.5505 251.249 93.7236C251.076 93.8923 250.989 94.1042 250.989 94.3594C250.989 94.6191 251.071 94.8311 251.236 94.9951C251.404 95.1592 251.621 95.2412 251.885 95.2412C252.281 95.2412 252.648 95.0794 252.986 94.7559ZM257.267 89.7109V90.5107C257.823 89.8955 258.454 89.5879 259.16 89.5879C259.552 89.5879 259.917 89.6904 260.254 89.8955C260.591 90.096 260.847 90.374 261.02 90.7295C261.197 91.0804 261.286 91.6387 261.286 92.4043V96H260.042V92.418C260.042 91.7754 259.944 91.3174 259.748 91.0439C259.552 90.766 259.224 90.627 258.764 90.627C258.176 90.627 257.677 90.9209 257.267 91.5088V96H255.995V89.7109H257.267ZM267.142 87.0654C267.347 87.0654 267.522 87.1361 267.668 87.2773C267.814 87.4186 267.887 87.5918 267.887 87.7969C267.887 87.9974 267.814 88.1706 267.668 88.3164C267.522 88.4622 267.347 88.5352 267.142 88.5352C266.95 88.5352 266.782 88.4622 266.636 88.3164C266.49 88.166 266.417 87.9928 266.417 87.7969C266.417 87.6055 266.49 87.4368 266.636 87.291C266.782 87.1406 266.95 87.0654 267.142 87.0654ZM266.526 89.7109H267.771V96H266.526V89.7109ZM274.52 91.4336V96H273.269V92.5C273.269 91.8027 273.175 91.3174 272.988 91.0439C272.801 90.766 272.476 90.627 272.011 90.627C271.751 90.627 271.512 90.6862 271.293 90.8047C271.079 90.9232 270.833 91.1328 270.555 91.4336V96H269.311V89.7109H270.555V90.5381C271.188 89.9046 271.808 89.5879 272.414 89.5879C273.212 89.5879 273.829 89.9661 274.267 90.7227C274.932 89.957 275.627 89.5742 276.352 89.5742C276.962 89.5742 277.464 89.7975 277.856 90.2441C278.252 90.6908 278.45 91.3721 278.45 92.2881V96H277.206V92.2744C277.206 91.7503 277.099 91.3493 276.885 91.0713C276.671 90.7933 276.363 90.6543 275.962 90.6543C275.447 90.6543 274.966 90.9141 274.52 91.4336ZM283.907 92.2197V94.8926C283.907 95.1068 283.98 95.2139 284.126 95.2139C284.276 95.2139 284.511 95.1022 284.83 94.8789V95.6377C284.548 95.82 284.32 95.943 284.146 96.0068C283.978 96.0752 283.8 96.1094 283.613 96.1094C283.08 96.1094 282.766 95.8997 282.67 95.4805C282.141 95.8906 281.578 96.0957 280.981 96.0957C280.544 96.0957 280.179 95.9521 279.888 95.665C279.596 95.3734 279.45 95.0088 279.45 94.5713C279.45 94.1748 279.591 93.8216 279.874 93.5117C280.161 93.1973 280.567 92.9489 281.091 92.7666L282.684 92.2197V91.8848C282.684 91.1283 282.305 90.75 281.549 90.75C280.87 90.75 280.209 91.1009 279.566 91.8027V90.4424C280.049 89.8727 280.744 89.5879 281.651 89.5879C282.33 89.5879 282.875 89.7656 283.285 90.1211C283.422 90.235 283.545 90.3877 283.654 90.5791C283.764 90.766 283.832 90.9551 283.859 91.1465C283.891 91.3333 283.907 91.6911 283.907 92.2197ZM282.684 94.7559V92.8896L281.85 93.2109C281.426 93.3796 281.125 93.5505 280.947 93.7236C280.774 93.8923 280.688 94.1042 280.688 94.3594C280.688 94.6191 280.77 94.8311 280.934 94.9951C281.102 95.1592 281.319 95.2412 281.583 95.2412C281.979 95.2412 282.346 95.0794 282.684 94.7559ZM285.399 91.8848C285.399 91.2148 285.643 90.6862 286.131 90.2988C286.623 89.9069 287.293 89.7109 288.141 89.7109H290.731V90.6816H289.46C289.706 90.9323 289.877 91.1602 289.973 91.3652C290.068 91.5703 290.116 91.805 290.116 92.0693C290.116 92.3975 290.023 92.721 289.836 93.04C289.649 93.3545 289.408 93.596 289.111 93.7646C288.82 93.9333 288.339 94.0677 287.669 94.168C287.199 94.2363 286.965 94.3981 286.965 94.6533C286.965 94.7992 287.051 94.9199 287.225 95.0156C287.402 95.1068 287.721 95.2025 288.182 95.3027C288.952 95.4714 289.446 95.6035 289.665 95.6992C289.888 95.7949 290.089 95.9316 290.267 96.1094C290.567 96.4102 290.718 96.7884 290.718 97.2441C290.718 97.8411 290.451 98.3174 289.918 98.6729C289.389 99.0283 288.681 99.2061 287.792 99.2061C286.894 99.2061 286.176 99.026 285.639 98.666C285.105 98.3105 284.839 97.832 284.839 97.2305C284.839 96.3783 285.365 95.8291 286.418 95.583C285.999 95.3141 285.789 95.0475 285.789 94.7832C285.789 94.5827 285.878 94.4004 286.056 94.2363C286.238 94.0723 286.482 93.9515 286.787 93.874C285.862 93.4639 285.399 92.8008 285.399 91.8848ZM287.737 90.791C287.4 90.791 287.113 90.9049 286.876 91.1328C286.639 91.3607 286.52 91.6341 286.52 91.9531C286.52 92.2767 286.637 92.5456 286.869 92.7598C287.102 92.9694 287.395 93.0742 287.751 93.0742C288.102 93.0742 288.394 92.9671 288.626 92.7529C288.863 92.5342 288.981 92.263 288.981 91.9395C288.981 91.6113 288.863 91.3379 288.626 91.1191C288.389 90.9004 288.093 90.791 287.737 90.791ZM287.443 96.2939C287.024 96.2939 286.68 96.3828 286.411 96.5605C286.147 96.7383 286.015 96.9661 286.015 97.2441C286.015 97.8913 286.598 98.2148 287.765 98.2148C288.316 98.2148 288.742 98.1328 289.043 97.9688C289.348 97.8092 289.501 97.5814 289.501 97.2852C289.501 96.9935 289.31 96.7542 288.927 96.5674C288.544 96.3851 288.049 96.2939 287.443 96.2939ZM296.845 92.9648H292.422C292.454 93.5664 292.654 94.0449 293.023 94.4004C293.397 94.7559 293.878 94.9336 294.466 94.9336C295.286 94.9336 296.043 94.6784 296.735 94.168V95.3848C296.352 95.64 295.972 95.8223 295.594 95.9316C295.22 96.041 294.78 96.0957 294.274 96.0957C293.582 96.0957 293.021 95.9521 292.593 95.665C292.164 95.3779 291.82 94.9928 291.56 94.5098C291.305 94.0221 291.178 93.4593 291.178 92.8213C291.178 91.8643 291.449 91.0872 291.991 90.4902C292.533 89.8887 293.238 89.5879 294.103 89.5879C294.937 89.5879 295.603 89.8796 296.1 90.4629C296.596 91.0462 296.845 91.8278 296.845 92.8076V92.9648ZM292.449 92.2197H295.614C295.582 91.723 295.434 91.3402 295.17 91.0713C294.906 90.8024 294.55 90.668 294.103 90.668C293.657 90.668 293.29 90.8024 293.003 91.0713C292.72 91.3402 292.536 91.723 292.449 92.2197ZM304.682 89.6973C305.639 89.6973 306.435 90.0072 307.068 90.627C307.702 91.2422 308.018 92.0169 308.018 92.9512C308.018 93.8581 307.697 94.6123 307.055 95.2139C306.412 95.8109 305.603 96.1094 304.628 96.1094C303.684 96.1094 302.896 95.8063 302.263 95.2002C301.629 94.5895 301.312 93.8285 301.312 92.917C301.312 91.9964 301.631 91.2308 302.269 90.6201C302.912 90.0049 303.716 89.6973 304.682 89.6973ZM304.614 90.8184C304.017 90.8184 303.527 91.0143 303.144 91.4062C302.762 91.7982 302.57 92.2972 302.57 92.9033C302.57 93.5049 302.766 93.9971 303.158 94.3799C303.55 94.7581 304.054 94.9473 304.669 94.9473C305.279 94.9473 305.778 94.7559 306.166 94.373C306.558 93.9857 306.754 93.4912 306.754 92.8896C306.754 92.2926 306.551 91.7982 306.145 91.4062C305.74 91.0143 305.229 90.8184 304.614 90.8184ZM310.522 89.7109V91.1533L310.591 91.0439C311.192 90.0732 311.794 89.5879 312.395 89.5879C312.865 89.5879 313.355 89.8249 313.865 90.2988L313.209 91.3926C312.776 90.9824 312.375 90.7773 312.006 90.7773C311.605 90.7773 311.256 90.9688 310.96 91.3516C310.668 91.7344 310.522 92.1878 310.522 92.7119V96H309.271V89.7109H310.522ZM318.134 99.2061V89.7109H320.315C321.432 89.7109 322.3 89.9889 322.92 90.5449C323.544 91.1009 323.856 91.8779 323.856 92.876C323.856 93.8193 323.562 94.5941 322.974 95.2002C322.391 95.8063 321.646 96.1094 320.739 96.1094C320.338 96.1094 319.894 96.0205 319.406 95.8428V99.2061H318.134ZM320.288 90.873H319.406V94.7422C319.789 94.9382 320.19 95.0361 320.609 95.0361C321.192 95.0361 321.669 94.8333 322.038 94.4277C322.412 94.0221 322.598 93.5003 322.598 92.8623C322.598 92.4521 322.509 92.0898 322.332 91.7754C322.159 91.4609 321.919 91.2331 321.614 91.0918C321.313 90.946 320.871 90.873 320.288 90.873ZM329.204 86.4502H330.455V96H327.796C326.866 96 326.123 95.7061 325.567 95.1182C325.016 94.5303 324.74 93.7419 324.74 92.7529C324.74 91.8278 325.029 91.0667 325.608 90.4697C326.191 89.8727 326.934 89.5742 327.837 89.5742C328.256 89.5742 328.712 89.6631 329.204 89.8408V86.4502ZM329.204 94.9336V90.9482C328.816 90.7523 328.424 90.6543 328.028 90.6543C327.408 90.6543 326.914 90.8571 326.545 91.2627C326.18 91.6683 325.998 92.2152 325.998 92.9033C325.998 93.5505 326.157 94.0495 326.476 94.4004C326.668 94.61 326.87 94.7513 327.085 94.8242C327.299 94.8971 327.684 94.9336 328.24 94.9336H329.204ZM332.077 89.7109V89.335C332.077 88.3232 332.291 87.569 332.719 87.0723C333.152 86.5755 333.67 86.3271 334.271 86.3271C334.531 86.3271 334.839 86.3682 335.194 86.4502V87.667C334.993 87.5941 334.802 87.5576 334.62 87.5576C334.132 87.5576 333.793 87.6875 333.601 87.9473C333.414 88.207 333.321 88.6696 333.321 89.335V89.7109H334.442V90.832H333.321V96H332.077V90.832H331.174V89.7109H332.077Z" fill="#575757"/>
<path d="M201.967 123.088V125.173C200.773 125.806 199.522 126.123 198.214 126.123C196.519 126.123 195.167 125.656 194.16 124.722C193.158 123.783 192.656 122.628 192.656 121.256C192.656 119.884 193.185 118.72 194.242 117.763C195.304 116.806 196.689 116.327 198.398 116.327C199.761 116.327 200.914 116.607 201.857 117.168V119.294C200.7 118.642 199.604 118.316 198.569 118.316C197.553 118.316 196.721 118.59 196.074 119.137C195.432 119.679 195.11 120.372 195.11 121.215C195.11 122.062 195.427 122.762 196.061 123.313C196.699 123.865 197.514 124.141 198.508 124.141C199 124.141 199.474 124.077 199.93 123.949C200.385 123.817 201.064 123.53 201.967 123.088ZM205.209 116.45V120.497H205.237C205.802 119.777 206.483 119.417 207.281 119.417C207.969 119.417 208.534 119.636 208.976 120.073C209.422 120.506 209.646 121.11 209.646 121.885V126H207.615V122.315C207.615 121.377 207.267 120.907 206.57 120.907C206.109 120.907 205.656 121.233 205.209 121.885V126H203.179V116.45H205.209ZM214.153 119.417C215.165 119.417 216.021 119.713 216.723 120.306C217.43 120.898 217.783 121.723 217.783 122.78C217.783 123.842 217.425 124.665 216.709 125.248C215.994 125.831 215.142 126.123 214.153 126.123C213.082 126.123 212.205 125.813 211.521 125.193C210.842 124.569 210.502 123.76 210.502 122.767C210.502 121.755 210.849 120.944 211.541 120.333C212.239 119.722 213.109 119.417 214.153 119.417ZM214.153 124.92C215.124 124.92 215.609 124.188 215.609 122.726C215.609 121.326 215.124 120.627 214.153 120.627C213.688 120.627 213.323 120.812 213.059 121.181C212.799 121.55 212.669 122.078 212.669 122.767C212.669 124.202 213.164 124.92 214.153 124.92ZM221.989 119.417C223.001 119.417 223.857 119.713 224.559 120.306C225.266 120.898 225.619 121.723 225.619 122.78C225.619 123.842 225.261 124.665 224.546 125.248C223.83 125.831 222.978 126.123 221.989 126.123C220.918 126.123 220.041 125.813 219.357 125.193C218.678 124.569 218.339 123.76 218.339 122.767C218.339 121.755 218.685 120.944 219.378 120.333C220.075 119.722 220.945 119.417 221.989 119.417ZM221.989 124.92C222.96 124.92 223.445 124.188 223.445 122.726C223.445 121.326 222.96 120.627 221.989 120.627C221.524 120.627 221.16 120.812 220.895 121.181C220.635 121.55 220.506 122.078 220.506 122.767C220.506 124.202 221 124.92 221.989 124.92ZM230.933 119.896V121.338C230.158 120.864 229.44 120.627 228.779 120.627C228.292 120.627 228.048 120.793 228.048 121.126C228.048 121.213 228.098 121.299 228.198 121.386C228.303 121.468 228.697 121.646 229.381 121.919C230.064 122.188 230.547 122.5 230.83 122.855C231.113 123.211 231.254 123.601 231.254 124.024C231.254 124.694 231.026 125.212 230.57 125.576C230.115 125.941 229.465 126.123 228.622 126.123C227.756 126.123 226.986 125.966 226.311 125.651V124.223C227.141 124.587 227.836 124.77 228.396 124.77C229.053 124.77 229.381 124.61 229.381 124.291C229.381 124.168 229.319 124.052 229.196 123.942C229.078 123.833 228.672 123.644 227.979 123.375C227.287 123.106 226.813 122.81 226.558 122.486C226.302 122.163 226.175 121.803 226.175 121.406C226.175 120.818 226.419 120.34 226.906 119.971C227.398 119.602 228.046 119.417 228.848 119.417C229.618 119.417 230.313 119.576 230.933 119.896ZM238.277 123.997V125.275C237.502 125.84 236.543 126.123 235.399 126.123C234.264 126.123 233.357 125.82 232.678 125.214C231.999 124.603 231.659 123.797 231.659 122.794C231.659 121.81 231.978 121.001 232.616 120.367C233.254 119.734 234.068 119.417 235.057 119.417C236.05 119.417 236.864 119.752 237.497 120.422C238.135 121.087 238.434 121.98 238.393 123.102H233.758C233.799 123.685 234.006 124.134 234.38 124.448C234.754 124.763 235.255 124.92 235.884 124.92C236.645 124.92 237.443 124.612 238.277 123.997ZM233.799 122.035H236.602C236.492 121.096 236.025 120.627 235.2 120.627C234.366 120.627 233.899 121.096 233.799 122.035ZM249.212 124.407V125.535C248.537 125.927 247.904 126.123 247.311 126.123C246.673 126.123 246.295 125.882 246.176 125.398C245.47 125.882 244.761 126.123 244.05 126.123C243.549 126.123 243.123 125.966 242.772 125.651C242.421 125.332 242.246 124.963 242.246 124.544C242.246 123.983 242.426 123.532 242.786 123.19C243.15 122.844 244.249 122.4 246.081 121.857C246.126 121.137 245.753 120.777 244.96 120.777C244.098 120.777 243.305 121.137 242.581 121.857V120.203C243.428 119.679 244.36 119.417 245.377 119.417C247.2 119.417 248.111 120.071 248.111 121.379V124.318C248.111 124.619 248.223 124.77 248.446 124.77C248.615 124.77 248.87 124.649 249.212 124.407ZM246.081 124.435V122.876C245.402 123.113 244.935 123.327 244.679 123.519C244.429 123.705 244.303 123.945 244.303 124.236C244.303 124.423 244.367 124.585 244.495 124.722C244.622 124.854 244.777 124.92 244.96 124.92C245.342 124.92 245.716 124.758 246.081 124.435ZM255.3 119.547H256.223V120.935H255.3V126H253.27V120.935H252.347V119.547H253.27V119.226C253.27 118.319 253.525 117.61 254.035 117.1C254.546 116.585 255.234 116.327 256.1 116.327C256.309 116.327 256.72 116.368 257.33 116.45V118.091C256.906 118.036 256.603 118.009 256.421 118.009C255.674 118.009 255.3 118.385 255.3 119.137V119.547ZM256.642 117.448C256.642 117.138 256.751 116.874 256.97 116.655C257.189 116.437 257.451 116.327 257.756 116.327C258.066 116.327 258.33 116.437 258.549 116.655C258.768 116.874 258.877 117.138 258.877 117.448C258.877 117.754 258.768 118.018 258.549 118.241C258.33 118.46 258.066 118.569 257.756 118.569C257.451 118.569 257.189 118.46 256.97 118.241C256.751 118.018 256.642 117.754 256.642 117.448ZM258.782 119.547V126H256.751V119.547H258.782ZM262.092 116.45V126H260.062V116.45H262.092ZM269.628 123.997V125.275C268.853 125.84 267.894 126.123 266.75 126.123C265.615 126.123 264.708 125.82 264.029 125.214C263.35 124.603 263.011 123.797 263.011 122.794C263.011 121.81 263.33 121.001 263.968 120.367C264.606 119.734 265.419 119.417 266.408 119.417C267.402 119.417 268.215 119.752 268.849 120.422C269.487 121.087 269.785 121.98 269.744 123.102H265.109C265.15 123.685 265.358 124.134 265.731 124.448C266.105 124.763 266.606 124.92 267.235 124.92C267.996 124.92 268.794 124.612 269.628 123.997ZM265.15 122.035H267.953C267.844 121.096 267.377 120.627 266.552 120.627C265.718 120.627 265.251 121.096 265.15 122.035Z" fill="#007A61"/>
<path d="M283.073 119.348L285.402 119.348C285.678 119.348 285.902 119.572 285.902 119.848L285.902 122.176" stroke="#007A61" stroke-width="0.75" stroke-linecap="round"/>
<path d="M285.548 119.699L280.599 124.648" stroke="#007A61" stroke-width="0.75" stroke-linecap="round"/>
<defs>
<clipPath id="clip0_977_42353">
<rect width="20" height="20" fill="white" transform="translate(230.5 40)"/>
</clipPath>
</defs>
</svg>
