<svg width="150" height="45" viewBox="0 0 150 45" fill="none" xmlns="http://www.w3.org/2000/svg">
<g filter="url(#filter0_d_2765_170206)">
<rect x="4" width="142" height="37" rx="18.5" fill="white"/>
<path d="M29 11C24.86 11 21.5 14.36 21.5 18.5C21.5 22.64 24.86 26 29 26C33.14 26 36.5 22.64 36.5 18.5C36.5 14.36 33.14 11 29 11ZM30.995 19.7975L30.035 20.3525L29.075 20.9075C27.8375 21.62 26.825 21.035 26.825 19.61V18.5V17.39C26.825 15.9575 27.8375 15.38 29.075 16.0925L30.035 16.6475L30.995 17.2025C32.2325 17.915 32.2325 19.085 30.995 19.7975Z" fill="#007A61"/>
<path d="M55.2139 13.4502H56.5742L52.7119 23.041H52.418L49.2939 15.2754L46.1426 23.041H45.8486L42 13.4502H43.374L46.0059 20.0332L48.6514 13.4502H49.9502L52.6094 20.0332L55.2139 13.4502ZM60.5732 19.2197V21.8926C60.5732 22.1068 60.6462 22.2139 60.792 22.2139C60.9424 22.2139 61.1771 22.1022 61.4961 21.8789V22.6377C61.2135 22.82 60.9857 22.943 60.8125 23.0068C60.6439 23.0752 60.4661 23.1094 60.2793 23.1094C59.7461 23.1094 59.4316 22.8997 59.3359 22.4805C58.8073 22.8906 58.2445 23.0957 57.6475 23.0957C57.21 23.0957 56.8454 22.9521 56.5537 22.665C56.262 22.3734 56.1162 22.0088 56.1162 21.5713C56.1162 21.1748 56.2575 20.8216 56.54 20.5117C56.8271 20.1973 57.2327 19.9489 57.7568 19.7666L59.3496 19.2197V18.8848C59.3496 18.1283 58.9714 17.75 58.2148 17.75C57.5358 17.75 56.875 18.1009 56.2324 18.8027V17.4424C56.7155 16.8727 57.4105 16.5879 58.3174 16.5879C58.9964 16.5879 59.541 16.7656 59.9512 17.1211C60.0879 17.235 60.2109 17.3877 60.3203 17.5791C60.4297 17.766 60.498 17.9551 60.5254 18.1465C60.5573 18.3333 60.5732 18.6911 60.5732 19.2197ZM59.3496 21.7559V19.8896L58.5156 20.2109C58.0918 20.3796 57.791 20.5505 57.6133 20.7236C57.4401 20.8923 57.3535 21.1042 57.3535 21.3594C57.3535 21.6191 57.4355 21.8311 57.5996 21.9951C57.7682 22.1592 57.9847 22.2412 58.249 22.2412C58.6455 22.2412 59.0124 22.0794 59.3496 21.7559ZM61.7148 17.709L64.0527 15.4121V16.7109H66.042V17.832H64.0527V20.915C64.0527 21.6351 64.3512 21.9951 64.9482 21.9951C65.3949 21.9951 65.8665 21.8447 66.3633 21.5439V22.7061C65.8848 22.9749 65.363 23.1094 64.7979 23.1094C64.2282 23.1094 63.7542 22.943 63.376 22.6104C63.2575 22.5101 63.1595 22.3984 63.082 22.2754C63.0046 22.1478 62.9385 21.9837 62.8838 21.7832C62.8337 21.5781 62.8086 21.1908 62.8086 20.6211V17.832H61.7148V17.709ZM71.9756 21.5303V22.7607C71.3512 22.9932 70.7406 23.1094 70.1436 23.1094C69.1592 23.1094 68.373 22.8177 67.7852 22.2344C67.2018 21.651 66.9102 20.8695 66.9102 19.8896C66.9102 18.9007 67.195 18.1032 67.7646 17.4971C68.3343 16.891 69.084 16.5879 70.0137 16.5879C70.3372 16.5879 70.6266 16.6198 70.8818 16.6836C71.1416 16.7428 71.4606 16.8568 71.8389 17.0254V18.3516C71.21 17.9505 70.6266 17.75 70.0889 17.75C69.5283 17.75 69.068 17.9482 68.708 18.3447C68.348 18.7367 68.168 19.238 68.168 19.8486C68.168 20.4912 68.3617 21.0016 68.749 21.3799C69.141 21.7581 69.6673 21.9473 70.3281 21.9473C70.8066 21.9473 71.3558 21.8083 71.9756 21.5303ZM73.3701 13.4502H74.6143V17.5381C75.1338 16.9046 75.7786 16.5879 76.5488 16.5879C76.9681 16.5879 77.3441 16.6927 77.6768 16.9023C78.0094 17.112 78.2555 17.4014 78.415 17.7705C78.5791 18.1396 78.6611 18.6888 78.6611 19.418V23H77.417V19.1104C77.417 18.6501 77.3031 18.2809 77.0752 18.0029C76.8519 17.7204 76.5557 17.5791 76.1865 17.5791C75.9131 17.5791 75.6556 17.6497 75.4141 17.791C75.1725 17.9323 74.9059 18.167 74.6143 18.4951V23H73.3701V13.4502ZM83.4121 17.709L85.75 15.4121V16.7109H87.7393V17.832H85.75V20.915C85.75 21.6351 86.0485 21.9951 86.6455 21.9951C87.0921 21.9951 87.5638 21.8447 88.0605 21.5439V22.7061C87.582 22.9749 87.0602 23.1094 86.4951 23.1094C85.9255 23.1094 85.4515 22.943 85.0732 22.6104C84.9548 22.5101 84.8568 22.3984 84.7793 22.2754C84.7018 22.1478 84.6357 21.9837 84.5811 21.7832C84.5309 21.5781 84.5059 21.1908 84.5059 20.6211V17.832H83.4121V17.709ZM92.9619 23V22.2002C92.6976 22.4873 92.3945 22.7106 92.0527 22.8701C91.7155 23.0296 91.3783 23.1094 91.041 23.1094C90.6445 23.1094 90.2777 23.0114 89.9404 22.8154C89.6077 22.6149 89.3548 22.346 89.1816 22.0088C89.013 21.667 88.9287 21.1019 88.9287 20.3135V16.7109H90.1729V20.2998C90.1729 20.9606 90.2663 21.4232 90.4531 21.6875C90.6445 21.9473 90.9772 22.0771 91.4512 22.0771C92.0436 22.0771 92.5472 21.7878 92.9619 21.209V16.7109H94.2061V23H92.9619ZM95.0742 17.709L97.4121 15.4121V16.7109H99.4014V17.832H97.4121V20.915C97.4121 21.6351 97.7106 21.9951 98.3076 21.9951C98.7542 21.9951 99.2259 21.8447 99.7227 21.5439V22.7061C99.2441 22.9749 98.7223 23.1094 98.1572 23.1094C97.5876 23.1094 97.1136 22.943 96.7354 22.6104C96.6169 22.5101 96.5189 22.3984 96.4414 22.2754C96.3639 22.1478 96.2979 21.9837 96.2432 21.7832C96.193 21.5781 96.168 21.1908 96.168 20.6211V17.832H95.0742V17.709ZM103.626 16.6973C104.583 16.6973 105.378 17.0072 106.012 17.627C106.645 18.2422 106.962 19.0169 106.962 19.9512C106.962 20.8581 106.641 21.6123 105.998 22.2139C105.355 22.8109 104.547 23.1094 103.571 23.1094C102.628 23.1094 101.84 22.8063 101.206 22.2002C100.573 21.5895 100.256 20.8285 100.256 19.917C100.256 18.9964 100.575 18.2308 101.213 17.6201C101.855 17.0049 102.66 16.6973 103.626 16.6973ZM103.558 17.8184C102.961 17.8184 102.471 18.0143 102.088 18.4062C101.705 18.7982 101.514 19.2972 101.514 19.9033C101.514 20.5049 101.71 20.9971 102.102 21.3799C102.493 21.7581 102.997 21.9473 103.612 21.9473C104.223 21.9473 104.722 21.7559 105.109 21.373C105.501 20.9857 105.697 20.4912 105.697 19.8896C105.697 19.2926 105.494 18.7982 105.089 18.4062C104.683 18.0143 104.173 17.8184 103.558 17.8184ZM109.676 16.7109V18.1533L109.744 18.0439C110.346 17.0732 110.947 16.5879 111.549 16.5879C112.018 16.5879 112.508 16.8249 113.019 17.2988L112.362 18.3926C111.929 17.9824 111.528 17.7773 111.159 17.7773C110.758 17.7773 110.41 17.9688 110.113 18.3516C109.822 18.7344 109.676 19.1878 109.676 19.7119V23H108.425V16.7109H109.676ZM114.536 14.0654C114.741 14.0654 114.917 14.1361 115.062 14.2773C115.208 14.4186 115.281 14.5918 115.281 14.7969C115.281 14.9974 115.208 15.1706 115.062 15.3164C114.917 15.4622 114.741 15.5352 114.536 15.5352C114.345 15.5352 114.176 15.4622 114.03 15.3164C113.884 15.166 113.812 14.9928 113.812 14.7969C113.812 14.6055 113.884 14.4368 114.03 14.291C114.176 14.1406 114.345 14.0654 114.536 14.0654ZM113.921 16.7109H115.165V23H113.921V16.7109ZM120.921 19.2197V21.8926C120.921 22.1068 120.994 22.2139 121.14 22.2139C121.29 22.2139 121.525 22.1022 121.844 21.8789V22.6377C121.561 22.82 121.333 22.943 121.16 23.0068C120.992 23.0752 120.814 23.1094 120.627 23.1094C120.094 23.1094 119.779 22.8997 119.684 22.4805C119.155 22.8906 118.592 23.0957 117.995 23.0957C117.558 23.0957 117.193 22.9521 116.901 22.665C116.61 22.3734 116.464 22.0088 116.464 21.5713C116.464 21.1748 116.605 20.8216 116.888 20.5117C117.175 20.1973 117.58 19.9489 118.104 19.7666L119.697 19.2197V18.8848C119.697 18.1283 119.319 17.75 118.562 17.75C117.883 17.75 117.223 18.1009 116.58 18.8027V17.4424C117.063 16.8727 117.758 16.5879 118.665 16.5879C119.344 16.5879 119.889 16.7656 120.299 17.1211C120.436 17.235 120.559 17.3877 120.668 17.5791C120.777 17.766 120.846 17.9551 120.873 18.1465C120.905 18.3333 120.921 18.6911 120.921 19.2197ZM119.697 21.7559V19.8896L118.863 20.2109C118.439 20.3796 118.139 20.5505 117.961 20.7236C117.788 20.8923 117.701 21.1042 117.701 21.3594C117.701 21.6191 117.783 21.8311 117.947 21.9951C118.116 22.1592 118.332 22.2412 118.597 22.2412C118.993 22.2412 119.36 22.0794 119.697 21.7559ZM122.972 13.4502H124.216V23H122.972V13.4502Z" fill="#007A61"/>
</g>
<defs>
<filter id="filter0_d_2765_170206" x="0" y="0" width="150" height="45" filterUnits="userSpaceOnUse" color-interpolation-filters="sRGB">
<feFlood flood-opacity="0" result="BackgroundImageFix"/>
<feColorMatrix in="SourceAlpha" type="matrix" values="0 0 0 0 0 0 0 0 0 0 0 0 0 0 0 0 0 0 127 0" result="hardAlpha"/>
<feMorphology radius="2" operator="erode" in="SourceAlpha" result="effect1_dropShadow_2765_170206"/>
<feOffset dy="4"/>
<feGaussianBlur stdDeviation="3"/>
<feColorMatrix type="matrix" values="0 0 0 0 0.0627451 0 0 0 0 0.156863 0 0 0 0 0.0658824 0 0 0 0.05 0"/>
<feBlend mode="normal" in2="BackgroundImageFix" result="effect1_dropShadow_2765_170206"/>
<feBlend mode="normal" in="SourceGraphic" in2="effect1_dropShadow_2765_170206" result="shape"/>
</filter>
</defs>
</svg>
