<svg width="57" height="56" viewBox="0 0 57 56" fill="none" xmlns="http://www.w3.org/2000/svg">
<rect x="4.5" y="4" width="48" height="48" rx="24" fill="#FEF0C7"/>
<rect x="4.5" y="4" width="48" height="48" rx="24" stroke="#FFFAEB" stroke-width="8"/>
<path d="M28.4998 24.0012V28.0012M28.4998 32.0012H28.5098M26.7898 18.8612L18.3198 33.0012C18.1451 33.3036 18.0527 33.6465 18.0518 33.9957C18.0508 34.3449 18.1413 34.6883 18.3142 34.9917C18.4871 35.2951 18.7365 35.5479 19.0375 35.725C19.3385 35.9021 19.6806 35.9973 20.0298 36.0012H36.9698C37.319 35.9973 37.6611 35.9021 37.9621 35.725C38.2631 35.5479 38.5124 35.2951 38.6854 34.9917C38.8583 34.6883 38.9488 34.3449 38.9478 33.9957C38.9468 33.6465 38.8544 33.3036 38.6798 33.0012L30.2098 18.8612C30.0315 18.5673 29.7805 18.3243 29.481 18.1557C29.1814 17.987 28.8435 17.8984 28.4998 17.8984C28.156 17.8984 27.8181 17.987 27.5186 18.1557C27.2191 18.3243 26.968 18.5673 26.7898 18.8612Z" stroke="#DC6803" stroke-width="2" stroke-linecap="round" stroke-linejoin="round"/>
</svg>
