<svg width="108" height="27" viewBox="0 0 108 27" fill="none" xmlns="http://www.w3.org/2000/svg">
<path d="M17.3242 7.79102L11.418 20.2461H9.36719L0.972656 0.900391H6.01758L10.5156 11.4551L15.4238 0.900391H19.252L24.1602 11.4551L28.6309 0.900391H33.6758L25.3086 20.2461H23.2578L17.3242 7.79102ZM45.4336 15.9941V18.5508C43.8841 19.681 41.9655 20.2461 39.6777 20.2461C37.4082 20.2461 35.5944 19.64 34.2363 18.4277C32.8783 17.2064 32.1992 15.5931 32.1992 13.5879C32.1992 11.6191 32.8372 10.0013 34.1133 8.73438C35.3893 7.46745 37.0163 6.83398 38.9941 6.83398C40.9811 6.83398 42.6081 7.50391 43.875 8.84375C45.151 10.1745 45.748 11.9609 45.666 14.2031H36.3965C36.4785 15.3698 36.8932 16.2676 37.6406 16.8965C38.388 17.5254 39.3906 17.8398 40.6484 17.8398C42.1706 17.8398 43.7656 17.2246 45.4336 15.9941ZM36.4785 12.0703H42.084C41.8652 10.1927 40.931 9.25391 39.2812 9.25391C37.6133 9.25391 36.679 10.1927 36.4785 12.0703ZM52.3516 7.09375V8.93945C53.5456 7.53581 54.9447 6.83398 56.5488 6.83398C57.8887 6.83398 59.0052 7.26237 59.8984 8.11914C60.8008 8.97591 61.252 10.2018 61.252 11.7969V20H57.1914V12.1387C57.1914 10.416 56.5215 9.55469 55.1816 9.55469C54.2246 9.55469 53.2812 10.2656 52.3516 11.6875V20H48.291V7.09375H52.3516ZM77.7949 16.8145V19.0703C76.446 19.8542 75.179 20.2461 73.9941 20.2461C72.7181 20.2461 71.9616 19.763 71.7246 18.7969C70.3118 19.763 68.8945 20.2461 67.4727 20.2461C66.4701 20.2461 65.6178 19.9316 64.916 19.3027C64.2142 18.6647 63.8633 17.9264 63.8633 17.0879C63.8633 15.9668 64.2233 15.0645 64.9434 14.3809C65.6725 13.6882 67.8691 12.7995 71.5332 11.7148C71.6243 10.2747 70.877 9.55469 69.291 9.55469C67.5684 9.55469 65.9824 10.2747 64.5332 11.7148V8.40625C66.2285 7.35807 68.0924 6.83398 70.125 6.83398C73.7708 6.83398 75.5938 8.14193 75.5938 10.7578V16.6367C75.5938 17.2383 75.8171 17.5391 76.2637 17.5391C76.6009 17.5391 77.1113 17.2975 77.7949 16.8145ZM71.5332 16.8691V13.752C70.1751 14.2259 69.2409 14.6543 68.7305 15.0371C68.2292 15.4108 67.9785 15.8893 67.9785 16.4727C67.9785 16.8464 68.1061 17.1699 68.3613 17.4434C68.6165 17.7077 68.9264 17.8398 69.291 17.8398C70.0566 17.8398 70.804 17.5163 71.5332 16.8691ZM79.3535 2.89648C79.3535 2.27669 79.5723 1.74805 80.0098 1.31055C80.4473 0.873047 80.9714 0.654297 81.582 0.654297C82.2018 0.654297 82.7305 0.873047 83.168 1.31055C83.6055 1.74805 83.8242 2.27669 83.8242 2.89648C83.8242 3.50716 83.6055 4.03581 83.168 4.48242C82.7305 4.91992 82.2018 5.13867 81.582 5.13867C80.9714 5.13867 80.4473 4.91992 80.0098 4.48242C79.5723 4.03581 79.3535 3.50716 79.3535 2.89648ZM83.6328 7.09375V20H79.5723V7.09375H83.6328ZM87.0371 2.89648C87.0371 2.27669 87.2559 1.74805 87.6934 1.31055C88.1309 0.873047 88.6595 0.654297 89.2793 0.654297C89.89 0.654297 90.4141 0.873047 90.8516 1.31055C91.2891 1.74805 91.5078 2.27669 91.5078 2.89648C91.5078 3.50716 91.2891 4.03581 90.8516 4.48242C90.4141 4.91992 89.89 5.13867 89.2793 5.13867C88.6595 5.13867 88.1309 4.91992 87.6934 4.48242C87.2559 4.03581 87.0371 3.50716 87.0371 2.89648ZM91.3164 7.09375V20.3691C91.3164 22.1374 90.8743 23.5501 89.9902 24.6074C89.1152 25.6647 87.9349 26.2754 86.4492 26.4395L85.1641 22.7754C86.5586 22.5658 87.2559 21.4355 87.2559 19.3848V7.09375H91.3164ZM107.873 16.8145V19.0703C106.524 19.8542 105.257 20.2461 104.072 20.2461C102.796 20.2461 102.04 19.763 101.803 18.7969C100.39 19.763 98.9727 20.2461 97.5508 20.2461C96.5482 20.2461 95.696 19.9316 94.9941 19.3027C94.2923 18.6647 93.9414 17.9264 93.9414 17.0879C93.9414 15.9668 94.3014 15.0645 95.0215 14.3809C95.7507 13.6882 97.9473 12.7995 101.611 11.7148C101.702 10.2747 100.955 9.55469 99.3691 9.55469C97.6465 9.55469 96.0605 10.2747 94.6113 11.7148V8.40625C96.3066 7.35807 98.1706 6.83398 100.203 6.83398C103.849 6.83398 105.672 8.14193 105.672 10.7578V16.6367C105.672 17.2383 105.895 17.5391 106.342 17.5391C106.679 17.5391 107.189 17.2975 107.873 16.8145ZM101.611 16.8691V13.752C100.253 14.2259 99.319 14.6543 98.8086 15.0371C98.3073 15.4108 98.0566 15.8893 98.0566 16.4727C98.0566 16.8464 98.1842 17.1699 98.4395 17.4434C98.6947 17.7077 99.0046 17.8398 99.3691 17.8398C100.135 17.8398 100.882 17.5163 101.611 16.8691Z" fill="white"/>
</svg>
