<svg width="21" height="17" viewBox="0 0 21 17" fill="none" xmlns="http://www.w3.org/2000/svg">
<path fill-rule="evenodd" clip-rule="evenodd" d="M1.72051 7.12211C7.00879 4.8181 10.5351 3.29915 12.2996 2.56527C17.3373 0.469887 18.3841 0.105897 19.0664 0.0938782C19.2165 0.0912347 19.552 0.128425 19.7694 0.304784C19.9529 0.453698 20.0034 0.654859 20.0275 0.796046C20.0517 0.937233 20.0818 1.25886 20.0579 1.51017C19.7849 4.37859 18.6036 11.3395 18.0027 14.5521C17.7484 15.9115 17.2477 16.3673 16.7629 16.412C15.7095 16.5089 14.9096 15.7158 13.8892 15.0469C12.2927 14.0004 11.3907 13.3489 9.84092 12.3276C8.0499 11.1473 9.21094 10.4986 10.2316 9.43851C10.4988 9.16106 15.1403 4.93927 15.2301 4.55628C15.2413 4.50839 15.2518 4.32984 15.1457 4.23556C15.0396 4.14129 14.8831 4.17353 14.7701 4.19917C14.61 4.23551 12.0594 5.92134 7.1184 9.25665C6.39443 9.75379 5.73868 9.99601 5.15115 9.98331C4.50344 9.96932 3.25752 9.61709 2.33131 9.31602C1.19526 8.94673 0.292361 8.75149 0.370984 8.12434C0.411935 7.79768 0.861778 7.4636 1.72051 7.12211Z" fill="white"/>
</svg>
